# Blender 5.1.1
# www.blender.org
mtllib AltarBaseDetail.mtl
o Plane.000_1.002
v -2.668749 3.010437 2.737560
v -8.149292 3.010437 2.737560
v -8.149292 3.010437 1.929467
v -2.668749 3.010437 1.929467
v -2.668749 3.010436 -1.837160
v -8.149296 3.010436 -1.837160
v -8.149296 3.010435 -2.645253
v -2.668749 3.010435 -2.645253
v -2.668749 3.010437 1.911877
v -8.149292 3.010437 1.911877
v -8.149296 3.010436 -1.819570
v -2.668749 3.010436 -1.819570
v -8.166882 3.010437 1.929467
v -8.166882 3.010437 1.911877
v -2.651159 3.010436 -1.837160
v -2.651159 3.010436 -1.819570
v -2.651159 3.010437 2.737560
v -2.651159 3.010437 2.755150
v -2.668749 3.010437 2.755150
v -2.651159 3.010437 1.911877
v -2.651159 3.010437 1.929467
v -2.651159 3.010435 -2.645253
v -8.149292 3.010437 2.755150
vn -0.0000 1.0000 -0.0000
vt 0.754560 0.825930
vt 0.754560 0.224070
vt 0.656560 0.224070
vt 0.656560 0.825930
vt 0.199740 0.825930
vt 0.199740 0.224070
vt 0.101740 0.224070
vt 0.101740 0.825930
vt 0.654420 0.825930
vt 0.654420 0.224070
vt 0.201880 0.224070
vt 0.201880 0.825930
vt 0.656560 0.222140
vt 0.654420 0.222140
vt 0.199740 0.827860
vt 0.201880 0.827860
vt 0.754560 0.827860
vt 0.756700 0.827860
vt 0.756700 0.825930
vt 0.654420 0.827860
vt 0.656560 0.827860
vt 0.101740 0.827860
vt 0.756700 0.224070
s 0
usemtl estrade-centre.003
f 1/1/1 3/3/1 2/2/1
f 1/1/1 4/4/1 3/3/1
f 5/5/1 7/7/1 6/6/1
f 5/5/1 8/8/1 7/7/1
f 9/9/1 11/11/1 10/10/1
f 9/9/1 12/12/1 11/11/1
f 3/3/1 14/14/1 13/13/1
f 3/3/1 10/10/1 14/14/1
f 5/5/1 16/16/1 15/15/1
f 5/5/1 12/12/1 16/16/1
f 1/1/1 18/18/1 17/17/1
f 1/1/1 19/19/1 18/18/1
f 10/10/1 4/4/1 9/9/1
f 10/10/1 3/3/1 4/4/1
f 6/6/1 12/12/1 5/5/1
f 6/6/1 11/11/1 12/12/1
f 9/9/1 16/16/1 12/12/1
f 9/9/1 20/20/1 16/16/1
f 1/1/1 21/21/1 4/4/1
f 1/1/1 17/17/1 21/21/1
f 5/5/1 22/22/1 8/8/1
f 5/5/1 15/15/1 22/22/1
f 2/2/1 19/19/1 1/1/1
f 2/2/1 23/23/1 19/19/1
