# Blender 5.1.1
# www.blender.org
mtllib AltarBase.mtl
o Plane.000
v 15.047812 3.786595 8.019699
v 15.027812 3.766595 8.019699
v 15.047812 3.766595 8.039700
v 31.286327 3.786595 8.019699
v 31.286327 3.766595 8.039700
v 31.306328 3.766595 8.019699
v 15.047813 3.786595 -7.976083
v 15.047813 3.766595 -7.996083
v 15.027813 3.766595 -7.976083
v 31.286327 3.786595 -7.976084
v 31.306328 3.766595 -7.976084
v 31.286327 3.766595 -7.996084
v 15.027813 3.766595 -4.260863
v 15.017840 3.766595 -4.223527
v 15.007812 3.786595 -4.165982
v 15.047813 3.786595 -4.220863
v 15.047813 3.786595 -4.260863
v 15.007812 3.786595 4.209600
v 15.017839 3.766595 4.267145
v 15.027812 3.766595 4.304482
v 15.047812 3.786595 4.304482
v 15.047812 3.786595 4.264482
v 31.286327 3.786595 4.304481
v 31.306328 3.766595 4.304481
v 31.306328 3.766595 4.264481
v 31.286327 3.786595 4.264481
v 31.286327 3.786595 -4.220865
v 31.306328 3.766595 -4.220865
v 31.306328 3.766595 -4.260865
v 31.286327 3.786595 -4.260865
v 14.698134 3.786595 -3.866190
v 14.738135 3.786595 -3.881420
v 14.735999 3.766595 -3.902735
v 14.699120 3.766595 -3.887547
v 14.738135 3.786595 3.925038
v 14.698134 3.786595 3.909809
v 14.699120 3.766595 3.931165
v 14.735999 3.766595 3.946354
v 14.381593 3.786595 -3.766550
v 14.421594 3.786595 -3.776070
v 14.420609 3.766595 -3.796784
v 14.381927 3.766595 -3.786951
v 14.381593 3.786595 3.810169
v 14.381927 3.766595 3.830569
v 14.420609 3.766595 3.840403
v 14.421594 3.786595 3.819688
v 14.159889 3.786595 -3.716444
v 14.199890 3.786595 -3.732953
v 14.199556 3.766595 -3.753230
v 14.162197 3.766595 -3.740268
v 14.159889 3.786595 3.760063
v 14.162197 3.766595 3.783887
v 14.199556 3.766595 3.796848
v 14.199890 3.786595 3.776571
v 13.936279 3.786595 -3.583705
v 13.976280 3.786595 -3.619671
v 13.973972 3.766595 -3.641062
v 13.942085 3.766595 -3.617647
v 13.936279 3.786595 3.627323
v 13.942085 3.766595 3.661265
v 13.973972 3.766595 3.684680
v 13.976280 3.786595 3.663289
v 13.682750 3.786595 -3.306340
v 13.722751 3.786595 -3.371757
v 13.716945 3.766595 -3.394174
v 13.692645 3.766595 -3.362825
v 13.682750 3.786595 3.349958
v 13.692645 3.766595 3.406443
v 13.716945 3.766595 3.437792
v 13.722751 3.786595 3.415375
v 15.047812 2.908467 8.039700
v 15.027812 2.908467 8.019699
v 31.306328 2.908467 8.019699
v 31.286327 2.908467 8.039700
v 15.027813 2.908467 -7.976083
v 15.047813 2.908467 -7.996083
v 31.286327 2.908467 -7.996084
v 31.306328 2.908467 -7.976084
v 15.017840 2.908467 -4.223527
v 15.027813 2.908467 -4.260863
v 15.027812 2.908467 4.304482
v 15.017839 2.908467 4.267145
v 31.306328 2.908467 4.264481
v 31.306328 2.908467 4.304481
v 31.306328 2.908467 -4.260865
v 31.306328 2.908467 -4.220865
v 14.699120 2.908467 -3.887547
v 14.735999 2.908467 -3.902736
v 14.735999 2.908467 3.946354
v 14.699120 2.908467 3.931165
v 14.381927 2.908467 -3.786951
v 14.420609 2.908467 -3.796784
v 14.420609 2.908467 3.840402
v 14.381927 2.908467 3.830569
v 14.162197 2.908467 -3.740268
v 14.199556 2.908467 -3.753230
v 14.199556 2.908467 3.796848
v 14.162197 2.908467 3.783887
v 13.942085 2.908467 -3.617647
v 13.973972 2.908467 -3.641062
v 13.973972 2.908467 3.684680
v 13.942085 2.908467 3.661265
v 13.692645 2.908467 -3.362825
v 13.716945 2.908467 -3.394174
v 13.716945 2.908467 3.437792
v 13.692645 2.908467 3.406443
v 13.454646 3.786593 -2.818322
v 13.494647 3.786594 -2.985064
v 13.484752 3.766594 -3.007747
v 13.470061 3.766594 -2.971020
v 13.454646 3.786593 2.861941
v 13.470061 3.766594 3.014638
v 13.484752 3.766594 3.051365
v 13.494647 3.786594 3.028682
v 13.470061 2.908468 -2.971020
v 13.484752 2.908468 -3.007747
v 13.484752 2.908468 3.051365
v 13.470061 2.908468 3.014638
v 13.361191 3.786593 -2.421511
v 13.345776 3.766593 -2.443300
v 13.341190 3.766593 -2.403833
v 13.361191 3.786593 2.465130
v 13.341190 3.766593 2.447451
v 13.345776 3.766593 2.486918
v 13.341190 2.908469 -2.403833
v 13.345776 2.908469 -2.443300
v 13.345776 2.908469 2.486918
v 13.341190 2.908469 2.447451
v 14.852974 3.786595 -3.939224
v 14.892975 3.786595 -3.966340
v 14.882947 3.766595 -3.989018
v 14.855110 3.766595 -3.962690
v 14.892974 3.786595 4.009959
v 14.852973 3.786595 3.982842
v 14.855109 3.766595 4.006309
v 14.882946 3.766595 4.032637
v 14.855110 2.908467 -3.962690
v 14.882947 2.908467 -3.989018
v 14.882946 2.908467 4.032637
v 14.855109 2.908467 4.006308
v 16.895668 3.786595 8.019699
v 16.895668 3.766595 8.039700
v 16.935667 3.766595 8.039700
v 16.935667 3.786595 8.019699
v 29.438473 3.786595 8.019699
v 29.398472 3.786595 8.019699
v 29.398472 3.766595 8.039700
v 29.438473 3.766595 8.039700
v 29.438473 3.786595 -7.976084
v 29.438473 3.766595 -7.996084
v 29.398474 3.766595 -7.996084
v 29.398474 3.786595 -7.976084
v 16.895668 3.786595 -7.976083
v 16.935669 3.786595 -7.976083
v 16.935669 3.766595 -7.996083
v 16.895668 3.766595 -7.996083
v 29.438473 3.786595 4.304481
v 29.438473 3.786595 4.264481
v 29.398472 3.786595 4.264481
v 29.398472 3.786595 4.304481
v 16.895668 3.786595 4.304482
v 16.935667 3.786595 4.304482
v 16.935667 3.786595 4.264482
v 16.895668 3.786595 4.264482
v 29.438473 3.786595 -4.260865
v 29.398474 3.786595 -4.260865
v 29.398474 3.786595 -4.220865
v 29.438473 3.786595 -4.220865
v 16.895668 3.786595 -4.260864
v 16.895668 3.786595 -4.220864
v 16.935669 3.786595 -4.220864
v 16.935669 3.786595 -4.260864
v 16.935667 2.908467 8.039700
v 16.895668 2.908467 8.039700
v 29.438473 2.908467 8.039700
v 29.398472 2.908467 8.039700
v 29.398474 2.908467 -7.996084
v 29.438473 2.908467 -7.996084
v 16.895668 2.908467 -7.996083
v 16.935669 2.908467 -7.996083
v 31.286327 3.786595 -6.138474
v 31.286327 3.786595 -6.098475
v 31.306328 3.766595 -6.098475
v 31.306328 3.766595 -6.138474
v 15.027813 3.766595 -6.098473
v 15.047813 3.786595 -6.098473
v 15.047813 3.786595 -6.138473
v 15.027813 3.766595 -6.138473
v 31.306328 2.908467 -6.138474
v 31.306328 2.908467 -6.098475
v 15.027813 2.908467 -6.098473
v 15.027813 2.908467 -6.138473
v 16.895668 3.786595 -6.138474
v 16.895668 3.786595 -6.098474
v 16.935669 3.786595 -6.098474
v 16.935669 3.786595 -6.138474
v 29.438473 3.786595 -6.138474
v 29.398474 3.786595 -6.138474
v 29.398474 3.786595 -6.098475
v 29.438473 3.786595 -6.098475
v 15.027812 3.766595 6.182090
v 15.047812 3.786595 6.182090
v 15.047812 3.786595 6.142090
v 15.027812 3.766595 6.142090
v 31.286327 3.786595 6.142090
v 31.286327 3.786595 6.182090
v 31.306328 3.766595 6.182090
v 31.306328 3.766595 6.142090
v 15.027812 2.908467 6.182090
v 15.027812 2.908467 6.142090
v 31.306328 2.908467 6.142090
v 31.306328 2.908467 6.182090
v 16.895668 3.786595 6.142090
v 16.895668 3.786595 6.182090
v 16.935667 3.786595 6.182090
v 16.935667 3.786595 6.142090
v 29.438473 3.786595 6.142090
v 29.398472 3.786595 6.142090
v 29.398472 3.786595 6.182090
v 29.438473 3.786595 6.182090
v 15.047812 3.766595 8.039700
v 15.047812 3.766595 8.039700
v 15.047812 3.766595 8.039700
v 15.047812 3.786595 8.019699
v 15.047812 3.786595 8.019699
v 15.047812 3.786595 8.019699
v 15.027812 3.766595 8.019699
v 15.027812 3.766595 8.019699
v 15.027812 3.766595 8.019699
v 31.306328 3.766595 8.019699
v 31.306328 3.766595 8.019699
v 31.306328 3.766595 8.019699
v 31.286327 3.786595 8.019699
v 31.286327 3.786595 8.019699
v 31.286327 3.786595 8.019699
v 31.286327 3.766595 8.039700
v 31.286327 3.766595 8.039700
v 31.286327 3.766595 8.039700
v 15.027813 3.766595 -7.976083
v 15.027813 3.766595 -7.976083
v 15.027813 3.766595 -7.976083
v 15.047813 3.786595 -7.976083
v 15.047813 3.786595 -7.976083
v 15.047813 3.786595 -7.976083
v 15.047813 3.766595 -7.996083
v 15.047813 3.766595 -7.996083
v 15.047813 3.766595 -7.996083
v 31.286327 3.766595 -7.996084
v 31.286327 3.766595 -7.996084
v 31.286327 3.766595 -7.996084
v 31.286327 3.786595 -7.976084
v 31.286327 3.786595 -7.976084
v 31.286327 3.786595 -7.976084
v 31.306328 3.766595 -7.976084
v 31.306328 3.766595 -7.976084
v 31.306328 3.766595 -7.976084
v 15.027813 3.766595 -4.260863
v 15.017840 3.766595 -4.223527
v 15.007812 3.786595 -4.165982
v 15.047813 3.786595 -4.220863
v 15.047813 3.786595 -4.260863
v 15.047812 3.786595 4.264482
v 15.007812 3.786595 4.209600
v 15.017839 3.766595 4.267145
v 15.027812 3.766595 4.304482
v 15.047812 3.786595 4.304482
v 31.286327 3.786595 4.264481
v 31.286327 3.786595 4.304481
v 31.306328 3.766595 4.304481
v 31.306328 3.766595 4.264481
v 31.286327 3.786595 -4.260865
v 31.286327 3.786595 -4.220865
v 31.306328 3.766595 -4.220865
v 31.306328 3.766595 -4.260865
v 14.698134 3.786595 -3.866190
v 14.738135 3.786595 -3.881420
v 14.735999 3.766595 -3.902735
v 14.699120 3.766595 -3.887547
v 14.738135 3.786595 3.925038
v 14.698134 3.786595 3.909809
v 14.699120 3.766595 3.931165
v 14.735999 3.766595 3.946354
v 14.381593 3.786595 -3.766550
v 14.421594 3.786595 -3.776070
v 14.420609 3.766595 -3.796784
v 14.381927 3.766595 -3.786951
v 14.421594 3.786595 3.819688
v 14.381593 3.786595 3.810169
v 14.381927 3.766595 3.830569
v 14.420609 3.766595 3.840403
v 14.159889 3.786595 -3.716444
v 14.199890 3.786595 -3.732953
v 14.199556 3.766595 -3.753230
v 14.162197 3.766595 -3.740268
v 14.199890 3.786595 3.776571
v 14.159889 3.786595 3.760063
v 14.162197 3.766595 3.783887
v 14.199556 3.766595 3.796848
v 13.936279 3.786595 -3.583705
v 13.976280 3.786595 -3.619671
v 13.973972 3.766595 -3.641062
v 13.942085 3.766595 -3.617647
v 13.976280 3.786595 3.663289
v 13.936279 3.786595 3.627323
v 13.942085 3.766595 3.661265
v 13.973972 3.766595 3.684680
v 13.682750 3.786595 -3.306340
v 13.722751 3.786595 -3.371757
v 13.716945 3.766595 -3.394174
v 13.692645 3.766595 -3.362825
v 13.722751 3.786595 3.415375
v 13.682750 3.786595 3.349958
v 13.692645 3.766595 3.406443
v 13.716945 3.766595 3.437792
v 13.454646 3.786593 -2.818322
v 13.494647 3.786594 -2.985064
v 13.484752 3.766594 -3.007747
v 13.470061 3.766594 -2.971020
v 13.494647 3.786594 3.028682
v 13.454646 3.786593 2.861941
v 13.470061 3.766594 3.014638
v 13.484752 3.766594 3.051365
v 13.345776 3.766593 -2.443300
v 13.341190 3.766593 -2.403833
v 13.341190 3.766593 2.447451
v 13.345776 3.766593 2.486918
v 14.852974 3.786595 -3.939224
v 14.892975 3.786595 -3.966340
v 14.882947 3.766595 -3.989018
v 14.855110 3.766595 -3.962690
v 14.892974 3.786595 4.009959
v 14.852973 3.786595 3.982842
v 14.855109 3.766595 4.006309
v 14.882946 3.766595 4.032637
v 16.935667 3.786595 8.019699
v 16.895668 3.786595 8.019699
v 16.895668 3.766595 8.039700
v 16.935667 3.766595 8.039700
v 29.438473 3.786595 8.019699
v 29.398472 3.786595 8.019699
v 29.398472 3.766595 8.039700
v 29.438473 3.766595 8.039700
v 29.398474 3.786595 -7.976084
v 29.438473 3.786595 -7.976084
v 29.438473 3.766595 -7.996084
v 29.398474 3.766595 -7.996084
v 16.895668 3.786595 -7.976083
v 16.935669 3.786595 -7.976083
v 16.935669 3.766595 -7.996083
v 16.895668 3.766595 -7.996083
v 31.286327 3.786595 -6.138474
v 31.286327 3.786595 -6.098475
v 31.306328 3.766595 -6.098475
v 31.306328 3.766595 -6.138474
v 15.027813 3.766595 -6.138473
v 15.027813 3.766595 -6.098473
v 15.047813 3.786595 -6.098473
v 15.047813 3.786595 -6.138473
v 15.027812 3.766595 6.142090
v 15.027812 3.766595 6.182090
v 15.047812 3.786595 6.182090
v 15.047812 3.786595 6.142090
v 31.286327 3.786595 6.142090
v 31.286327 3.786595 6.182090
v 31.306328 3.766595 6.182090
v 31.306328 3.766595 6.142090
v 31.306328 2.908467 8.019699
v 31.286327 2.908467 8.039700
v 15.027812 2.908467 8.019699
v 15.047812 2.908467 8.039700
v 31.306328 2.908467 -7.976084
v 31.286327 2.908467 -7.996084
v 15.047813 2.908467 -7.996083
v 15.027813 2.908467 -7.976083
v 13.361191 3.786593 2.465130
v 13.361191 3.786593 -2.421511
vn -0.0000 1.0000 -0.0000
vn -1.0000 -0.0000 -0.0000
vn -0.0000 -0.0000 1.0000
vn 1.0000 -0.0000 -0.0000
vn -0.0000 -0.0000 -1.0000
vn -0.9915 -0.0000 -0.1301
vn -0.9243 -0.0000 -0.3816
vn -0.9243 -0.0000 0.3816
vn -0.9915 -0.0000 0.1301
vn -0.4155 -0.0000 -0.9096
vn -0.3456 -0.0000 -0.9384
vn -0.3456 -0.0000 0.9384
vn -0.4155 -0.0000 0.9096
vn -0.2783 -0.0000 -0.9605
vn -0.2142 -0.0000 -0.9768
vn -0.2142 -0.0000 0.9768
vn -0.2783 -0.0000 0.9605
vn -0.2555 -0.0000 -0.9668
vn -0.3982 -0.0000 -0.9173
vn -0.3982 -0.0000 0.9173
vn -0.2555 -0.0000 0.9668
vn -0.5305 -0.0000 -0.8477
vn -0.6500 -0.0000 -0.7600
vn -0.6500 -0.0000 0.7600
vn -0.5305 -0.0000 0.8477
vn -0.7490 -0.0000 -0.6626
vn -0.8284 -0.0000 -0.5601
vn -0.8284 -0.0000 0.5601
vn -0.7490 -0.0000 0.6626
vn -0.8982 -0.0000 -0.4396
vn -0.9536 -0.0000 -0.3012
vn -0.9536 -0.0000 0.3011
vn -0.8982 -0.0000 0.4395
vn -0.9536 -0.0000 -0.3011
vn -0.8982 -0.0000 -0.4395
vn -0.9536 -0.0000 0.3012
vn -0.9850 -0.0000 -0.1726
vn -0.9983 -0.0000 -0.0578
vn -0.9983 -0.0000 0.0578
vn -0.9850 -0.0000 0.1726
vn -0.7853 -0.0000 -0.6191
vn -0.5745 -0.0000 -0.8185
vn -0.5744 -0.0000 0.8185
vn -0.7853 -0.0000 0.6191
vn -0.5745 -0.0000 0.8185
vn -0.5773 0.5774 0.5774
vn -0.7071 -0.0000 0.7071
vn -0.0000 0.7071 0.7071
vn -0.7071 0.7071 -0.0000
vn 0.5773 0.5774 0.5774
vn 0.7071 -0.0000 0.7071
vn 0.7071 0.7071 -0.0000
vn -0.5773 0.5774 -0.5774
vn -0.7071 -0.0000 -0.7071
vn -0.0000 0.7071 -0.7071
vn 0.5773 0.5774 -0.5774
vn 0.7071 -0.0000 -0.7071
vn -0.7037 0.7037 -0.0983
vn -0.5698 0.7858 -0.2404
vn -0.5935 0.7226 -0.3545
vn -0.5384 0.8278 -0.1577
vn -0.6716 0.7393 -0.0486
vn -0.5384 0.8278 0.1577
vn -0.5935 0.7226 0.3545
vn -0.5698 0.7858 0.2404
vn -0.7037 0.7037 0.0983
vn -0.6716 0.7393 0.0486
vn -0.2335 0.7043 -0.6704
vn -0.2855 0.7091 -0.6447
vn -0.2958 0.7112 -0.6377
vn -0.2424 0.7067 -0.6647
vn -0.2855 0.7091 0.6447
vn -0.2335 0.7043 0.6704
vn -0.2424 0.7067 0.6647
vn -0.2958 0.7112 0.6377
vn -0.1448 0.7054 -0.6939
vn -0.1918 0.7083 -0.6793
vn -0.1985 0.7098 -0.6759
vn -0.1502 0.7070 -0.6910
vn -0.1918 0.7083 0.6793
vn -0.1448 0.7054 0.6939
vn -0.1502 0.7070 0.6910
vn -0.1985 0.7098 0.6759
vn -0.3046 0.7148 -0.6296
vn -0.1948 0.7085 -0.6783
vn -0.1765 0.7022 -0.6897
vn -0.2818 0.7125 -0.6427
vn -0.1948 0.7085 0.6783
vn -0.3046 0.7148 0.6296
vn -0.2818 0.7125 0.6427
vn -0.1765 0.7022 0.6897
vn -0.4876 0.7132 -0.5036
vn -0.3998 0.7055 -0.5851
vn -0.3710 0.6980 -0.6125
vn -0.4623 0.7126 -0.5277
vn -0.3998 0.7055 0.5851
vn -0.4876 0.7132 0.5036
vn -0.4623 0.7126 0.5277
vn -0.3710 0.6980 0.6125
vn -0.6067 0.7099 -0.3576
vn -0.5555 0.7019 -0.4459
vn -0.5290 0.6967 -0.4845
vn -0.5908 0.7094 -0.3843
vn -0.5555 0.7019 0.4459
vn -0.6067 0.7099 0.3576
vn -0.5908 0.7094 0.3843
vn -0.5290 0.6967 0.4845
vn -0.6876 0.7078 -0.1621
vn -0.6653 0.6955 -0.2715
vn -0.6396 0.6932 -0.3322
vn -0.6845 0.7021 -0.1963
vn -0.6653 0.6955 0.2715
vn -0.6876 0.7078 0.1621
vn -0.6845 0.7021 0.1963
vn -0.6396 0.6932 0.3322
vn -0.7053 0.6952 -0.1391
vn -0.7184 0.6952 -0.0263
vn -0.7184 0.6952 0.0263
vn -0.7053 0.6952 0.1391
vn -0.3522 0.6962 -0.6255
vn -0.5085 0.7253 -0.4640
vn -0.5512 0.7315 -0.4014
vn -0.3905 0.7085 -0.5878
vn -0.5085 0.7253 0.4641
vn -0.3522 0.6962 0.6255
vn -0.3905 0.7085 0.5878
vn -0.5512 0.7315 0.4014
vn -0.7164 0.6927 0.0832
vn -0.7164 0.6927 -0.0832
vt 0.856834 0.283834
vt 0.857900 0.283834
vt 0.857900 0.284528
vt 0.854700 0.867098
vt 0.855767 0.867098
vt 0.854700 0.868064
vt 0.001600 0.082900
vt 0.000533 0.082900
vt 0.001600 0.081934
vt 0.001600 0.867098
vt 0.001600 0.868064
vt 0.000533 0.867098
vt 0.201734 0.081453
vt 0.201876 0.082659
vt 0.200010 0.082659
vt 0.857901 0.208212
vt 0.856834 0.209198
vt 0.856834 0.208708
vt 0.656557 0.868064
vt 0.654691 0.867098
vt 0.656557 0.867098
vt 0.201876 0.868064
vt 0.200010 0.867098
vt 0.201877 0.867098
vt 0.904734 0.796121
vt 0.905800 0.797379
vt 0.904734 0.797741
vt 0.636320 0.067703
vt 0.636647 0.066061
vt 0.637218 0.067410
vt 0.904734 0.812046
vt 0.905800 0.813331
vt 0.904734 0.813521
vt 0.631282 0.050743
vt 0.630702 0.052417
vt 0.630194 0.050727
vt 0.904734 0.822568
vt 0.905800 0.823922
vt 0.904734 0.824556
vt 0.628792 0.040131
vt 0.628402 0.041710
vt 0.627522 0.040020
vt 0.904734 0.834853
vt 0.905800 0.836050
vt 0.904734 0.837320
vt 0.622253 0.029502
vt 0.622361 0.030911
vt 0.620443 0.029221
vt 0.904734 0.851138
vt 0.905800 0.852116
vt 0.904734 0.854239
vt 0.608662 0.017456
vt 0.609139 0.018668
vt 0.605650 0.016978
vt 0.904734 0.869058
vt 0.905800 0.869747
vt 0.904734 0.874247
vt 0.587766 0.006706
vt 0.588515 0.007652
vt 0.579622 0.005962
vt 0.904734 0.886303
vt 0.905800 0.885781
vt 0.905800 0.886372
vt 0.558459 0.001449
vt 0.557517 0.000483
vt 0.559621 0.000704
vt 0.904734 0.788054
vt 0.905800 0.789019
vt 0.904734 0.789620
vt 0.856834 0.197010
vt 0.857901 0.196479
vt 0.857901 0.197586
vt 0.855767 0.172137
vt 0.854700 0.173828
vt 0.854700 0.172137
vt 0.854700 0.775929
vt 0.855767 0.777378
vt 0.854700 0.777619
vt 0.000533 0.777378
vt 0.001600 0.775929
vt 0.001600 0.777619
vt 0.001600 0.173828
vt 0.000533 0.172138
vt 0.001600 0.172138
vt 0.654424 0.777861
vt 0.656557 0.775929
vt 0.656557 0.777861
vt 0.656557 0.174069
vt 0.654424 0.172137
vt 0.656557 0.172137
vt 0.199743 0.775929
vt 0.201877 0.777861
vt 0.199743 0.777861
vt 0.201876 0.172138
vt 0.199743 0.174069
vt 0.199743 0.172137
vt 0.101738 0.867098
vt 0.100138 0.868064
vt 0.099872 0.867098
vt 0.101738 0.082900
vt 0.100138 0.081934
vt 0.101738 0.081934
vt 0.101738 0.172138
vt 0.099605 0.174069
vt 0.099605 0.172138
vt 0.099605 0.775929
vt 0.101738 0.777861
vt 0.099605 0.777861
vt 0.856834 0.247017
vt 0.857901 0.246315
vt 0.857901 0.247017
vt 0.756696 0.867098
vt 0.755096 0.868064
vt 0.754829 0.867098
vt 0.756696 0.172137
vt 0.754562 0.174069
vt 0.754562 0.172137
vt 0.754562 0.775929
vt 0.756696 0.777861
vt 0.754562 0.777861
vt 0.200276 0.081934
vt 0.651497 0.080968
vt 0.204803 0.080968
vt 0.654957 0.868064
vt 0.654424 0.082900
vt 0.635508 0.066013
vt 0.219980 0.067945
vt 0.220792 0.066013
vt 0.905800 0.795695
vt 0.856834 0.206056
vt 0.225599 0.052658
vt 0.226106 0.050727
vt 0.905800 0.811675
vt 0.631641 0.052152
vt 0.227898 0.041952
vt 0.228779 0.040020
vt 0.905800 0.822255
vt 0.629387 0.041461
vt 0.233940 0.031153
vt 0.235858 0.029221
vt 0.905800 0.834421
vt 0.623253 0.030614
vt 0.247162 0.018909
vt 0.250651 0.016978
vt 0.905800 0.850647
vt 0.609959 0.018286
vt 0.903667 0.208212
vt 0.857901 0.209298
vt 0.857901 0.189400
vt 0.903667 0.187476
vt 0.903667 0.189400
vt 0.951567 0.834180
vt 0.951567 0.822020
vt 0.951567 0.823922
vt 0.951567 0.180866
vt 0.905800 0.182798
vt 0.905800 0.180866
vt 0.905800 0.001449
vt 0.951567 0.000483
vt 0.951567 0.001449
vt 0.903667 0.160932
vt 0.857901 0.162834
vt 0.857901 0.160932
vt 0.857901 0.150674
vt 0.903667 0.148804
vt 0.903667 0.150674
vt 0.951567 0.813331
vt 0.951567 0.795454
vt 0.951567 0.797378
vt 0.951567 0.592576
vt 0.905800 0.594508
vt 0.905800 0.592576
vt 0.903667 0.132738
vt 0.857900 0.134434
vt 0.857900 0.132738
vt 0.951567 0.850420
vt 0.951567 0.852116
vt 0.903667 0.283834
vt 0.857901 0.173419
vt 0.903667 0.171523
vt 0.903667 0.173419
vt 0.951567 0.773925
vt 0.905800 0.774891
vt 0.905800 0.773925
vt 0.999466 0.714886
vt 0.953700 0.715765
vt 0.953700 0.714886
vt 0.046300 0.869030
vt 0.000534 0.869431
vt 0.000534 0.869030
vt 0.267785 0.007894
vt 0.276678 0.005962
vt 0.857901 0.115108
vt 0.903667 0.116489
vt 0.857901 0.116489
vt 0.951567 0.869747
vt 0.905800 0.868563
vt 0.951567 0.868365
vt 0.589265 0.007172
vt 0.297841 0.001449
vt 0.298784 0.000483
vt 0.903667 0.098081
vt 0.857901 0.099073
vt 0.857901 0.098081
vt 0.951567 0.885781
vt 0.951567 0.886372
vt 0.214241 0.074938
vt 0.639403 0.073491
vt 0.951567 0.787661
vt 0.951567 0.789019
vt 0.903667 0.196318
vt 0.903667 0.197586
vt 0.215451 0.075422
vt 0.216897 0.073491
vt 0.854700 0.082900
vt 0.855767 0.082900
vt 0.855767 0.775929
vt 0.855767 0.173586
vt 0.000533 0.173586
vt 0.000533 0.775929
vt 0.654424 0.174069
vt 0.654424 0.775929
vt 0.201877 0.775929
vt 0.953700 0.084315
vt 0.999467 0.082557
vt 0.999467 0.084315
vt 0.953700 0.633691
vt 0.999466 0.631934
vt 0.999466 0.633691
vt 0.857900 0.368066
vt 0.903667 0.366309
vt 0.903667 0.368066
vt 0.857900 0.917443
vt 0.903667 0.915685
vt 0.903667 0.917443
vt 0.201876 0.174069
vt 0.101738 0.868064
vt 0.200277 0.868064
vt 0.101738 0.174069
vt 0.101738 0.775929
vt 0.099872 0.082900
vt 0.046300 0.906248
vt 0.000533 0.907049
vt 0.000533 0.906248
vt 0.905800 0.685182
vt 0.951567 0.683251
vt 0.951567 0.685182
vt 0.756696 0.868064
vt 0.756695 0.174069
vt 0.756696 0.775929
vt 0.754562 0.082900
vt 0.903667 0.246215
vt 0.903667 0.247017
vt 0.905800 0.092123
vt 0.951567 0.090191
vt 0.951567 0.092123
vt 0.756695 0.082900
vt 0.903667 0.284674
vt 0.857900 0.366309
vt 0.857900 0.998638
vt 0.905800 0.090192
vt 0.000533 0.943867
vt 0.046300 0.907049
vt 0.046300 0.943867
vt 0.999467 0.001362
vt 0.953700 0.082557
vt 0.953700 0.001362
vt 0.951567 0.776642
vt 0.905801 0.787792
vt 0.905800 0.776642
vt 0.640850 0.075422
vt 0.046300 0.869431
vt 0.903667 0.209398
vt 0.656557 0.082900
vt 0.951567 0.182798
vt 0.951567 0.594508
vt 0.905800 0.683251
vt 0.951567 0.811435
vt 0.857901 0.187476
vt 0.903667 0.162834
vt 0.857901 0.171523
vt 0.951567 0.836050
vt 0.903667 0.134434
vt 0.857901 0.148804
vt 0.903667 0.099073
vt 0.903667 0.115108
vt 0.903667 0.000884
vt 0.857901 0.000884
vt 0.857900 0.915685
vt 0.953700 0.631934
vt 0.856834 0.196801
vt 0.856834 0.246416
vt 0.905800 0.000483
vt 0.951567 0.774891
vt 0.999466 0.715765
vt 0.640655 0.073594
vt 0.903667 0.998638
s 1
usemtl estrade-contour
f 224/1/46 227/2/46 221/3/46
f 233/4/50 236/5/50 230/6/50
f 242/7/53 245/8/53 239/9/53
f 251/10/56 254/11/56 248/12/56
f 258/13/59 260/14/61 261/15/62
f 264/16/65 266/17/67 262/18/63
f 269/19/52 267/20/52 268/21/52
f 273/22/52 271/23/52 272/24/52
f 276/25/69 278/26/71 275/27/68
f 279/28/72 281/29/74 282/30/75
f 284/31/77 286/32/79 283/33/76
f 289/34/82 287/35/80 288/36/81
f 292/37/85 294/38/87 291/39/84
f 297/40/90 295/41/88 296/42/89
f 300/43/93 302/44/95 299/45/92
f 305/46/98 303/47/96 304/48/97
f 308/49/101 310/50/103 307/51/100
f 313/52/106 311/53/104 312/54/105
f 316/55/109 318/56/111 315/57/108
f 321/58/114 319/59/112 320/60/113
f 376/61/129 323/62/116 324/63/117
f 375/64/128 325/65/118 326/66/119
f 328/67/121 330/68/123 327/69/120
f 331/70/124 333/71/126 334/72/127
f 337/73/48 335/74/48 336/75/48
f 340/76/48 342/77/48 339/78/48
f 345/79/55 343/80/55 344/81/55
f 348/82/55 350/83/55 347/84/55
f 158/85/1 160/86/1 157/87/1
f 162/88/1 164/89/1 161/90/1
f 166/91/1 168/92/1 165/93/1
f 170/94/1 172/95/1 169/96/1
f 352/97/52 354/98/52 351/99/52
f 357/100/49 355/101/49 356/102/49
f 194/103/1 196/104/1 193/105/1
f 198/106/1 200/107/1 197/108/1
f 361/109/49 359/110/49 360/111/49
f 364/112/52 366/113/52 363/114/52
f 214/115/1 216/116/1 213/117/1
f 218/118/1 220/119/1 217/120/1
f 228/2/49 361/109/49 360/111/49
f 237/5/48 339/78/48 342/77/48
f 255/11/52 351/99/52 354/98/52
f 246/8/55 347/84/55 350/83/55
f 257/121/58 357/100/49 356/102/49
f 18/122/1 16/14/1 15/123/1
f 269/19/52 363/114/52 366/113/52
f 273/22/52 267/20/52 270/124/52
f 22/125/1 161/90/1 164/89/1
f 17/15/1 170/94/1 169/96/1
f 36/126/1 32/127/1 31/128/1
f 277/129/70 327/69/120 330/68/123
f 334/72/127 263/130/64 331/70/124
f 43/36/1 40/131/1 39/132/1
f 285/133/78 275/27/68 278/26/71
f 290/134/83 280/126/73 287/35/80
f 51/42/1 48/135/1 47/136/1
f 293/137/86 283/33/76 286/32/79
f 298/138/91 288/36/81 295/41/88
f 59/48/1 56/139/1 55/140/1
f 301/141/94 291/39/84 294/38/87
f 306/142/99 296/42/89 303/47/96
f 67/54/1 64/143/1 63/144/1
f 309/145/102 299/45/92 302/44/95
f 314/146/107 304/48/97 311/53/104
f 82/147/8 20/148/9 19/16/8
f 38/149/13 90/150/12 89/151/13
f 100/152/22 58/44/23 57/141/22
f 50/38/19 96/153/18 95/154/19
f 84/155/4 25/156/4 24/157/4
f 231/158/51 368/159/51 367/160/51
f 98/161/20 53/162/21 52/163/20
f 61/164/25 102/165/24 101/166/25
f 41/133/14 91/167/15 42/32/15
f 34/26/11 88/168/10 87/169/11
f 86/170/4 29/171/4 28/172/4
f 106/173/28 69/174/29 68/175/28
f 66/50/27 104/176/26 103/177/27
f 369/178/47 222/3/47 229/2/47
f 45/179/17 94/180/16 93/181/17
f 371/182/57 249/183/57 256/184/57
f 373/185/54 240/186/54 247/187/54
f 14/188/7 80/189/6 79/190/7
f 111/60/1 108/191/1 107/192/1
f 112/193/32 117/194/33 113/195/33
f 115/196/34 109/197/30 116/198/35
f 317/197/110 307/51/100 310/50/103
f 322/199/115 312/54/105 319/59/112
f 325/65/118 376/200/129 324/201/117
f 128/202/39 124/203/40 123/204/39
f 121/63/38 126/205/37 125/206/38
f 323/62/116 315/57/108 318/56/111
f 326/66/119 320/60/113 375/64/128
f 329/207/122 259/123/60 258/13/59
f 282/30/75 332/208/125 279/28/72
f 132/68/42 138/209/41 137/210/42
f 136/72/44 140/211/45 139/212/44
f 134/208/1 130/213/1 129/214/1
f 337/73/48 226/215/48 223/216/48
f 341/217/48 335/74/48 338/218/48
f 345/79/55 253/10/55 250/12/55
f 349/219/55 343/80/55 346/220/55
f 158/85/1 23/21/1 26/20/1
f 165/93/1 27/24/1 30/23/1
f 151/224/5 178/225/5 177/226/5
f 156/227/5 180/228/5 179/229/5
f 143/230/3 174/231/3 173/232/3
f 148/233/3 176/234/3 175/235/3
f 168/92/1 159/222/1 158/85/1
f 157/87/1 218/118/1 217/120/1
f 154/82/1 193/105/1 196/104/1
f 149/81/1 198/106/1 197/108/1
f 353/237/52 271/23/52 274/238/52
f 355/101/49 244/7/49 241/9/49
f 200/107/1 166/91/1 165/93/1
f 196/104/1 199/240/1 198/106/1
f 187/241/1 194/103/1 193/105/1
f 185/242/2 192/243/2 191/244/2
f 184/245/4 190/246/4 189/247/4
f 197/108/1 182/97/1 181/99/1
f 359/110/49 266/17/67 265/148/66
f 365/248/52 235/4/52 232/6/52
f 215/249/1 141/75/1 144/74/1
f 220/119/1 146/76/1 145/78/1
f 203/251/1 214/115/1 213/117/1
f 201/111/2 210/252/2 209/253/2
f 208/254/4 212/255/4 211/256/4
f 217/120/1 206/112/1 205/114/1
f 141/75/1 202/257/1 1/215/1
f 209/253/2 2/2/2 201/111/2
f 71/258/3 142/259/3 3/3/3
f 4/4/1 220/119/1 145/78/1
f 175/235/3 5/260/3 148/233/3
f 73/160/4 207/261/4 6/158/4
f 193/105/1 7/7/1 187/241/1
f 179/229/5 8/187/5 156/227/5
f 75/262/2 188/263/2 9/264/2
f 189/247/4 11/184/4 184/245/4
f 77/265/5 150/266/5 12/267/5
f 181/99/1 149/81/1 197/108/1
f 169/96/1 186/100/1 17/15/1
f 79/268/7 131/269/41 14/270/7
f 15/123/1 133/271/1 18/122/1
f 191/244/2 13/272/6 185/242/2
f 164/89/1 16/14/1 22/125/1
f 139/212/44 19/16/8 136/72/44
f 81/273/9 204/110/2 20/148/9
f 213/117/1 21/274/1 203/251/1
f 211/256/4 24/157/4 208/254/4
f 26/20/1 168/92/1 158/85/1
f 83/275/4 28/172/4 25/156/4
f 205/114/1 157/87/1 217/120/1
f 85/276/4 183/277/4 29/171/4
f 30/23/1 200/107/1 165/93/1
f 31/128/1 46/35/1 36/126/1
f 34/26/11 92/278/14 41/133/14
f 129/214/1 35/28/1 134/208/1
f 137/210/42 33/129/10 132/68/42
f 45/179/17 90/150/12 37/279/12
f 89/151/13 135/71/43 38/149/13
f 39/132/1 54/41/1 43/36/1
f 91/167/15 49/137/18 42/32/15
f 97/280/21 44/281/16 53/162/21
f 51/42/1 56/139/1 62/47/1
f 95/154/19 57/141/22 50/38/19
f 101/166/25 52/163/20 61/164/25
f 55/140/1 70/53/1 59/48/1
f 99/282/23 65/145/26 58/44/23
f 105/283/29 60/284/24 69/174/29
f 108/191/1 67/54/1 63/144/1
f 103/177/27 109/197/30 66/50/27
f 68/175/28 117/194/33 106/173/28
f 119/200/1 111/60/1 107/192/1
f 126/205/37 110/56/31 115/196/34
f 112/193/32 127/285/40 118/286/36
f 125/287/38 123/204/39 121/288/38
f 146/76/1 215/249/1 144/74/1
f 173/232/3 147/289/3 143/230/3
f 198/106/1 154/82/1 196/104/1
f 177/226/5 155/290/5 151/224/5
f 261/15/62 257/121/58 258/13/59
f 258/13/59 259/123/60 260/14/61
f 262/18/63 263/130/64 264/16/65
f 264/16/65 265/148/66 266/17/67
f 269/19/52 270/124/52 267/20/52
f 273/22/52 274/238/52 271/23/52
f 276/25/69 277/129/70 278/26/71
f 279/28/72 280/126/73 281/29/74
f 284/31/77 285/133/78 286/32/79
f 289/34/82 290/134/83 287/35/80
f 292/37/85 293/137/86 294/38/87
f 297/40/90 298/138/91 295/41/88
f 300/43/93 301/141/94 302/44/95
f 305/46/98 306/142/99 303/47/96
f 308/49/101 309/145/102 310/50/103
f 313/52/106 314/146/107 311/53/104
f 316/55/109 317/197/110 318/56/111
f 321/58/114 322/199/115 319/59/112
f 328/67/121 329/269/122 330/68/123
f 331/70/124 332/291/125 333/71/126
f 337/73/48 338/218/48 335/74/48
f 340/76/48 341/217/48 342/77/48
f 345/79/55 346/220/55 343/80/55
f 348/82/55 349/219/55 350/83/55
f 158/85/1 159/222/1 160/86/1
f 162/88/1 163/221/1 164/89/1
f 166/91/1 167/223/1 168/92/1
f 170/94/1 171/236/1 172/95/1
f 352/97/52 353/237/52 354/98/52
f 357/100/49 358/241/49 355/101/49
f 194/103/1 195/239/1 196/104/1
f 198/106/1 199/240/1 200/107/1
f 361/109/49 362/292/49 359/110/49
f 364/112/52 365/248/52 366/113/52
f 214/115/1 215/249/1 216/116/1
f 218/118/1 219/250/1 220/119/1
f 228/2/49 225/1/49 361/109/49
f 237/5/48 234/4/48 339/78/48
f 255/11/52 252/10/52 351/99/52
f 246/8/55 243/7/55 347/84/55
f 257/121/58 261/15/62 357/100/49
f 18/122/1 22/125/1 16/14/1
f 269/19/52 268/21/52 363/114/52
f 273/22/52 272/24/52 267/20/52
f 22/125/1 21/274/1 161/90/1
f 17/15/1 16/14/1 170/94/1
f 36/126/1 35/28/1 32/127/1
f 277/129/70 276/25/69 327/69/120
f 334/72/127 264/16/65 263/130/64
f 43/36/1 46/35/1 40/131/1
f 285/133/78 284/31/77 275/27/68
f 290/134/83 281/29/74 280/126/73
f 51/42/1 54/41/1 48/135/1
f 293/137/86 292/37/85 283/33/76
f 298/138/91 289/34/82 288/36/81
f 59/48/1 62/47/1 56/139/1
f 301/141/94 300/43/93 291/39/84
f 306/142/99 297/40/90 296/42/89
f 67/54/1 70/53/1 64/143/1
f 309/145/102 308/49/101 299/45/92
f 314/146/107 305/46/98 304/48/97
f 82/147/8 81/273/9 20/148/9
f 38/149/13 37/279/12 90/150/12
f 100/152/22 99/282/23 58/44/23
f 50/38/19 49/137/18 96/153/18
f 84/155/4 83/275/4 25/156/4
f 231/158/51 238/293/51 368/159/51
f 98/161/20 97/280/21 53/162/21
f 61/164/25 60/284/24 102/165/24
f 41/133/14 92/278/14 91/167/15
f 34/26/11 33/129/10 88/168/10
f 86/170/4 85/276/4 29/171/4
f 106/173/28 105/283/29 69/174/29
f 66/50/27 65/145/26 104/176/26
f 369/178/47 370/258/47 222/3/47
f 45/179/17 44/281/16 94/180/16
f 371/182/57 372/294/57 249/183/57
f 373/185/54 374/295/54 240/186/54
f 14/188/7 13/272/6 80/189/6
f 111/60/1 114/59/1 108/191/1
f 112/193/32 118/286/36 117/194/33
f 115/196/34 110/56/31 109/197/30
f 317/197/110 316/55/109 307/51/100
f 322/199/115 313/52/106 312/54/105
f 325/65/118 375/64/128 376/200/129
f 128/202/39 127/285/40 124/203/40
f 121/63/38 120/62/37 126/205/37
f 323/62/116 376/61/129 315/57/108
f 326/66/119 321/58/114 320/60/113
f 329/207/122 328/213/121 259/123/60
f 282/30/75 333/296/126 332/208/125
f 132/68/42 131/269/41 138/209/41
f 136/72/44 135/71/43 140/211/45
f 134/208/1 133/271/1 130/213/1
f 337/73/48 336/75/48 226/215/48
f 341/217/48 340/76/48 335/74/48
f 345/79/55 344/81/55 253/10/55
f 349/219/55 348/82/55 343/80/55
f 158/85/1 157/87/1 23/21/1
f 165/93/1 168/92/1 27/24/1
f 151/224/5 150/266/5 178/225/5
f 156/227/5 155/290/5 180/228/5
f 143/230/3 142/259/3 174/231/3
f 148/233/3 147/289/3 176/234/3
f 168/92/1 167/223/1 159/222/1
f 157/87/1 160/86/1 218/118/1
f 154/82/1 153/84/1 193/105/1
f 149/81/1 152/80/1 198/106/1
f 353/237/52 352/97/52 271/23/52
f 355/101/49 358/241/49 244/7/49
f 200/107/1 199/240/1 166/91/1
f 196/104/1 195/239/1 199/240/1
f 187/241/1 186/100/1 194/103/1
f 185/242/2 188/263/2 192/243/2
f 184/245/4 183/277/4 190/246/4
f 197/108/1 200/107/1 182/97/1
f 359/110/49 362/292/49 266/17/67
f 365/248/52 364/112/52 235/4/52
f 215/249/1 214/115/1 141/75/1
f 220/119/1 219/250/1 146/76/1
f 203/251/1 202/257/1 214/115/1
f 201/111/2 204/110/2 210/252/2
f 208/254/4 207/261/4 212/255/4
f 217/120/1 220/119/1 206/112/1
f 141/75/1 214/115/1 202/257/1
f 209/253/2 72/178/2 2/2/2
f 71/258/3 174/231/3 142/259/3
f 4/4/1 206/112/1 220/119/1
f 175/235/3 74/297/3 5/260/3
f 73/160/4 212/255/4 207/261/4
f 193/105/1 153/84/1 7/7/1
f 179/229/5 76/185/5 8/187/5
f 75/262/2 192/243/2 188/263/2
f 189/247/4 78/182/4 11/184/4
f 77/265/5 178/225/5 150/266/5
f 181/99/1 10/10/1 149/81/1
f 169/96/1 194/103/1 186/100/1
f 79/268/7 138/209/41 131/269/41
f 15/123/1 130/213/1 133/271/1
f 191/244/2 80/189/6 13/272/6
f 164/89/1 170/94/1 16/14/1
f 139/212/44 82/147/8 19/16/8
f 81/273/9 210/252/2 204/110/2
f 213/117/1 161/90/1 21/274/1
f 211/256/4 84/155/4 24/157/4
f 26/20/1 27/24/1 168/92/1
f 83/275/4 86/170/4 28/172/4
f 205/114/1 23/21/1 157/87/1
f 85/276/4 190/246/4 183/277/4
f 30/23/1 182/97/1 200/107/1
f 31/128/1 40/131/1 46/35/1
f 34/26/11 87/169/11 92/278/14
f 129/214/1 32/127/1 35/28/1
f 137/210/42 88/168/10 33/129/10
f 45/179/17 93/181/17 90/150/12
f 89/151/13 140/211/45 135/71/43
f 39/132/1 48/135/1 54/41/1
f 91/167/15 96/153/18 49/137/18
f 97/280/21 94/180/16 44/281/16
f 51/42/1 47/136/1 56/139/1
f 95/154/19 100/152/22 57/141/22
f 101/166/25 98/161/20 52/163/20
f 55/140/1 64/143/1 70/53/1
f 99/282/23 104/176/26 65/145/26
f 105/283/29 102/165/24 60/284/24
f 108/191/1 114/59/1 67/54/1
f 103/177/27 116/198/35 109/197/30
f 68/175/28 113/195/33 117/194/33
f 119/200/1 122/64/1 111/60/1
f 126/205/37 120/62/37 110/56/31
f 112/193/32 124/203/40 127/285/40
f 125/287/38 128/202/39 123/204/39
f 146/76/1 219/250/1 215/249/1
f 173/232/3 176/234/3 147/289/3
f 198/106/1 152/80/1 154/82/1
f 177/226/5 180/228/5 155/290/5
usemtl estrade-centre
f 163/221/1 160/86/1 159/222/1
f 172/95/1 167/223/1 166/91/1
f 171/236/1 164/89/1 163/221/1
f 162/88/1 213/117/1 216/116/1
f 195/239/1 169/96/1 172/95/1
f 216/116/1 219/250/1 218/118/1
f 218/118/1 162/88/1 216/116/1
f 159/222/1 171/236/1 163/221/1
f 166/91/1 195/239/1 172/95/1
f 163/221/1 162/88/1 160/86/1
f 172/95/1 171/236/1 167/223/1
f 171/236/1 170/94/1 164/89/1
f 162/88/1 161/90/1 213/117/1
f 195/239/1 194/103/1 169/96/1
f 216/116/1 215/249/1 219/250/1
f 218/118/1 160/86/1 162/88/1
f 159/222/1 167/223/1 171/236/1
f 166/91/1 199/240/1 195/239/1
