# Blender 5.1.1
# www.blender.org
mtllib AltarTable.mtl
o Plane.004
v 21.831097 3.783468 2.480153
v 21.826097 3.783468 2.475153
v 24.517553 3.783468 2.475153
v 24.512554 3.783468 2.480153
v 21.826097 3.783468 -2.431536
v 21.831097 3.783468 -2.436536
v 24.512554 3.783468 -2.436536
v 24.517553 3.783468 -2.431536
v 21.826097 3.941647 2.475153
v 21.826097 3.931647 2.475153
v 21.831097 3.931647 2.480153
v 21.831097 3.941647 2.480153
v 24.512554 3.941647 2.480153
v 24.512554 3.931647 2.480153
v 24.517553 3.931647 2.475153
v 24.517553 3.941647 2.475153
v 21.831097 3.941647 -2.436536
v 21.831097 3.931647 -2.436536
v 21.826097 3.931647 -2.431536
v 21.826097 3.941647 -2.431536
v 24.517553 3.941647 -2.431536
v 24.517553 3.931647 -2.431536
v 24.512554 3.931647 -2.436536
v 24.512554 3.941647 -2.436536
v 21.826097 3.783468 -2.094090
v 21.826097 3.783468 -2.104091
v 21.826097 3.783468 2.147707
v 21.826097 3.783468 2.137707
v 24.517553 3.783468 2.137707
v 24.517553 3.783468 2.147707
v 24.517553 3.783468 -2.104091
v 24.517553 3.783468 -2.094090
v 21.826097 3.941647 -2.104091
v 21.826097 3.931647 -2.104091
v 21.826097 3.931647 -2.094090
v 21.831097 3.936647 -2.094090
v 21.831097 3.941647 -2.099091
v 21.826097 3.941647 2.147707
v 21.831097 3.941647 2.142707
v 21.831097 3.936647 2.137707
v 21.826097 3.931647 2.137707
v 21.826097 3.931647 2.147707
v 24.517553 3.941647 2.147707
v 24.517553 3.931647 2.147707
v 24.517553 3.931647 2.137707
v 24.512554 3.936647 2.137707
v 24.512554 3.941647 2.142707
v 24.517553 3.941647 -2.104091
v 24.512554 3.941647 -2.099091
v 24.512554 3.936647 -2.094090
v 24.517553 3.931647 -2.094090
v 24.517553 3.931647 -2.104091
v 22.167370 3.783468 2.480153
v 22.157370 3.783468 2.480153
v 24.186281 3.783468 2.480153
v 24.176281 3.783468 2.480153
v 24.176281 3.783468 -2.436536
v 24.186281 3.783468 -2.436536
v 22.157370 3.783468 -2.436536
v 22.167370 3.783468 -2.436536
v 22.157370 3.941647 2.480153
v 22.157370 3.931647 2.480153
v 22.167370 3.931647 2.480153
v 22.167370 3.936647 2.475153
v 22.162369 3.941647 2.475153
v 24.186281 3.941647 2.480153
v 24.181282 3.941647 2.475153
v 24.176281 3.936647 2.475153
v 24.176281 3.931647 2.480153
v 24.186281 3.931647 2.480153
v 24.186281 3.941647 -2.436536
v 24.186281 3.931647 -2.436536
v 24.176281 3.931647 -2.436536
v 24.176281 3.936647 -2.431536
v 24.181282 3.941647 -2.431536
v 22.157370 3.941647 -2.436536
v 22.162369 3.941647 -2.431536
v 22.167370 3.936647 -2.431536
v 22.167370 3.931647 -2.436536
v 22.157370 3.931647 -2.436536
v 24.186281 3.941647 2.142707
v 24.186281 3.936647 2.137707
v 24.176281 3.936647 2.130750
v 24.169094 3.936647 2.137707
v 24.176281 3.936647 2.147707
v 24.181282 3.941647 2.147707
v 22.157370 3.941647 2.142707
v 22.162369 3.941647 2.147707
v 22.167370 3.936647 2.147707
v 22.174557 3.936647 2.137707
v 22.167370 3.936647 2.130750
v 22.157370 3.936647 2.137707
v 24.186281 3.941647 -2.099091
v 24.181282 3.941647 -2.104091
v 24.176281 3.936647 -2.104091
v 24.169094 3.936647 -2.094090
v 24.176281 3.936647 -2.087134
v 24.186281 3.936647 -2.094090
v 22.157370 3.941647 -2.099091
v 22.157370 3.936647 -2.094090
v 22.167370 3.936647 -2.087134
v 22.174557 3.936647 -2.094090
v 22.167370 3.936647 -2.104091
v 22.162369 3.941647 -2.104091
v 21.826097 4.236644 2.147707
v 21.831097 4.241643 2.147707
v 21.831097 4.236644 2.142707
v 21.826097 4.236644 2.475153
v 21.831097 4.236644 2.480153
v 21.831097 4.241643 2.475153
v 24.186281 4.236644 2.480153
v 24.186281 4.241643 2.475153
v 24.181282 4.236644 2.475153
v 24.512554 4.236644 2.480153
v 24.517553 4.236644 2.475153
v 24.512554 4.241643 2.475153
v 24.517553 4.236644 -2.104091
v 24.512554 4.241643 -2.104091
v 24.512554 4.236644 -2.099091
v 24.517553 4.236644 -2.431536
v 24.512554 4.236644 -2.436536
v 24.512554 4.241643 -2.431536
v 22.157370 4.236644 -2.436536
v 22.157370 4.241643 -2.431536
v 22.162369 4.236644 -2.431536
v 21.831097 4.236644 -2.436536
v 21.826097 4.236644 -2.431536
v 21.831097 4.241643 -2.431536
v 21.826097 4.236644 -2.104091
v 21.831097 4.236644 -2.099091
v 21.831097 4.241643 -2.104091
v 24.517553 4.236644 2.147707
v 24.512554 4.236644 2.142707
v 24.512554 4.241643 2.147707
v 22.157370 4.236644 2.142707
v 22.157370 4.241643 2.147707
v 22.162369 4.236644 2.147707
v 22.157370 4.236644 -2.099091
v 22.162369 4.236644 -2.104091
v 22.157370 4.241643 -2.104091
v 22.157370 4.236644 2.480153
v 22.162369 4.236644 2.475153
v 22.157370 4.241643 2.475153
v 24.186281 4.236644 -2.436536
v 24.181282 4.236644 -2.431536
v 24.186281 4.241643 -2.431536
v 24.186281 4.236644 2.142707
v 24.181282 4.236644 2.147707
v 24.186281 4.241643 2.147707
v 24.186281 4.236644 -2.099091
v 24.186281 4.241643 -2.104091
v 24.181282 4.236644 -2.104091
v 24.016392 3.941647 1.984962
v 24.019341 3.936647 1.989962
v 24.026392 3.936647 1.982871
v 24.021391 3.941647 1.979962
v 22.327259 3.941647 1.984962
v 22.322260 3.941647 1.979962
v 22.317259 3.936647 1.982871
v 22.324310 3.936647 1.989962
v 24.016392 3.941647 -1.941345
v 24.021391 3.941647 -1.936345
v 24.026392 3.936647 -1.939254
v 24.019341 3.936647 -1.946345
v 22.327259 3.941647 -1.941345
v 22.324310 3.936647 -1.946345
v 22.317259 3.936647 -1.939254
v 22.322260 3.941647 -1.936345
v 24.019325 5.229336 1.989962
v 24.016392 5.224336 1.984962
v 24.021391 5.224336 1.979962
v 24.026392 5.229336 1.982887
v 22.324326 5.229336 1.989962
v 22.317259 5.229336 1.982887
v 22.322260 5.224336 1.979962
v 22.327259 5.224336 1.984962
v 24.019325 5.229336 -1.946345
v 24.026392 5.229336 -1.939270
v 24.021391 5.224336 -1.936345
v 24.016392 5.224336 -1.941345
v 22.324326 5.229336 -1.946345
v 22.327259 5.224336 -1.941345
v 22.322260 5.224336 -1.936345
v 22.317259 5.229336 -1.939270
v 24.849775 5.233982 2.816495
v 24.841173 5.229336 2.809649
v 24.848267 5.229336 2.802600
v 24.855103 5.233986 2.811166
v 21.493876 5.233982 2.816495
v 21.488548 5.233986 2.811166
v 21.495384 5.229336 2.802600
v 21.502478 5.229336 2.809649
v 24.849775 5.233982 -2.772879
v 24.855103 5.233986 -2.767550
v 24.848267 5.229336 -2.758983
v 24.841173 5.229336 -2.766032
v 21.493876 5.233982 -2.772879
v 21.502478 5.229336 -2.766032
v 21.495384 5.229336 -2.758983
v 21.488548 5.233986 -2.767550
v 24.934532 5.452948 2.901545
v 24.932373 5.443302 2.899698
v 24.937696 5.443297 2.894365
v 24.939533 5.452948 2.896544
v 21.409119 5.452948 2.901545
v 21.404118 5.452948 2.896544
v 21.405954 5.443297 2.894365
v 21.411278 5.443302 2.899698
v 24.934532 5.452948 -2.857928
v 24.939533 5.452948 -2.852928
v 24.937696 5.443297 -2.850749
v 24.932373 5.443302 -2.856081
v 21.409119 5.452948 -2.857928
v 21.411278 5.443302 -2.856081
v 21.405954 5.443297 -2.850749
v 21.404118 5.452948 -2.852928
v 24.934532 5.529784 2.901545
v 24.939533 5.529784 2.896544
v 24.934532 5.534784 2.896544
v 21.409119 5.529784 2.901545
v 21.409119 5.534784 2.896544
v 21.404118 5.529784 2.896544
v 24.934532 5.529784 -2.857928
v 24.934532 5.534784 -2.852928
v 24.939533 5.529784 -2.852928
v 21.409119 5.529784 -2.857928
v 21.404118 5.529784 -2.852928
v 21.409119 5.534784 -2.852928
vn -0.7071 -0.0000 0.7071
vn 0.7071 -0.0000 0.7071
vn -0.7071 -0.0000 -0.7071
vn 0.7071 -0.0000 -0.7071
vn -0.9045 0.3015 0.3015
vn -0.8944 0.4472 -0.0000
vn 0.9045 0.3015 -0.3015
vn 0.8944 0.4472 -0.0000
vn 0.3015 0.3015 0.9045
vn -0.0000 0.4472 0.8944
vn -0.3015 0.3015 -0.9045
vn -0.0000 0.4472 -0.8944
vn -0.0000 0.8944 -0.4472
vn -0.0000 0.8944 0.4472
vn -0.5774 0.5774 -0.5773
vn -0.5774 0.5774 0.5773
vn -0.5774 0.5773 0.5773
vn 0.5774 0.5774 0.5773
vn 0.5774 0.5774 -0.5773
vn 0.5774 0.5773 -0.5773
vn 0.5774 0.5773 0.5773
vn -0.5774 0.5773 -0.5773
vn 0.4700 0.7472 0.4700
vn -0.4700 0.7471 0.4700
vn 0.4700 0.7471 -0.4700
vn -0.4700 0.7472 -0.4700
vn 0.4710 -0.7462 0.4705
vn -0.4705 -0.7465 0.4705
vn 0.4705 -0.7465 -0.4705
vn -0.4710 -0.7462 -0.4705
vn 0.2782 -0.9196 0.2773
vn -0.2760 -0.9202 0.2777
vn 0.2760 -0.9202 -0.2777
vn -0.2782 -0.9196 -0.2773
vn 0.6785 -0.2817 0.6784
vn -0.6785 -0.2817 0.6784
vn 0.6785 -0.2817 -0.6784
vn -0.6785 -0.2817 -0.6784
vn 0.5773 0.5774 0.5774
vn -0.5773 0.5774 0.5774
vn 0.5773 0.5774 -0.5774
vn -0.5773 0.5774 -0.5774
vn -1.0000 -0.0000 -0.0000
vn -0.0000 -0.0000 1.0000
vn 1.0000 -0.0000 -0.0000
vn -0.0000 -0.0000 -1.0000
vn -0.7071 0.7071 -0.0000
vn 0.7071 0.7071 -0.0000
vn -0.0000 0.7071 -0.7071
vn -0.0000 0.7071 0.7071
vn -0.0000 1.0000 -0.0000
vn -0.0000 -0.7071 0.7071
vn -0.0000 -0.7071 -0.7071
vn -0.7071 -0.7071 -0.0000
vn 0.7071 -0.7071 -0.0000
vn -0.0000 -0.8275 0.5615
vn -0.0000 -0.8275 -0.5615
vn -0.5626 -0.8267 -0.0000
vn 0.5625 -0.8268 -0.0000
vn -0.0000 -1.0000 -0.0000
vn -0.0000 -0.1880 0.9822
vn -0.0000 -0.1880 -0.9822
vn -0.9824 -0.1868 -0.0000
vn 0.9824 -0.1868 -0.0000
vn -0.6172 -0.4886 0.6167
vn -0.6172 -0.4887 -0.6166
vn 0.6172 -0.4887 0.6166
vn 0.6172 -0.4886 -0.6167
vn -0.0000 -0.3694 0.9293
vn 0.9302 -0.3671 -0.0000
vn -0.9302 -0.3671 -0.0000
vn -0.0000 -0.3694 -0.9293
vn -0.5773 0.5774 -0.5773
vn -0.6304 0.6304 0.4530
vn 0.5773 0.5774 -0.5773
vn 0.6304 0.6304 0.4530
vn -0.5773 0.5774 0.5773
vn -0.6304 0.6304 -0.4530
vn 0.5773 0.5774 0.5773
vn 0.6304 0.6304 -0.4530
vn 0.4724 0.7457 0.4698
vn -0.4724 0.7457 0.4698
vn 0.4724 0.7457 -0.4698
vn -0.4724 0.7457 -0.4698
vn 0.4705 -0.7465 0.4705
vn -0.4710 -0.7462 0.4705
vn 0.4710 -0.7462 -0.4705
vn -0.4705 -0.7465 -0.4705
vn 0.2760 -0.9202 0.2777
vn -0.2782 -0.9196 0.2773
vn 0.2782 -0.9196 -0.2773
vn -0.2760 -0.9202 -0.2777
vn 0.6788 -0.2822 0.6779
vn -0.6788 -0.2822 0.6779
vn 0.6788 -0.2822 -0.6779
vn -0.6788 -0.2822 -0.6779
vn -0.5625 -0.8268 -0.0000
vn 0.5626 -0.8267 -0.0000
vn -0.6173 -0.4887 0.6166
vn 0.6173 -0.4887 -0.6166
vt 0.658395 0.998481
vt 0.657849 0.998987
vt 0.657758 0.998481
vt 0.461143 0.569276
vt 0.461688 0.568770
vt 0.461779 0.569276
vt 0.106961 0.586878
vt 0.107506 0.586372
vt 0.107597 0.586878
vt 0.623621 0.998481
vt 0.623075 0.998987
vt 0.622985 0.998481
vt 0.658395 0.534684
vt 0.658031 0.535443
vt 0.657849 0.535190
vt 0.657667 0.964810
vt 0.658304 0.964557
vt 0.658304 0.965316
vt 0.623621 0.534684
vt 0.623257 0.535443
vt 0.623075 0.535190
vt 0.622894 0.964810
vt 0.623530 0.964557
vt 0.623530 0.965316
vt 0.461143 0.807815
vt 0.461507 0.807309
vt 0.461688 0.807309
vt 0.461870 0.602828
vt 0.461264 0.602997
vt 0.461234 0.602322
vt 0.106961 0.825417
vt 0.107324 0.824658
vt 0.107506 0.824911
vt 0.107688 0.620431
vt 0.107052 0.620684
vt 0.107052 0.619924
vt 0.677368 0.035697
vt 0.676402 0.035787
vt 0.677004 0.034937
vt 0.226505 0.656246
vt 0.226868 0.656752
vt 0.205053 0.729040
vt 0.204689 0.729040
vt 0.204689 0.728533
vt 0.529726 0.464303
vt 0.530755 0.464303
vt 0.530090 0.465063
vt 0.636215 0.965316
vt 0.635852 0.965316
vt 0.636215 0.964810
vt 0.636215 0.998481
vt 0.636215 0.998987
vt 0.635852 0.998481
vt 0.483322 0.602322
vt 0.483686 0.602322
vt 0.483322 0.602828
vt 0.483322 0.569276
vt 0.483322 0.568770
vt 0.483686 0.569276
vt 0.601442 0.965316
vt 0.601078 0.965316
vt 0.601442 0.964810
vt 0.601442 0.998481
vt 0.601442 0.998987
vt 0.601078 0.998481
vt 0.129140 0.619924
vt 0.129503 0.619924
vt 0.129140 0.620431
vt 0.129140 0.586878
vt 0.129140 0.586372
vt 0.129503 0.586878
vt 0.636215 0.534684
vt 0.636215 0.535190
vt 0.635852 0.534684
vt 0.601442 0.534684
vt 0.601442 0.535190
vt 0.601078 0.534684
vt 0.202870 0.620549
vt 0.202870 0.620043
vt 0.203234 0.620043
vt 0.250139 0.695369
vt 0.250139 0.694862
vt 0.250503 0.695369
vt 0.483322 0.807815
vt 0.483322 0.807309
vt 0.483686 0.807815
vt 0.129140 0.825417
vt 0.129140 0.824911
vt 0.129503 0.825417
vt 0.200579 0.695487
vt 0.200579 0.694981
vt 0.200942 0.695487
vt 0.226504 0.728533
vt 0.226868 0.728533
vt 0.226504 0.729040
vt 0.665283 0.050751
vt 0.665369 0.051420
vt 0.665005 0.051167
vt 0.599259 0.898172
vt 0.599623 0.898679
vt 0.599259 0.898679
vt 0.353091 0.965930
vt 0.353454 0.966436
vt 0.353091 0.966436
vt 0.541874 0.449339
vt 0.541725 0.448833
vt 0.542089 0.448833
vt 0.354910 0.740653
vt 0.355273 0.740862
vt 0.354910 0.740862
vt 0.319965 0.482979
vt 0.319986 0.482205
vt 0.319986 0.482712
vt 0.443650 0.084778
vt 0.443630 0.085552
vt 0.443630 0.085046
vt 0.000728 0.758255
vt 0.001091 0.758464
vt 0.000728 0.758464
vt 0.503910 0.566744
vt 0.503736 0.565614
vt 0.504134 0.566526
vt 0.749048 0.575668
vt 0.749272 0.574325
vt 0.749272 0.575039
vt 0.725148 0.575668
vt 0.725373 0.574325
vt 0.725373 0.575039
vt 0.259705 0.001013
vt 0.259986 0.001994
vt 0.259511 0.001096
vt 0.161519 0.943722
vt 0.161176 0.944447
vt 0.160933 0.943941
vt 0.732780 0.583840
vt 0.733374 0.584127
vt 0.732780 0.584346
vt 0.708880 0.583840
vt 0.709474 0.584127
vt 0.708880 0.584346
vt 0.137616 0.943722
vt 0.137273 0.944447
vt 0.137031 0.943941
vt 0.703293 0.001013
vt 0.703293 0.001519
vt 0.702929 0.001519
vt 0.001092 0.001013
vt 0.001092 0.001519
vt 0.000728 0.001519
vt 0.257632 0.584346
vt 0.257632 0.583840
vt 0.257996 0.583840
vt 0.727192 0.001013
vt 0.727192 0.001519
vt 0.726828 0.001519
vt 0.657667 0.965316
vt 0.461870 0.602322
vt 0.622894 0.965316
vt 0.107688 0.619924
vt 0.623621 0.998987
vt 0.634396 0.998481
vt 0.634396 0.998987
vt 0.450367 0.569276
vt 0.461143 0.568770
vt 0.658395 0.998987
vt 0.669170 0.998481
vt 0.669170 0.998987
vt 0.096185 0.586878
vt 0.106961 0.586372
vt 0.657667 0.501519
vt 0.658395 0.501519
vt 0.658395 0.535570
vt 0.622894 0.501519
vt 0.623621 0.501519
vt 0.623621 0.535570
vt 0.669170 0.534684
vt 0.669170 0.535697
vt 0.669170 0.964557
vt 0.669170 0.965316
vt 0.634396 0.534684
vt 0.634396 0.535697
vt 0.634396 0.964557
vt 0.634396 0.965316
vt 0.505983 0.035697
vt 0.529726 0.035190
vt 0.529726 0.035697
vt 0.505983 0.464810
vt 0.529726 0.464810
vt 0.461870 0.840861
vt 0.461143 0.840861
vt 0.676640 0.001013
vt 0.530454 0.001519
vt 0.530454 0.001013
vt 0.107688 0.858463
vt 0.106961 0.858463
vt 0.106961 0.824531
vt 0.701110 0.035190
vt 0.701110 0.035697
vt 0.530977 0.035697
vt 0.676731 0.034810
vt 0.677368 0.464810
vt 0.701110 0.464303
vt 0.701110 0.464810
vt 0.530363 0.465063
vt 0.676202 0.464183
vt 0.676640 0.465147
vt 0.530336 0.463689
vt 0.530418 0.036281
vt 0.677368 0.464303
vt 0.676731 0.036401
vt 0.530454 0.034684
vt 0.530090 0.001519
vt 0.676640 0.001519
vt 0.677004 0.001519
vt 0.461143 0.807140
vt 0.450367 0.807815
vt 0.450367 0.807056
vt 0.450367 0.603082
vt 0.450367 0.602322
vt 0.096185 0.825417
vt 0.096185 0.824404
vt 0.096185 0.620684
vt 0.096185 0.619924
vt 0.530454 0.498481
vt 0.677004 0.498481
vt 0.677004 0.465316
vt 0.635852 0.501519
vt 0.636215 0.501519
vt 0.601078 0.501519
vt 0.601442 0.501519
vt 0.179127 0.620549
vt 0.179127 0.623082
vt 0.202870 0.622575
vt 0.202870 0.623082
vt 0.483686 0.840861
vt 0.483322 0.840861
vt 0.129503 0.858463
vt 0.129140 0.858463
vt 0.205053 0.620549
vt 0.228795 0.620043
vt 0.228795 0.620549
vt 0.226504 0.695487
vt 0.226868 0.695487
vt 0.202870 0.586878
vt 0.203234 0.586878
vt 0.205053 0.620043
vt 0.204689 0.586878
vt 0.205053 0.586878
vt 0.203234 0.656246
vt 0.203234 0.623082
vt 0.230978 0.620043
vt 0.230615 0.586878
vt 0.230978 0.586878
vt 0.657758 0.534684
vt 0.205053 0.656752
vt 0.205053 0.656246
vt 0.461779 0.807815
vt 0.228687 0.695369
vt 0.228687 0.694862
vt 0.622984 0.534684
vt 0.107597 0.825417
vt 0.179127 0.695488
vt 0.179127 0.694981
vt 0.542089 0.051167
vt 0.665005 0.448833
vt 0.665305 0.449219
vt 0.599259 0.501519
vt 0.599623 0.898467
vt 0.665733 0.448621
vt 0.665669 0.051289
vt 0.541531 0.448862
vt 0.541489 0.051199
vt 0.541874 0.050661
vt 0.355273 0.569276
vt 0.355273 0.740356
vt 0.001091 0.757958
vt 0.000728 0.586581
vt 0.001091 0.586878
vt 0.505620 0.501223
vt 0.505983 0.898172
vt 0.505620 0.898469
vt 0.443994 0.482501
vt 0.443630 0.482205
vt 0.505983 0.898679
vt 0.599259 0.501013
vt 0.505983 0.501519
vt 0.505983 0.501013
vt 0.448548 0.740356
vt 0.448548 0.740862
vt 0.259815 0.966436
vt 0.259705 0.566744
vt 0.503348 0.566148
vt 0.503370 0.001639
vt 0.503910 0.001013
vt 0.748929 0.010167
vt 0.748929 0.575193
vt 0.503800 0.002233
vt 0.443993 0.085256
vt 0.319750 0.085076
vt 0.260331 0.001519
vt 0.320136 0.084539
vt 0.260246 0.566118
vt 0.319622 0.482501
vt 0.160812 0.586878
vt 0.136909 0.586878
vt 0.137616 0.587097
vt 0.732780 0.001519
vt 0.733400 0.583619
vt 0.709501 0.583619
vt 0.708880 0.001519
vt 0.709587 0.001740
vt 0.749048 0.009691
vt 0.733486 0.001740
vt 0.733604 0.001264
vt 0.725148 0.009691
vt 0.725030 0.010167
vt 0.725030 0.575193
vt 0.257632 0.001013
vt 0.257632 0.001519
vt 0.001092 0.584346
vt 0.001092 0.583840
vt 0.257996 0.001519
vt 0.703293 0.584346
vt 0.708880 0.001013
vt 0.732780 0.001013
vt 0.727192 0.584346
vt 0.450367 0.840861
vt 0.634396 0.501519
vt 0.669170 0.501519
vt 0.096185 0.858463
vt 0.505983 0.464303
vt 0.250139 0.728415
vt 0.228687 0.728415
vt 0.228687 0.659285
vt 0.250139 0.692330
vt 0.228687 0.692330
vt 0.200579 0.728533
vt 0.179127 0.728533
vt 0.205053 0.695488
vt 0.205053 0.728533
vt 0.205053 0.623082
vt 0.226505 0.623082
vt 0.200579 0.692449
vt 0.179127 0.659285
vt 0.200579 0.659285
vt 0.226504 0.692449
vt 0.205053 0.659285
vt 0.226504 0.659285
vt 0.250139 0.656246
vt 0.228687 0.623082
vt 0.250139 0.623082
vt 0.676640 0.463599
vt 0.179127 0.620043
vt 0.179127 0.586878
vt 0.228795 0.586878
vt 0.254721 0.586878
vt 0.179127 0.656246
vt 0.448548 0.569276
vt 0.259815 0.569276
vt 0.353091 0.569276
vt 0.094366 0.757958
vt 0.094366 0.586878
vt 0.443608 0.483039
vt 0.176965 0.935356
vt 0.161519 0.587097
vt 0.176965 0.595463
vt 0.153063 0.935356
vt 0.153063 0.595463
vt 0.155225 0.586878
vt 0.131322 0.586878
vt 0.658031 0.964557
vt 0.623257 0.964557
vt 0.461507 0.602828
vt 0.107324 0.620684
vt 0.677368 0.035190
vt 0.226505 0.656752
vt 0.226868 0.656246
vt 0.353454 0.966224
vt 0.161638 0.944197
vt 0.137735 0.944197
vt 0.450367 0.568770
vt 0.096185 0.586372
vt 0.505983 0.035190
vt 0.530090 0.034684
vt 0.530090 0.498481
vt 0.676640 0.498481
vt 0.179127 0.622575
vt 0.204689 0.620043
vt 0.202870 0.656246
vt 0.230615 0.620043
vt 0.599623 0.501225
vt 0.665369 0.448327
vt 0.354910 0.568979
vt 0.259815 0.965930
vt 0.749272 0.011034
vt 0.504164 0.001366
vt 0.259815 0.565524
vt 0.709704 0.001264
vt 0.000728 0.583840
vt 0.703293 0.583840
vt 0.727192 0.583840
vt 0.250139 0.659284
vt 0.179127 0.692449
vt 0.205053 0.692449
vt 0.228687 0.656246
vt 0.254721 0.620043
vt 0.155225 0.943941
vt 0.131322 0.943941
s 0
usemtl autel
f 10/1/1 12/2/1 9/3/1
f 14/4/2 16/5/2 13/6/2
f 18/7/3 20/8/3 17/9/3
f 22/10/4 24/11/4 21/12/4
f 34/13/5 36/14/5 37/15/5
f 39/16/6 41/17/6 42/18/6
f 44/19/7 46/20/7 47/21/7
f 49/22/8 51/23/8 52/24/8
f 62/25/9 64/26/9 65/27/9
f 67/28/10 69/29/10 70/30/10
f 72/31/11 74/32/11 75/33/11
f 77/34/12 79/35/12 80/36/12
f 82/37/13 84/38/13 86/39/13
f 88/40/13 90/41/13 92/41/13
f 94/42/14 96/43/14 98/44/14
f 100/45/14 102/46/14 104/47/14
f 105/48/15 106/49/15 107/50/15
f 108/51/16 109/52/16 110/53/16
f 111/54/17 112/55/17 113/56/17
f 114/57/18 115/58/18 116/59/18
f 117/60/18 118/61/18 119/62/18
f 120/63/19 121/64/19 122/65/19
f 123/66/20 124/67/20 125/68/20
f 126/69/15 127/70/15 128/71/15
f 129/72/16 130/73/16 131/74/16
f 132/75/19 133/76/19 134/77/19
f 135/78/20 136/79/20 137/80/20
f 138/81/21 139/82/21 140/83/21
f 141/84/21 142/85/21 143/86/21
f 144/87/22 145/88/22 146/89/22
f 147/90/22 148/91/22 149/92/22
f 150/93/17 151/94/17 152/95/17
f 154/96/23 156/97/23 153/98/23
f 158/99/24 160/100/24 157/101/24
f 162/102/25 164/103/25 161/104/25
f 166/105/26 168/106/26 165/107/26
f 169/108/27 171/109/27 172/110/27
f 173/111/28 175/112/28 176/113/28
f 177/114/29 179/115/29 180/116/29
f 181/117/30 183/118/30 184/119/30
f 185/120/31 187/121/31 188/122/31
f 189/123/32 191/124/32 192/125/32
f 193/126/33 195/127/33 196/128/33
f 197/129/34 199/130/34 200/131/34
f 202/132/35 204/133/35 201/134/35
f 206/135/36 208/136/36 205/137/36
f 210/138/37 212/139/37 209/140/37
f 214/141/38 216/142/38 213/143/38
f 217/144/39 218/145/39 219/146/39
f 220/147/40 221/148/40 222/149/40
f 223/150/41 224/151/41 225/152/41
f 226/153/42 227/154/42 228/155/42
f 10/1/43 38/156/43 42/18/43
f 14/4/44 66/157/44 70/30/44
f 22/10/45 48/158/45 52/24/45
f 18/7/46 76/159/46 80/36/46
f 23/160/4 8/161/4 7/162/4
f 4/163/2 15/164/2 14/4/2
f 11/165/1 2/166/1 1/167/1
f 6/168/3 19/169/3 18/7/3
f 34/13/43 20/170/43 19/171/43
f 41/17/47 36/14/47 35/172/47
f 44/19/45 16/173/45 15/174/45
f 51/23/48 46/20/48 45/175/48
f 35/172/43 26/176/43 25/177/43
f 42/18/43 28/178/43 27/179/43
f 45/175/45 30/180/45 29/181/45
f 52/24/45 32/182/45 31/183/45
f 40/184/49 87/185/49 92/186/49
f 37/187/50 100/45/50 99/188/50
f 62/25/44 12/189/44 11/190/44
f 69/191/50 64/192/50 63/193/50
f 72/31/46 24/194/46 23/195/46
f 79/35/49 74/32/49 73/196/49
f 82/37/49 47/197/49 46/198/49
f 90/199/51 85/200/51 84/38/51
f 93/201/50 50/202/50 49/203/50
f 103/204/51 96/205/51 95/206/51
f 101/207/51 92/186/51 91/208/51
f 98/209/51 83/210/51 82/37/51
f 89/211/48 65/212/48 64/192/48
f 86/39/47 68/213/47 67/214/47
f 63/215/44 54/216/44 53/217/44
f 70/30/44 56/218/44 55/219/44
f 73/196/46 58/220/46 57/221/46
f 80/36/46 60/222/46 59/223/46
f 78/224/48 104/47/48 103/204/48
f 75/225/47 95/206/47 94/226/47
f 108/51/47 106/49/47 105/48/47
f 114/57/50 112/55/50 111/54/50
f 120/63/48 118/61/48 117/60/48
f 126/69/49 124/67/49 123/66/49
f 129/72/47 128/227/47 127/228/47
f 132/75/48 116/229/48 115/230/48
f 107/231/49 136/79/49 135/78/49
f 131/232/50 138/233/50 140/234/50
f 141/84/50 110/235/50 109/236/50
f 144/87/49 122/237/49 121/238/49
f 147/239/49 134/240/49 133/241/49
f 151/94/50 119/242/50 118/243/50
f 137/80/48 143/244/48 142/245/48
f 149/246/47 113/247/47 112/248/47
f 125/249/48 140/234/48 139/250/48
f 146/251/47 152/252/47 151/253/47
f 127/70/3 17/9/3 20/8/3
f 77/34/4 123/66/4 125/68/4
f 117/60/2 49/22/2 48/158/2
f 94/42/1 150/93/1 152/95/1
f 130/73/1 33/254/1 37/15/1
f 105/48/3 39/16/3 38/156/3
f 88/40/4 135/255/4 137/256/4
f 142/85/2 61/257/2 65/27/2
f 9/3/1 109/52/1 108/51/1
f 139/82/2 99/258/2 104/259/2
f 133/76/4 43/260/4 47/21/4
f 13/6/2 115/58/2 114/57/2
f 145/88/3 71/261/3 75/33/3
f 21/12/4 121/64/4 120/63/4
f 67/28/1 111/54/1 113/56/1
f 148/91/3 81/262/3 86/263/3
f 157/264/50 154/96/50 153/98/50
f 166/105/49 161/265/49 164/266/49
f 168/267/47 159/268/47 158/99/47
f 163/269/48 156/97/48 155/270/48
f 167/271/51 102/46/51 101/207/51
f 163/269/51 96/205/51 164/266/51
f 155/270/51 84/38/51 83/210/51
f 159/272/51 90/199/51 160/273/51
f 169/108/52 176/274/52 170/275/52
f 182/276/53 177/277/53 180/278/53
f 184/279/54 175/280/54 174/281/54
f 179/115/55 172/282/55 171/283/55
f 176/284/1 158/99/1 157/101/1
f 165/285/3 183/286/3 182/287/3
f 171/109/2 153/288/2 156/289/2
f 180/290/4 162/102/4 161/104/4
f 189/291/56 186/292/56 185/120/56
f 196/293/57 197/129/57 193/294/57
f 200/295/58 191/124/58 190/296/58
f 195/297/59 188/122/59 187/121/59
f 196/293/60 178/298/60 177/114/60
f 186/292/60 172/282/60 187/121/60
f 184/299/60 198/300/60 181/301/60
f 192/302/60 174/303/60 173/111/60
f 205/304/61 202/132/61 201/134/61
f 214/141/62 209/305/62 212/306/62
f 216/307/63 207/308/63 206/135/63
f 211/309/64 204/310/64 203/311/64
f 189/123/65 207/308/65 190/296/65
f 197/312/66 215/313/66 214/314/66
f 203/311/67 185/315/67 188/316/67
f 193/126/68 211/309/68 194/317/68
f 221/148/50 217/318/50 219/319/50
f 226/320/49 224/151/49 223/150/49
f 228/321/47 222/149/47 221/148/47
f 225/152/48 219/319/48 218/322/48
f 223/323/4 210/138/4 209/140/4
f 201/324/2 218/145/2 217/144/2
f 227/154/3 213/325/3 216/307/3
f 220/326/1 206/135/1 205/137/1
f 2/166/43 42/18/43 27/179/43
f 54/216/44 11/190/44 1/327/44
f 4/163/44 70/30/44 55/219/44
f 30/180/45 15/174/45 3/328/45
f 6/168/46 80/36/46 59/223/46
f 26/176/43 19/171/43 5/329/43
f 8/161/45 52/24/45 31/183/45
f 58/220/46 23/195/46 7/330/46
f 9/3/43 105/48/43 38/156/43
f 61/257/44 109/236/44 12/189/44
f 13/6/44 111/54/44 66/157/44
f 43/260/45 115/230/45 16/173/45
f 17/9/46 123/66/46 76/159/46
f 33/254/43 127/228/43 20/170/43
f 21/12/45 117/60/45 48/158/45
f 71/261/46 121/238/46 24/194/46
f 28/178/43 35/172/43 25/177/43
f 32/182/45 45/175/45 29/181/45
f 92/186/51 36/331/51 40/184/51
f 99/258/44 130/332/44 37/333/44
f 39/334/46 135/335/46 87/336/46
f 46/198/51 98/209/51 82/37/51
f 81/262/46 133/337/46 47/338/46
f 49/339/44 150/93/44 93/340/44
f 56/218/44 63/215/44 53/217/44
f 60/222/46 73/196/46 57/221/46
f 68/213/51 89/211/51 64/192/51
f 88/40/45 142/341/45 65/342/45
f 67/343/43 148/344/43 86/345/43
f 95/206/51 78/224/51 103/204/51
f 94/346/43 145/347/43 75/348/43
f 77/349/45 139/350/45 104/351/45
f 90/199/51 154/96/51 160/273/51
f 97/352/51 155/270/51 83/210/51
f 91/208/51 167/271/51 101/207/51
f 96/205/51 166/105/51 164/266/51
f 143/244/51 106/353/51 110/354/51
f 116/355/51 149/246/51 112/248/51
f 118/356/51 146/251/51 151/253/51
f 140/234/51 128/357/51 131/232/51
f 153/288/44 176/274/44 157/358/44
f 162/102/45 171/359/45 156/360/45
f 158/99/43 183/286/43 168/267/43
f 165/361/46 180/278/46 161/362/46
f 169/363/60 192/302/60 173/111/60
f 178/298/60 187/121/60 172/282/60
f 174/303/60 199/130/60 184/299/60
f 181/301/60 196/293/60 177/114/60
f 185/364/69 208/365/69 189/366/69
f 194/317/70 203/311/70 188/316/70
f 190/296/71 215/313/71 200/295/71
f 197/367/72 212/306/72 193/368/72
f 201/134/44 220/369/44 205/304/44
f 210/138/45 218/145/45 204/310/45
f 206/135/43 227/154/43 216/307/43
f 213/143/46 223/370/46 209/305/46
f 219/319/51 228/321/51 221/148/51
f 10/1/1 11/165/1 12/2/1
f 14/4/2 15/164/2 16/5/2
f 18/7/3 19/169/3 20/8/3
f 22/10/4 23/160/4 24/11/4
f 37/15/1 33/254/1 34/13/1
f 34/13/47 35/172/47 36/14/47
f 42/18/3 38/156/3 39/16/3
f 39/16/15 40/371/15 41/17/15
f 47/21/4 43/260/4 44/19/4
f 44/19/48 45/175/48 46/20/48
f 52/24/2 48/158/2 49/22/2
f 49/22/18 50/372/18 51/23/18
f 65/27/2 61/257/2 62/25/2
f 62/25/50 63/215/50 64/26/50
f 70/30/1 66/157/1 67/28/1
f 67/28/17 68/373/17 69/29/17
f 75/33/3 71/261/3 72/31/3
f 72/31/49 73/196/49 74/32/49
f 80/36/4 76/159/4 77/34/4
f 77/34/20 78/374/20 79/35/20
f 86/39/73 81/375/73 82/37/73
f 82/37/51 83/210/51 84/38/51
f 84/38/74 85/200/74 86/39/74
f 92/41/75 87/376/75 88/40/75
f 88/40/76 89/377/76 90/41/76
f 90/41/51 91/41/51 92/41/51
f 98/44/77 93/340/77 94/42/77
f 94/42/78 95/43/78 96/43/78
f 96/43/51 97/43/51 98/44/51
f 104/47/79 99/188/79 100/45/79
f 100/45/51 101/207/51 102/46/51
f 102/46/80 103/204/80 104/47/80
f 154/96/81 155/270/81 156/97/81
f 158/99/82 159/268/82 160/100/82
f 162/102/83 163/378/83 164/103/83
f 166/105/84 167/271/84 168/106/84
f 169/108/85 170/275/85 171/109/85
f 173/111/86 174/303/86 175/112/86
f 177/114/87 178/298/87 179/115/87
f 181/117/88 182/276/88 183/118/88
f 185/120/89 186/292/89 187/121/89
f 189/123/90 190/296/90 191/124/90
f 193/126/91 194/317/91 195/127/91
f 197/129/92 198/300/92 199/130/92
f 202/132/93 203/379/93 204/133/93
f 206/135/94 207/308/94 208/136/94
f 210/138/95 211/309/95 212/139/95
f 214/141/96 215/380/96 216/142/96
f 10/1/43 9/3/43 38/156/43
f 14/4/44 13/6/44 66/157/44
f 22/10/45 21/12/45 48/158/45
f 18/7/46 17/9/46 76/159/46
f 23/160/4 22/10/4 8/161/4
f 4/163/2 3/381/2 15/164/2
f 11/165/1 10/1/1 2/166/1
f 6/168/3 5/382/3 19/169/3
f 34/13/43 33/254/43 20/170/43
f 41/17/47 40/371/47 36/14/47
f 44/19/45 43/260/45 16/173/45
f 51/23/48 50/372/48 46/20/48
f 35/172/43 34/13/43 26/176/43
f 42/18/43 41/17/43 28/178/43
f 45/175/45 44/19/45 30/180/45
f 52/24/45 51/23/45 32/182/45
f 40/184/49 39/383/49 87/185/49
f 37/187/50 36/331/50 100/45/50
f 62/25/44 61/257/44 12/189/44
f 69/191/50 68/213/50 64/192/50
f 72/31/46 71/261/46 24/194/46
f 79/35/49 78/374/49 74/32/49
f 82/37/49 81/375/49 47/197/49
f 90/199/51 89/211/51 85/200/51
f 93/201/50 98/209/50 50/202/50
f 103/204/51 102/46/51 96/205/51
f 101/207/51 100/45/51 92/186/51
f 98/209/51 97/352/51 83/210/51
f 89/211/48 88/384/48 65/212/48
f 86/39/47 85/200/47 68/213/47
f 63/215/44 62/25/44 54/216/44
f 70/30/44 69/29/44 56/218/44
f 73/196/46 72/31/46 58/220/46
f 80/36/46 79/35/46 60/222/46
f 78/224/48 77/385/48 104/47/48
f 75/225/47 74/386/47 95/206/47
f 108/51/47 110/53/47 106/49/47
f 114/57/50 116/59/50 112/55/50
f 120/63/48 122/65/48 118/61/48
f 126/69/49 128/71/49 124/67/49
f 129/72/47 131/74/47 128/227/47
f 132/75/48 134/77/48 116/229/48
f 107/231/49 106/353/49 136/79/49
f 131/232/50 130/387/50 138/233/50
f 141/84/50 143/86/50 110/235/50
f 144/87/49 146/89/49 122/237/49
f 147/239/49 149/246/49 134/240/49
f 151/94/50 150/93/50 119/242/50
f 137/80/48 136/79/48 143/244/48
f 149/246/47 148/388/47 113/247/47
f 125/249/48 124/389/48 140/234/48
f 146/251/47 145/390/47 152/252/47
f 127/70/3 126/69/3 17/9/3
f 77/34/4 76/159/4 123/66/4
f 117/60/2 119/62/2 49/22/2
f 94/42/1 93/340/1 150/93/1
f 130/73/1 129/72/1 33/254/1
f 105/48/3 107/50/3 39/16/3
f 88/40/4 87/376/4 135/255/4
f 142/85/2 141/84/2 61/257/2
f 9/3/1 12/2/1 109/52/1
f 139/82/2 138/81/2 99/258/2
f 133/76/4 132/75/4 43/260/4
f 13/6/2 16/5/2 115/58/2
f 145/88/3 144/87/3 71/261/3
f 21/12/4 24/11/4 121/64/4
f 67/28/1 66/157/1 111/54/1
f 148/91/3 147/90/3 81/262/3
f 157/264/50 160/273/50 154/96/50
f 166/105/49 165/107/49 161/265/49
f 168/267/47 167/391/47 159/268/47
f 163/269/48 162/392/48 156/97/48
f 167/271/51 166/105/51 102/46/51
f 163/269/51 97/352/51 96/205/51
f 155/270/51 154/96/51 84/38/51
f 159/272/51 91/208/51 90/199/51
f 169/108/52 173/393/52 176/274/52
f 182/276/53 181/117/53 177/277/53
f 184/279/54 183/286/54 175/280/54
f 179/115/55 178/298/55 172/282/55
f 176/284/1 175/280/1 158/99/1
f 165/285/3 168/267/3 183/286/3
f 171/109/2 170/275/2 153/288/2
f 180/290/4 179/394/4 162/102/4
f 189/291/56 192/302/56 186/292/56
f 196/293/57 198/300/57 197/129/57
f 200/295/97 199/395/97 191/124/97
f 195/297/98 194/396/98 188/122/98
f 196/293/60 195/297/60 178/298/60
f 186/292/60 169/363/60 172/282/60
f 184/299/60 199/130/60 198/300/60
f 192/302/60 191/397/60 174/303/60
f 205/304/61 208/365/61 202/132/61
f 214/141/62 213/143/62 209/305/62
f 216/307/63 215/313/63 207/308/63
f 211/309/64 210/138/64 204/310/64
f 189/123/99 208/136/99 207/308/99
f 197/312/66 200/295/66 215/313/66
f 203/311/67 202/398/67 185/315/67
f 193/126/100 212/139/100 211/309/100
f 221/148/50 220/147/50 217/318/50
f 226/320/49 228/321/49 224/151/49
f 228/321/47 227/399/47 222/149/47
f 225/152/48 224/151/48 219/319/48
f 223/323/4 225/400/4 210/138/4
f 201/324/2 204/310/2 218/145/2
f 227/154/3 226/153/3 213/325/3
f 220/326/1 222/401/1 206/135/1
f 2/166/43 10/1/43 42/18/43
f 54/216/44 62/25/44 11/190/44
f 4/163/44 14/4/44 70/30/44
f 30/180/45 44/19/45 15/174/45
f 6/168/46 18/7/46 80/36/46
f 26/176/43 34/13/43 19/171/43
f 8/161/45 22/10/45 52/24/45
f 58/220/46 72/31/46 23/195/46
f 9/3/43 108/51/43 105/48/43
f 61/257/44 141/84/44 109/236/44
f 13/6/44 114/57/44 111/54/44
f 43/260/45 132/75/45 115/230/45
f 17/9/46 126/69/46 123/66/46
f 33/254/43 129/72/43 127/228/43
f 21/12/45 120/63/45 117/60/45
f 71/261/46 144/87/46 121/238/46
f 28/178/43 41/17/43 35/172/43
f 32/182/45 51/23/45 45/175/45
f 92/186/51 100/45/51 36/331/51
f 99/258/44 138/81/44 130/332/44
f 39/334/46 107/402/46 135/335/46
f 46/198/51 50/202/51 98/209/51
f 81/262/46 147/90/46 133/337/46
f 49/339/44 119/242/44 150/93/44
f 56/218/44 69/29/44 63/215/44
f 60/222/46 79/35/46 73/196/46
f 68/213/51 85/200/51 89/211/51
f 88/40/45 137/256/45 142/341/45
f 67/343/43 113/403/43 148/344/43
f 95/206/51 74/386/51 78/224/51
f 94/346/43 152/404/43 145/347/43
f 77/349/45 125/405/45 139/350/45
f 90/199/51 84/38/51 154/96/51
f 97/352/51 163/269/51 155/270/51
f 91/208/51 159/272/51 167/271/51
f 96/205/51 102/46/51 166/105/51
f 143/244/51 136/79/51 106/353/51
f 116/355/51 134/240/51 149/246/51
f 118/356/51 122/406/51 146/251/51
f 140/234/51 124/389/51 128/357/51
f 153/288/44 170/275/44 176/274/44
f 162/102/45 179/394/45 171/359/45
f 158/99/43 175/280/43 183/286/43
f 165/361/46 182/276/46 180/278/46
f 169/363/60 186/292/60 192/302/60
f 178/298/60 195/297/60 187/121/60
f 174/303/60 191/397/60 199/130/60
f 181/301/60 198/300/60 196/293/60
f 185/364/69 202/132/69 208/365/69
f 194/317/70 211/309/70 203/311/70
f 190/296/71 207/308/71 215/313/71
f 197/367/72 214/141/72 212/306/72
f 201/134/44 217/407/44 220/369/44
f 210/138/45 225/400/45 218/145/45
f 206/135/43 222/401/43 227/154/43
f 213/143/46 226/408/46 223/370/46
f 219/319/51 224/151/51 228/321/51
