# Blender 5.1.1
# www.blender.org
mtllib ArchesUpper.mtl
o Circle.001_0.002
v -4.524696 11.715180 -4.906657
v -3.784813 11.151537 -5.333828
v -7.959741 11.151537 -2.923436
v -7.219857 11.715181 -3.350602
v -4.524696 16.551016 -4.906658
v -4.570584 17.034418 -4.880163
v -3.824923 17.704252 -5.310672
v -3.784813 17.134197 -5.333830
v -7.173965 17.034418 -3.377099
v -7.919631 17.704262 -2.946595
v -7.800840 18.694519 -3.015179
v -7.083750 17.384056 -3.429188
v -6.952272 17.694433 -3.505094
v -7.607939 19.384741 -3.126551
v -7.348335 19.969873 -3.276432
v -6.784023 17.971083 -3.602235
v -6.584723 18.212421 -3.717300
v -7.032009 20.464552 -3.459066
v -6.671113 20.868134 -3.667429
v -6.361162 18.415508 -3.846373
v -5.623597 18.577562 -4.272206
v -5.872277 18.696575 -4.128632
v -5.872277 21.389544 -4.128637
v -5.465031 21.177305 -4.363759
v -5.159825 18.212421 -4.539962
v -5.383391 18.415508 -4.410891
v -5.073436 20.868130 -4.589845
v -4.712544 20.464546 -4.798208
v -7.219857 16.551012 -3.350604
v -7.959741 17.134203 -2.923438
v -7.083750 17.384056 -3.429188
v -7.800840 18.694519 -3.015179
v -6.279518 21.177311 -3.893515
v -6.120952 18.577562 -3.985057
v -5.872277 21.389544 -4.128637
v -5.872277 18.696575 -4.128632
v -4.396218 19.969870 -4.980836
v -4.960526 17.971081 -4.655028
v -4.660804 17.384060 -4.828075
v -4.792276 17.694433 -4.752169
v -4.136615 19.384735 -5.130722
v -3.943708 18.694513 -5.242093
v -4.524696 16.551016 -4.906658
v -3.784813 17.134197 -5.333830
v -7.219857 11.715181 -3.350602
v -7.959741 11.151537 -2.923436
v -7.959741 17.134203 -2.923438
v -7.219857 16.551012 -3.350604
v -6.784023 17.971083 -3.602235
v -7.348335 19.969873 -3.276432
v -4.136615 19.384735 -5.130722
v -4.792276 17.694433 -4.752169
v -4.960526 17.971081 -4.655028
v -4.396218 19.969870 -4.980836
v -3.824923 17.704252 -5.310672
v -4.570584 17.034418 -4.880163
v -7.173965 17.034418 -3.377099
v -7.490468 17.034418 -3.925303
v -7.536360 16.551012 -3.898808
v -7.219857 16.551012 -3.350604
v -7.536360 11.715180 -3.898806
v -7.219857 11.715181 -3.350602
v -5.872277 18.696575 -4.128632
v -6.188780 18.696575 -4.676836
v -6.437455 18.577560 -4.533261
v -6.120952 18.577562 -3.985057
v -5.623597 18.577562 -4.272206
v -5.940104 18.577560 -4.820406
v -6.188780 18.696575 -4.676836
v -5.872277 18.696575 -4.128632
v -4.524696 16.551016 -4.906658
v -4.841199 16.551016 -5.454858
v -4.887087 17.034418 -5.428362
v -4.570584 17.034418 -4.880163
v -6.677665 18.415508 -4.394576
v -6.361162 18.415508 -3.846373
v -4.977306 17.384060 -5.376279
v -4.660804 17.384060 -4.828075
v -6.361162 18.415508 -3.846373
v -6.677665 18.415508 -4.394576
v -6.901226 18.212421 -4.265500
v -6.584723 18.212421 -3.717300
v -4.660804 17.384060 -4.828075
v -4.977306 17.384060 -5.376279
v -5.108779 17.694433 -5.300369
v -4.792276 17.694433 -4.752169
v -7.100526 17.971081 -4.150434
v -6.784023 17.971083 -3.602235
v -7.219857 11.715181 -3.350602
v -7.536360 11.715180 -3.898806
v -4.841199 11.715180 -5.454856
v -4.524696 11.715180 -4.906657
v -4.792276 17.694433 -4.752169
v -5.108779 17.694433 -5.300369
v -5.277033 17.971081 -5.203232
v -4.960526 17.971081 -4.655028
v -6.784023 17.971083 -3.602235
v -7.100526 17.971081 -4.150434
v -7.268780 17.694433 -4.053298
v -6.952272 17.694433 -3.505094
v -4.960526 17.971081 -4.655028
v -5.277033 17.971081 -5.203232
v -5.476333 18.212421 -5.088166
v -5.159825 18.212421 -4.539962
v -4.524696 11.715180 -4.906657
v -4.841199 11.715180 -5.454856
v -4.841199 16.551016 -5.454858
v -4.524696 16.551016 -4.906658
v -7.400253 17.384056 -3.977387
v -7.083750 17.384056 -3.429188
v -5.699894 18.415508 -4.959090
v -5.383391 18.415508 -4.410891
v -7.490468 17.034418 -3.925303
v -7.173965 17.034418 -3.377099
v -5.383391 18.415508 -4.410891
v -5.699894 18.415508 -4.959090
v -7.216273 11.715183 3.435974
v -7.956156 11.151539 3.008803
v -3.781233 11.151539 5.419203
v -4.521111 11.715183 4.992028
v -7.216273 16.551018 3.435972
v -7.170385 17.034420 3.462467
v -7.916047 17.704256 3.031958
v -7.956156 17.134201 3.008801
v -4.567004 17.034422 4.965532
v -3.821343 17.704266 5.396040
v -3.940129 18.694521 5.327460
v -4.657220 17.384060 4.913443
v -4.788692 17.694437 4.837537
v -4.133035 19.384743 5.216084
v -4.392638 19.969877 5.066203
v -4.956945 17.971085 4.740400
v -5.156246 18.212425 4.625330
v -4.708965 20.464554 4.883569
v -5.069861 20.868137 4.675210
v -5.379807 18.415510 4.496258
v -6.117368 18.577564 4.070424
v -5.868692 18.696579 4.213999
v -5.868692 21.389545 4.213998
v -6.275938 21.177309 3.978876
v -6.581140 18.212425 3.802668
v -6.357578 18.415510 3.931740
v -6.667533 20.868132 3.752790
v -7.028429 20.464548 3.544427
v -4.521111 16.551014 4.992026
v -3.781233 17.134205 5.419201
v -4.657220 17.384060 4.913443
v -3.940129 18.694521 5.327460
v -5.620017 18.577564 4.357574
v -5.461456 21.177313 4.449121
v -5.868692 21.389545 4.213998
v -5.868692 18.696579 4.213999
v -7.344756 19.969872 3.361798
v -6.780439 17.971085 3.687603
v -7.080166 17.384064 3.514556
v -6.948693 17.694435 3.590461
v -7.604359 19.384737 3.211913
v -7.797261 18.694515 3.100542
v -7.216273 16.551018 3.435972
v -7.956156 17.134201 3.008801
v -4.521111 11.715183 4.992028
v -3.781233 11.151539 5.419203
v -3.781233 17.134205 5.419201
v -4.521111 16.551014 4.992026
v -4.956945 17.971085 4.740400
v -4.392638 19.969877 5.066203
v -7.604359 19.384737 3.211913
v -6.948693 17.694435 3.590461
v -6.780439 17.971085 3.687603
v -7.344756 19.969872 3.361798
v -7.916047 17.704256 3.031958
v -7.170385 17.034420 3.462467
v -4.567004 17.034422 4.965532
v -4.883507 17.034422 5.513731
v -4.837619 16.551014 5.540226
v -4.521111 16.551014 4.992026
v -4.837619 11.715183 5.540227
v -4.521111 11.715183 4.992028
v -5.868692 18.696579 4.213999
v -6.185200 18.696579 4.762198
v -5.936520 18.577564 4.905773
v -5.620017 18.577564 4.357574
v -6.117368 18.577564 4.070424
v -6.433875 18.577564 4.618628
v -6.185200 18.696579 4.762198
v -5.868692 18.696579 4.213999
v -7.216273 16.551018 3.435972
v -7.532776 16.551020 3.984172
v -7.486888 17.034420 4.010667
v -7.170385 17.034420 3.462467
v -5.620017 18.577564 4.357574
v -5.936520 18.577564 4.905773
v -5.696310 18.415512 5.044458
v -5.379807 18.415510 4.496258
v -7.396668 17.384064 4.062755
v -7.080166 17.384064 3.514556
v -5.379807 18.415510 4.496258
v -5.696310 18.415512 5.044458
v -5.472749 18.212425 5.173534
v -5.156246 18.212425 4.625330
v -7.080166 17.384064 3.514556
v -7.396668 17.384064 4.062755
v -7.265196 17.694435 4.138661
v -6.948693 17.694435 3.590461
v -5.273449 17.971085 5.288599
v -4.956945 17.971085 4.740400
v -4.521111 11.715183 4.992028
v -4.837619 11.715183 5.540227
v -7.532776 11.715183 3.984173
v -7.216273 11.715183 3.435974
v -7.096947 17.971085 4.235802
v -6.780439 17.971085 3.687603
v -4.956945 17.971085 4.740400
v -5.273449 17.971085 5.288599
v -5.105199 17.694437 5.385741
v -4.788692 17.694437 4.837537
v -6.780439 17.971085 3.687603
v -7.096947 17.971085 4.235802
v -6.897647 18.212425 4.350868
v -6.581140 18.212425 3.802668
v -7.216273 11.715183 3.435974
v -7.532776 11.715183 3.984173
v -7.532776 16.551020 3.984172
v -7.216273 16.551018 3.435972
v -4.973727 17.384060 5.461647
v -4.657220 17.384060 4.913443
v -6.581140 18.212425 3.802668
v -6.897647 18.212425 4.350868
v -6.674081 18.415510 4.479939
v -6.357578 18.415510 3.931740
v -4.657220 17.384060 4.913443
v -4.973727 17.384060 5.461647
v -4.883507 17.034422 5.513731
v -4.567004 17.034422 4.965532
v -6.433875 18.577564 4.618628
v -6.117368 18.577564 4.070424
v -8.281797 11.715181 -1.821589
v -8.281801 11.151537 -2.364243
v -8.281806 11.154715 2.462842
v -8.281801 11.715182 1.913895
v -8.281797 17.201595 -1.821590
v -8.281797 17.516277 -1.757989
v -8.281801 17.704254 -2.317930
v -8.281801 17.134199 -2.364244
v -8.281801 17.516279 1.850292
v -8.281801 17.704264 2.410232
v -8.281801 18.694519 2.273065
v -8.281801 17.972988 1.725248
v -8.281801 18.370831 1.543028
v -8.281801 19.384741 2.050321
v -8.281801 19.969875 1.750555
v -8.281801 18.680483 1.309832
v -8.281797 18.941538 1.033601
v -8.281801 20.464554 1.385293
v -8.281801 20.868135 0.968566
v -8.281797 19.146370 0.723747
v -8.281797 19.291183 -0.298514
v -8.281797 19.373669 0.046151
v -8.281801 21.389545 0.046150
v -8.281801 21.177307 -0.424094
v -8.281797 18.941536 -0.941299
v -8.281797 19.146368 -0.631446
v -8.281801 20.868130 -0.876269
v -8.281801 20.464548 -1.292992
v -8.281801 17.201597 1.913893
v -8.281801 17.134205 2.456547
v -8.281801 17.972988 1.725248
v -8.281801 18.694519 2.273065
v -8.281797 19.291183 0.390820
v -8.281797 19.146370 0.723747
v -8.281801 20.868135 0.968566
v -8.281801 21.177311 0.516390
v -8.281801 20.868130 -0.876269
v -8.281797 19.146368 -0.631446
v -8.281801 19.969870 -1.658258
v -8.281797 18.680487 -1.217530
v -8.281797 17.972990 -1.632946
v -8.281797 18.370831 -1.450726
v -8.281801 19.384741 -1.958020
v -8.281801 18.694513 -2.180763
v -8.281797 17.201595 -1.821590
v -8.281801 17.134199 -2.364244
v -8.281801 11.715182 1.913895
v -8.281806 11.154715 2.462842
v -8.281801 17.134205 2.456547
v -8.281801 17.201597 1.913893
v -8.281801 18.680483 1.309832
v -8.281801 19.969875 1.750555
v -8.281801 19.384741 -1.958020
v -8.281797 18.370831 -1.450726
v -8.281797 18.680487 -1.217530
v -8.281801 19.969870 -1.658258
v -8.281801 17.516279 1.850292
v -8.914807 17.516279 1.850292
v -8.914807 17.201597 1.913893
v -8.281801 17.201597 1.913893
v -8.914807 11.715182 1.913895
v -8.281801 11.715182 1.913895
v -8.281797 19.373669 0.046151
v -8.914807 19.373669 0.046151
v -8.914807 19.291183 0.390820
v -8.281797 19.291183 0.390820
v -8.281797 19.291183 -0.298514
v -8.914807 19.291183 -0.298514
v -8.281797 17.201595 -1.821590
v -8.914807 17.201595 -1.821590
v -8.914807 17.516277 -1.757989
v -8.281797 17.516277 -1.757989
v -8.914807 19.146370 0.723747
v -8.281797 19.146370 0.723747
v -8.914807 17.972990 -1.632946
v -8.281797 17.972990 -1.632946
v -8.281797 19.146370 0.723747
v -8.914807 19.146370 0.723747
v -8.914807 18.941538 1.033601
v -8.281797 18.941538 1.033601
v -8.914807 18.370831 -1.450726
v -8.281797 18.370831 -1.450726
v -8.914807 18.680483 1.309832
v -8.281801 18.680483 1.309832
v -8.281801 11.715182 1.913895
v -8.914807 11.715182 1.913895
v -8.914807 11.715181 -1.821589
v -8.281797 11.715181 -1.821589
v -8.281797 18.370831 -1.450726
v -8.914807 18.370831 -1.450726
v -8.914807 18.680487 -1.217530
v -8.281797 18.680487 -1.217530
v -8.281801 18.680483 1.309832
v -8.914807 18.680483 1.309832
v -8.914807 18.370831 1.543028
v -8.281801 18.370831 1.543028
v -8.281797 18.680487 -1.217530
v -8.914807 18.680487 -1.217530
v -8.914807 18.941536 -0.941299
v -8.281797 18.941536 -0.941299
v -8.281797 11.715181 -1.821589
v -8.914807 11.715181 -1.821589
v -8.914807 17.201595 -1.821590
v -8.281797 17.201595 -1.821590
v -8.914807 17.972988 1.725248
v -8.281801 17.972988 1.725248
v -8.914807 19.146368 -0.631446
v -8.281797 19.146368 -0.631446
v -8.281801 17.972988 1.725248
v -8.914807 17.972988 1.725248
v -8.914807 19.291183 -0.298514
v -8.281797 19.291183 -0.298514
v -3.048927 11.151536 5.596529
v -3.048923 9.454361 5.596529
v 24.207453 9.457259 5.596529
v 24.207453 11.154715 5.596529
v -3.048927 11.154711 -5.504218
v 24.207453 11.154711 -5.504218
v 24.207453 9.457255 -5.504218
v -3.048927 9.457255 -5.504218
v -7.956156 11.151539 3.008803
v -7.959736 9.457258 3.008804
v -3.781233 9.457259 5.419199
v -3.781233 11.151539 5.419203
v -3.048927 11.154711 -5.504218
v -3.048927 9.457255 -5.504218
v -3.784813 9.457255 -5.333827
v -3.784813 11.151537 -5.333828
v -8.281806 11.154715 2.462842
v -8.281806 9.457258 2.462843
v -7.959736 9.457258 3.008804
v -7.956156 11.151539 3.008803
v -3.784813 11.151537 -5.333828
v -3.784813 9.457255 -5.333827
v -7.959741 9.457256 -2.923435
v -7.959741 11.151537 -2.923436
v -8.281801 11.151537 -2.364243
v -8.281806 9.457256 -2.364238
v -8.281806 9.457258 2.462843
v -8.281806 11.154715 2.462842
v -7.959741 11.151537 -2.923436
v -7.959741 9.457256 -2.923435
v -8.281806 9.457256 -2.364238
v -8.281801 11.151537 -2.364243
v -3.781233 11.151539 5.419203
v -3.781233 9.457259 5.419199
v -3.048923 9.454361 5.596529
v -3.048927 11.151536 5.596529
v 24.207453 9.457259 5.596529
v -3.048923 9.454361 5.596529
v -3.048923 9.390561 5.596529
v 24.207453 9.393456 5.596529
v -3.048927 9.457255 -5.504218
v 24.207453 9.457255 -5.504218
v 24.207453 9.393452 -5.504218
v -3.048927 9.393452 -5.504218
v -1.089506 11.715183 5.596524
v -2.980022 11.151536 5.596529
v 2.925972 11.151540 5.596529
v 1.035455 11.715183 5.596524
v -1.089506 17.599709 5.596522
v -1.053323 17.793262 5.596522
v -2.923281 17.690804 5.596527
v -2.980022 17.112705 5.596527
v 0.999277 17.793262 5.596522
v 2.869230 17.690813 5.596527
v 2.701188 18.695049 5.596527
v 0.928143 17.976871 5.596522
v 0.824484 18.144285 5.596522
v 2.428300 19.395010 5.596527
v 2.061059 19.988403 5.596527
v 0.691829 18.289799 5.596522
v 0.534697 18.408466 5.596522
v 1.613571 20.490059 5.596526
v 1.103037 20.899342 5.596526
v 0.358431 18.496233 5.596522
v -0.223088 18.550119 5.596522
v -0.027025 18.568291 5.596522
v -0.027025 21.428108 5.596526
v -0.603127 21.212881 5.596526
v -0.588743 18.408466 5.596522
v -0.412477 18.496233 5.596522
v -1.157087 20.899338 5.596526
v -1.667622 20.490059 5.596526
v 1.035455 17.599709 5.596522
v 2.925972 17.112705 5.596527
v 0.928143 17.976871 5.596522
v 2.701188 18.695049 5.596527
v 0.169043 18.550119 5.596522
v 0.358431 18.496233 5.596522
v 1.103037 20.899342 5.596526
v 0.549072 21.212881 5.596526
v -1.157087 20.899338 5.596526
v -0.412477 18.496233 5.596522
v -2.115109 19.988400 5.596527
v -0.745880 18.289804 5.596522
v -0.982189 17.976875 5.596522
v -0.878535 18.144285 5.596522
v -2.482351 19.395006 5.596527
v -2.755239 18.695044 5.596527
v -1.089506 17.599709 5.596522
v -2.980022 17.112705 5.596527
v 1.035455 11.715183 5.596524
v 2.925972 11.151540 5.596529
v 2.925972 17.112705 5.596527
v 1.035455 17.599709 5.596522
v -2.482351 19.395006 5.596527
v -0.878535 18.144285 5.596522
v -0.745880 18.289804 5.596522
v -2.115109 19.988400 5.596527
v 0.999277 17.793262 5.596522
v 0.999277 17.793262 6.229533
v 1.035455 17.599710 6.229533
v 1.035455 17.599709 5.596522
v 1.035455 11.715183 6.229535
v 1.035455 11.715183 5.596524
v -0.027025 18.568291 5.596522
v -0.027025 18.568291 6.229533
v 0.169043 18.550119 6.229533
v 0.169043 18.550119 5.596522
v -0.223088 18.550119 5.596522
v -0.223088 18.550119 6.229533
v -1.089506 17.599709 5.596522
v -1.089506 17.599710 6.229533
v -1.053323 17.793262 6.229533
v -1.053323 17.793262 5.596522
v 0.358431 18.496233 6.229533
v 0.358431 18.496233 5.596522
v -0.982189 17.976877 6.229533
v -0.982189 17.976875 5.596522
v 0.534697 18.408466 6.229533
v 0.534697 18.408466 5.596522
v -0.878535 18.144285 6.229533
v -0.878535 18.144285 5.596522
v 0.534697 18.408466 5.596522
v 0.534697 18.408466 6.229533
v 0.691829 18.289799 6.229533
v 0.691829 18.289799 5.596522
v 1.035455 11.715183 5.596524
v 1.035455 11.715183 6.229535
v -1.089506 11.715183 6.229535
v -1.089506 11.715183 5.596524
v -0.878535 18.144285 5.596522
v -0.878535 18.144285 6.229533
v -0.745880 18.289804 6.229533
v -0.745880 18.289804 5.596522
v 0.691829 18.289799 5.596522
v 0.691829 18.289799 6.229533
v 0.824484 18.144285 6.229533
v 0.824484 18.144285 5.596522
v -0.745880 18.289804 5.596522
v -0.745880 18.289804 6.229533
v -0.588743 18.408466 6.229533
v -0.588743 18.408466 5.596522
v -1.089506 11.715183 5.596524
v -1.089506 11.715183 6.229535
v -1.089506 17.599710 6.229533
v -1.089506 17.599709 5.596522
v 0.928143 17.976871 6.229533
v 0.928143 17.976871 5.596522
v -0.412477 18.496233 6.229533
v -0.412477 18.496233 5.596522
v 0.928143 17.976871 5.596522
v 0.928143 17.976871 6.229533
v -0.412477 18.496233 5.596522
v -0.412477 18.496233 6.229533
v -1.089506 11.715179 -5.504218
v 1.035455 11.715179 -5.504218
v 2.925972 11.152073 -5.504218
v -2.980022 11.152069 -5.504218
v -1.089506 17.599707 -5.504220
v -2.980022 17.112703 -5.504220
v -2.923281 17.690802 -5.504220
v -1.053323 17.793259 -5.504220
v 0.999277 17.793259 -5.504220
v 0.928143 17.976868 -5.504220
v 2.701188 18.695045 -5.504220
v 2.869230 17.690809 -5.504220
v 0.824484 18.144281 -5.504220
v 0.691829 18.289797 -5.504220
v 2.061059 19.988400 -5.504220
v 2.428300 19.395008 -5.504220
v 0.534697 18.408463 -5.504220
v 0.358431 18.496229 -5.504220
v 1.103037 20.899338 -5.504221
v 1.613571 20.490057 -5.504221
v -0.223088 18.550116 -5.504220
v -0.603127 21.212877 -5.504221
v -0.027025 21.428104 -5.504221
v -0.027025 18.568287 -5.504220
v -0.588743 18.408463 -5.504220
v -1.667622 20.490057 -5.504221
v -1.157087 20.899334 -5.504221
v -0.412477 18.496229 -5.504220
v 1.035455 17.599707 -5.504220
v 2.925972 17.112703 -5.504220
v 2.701188 18.695045 -5.504220
v 0.928143 17.976868 -5.504220
v 0.169043 18.550116 -5.504220
v 0.549072 21.212877 -5.504221
v 1.103037 20.899338 -5.504221
v 0.358431 18.496229 -5.504220
v -0.412477 18.496229 -5.504220
v -1.157087 20.899334 -5.504221
v -0.745880 18.289801 -5.504220
v -2.115109 19.988396 -5.504220
v -0.982189 17.976873 -5.504220
v -2.755239 18.695042 -5.504220
v -2.482351 19.395002 -5.504220
v -0.878535 18.144281 -5.504220
v -2.980022 17.112703 -5.504220
v -1.089506 17.599707 -5.504220
v 1.035455 11.715179 -5.504218
v 1.035455 17.599707 -5.504220
v 2.925972 17.112703 -5.504220
v 2.925972 11.152073 -5.504218
v -2.482351 19.395002 -5.504220
v -2.115109 19.988396 -5.504220
v -0.745880 18.289801 -5.504220
v -0.878535 18.144281 -5.504220
v 0.999277 17.793259 -5.504220
v 1.035455 17.599707 -5.504220
v 1.035455 17.599707 -6.137226
v 0.999277 17.793259 -6.137226
v 1.035455 11.715179 -5.504218
v 1.035455 11.715179 -6.137224
v -0.027025 18.568287 -5.504220
v 0.169043 18.550116 -5.504220
v 0.169043 18.550116 -6.137226
v -0.027025 18.568287 -6.137226
v -0.223088 18.550116 -5.504220
v -0.223088 18.550116 -6.137226
v -1.089506 17.599707 -5.504220
v -1.053323 17.793259 -5.504220
v -1.053323 17.793259 -6.137226
v -1.089506 17.599707 -6.137226
v 0.358431 18.496229 -5.504220
v 0.358431 18.496229 -6.137226
v -0.982189 17.976873 -5.504220
v -0.982189 17.976873 -6.137226
v 0.534697 18.408463 -5.504220
v 0.534697 18.408463 -6.137226
v -0.878535 18.144281 -5.504220
v -0.878535 18.144281 -6.137226
v 0.534697 18.408463 -5.504220
v 0.691829 18.289797 -5.504220
v 0.691829 18.289795 -6.137226
v 0.534697 18.408463 -6.137226
v 1.035455 11.715179 -5.504218
v -1.089506 11.715179 -5.504218
v -1.089506 11.715179 -6.137224
v 1.035455 11.715179 -6.137224
v -0.878535 18.144281 -5.504220
v -0.745880 18.289801 -5.504220
v -0.745880 18.289801 -6.137226
v -0.878535 18.144281 -6.137226
v 0.691829 18.289797 -5.504220
v 0.824484 18.144281 -5.504220
v 0.824484 18.144281 -6.137226
v 0.691829 18.289795 -6.137226
v -0.745880 18.289801 -5.504220
v -0.588743 18.408463 -5.504220
v -0.588743 18.408463 -6.137226
v -0.745880 18.289801 -6.137226
v -1.089506 11.715179 -5.504218
v -1.089506 17.599707 -5.504220
v -1.089506 17.599707 -6.137226
v -1.089506 11.715179 -6.137224
v 0.928143 17.976868 -5.504220
v 0.928143 17.976868 -6.137226
v -0.412477 18.496229 -5.504220
v -0.412477 18.496229 -6.137226
v 0.928143 17.976868 -5.504220
v 0.928143 17.976868 -6.137226
v -0.412477 18.496229 -5.504220
v -0.412477 18.496229 -6.137226
v 5.780302 11.715183 5.596524
v 3.889785 11.151536 5.596529
v 9.795780 11.151540 5.596529
v 7.905264 11.715183 5.596524
v 5.780302 17.599709 5.596522
v 5.816484 17.793262 5.596522
v 3.946527 17.690804 5.596527
v 3.889785 17.112705 5.596527
v 7.869085 17.793262 5.596522
v 9.739042 17.690813 5.596527
v 9.570995 18.695049 5.596527
v 7.797951 17.976871 5.596522
v 7.694292 18.144285 5.596522
v 9.298107 19.395010 5.596527
v 8.930866 19.988403 5.596527
v 7.561636 18.289799 5.596522
v 7.404505 18.408466 5.596522
v 8.483379 20.490059 5.596526
v 7.972845 20.899342 5.596526
v 7.228243 18.496233 5.596522
v 6.646718 18.550119 5.596522
v 6.842782 18.568291 5.596522
v 6.842782 21.428108 5.596526
v 6.266681 21.212881 5.596526
v 6.281066 18.408466 5.596522
v 6.457332 18.496233 5.596522
v 5.712720 20.899338 5.596526
v 5.202187 20.490059 5.596526
v 7.905264 17.599709 5.596522
v 9.795780 17.112705 5.596527
v 7.797951 17.976871 5.596522
v 9.570995 18.695049 5.596527
v 7.038851 18.550119 5.596522
v 7.228243 18.496233 5.596522
v 7.972845 20.899342 5.596526
v 7.418880 21.212881 5.596526
v 5.712720 20.899338 5.596526
v 6.457332 18.496233 5.596522
v 4.754699 19.988400 5.596527
v 6.123929 18.289804 5.596522
v 5.887615 17.976875 5.596522
v 5.991272 18.144285 5.596522
v 4.387457 19.395006 5.596527
v 4.114569 18.695044 5.596527
v 5.780302 17.599709 5.596522
v 3.889785 17.112705 5.596527
v 7.905264 11.715183 5.596524
v 9.795780 11.151540 5.596529
v 9.795780 17.112705 5.596527
v 7.905264 17.599709 5.596522
v 4.387457 19.395006 5.596527
v 5.991272 18.144285 5.596522
v 6.123929 18.289804 5.596522
v 4.754699 19.988400 5.596527
v 7.869085 17.793262 5.596522
v 7.869085 17.793262 6.229533
v 7.905264 17.599710 6.229533
v 7.905264 17.599709 5.596522
v 7.905264 11.715183 6.229535
v 7.905264 11.715183 5.596524
v 6.842782 18.568291 5.596522
v 6.842782 18.568291 6.229533
v 7.038851 18.550119 6.229533
v 7.038851 18.550119 5.596522
v 6.646718 18.550119 5.596522
v 6.646718 18.550119 6.229533
v 5.780302 17.599709 5.596522
v 5.780302 17.599710 6.229533
v 5.816484 17.793262 6.229533
v 5.816484 17.793262 5.596522
v 7.228243 18.496233 6.229533
v 7.228243 18.496233 5.596522
v 5.887615 17.976877 6.229533
v 5.887615 17.976875 5.596522
v 7.404505 18.408466 6.229533
v 7.404505 18.408466 5.596522
v 5.991272 18.144285 6.229533
v 5.991272 18.144285 5.596522
v 7.404505 18.408466 5.596522
v 7.404505 18.408466 6.229533
v 7.561636 18.289799 6.229533
v 7.561636 18.289799 5.596522
v 7.905264 11.715183 5.596524
v 7.905264 11.715183 6.229535
v 5.780302 11.715183 6.229535
v 5.780302 11.715183 5.596524
v 5.991272 18.144285 5.596522
v 5.991272 18.144285 6.229533
v 6.123929 18.289804 6.229533
v 6.123929 18.289804 5.596522
v 7.561636 18.289799 5.596522
v 7.561636 18.289799 6.229533
v 7.694292 18.144285 6.229533
v 7.694292 18.144285 5.596522
v 6.123929 18.289804 5.596522
v 6.123929 18.289804 6.229533
v 6.281066 18.408466 6.229533
v 6.281066 18.408466 5.596522
v 5.780302 11.715183 5.596524
v 5.780302 11.715183 6.229535
v 5.780302 17.599710 6.229533
v 5.780302 17.599709 5.596522
v 7.797951 17.976871 6.229533
v 7.797951 17.976871 5.596522
v 6.457332 18.496233 6.229533
v 6.457332 18.496233 5.596522
v 7.797951 17.976871 5.596522
v 7.797951 17.976871 6.229533
v 6.457332 18.496233 5.596522
v 6.457332 18.496233 6.229533
v 5.780302 11.715179 -5.504218
v 7.905264 11.715179 -5.504218
v 9.795780 11.152073 -5.504218
v 3.889785 11.152069 -5.504218
v 5.780302 17.599707 -5.504220
v 3.889785 17.112703 -5.504220
v 3.946527 17.690802 -5.504220
v 5.816484 17.793259 -5.504220
v 7.869085 17.793259 -5.504220
v 7.797951 17.976868 -5.504220
v 9.570995 18.695045 -5.504220
v 9.739042 17.690809 -5.504220
v 7.694292 18.144281 -5.504220
v 7.561636 18.289797 -5.504220
v 8.930866 19.988400 -5.504220
v 9.298107 19.395008 -5.504220
v 7.404505 18.408463 -5.504220
v 7.228243 18.496229 -5.504220
v 7.972845 20.899338 -5.504221
v 8.483379 20.490057 -5.504221
v 6.646718 18.550116 -5.504220
v 6.266681 21.212877 -5.504221
v 6.842782 21.428104 -5.504221
v 6.842782 18.568287 -5.504220
v 6.281066 18.408463 -5.504220
v 5.202187 20.490057 -5.504221
v 5.712720 20.899334 -5.504221
v 6.457332 18.496229 -5.504220
v 7.905264 17.599707 -5.504220
v 9.795780 17.112703 -5.504220
v 9.570995 18.695045 -5.504220
v 7.797951 17.976868 -5.504220
v 7.038851 18.550116 -5.504220
v 7.418880 21.212877 -5.504221
v 7.972845 20.899338 -5.504221
v 7.228243 18.496229 -5.504220
v 6.457332 18.496229 -5.504220
v 5.712720 20.899334 -5.504221
v 6.123929 18.289801 -5.504220
v 4.754699 19.988396 -5.504220
v 5.887615 17.976873 -5.504220
v 4.114569 18.695042 -5.504220
v 4.387457 19.395002 -5.504220
v 5.991272 18.144281 -5.504220
v 3.889785 17.112703 -5.504220
v 5.780302 17.599707 -5.504220
v 7.905264 11.715179 -5.504218
v 7.905264 17.599707 -5.504220
v 9.795780 17.112703 -5.504220
v 9.795780 11.152073 -5.504218
v 4.387457 19.395002 -5.504220
v 4.754699 19.988396 -5.504220
v 6.123929 18.289801 -5.504220
v 5.991272 18.144281 -5.504220
v 7.869085 17.793259 -5.504220
v 7.905264 17.599707 -5.504220
v 7.905264 17.599707 -6.137226
v 7.869085 17.793259 -6.137226
v 7.905264 11.715179 -5.504218
v 7.905264 11.715179 -6.137224
v 6.842782 18.568287 -5.504220
v 7.038851 18.550116 -5.504220
v 7.038851 18.550116 -6.137226
v 6.842782 18.568287 -6.137226
v 6.646718 18.550116 -5.504220
v 6.646718 18.550116 -6.137226
v 5.780302 17.599707 -5.504220
v 5.816484 17.793259 -5.504220
v 5.816484 17.793259 -6.137226
v 5.780302 17.599707 -6.137226
v 7.228243 18.496229 -5.504220
v 7.228243 18.496229 -6.137226
v 5.887615 17.976873 -5.504220
v 5.887615 17.976873 -6.137226
v 7.404505 18.408463 -5.504220
v 7.404505 18.408463 -6.137226
v 5.991272 18.144281 -5.504220
v 5.991272 18.144281 -6.137226
v 7.404505 18.408463 -5.504220
v 7.561636 18.289797 -5.504220
v 7.561636 18.289795 -6.137226
v 7.404505 18.408463 -6.137226
v 7.905264 11.715179 -5.504218
v 5.780302 11.715179 -5.504218
v 5.780302 11.715179 -6.137224
v 7.905264 11.715179 -6.137224
v 5.991272 18.144281 -5.504220
v 6.123929 18.289801 -5.504220
v 6.123929 18.289801 -6.137226
v 5.991272 18.144281 -6.137226
v 7.561636 18.289797 -5.504220
v 7.694292 18.144281 -5.504220
v 7.694292 18.144281 -6.137226
v 7.561636 18.289795 -6.137226
v 6.123929 18.289801 -5.504220
v 6.281066 18.408463 -5.504220
v 6.281066 18.408463 -6.137226
v 6.123929 18.289801 -6.137226
v 5.780302 11.715179 -5.504218
v 5.780302 17.599707 -5.504220
v 5.780302 17.599707 -6.137226
v 5.780302 11.715179 -6.137224
v 7.797951 17.976868 -5.504220
v 7.797951 17.976868 -6.137226
v 6.457332 18.496229 -5.504220
v 6.457332 18.496229 -6.137226
v 7.797951 17.976868 -5.504220
v 7.797951 17.976868 -6.137226
v 6.457332 18.496229 -5.504220
v 6.457332 18.496229 -6.137226
v 12.650108 11.715183 5.596524
v 10.759592 11.151536 5.596529
v 16.665592 11.151540 5.596529
v 14.775070 11.715183 5.596524
v 12.650108 17.599709 5.596522
v 12.686293 17.793262 5.596522
v 10.816336 17.690804 5.596527
v 10.759592 17.112705 5.596527
v 14.738888 17.793262 5.596522
v 16.608847 17.690813 5.596527
v 16.440804 18.695049 5.596527
v 14.667757 17.976871 5.596522
v 14.564100 18.144285 5.596522
v 16.167915 19.395010 5.596527
v 15.800673 19.988403 5.596527
v 14.431448 18.289799 5.596522
v 14.274311 18.408466 5.596522
v 15.353186 20.490059 5.596526
v 14.842653 20.899342 5.596526
v 14.098047 18.496233 5.596522
v 13.516527 18.550119 5.596522
v 13.712591 18.568291 5.596522
v 13.712591 21.428108 5.596526
v 13.136494 21.212881 5.596526
v 13.150873 18.408466 5.596522
v 13.327135 18.496233 5.596522
v 12.582529 20.899338 5.596526
v 12.071993 20.490059 5.596526
v 14.775070 17.599709 5.596522
v 16.665592 17.112705 5.596527
v 14.667757 17.976871 5.596522
v 16.440804 18.695049 5.596527
v 13.908657 18.550119 5.596522
v 14.098047 18.496233 5.596522
v 14.842653 20.899342 5.596526
v 14.288689 21.212881 5.596526
v 12.582529 20.899338 5.596526
v 13.327135 18.496233 5.596522
v 11.624506 19.988400 5.596527
v 12.993736 18.289804 5.596522
v 12.757427 17.976875 5.596522
v 12.861080 18.144285 5.596522
v 11.257265 19.395006 5.596527
v 10.984377 18.695044 5.596527
v 12.650108 17.599709 5.596522
v 10.759592 17.112705 5.596527
v 14.775070 11.715183 5.596524
v 16.665592 11.151540 5.596529
v 16.665592 17.112705 5.596527
v 14.775070 17.599709 5.596522
v 11.257265 19.395006 5.596527
v 12.861080 18.144285 5.596522
v 12.993736 18.289804 5.596522
v 11.624506 19.988400 5.596527
v 14.738888 17.793262 5.596522
v 14.738888 17.793262 6.229533
v 14.775070 17.599710 6.229533
v 14.775070 17.599709 5.596522
v 14.775070 11.715183 6.229535
v 14.775070 11.715183 5.596524
v 13.712591 18.568291 5.596522
v 13.712591 18.568291 6.229533
v 13.908657 18.550119 6.229533
v 13.908657 18.550119 5.596522
v 13.516527 18.550119 5.596522
v 13.516527 18.550119 6.229533
v 12.650108 17.599709 5.596522
v 12.650108 17.599710 6.229533
v 12.686293 17.793262 6.229533
v 12.686293 17.793262 5.596522
v 14.098047 18.496233 6.229533
v 14.098047 18.496233 5.596522
v 12.757427 17.976877 6.229533
v 12.757427 17.976875 5.596522
v 14.274311 18.408466 6.229533
v 14.274311 18.408466 5.596522
v 12.861080 18.144285 6.229533
v 12.861080 18.144285 5.596522
v 14.274311 18.408466 5.596522
v 14.274311 18.408466 6.229533
v 14.431448 18.289799 6.229533
v 14.431448 18.289799 5.596522
v 14.775070 11.715183 5.596524
v 14.775070 11.715183 6.229535
v 12.650108 11.715183 6.229535
v 12.650108 11.715183 5.596524
v 12.861080 18.144285 5.596522
v 12.861080 18.144285 6.229533
v 12.993736 18.289804 6.229533
v 12.993736 18.289804 5.596522
v 14.431448 18.289799 5.596522
v 14.431448 18.289799 6.229533
v 14.564100 18.144285 6.229533
v 14.564100 18.144285 5.596522
v 12.993736 18.289804 5.596522
v 12.993736 18.289804 6.229533
v 13.150873 18.408466 6.229533
v 13.150873 18.408466 5.596522
v 12.650108 11.715183 5.596524
v 12.650108 11.715183 6.229535
v 12.650108 17.599710 6.229533
v 12.650108 17.599709 5.596522
v 14.667757 17.976871 6.229533
v 14.667757 17.976871 5.596522
v 13.327135 18.496233 6.229533
v 13.327135 18.496233 5.596522
v 14.667757 17.976871 5.596522
v 14.667757 17.976871 6.229533
v 13.327135 18.496233 5.596522
v 13.327135 18.496233 6.229533
v 12.650108 11.715179 -5.504218
v 14.775070 11.715179 -5.504218
v 16.665592 11.152073 -5.504218
v 10.759592 11.152069 -5.504218
v 12.650108 17.599707 -5.504220
v 10.759592 17.112703 -5.504220
v 10.816336 17.690802 -5.504220
v 12.686293 17.793259 -5.504220
v 14.738888 17.793259 -5.504220
v 14.667757 17.976868 -5.504220
v 16.440804 18.695045 -5.504220
v 16.608847 17.690809 -5.504220
v 14.564100 18.144281 -5.504220
v 14.431448 18.289797 -5.504220
v 15.800673 19.988400 -5.504220
v 16.167915 19.395008 -5.504220
v 14.274311 18.408463 -5.504220
v 14.098047 18.496229 -5.504220
v 14.842653 20.899338 -5.504221
v 15.353186 20.490057 -5.504221
v 13.516527 18.550116 -5.504220
v 13.136494 21.212877 -5.504221
v 13.712591 21.428104 -5.504221
v 13.712591 18.568287 -5.504220
v 13.150873 18.408463 -5.504220
v 12.071993 20.490057 -5.504221
v 12.582529 20.899334 -5.504221
v 13.327135 18.496229 -5.504220
v 14.775070 17.599707 -5.504220
v 16.665592 17.112703 -5.504220
v 16.440804 18.695045 -5.504220
v 14.667757 17.976868 -5.504220
v 13.908657 18.550116 -5.504220
v 14.288689 21.212877 -5.504221
v 14.842653 20.899338 -5.504221
v 14.098047 18.496229 -5.504220
v 13.327135 18.496229 -5.504220
v 12.582529 20.899334 -5.504221
v 12.993736 18.289801 -5.504220
v 11.624506 19.988396 -5.504220
v 12.757427 17.976873 -5.504220
v 10.984377 18.695042 -5.504220
v 11.257265 19.395002 -5.504220
v 12.861080 18.144281 -5.504220
v 10.759592 17.112703 -5.504220
v 12.650108 17.599707 -5.504220
v 14.775070 11.715179 -5.504218
v 14.775070 17.599707 -5.504220
v 16.665592 17.112703 -5.504220
v 16.665592 11.152073 -5.504218
v 11.257265 19.395002 -5.504220
v 11.624506 19.988396 -5.504220
v 12.993736 18.289801 -5.504220
v 12.861080 18.144281 -5.504220
v 14.738888 17.793259 -5.504220
v 14.775070 17.599707 -5.504220
v 14.775070 17.599707 -6.137226
v 14.738888 17.793259 -6.137226
v 14.775070 11.715179 -5.504218
v 14.775070 11.715179 -6.137224
v 13.712591 18.568287 -5.504220
v 13.908657 18.550116 -5.504220
v 13.908657 18.550116 -6.137226
v 13.712591 18.568287 -6.137226
v 13.516527 18.550116 -5.504220
v 13.516527 18.550116 -6.137226
v 12.650108 17.599707 -5.504220
v 12.686293 17.793259 -5.504220
v 12.686293 17.793259 -6.137226
v 12.650108 17.599707 -6.137226
v 14.098047 18.496229 -5.504220
v 14.098047 18.496229 -6.137226
v 12.757427 17.976873 -5.504220
v 12.757427 17.976873 -6.137226
v 14.274311 18.408463 -5.504220
v 14.274311 18.408463 -6.137226
v 12.861080 18.144281 -5.504220
v 12.861080 18.144281 -6.137226
v 14.274311 18.408463 -5.504220
v 14.431448 18.289797 -5.504220
v 14.431448 18.289795 -6.137226
v 14.274311 18.408463 -6.137226
v 14.775070 11.715179 -5.504218
v 12.650108 11.715179 -5.504218
v 12.650108 11.715179 -6.137224
v 14.775070 11.715179 -6.137224
v 12.861080 18.144281 -5.504220
v 12.993736 18.289801 -5.504220
v 12.993736 18.289801 -6.137226
v 12.861080 18.144281 -6.137226
v 14.431448 18.289797 -5.504220
v 14.564100 18.144281 -5.504220
v 14.564100 18.144281 -6.137226
v 14.431448 18.289795 -6.137226
v 12.993736 18.289801 -5.504220
v 13.150873 18.408463 -5.504220
v 13.150873 18.408463 -6.137226
v 12.993736 18.289801 -6.137226
v 12.650108 11.715179 -5.504218
v 12.650108 17.599707 -5.504220
v 12.650108 17.599707 -6.137226
v 12.650108 11.715179 -6.137224
v 14.667757 17.976868 -5.504220
v 14.667757 17.976868 -6.137226
v 13.327135 18.496229 -5.504220
v 13.327135 18.496229 -6.137226
v 14.667757 17.976868 -5.504220
v 14.667757 17.976868 -6.137226
v 13.327135 18.496229 -5.504220
v 13.327135 18.496229 -6.137226
v 19.519918 11.715183 5.596524
v 17.629402 11.151536 5.596529
v 23.535395 11.151540 5.596529
v 21.644878 11.715183 5.596524
v 19.519918 17.599709 5.596522
v 19.556101 17.793262 5.596522
v 17.686142 17.690804 5.596527
v 17.629402 17.112705 5.596527
v 21.608702 17.793262 5.596522
v 23.478655 17.690813 5.596527
v 23.310610 18.695049 5.596527
v 21.537565 17.976871 5.596522
v 21.433907 18.144285 5.596522
v 23.037725 19.395010 5.596527
v 22.670479 19.988403 5.596527
v 21.301252 18.289799 5.596522
v 21.144119 18.408466 5.596522
v 22.222994 20.490059 5.596526
v 21.712456 20.899342 5.596526
v 20.967855 18.496233 5.596522
v 20.386330 18.550119 5.596522
v 20.582397 18.568291 5.596522
v 20.582397 21.428108 5.596526
v 20.006296 21.212881 5.596526
v 20.020679 18.408466 5.596522
v 20.196943 18.496233 5.596522
v 19.452337 20.899338 5.596526
v 18.941801 20.490059 5.596526
v 21.644878 17.599709 5.596522
v 23.535395 17.112705 5.596527
v 21.537565 17.976871 5.596522
v 23.310610 18.695049 5.596527
v 20.778465 18.550119 5.596522
v 20.967855 18.496233 5.596522
v 21.712456 20.899342 5.596526
v 21.158495 21.212881 5.596526
v 19.452337 20.899338 5.596526
v 20.196943 18.496233 5.596522
v 18.494314 19.988400 5.596527
v 19.863543 18.289804 5.596522
v 19.627230 17.976875 5.596522
v 19.730888 18.144285 5.596522
v 18.127068 19.395006 5.596527
v 17.854185 18.695044 5.596527
v 19.519918 17.599709 5.596522
v 17.629402 17.112705 5.596527
v 21.644878 11.715183 5.596524
v 23.535395 11.151540 5.596529
v 23.535395 17.112705 5.596527
v 21.644878 17.599709 5.596522
v 18.127068 19.395006 5.596527
v 19.730888 18.144285 5.596522
v 19.863543 18.289804 5.596522
v 18.494314 19.988400 5.596527
v 21.608702 17.793262 5.596522
v 21.608702 17.793262 6.229533
v 21.644878 17.599710 6.229533
v 21.644878 17.599709 5.596522
v 21.644878 11.715183 6.229535
v 21.644878 11.715183 5.596524
v 20.582397 18.568291 5.596522
v 20.582397 18.568291 6.229533
v 20.778465 18.550119 6.229533
v 20.778465 18.550119 5.596522
v 20.386330 18.550119 5.596522
v 20.386330 18.550119 6.229533
v 19.519918 17.599709 5.596522
v 19.519918 17.599710 6.229533
v 19.556101 17.793262 6.229533
v 19.556101 17.793262 5.596522
v 20.967855 18.496233 6.229533
v 20.967855 18.496233 5.596522
v 19.627230 17.976877 6.229533
v 19.627230 17.976875 5.596522
v 21.144119 18.408466 6.229533
v 21.144119 18.408466 5.596522
v 19.730888 18.144285 6.229533
v 19.730888 18.144285 5.596522
v 21.144119 18.408466 5.596522
v 21.144119 18.408466 6.229533
v 21.301252 18.289799 6.229533
v 21.301252 18.289799 5.596522
v 21.644878 11.715183 5.596524
v 21.644878 11.715183 6.229535
v 19.519918 11.715183 6.229535
v 19.519918 11.715183 5.596524
v 19.730888 18.144285 5.596522
v 19.730888 18.144285 6.229533
v 19.863543 18.289804 6.229533
v 19.863543 18.289804 5.596522
v 21.301252 18.289799 5.596522
v 21.301252 18.289799 6.229533
v 21.433907 18.144285 6.229533
v 21.433907 18.144285 5.596522
v 19.863543 18.289804 5.596522
v 19.863543 18.289804 6.229533
v 20.020679 18.408466 6.229533
v 20.020679 18.408466 5.596522
v 19.519918 11.715183 5.596524
v 19.519918 11.715183 6.229535
v 19.519918 17.599710 6.229533
v 19.519918 17.599709 5.596522
v 21.537565 17.976871 6.229533
v 21.537565 17.976871 5.596522
v 20.196943 18.496233 6.229533
v 20.196943 18.496233 5.596522
v 21.537565 17.976871 5.596522
v 21.537565 17.976871 6.229533
v 20.196943 18.496233 5.596522
v 20.196943 18.496233 6.229533
v 19.519918 11.715179 -5.504218
v 21.644878 11.715179 -5.504218
v 23.535395 11.152073 -5.504218
v 17.629402 11.152069 -5.504218
v 19.519918 17.599707 -5.504220
v 17.629402 17.112703 -5.504220
v 17.686142 17.690802 -5.504220
v 19.556101 17.793259 -5.504220
v 21.608702 17.793259 -5.504220
v 21.537565 17.976868 -5.504220
v 23.310610 18.695045 -5.504220
v 23.478655 17.690809 -5.504220
v 21.433907 18.144281 -5.504220
v 21.301252 18.289797 -5.504220
v 22.670479 19.988400 -5.504220
v 23.037725 19.395008 -5.504220
v 21.144119 18.408463 -5.504220
v 20.967855 18.496229 -5.504220
v 21.712456 20.899338 -5.504221
v 22.222994 20.490057 -5.504221
v 20.386330 18.550116 -5.504220
v 20.006296 21.212877 -5.504221
v 20.582397 21.428104 -5.504221
v 20.582397 18.568287 -5.504220
v 20.020679 18.408463 -5.504220
v 18.941801 20.490057 -5.504221
v 19.452337 20.899334 -5.504221
v 20.196943 18.496229 -5.504220
v 21.644878 17.599707 -5.504220
v 23.535395 17.112703 -5.504220
v 23.310610 18.695045 -5.504220
v 21.537565 17.976868 -5.504220
v 20.778465 18.550116 -5.504220
v 21.158495 21.212877 -5.504221
v 21.712456 20.899338 -5.504221
v 20.967855 18.496229 -5.504220
v 20.196943 18.496229 -5.504220
v 19.452337 20.899334 -5.504221
v 19.863543 18.289801 -5.504220
v 18.494314 19.988396 -5.504220
v 19.627230 17.976873 -5.504220
v 17.854185 18.695042 -5.504220
v 18.127068 19.395002 -5.504220
v 19.730888 18.144281 -5.504220
v 17.629402 17.112703 -5.504220
v 19.519918 17.599707 -5.504220
v 21.644878 11.715179 -5.504218
v 21.644878 17.599707 -5.504220
v 23.535395 17.112703 -5.504220
v 23.535395 11.152073 -5.504218
v 18.127068 19.395002 -5.504220
v 18.494314 19.988396 -5.504220
v 19.863543 18.289801 -5.504220
v 19.730888 18.144281 -5.504220
v 21.608702 17.793259 -5.504220
v 21.644878 17.599707 -5.504220
v 21.644878 17.599707 -6.137226
v 21.608702 17.793259 -6.137226
v 21.644878 11.715179 -5.504218
v 21.644878 11.715179 -6.137224
v 20.582397 18.568287 -5.504220
v 20.778465 18.550116 -5.504220
v 20.778465 18.550116 -6.137226
v 20.582397 18.568287 -6.137226
v 20.386330 18.550116 -5.504220
v 20.386330 18.550116 -6.137226
v 19.519918 17.599707 -5.504220
v 19.556101 17.793259 -5.504220
v 19.556101 17.793259 -6.137226
v 19.519918 17.599707 -6.137226
v 20.967855 18.496229 -5.504220
v 20.967855 18.496229 -6.137226
v 19.627230 17.976873 -5.504220
v 19.627230 17.976873 -6.137226
v 21.144119 18.408463 -5.504220
v 21.144119 18.408463 -6.137226
v 19.730888 18.144281 -5.504220
v 19.730888 18.144281 -6.137226
v 21.144119 18.408463 -5.504220
v 21.301252 18.289797 -5.504220
v 21.301252 18.289795 -6.137226
v 21.144119 18.408463 -6.137226
v 21.644878 11.715179 -5.504218
v 19.519918 11.715179 -5.504218
v 19.519918 11.715179 -6.137224
v 21.644878 11.715179 -6.137224
v 19.730888 18.144281 -5.504220
v 19.863543 18.289801 -5.504220
v 19.863543 18.289801 -6.137226
v 19.730888 18.144281 -6.137226
v 21.301252 18.289797 -5.504220
v 21.433907 18.144281 -5.504220
v 21.433907 18.144281 -6.137226
v 21.301252 18.289795 -6.137226
v 19.863543 18.289801 -5.504220
v 20.020679 18.408463 -5.504220
v 20.020679 18.408463 -6.137226
v 19.863543 18.289801 -6.137226
v 19.519918 11.715179 -5.504218
v 19.519918 17.599707 -5.504220
v 19.519918 17.599707 -6.137226
v 19.519918 11.715179 -6.137224
v 21.537565 17.976868 -5.504220
v 21.537565 17.976868 -6.137226
v 20.196943 18.496229 -5.504220
v 20.196943 18.496229 -6.137226
v 21.537565 17.976868 -5.504220
v 21.537565 17.976868 -6.137226
v 20.196943 18.496229 -5.504220
v 20.196943 18.496229 -6.137226
vn 0.5000 -0.0000 0.8660
vn 0.4124 -0.0000 0.9110
vn 0.8489 -0.1980 -0.4901
vn 0.8647 -0.0546 -0.4993
vn 0.8660 -0.0000 -0.5000
vn 0.3316 -0.9238 -0.1914
vn 0.3851 -0.8957 -0.2223
vn -0.3851 -0.8957 0.2224
vn -0.3316 -0.9238 0.1914
vn -0.8647 -0.0545 0.4993
vn -0.8647 -0.0546 0.4993
vn -0.8489 -0.1981 0.4901
vn 0.4873 -0.8267 -0.2813
vn -0.8067 -0.3637 0.4657
vn -0.8067 -0.3637 0.4658
vn 0.4873 -0.8266 -0.2814
vn 0.5826 -0.7399 -0.3364
vn -0.7457 -0.5086 0.4305
vn 0.6696 -0.6342 -0.3866
vn -0.0000 1.0000 -0.0000
vn -0.7456 -0.5086 0.4305
vn -0.6696 -0.6342 0.3866
vn 0.7456 -0.5086 -0.4305
vn -0.5826 -0.7399 0.3364
vn -0.8660 -0.0000 0.5000
vn 0.8067 -0.3637 -0.4658
vn -0.4873 -0.8266 0.2814
vn 0.8489 -0.1981 -0.4901
vn -0.4873 -0.8267 0.2813
vn 0.5000 -0.0000 -0.8660
vn 0.6386 -0.0000 -0.7696
vn 0.4155 -0.0002 -0.9096
vn 0.4155 -0.0001 -0.9096
vn -0.8489 -0.1980 -0.4901
vn -0.8647 -0.0546 -0.4993
vn -0.8660 -0.0000 -0.5000
vn -0.3316 -0.9238 -0.1914
vn -0.3851 -0.8957 -0.2223
vn 0.3851 -0.8957 0.2223
vn 0.3316 -0.9238 0.1914
vn 0.8647 -0.0545 0.4993
vn 0.8647 -0.0546 0.4993
vn 0.8489 -0.1981 0.4901
vn -0.4873 -0.8267 -0.2813
vn 0.8067 -0.3637 0.4658
vn -0.4874 -0.8266 -0.2814
vn -0.4873 -0.8266 -0.2814
vn -0.5826 -0.7399 -0.3364
vn 0.8067 -0.3637 0.4657
vn 0.7456 -0.5086 0.4305
vn -0.6696 -0.6342 -0.3866
vn 0.6696 -0.6342 0.3866
vn 0.6696 -0.6341 0.3866
vn -0.7456 -0.5086 -0.4305
vn 0.5826 -0.7399 0.3364
vn 0.8660 -0.0000 0.5000
vn -0.8067 -0.3637 -0.4657
vn -0.8067 -0.3637 -0.4658
vn 0.5826 -0.7399 0.3363
vn 0.4873 -0.8267 0.2814
vn 0.4873 -0.8266 0.2814
vn -0.8489 -0.1981 -0.4901
vn 1.0000 -0.0000 -0.0000
vn 0.9852 0.0001 0.1715
vn -0.0000 -0.2312 -0.9729
vn -0.0000 -0.0995 -0.9950
vn -0.0000 -0.0000 -1.0000
vn -0.0000 -1.0000 -0.0000
vn -0.0000 -0.9484 -0.3170
vn -0.0000 -0.9484 0.3170
vn -0.0000 -0.0996 0.9950
vn -0.0000 -0.2312 0.9729
vn -0.0000 -0.8789 -0.4769
vn -0.0000 -0.3414 0.9399
vn -0.0000 -0.8789 -0.4770
vn -0.0000 -0.7834 -0.6215
vn -0.0000 -0.5120 0.8590
vn -0.0000 -0.6666 -0.7454
vn -0.0000 -0.6665 0.7455
vn -0.0000 -0.6665 -0.7455
vn -0.0000 -0.5120 -0.8590
vn -0.0000 -0.7834 0.6215
vn -0.0000 -0.0000 1.0000
vn -0.0000 -0.0995 0.9950
vn -0.0000 -0.3414 -0.9399
vn -0.0000 -0.8789 0.4770
vn 0.4997 -0.0008 -0.8662
vn 0.4998 -0.0006 -0.8661
vn 0.4999 -0.0002 -0.8661
vn 0.4999 -0.0005 -0.8661
vn 0.2256 -0.0000 0.9742
vn 0.8600 -0.0009 -0.5102
vn 0.8601 -0.0009 -0.5101
vn 0.8666 -0.0000 0.4991
vn 0.2353 -0.0000 -0.9719
vn -0.9618 -0.2737 -0.0000
vn -0.9957 -0.0923 -0.0000
vn -1.0000 -0.0000 -0.0000
vn -0.1838 -0.9830 -0.0000
vn 0.1838 -0.9830 -0.0000
vn 0.9957 -0.0923 -0.0000
vn 0.9618 -0.2737 -0.0000
vn -0.3612 -0.9325 -0.0000
vn 0.8952 -0.4457 -0.0000
vn -0.5264 -0.8502 -0.0000
vn 0.7980 -0.6026 -0.0000
vn -0.6737 -0.7390 -0.0000
vn 0.6737 -0.7390 -0.0000
vn -0.7980 -0.6026 -0.0000
vn 0.5264 -0.8502 -0.0000
vn 0.9957 -0.0922 -0.0000
vn -0.8952 -0.4458 -0.0000
vn 0.3613 -0.9325 -0.0000
vn 0.3612 -0.9325 -0.0000
vn -0.8952 -0.4457 -0.0000
vn -0.1837 -0.9830 -0.0000
vn 0.1837 -0.9830 -0.0000
vn -0.8951 -0.4458 -0.0000
vn 0.7980 -0.6027 -0.0000
vn -0.6737 -0.7391 -0.0000
vt 0.433210 0.062430
vt 0.459470 0.044870
vt 0.311300 0.045400
vt 0.337560 0.062770
vt 0.433210 0.212260
vt 0.431580 0.227250
vt 0.458040 0.247910
vt 0.459470 0.230240
vt 0.339190 0.227580
vt 0.312730 0.248430
vt 0.316940 0.279100
vt 0.342390 0.238400
vt 0.347060 0.248000
vt 0.323790 0.300460
vt 0.333000 0.318560
vt 0.353030 0.256550
vt 0.360100 0.264000
vt 0.344230 0.333840
vt 0.357040 0.346300
vt 0.368040 0.270270
vt 0.394210 0.275200
vt 0.385390 0.278910
vt 0.385390 0.362360
vt 0.399840 0.355730
vt 0.410670 0.263820
vt 0.402730 0.270140
vt 0.413730 0.346100
vt 0.426540 0.333550
vt 0.337560 0.212610
vt 0.311300 0.230770
vt 0.370930 0.355830
vt 0.376560 0.275260
vt 0.437770 0.318180
vt 0.417740 0.256320
vt 0.428380 0.238090
vt 0.423710 0.247730
vt 0.446980 0.300020
vt 0.453830 0.278600
vt 0.651720 0.331500
vt 0.670250 0.330600
vt 0.670010 0.315560
vt 0.651490 0.316470
vt 0.676480 0.167820
vt 0.657960 0.168730
vt 0.741640 0.142920
vt 0.762750 0.142880
vt 0.762930 0.133340
vt 0.741830 0.133380
vt 0.742570 0.150600
vt 0.763670 0.150560
vt 0.537160 0.297470
vt 0.518540 0.298720
vt 0.518240 0.313590
vt 0.536860 0.312330
vt 0.763330 0.123760
vt 0.742230 0.123790
vt 0.519090 0.324860
vt 0.537710 0.323610
vt 0.763950 0.114430
vt 0.742850 0.114470
vt 0.520810 0.335350
vt 0.539430 0.334090
vt 0.764780 0.105650
vt 0.743680 0.105690
vt 0.984040 0.091420
vt 0.962710 0.091420
vt 0.962710 0.187850
vt 0.984040 0.187850
vt 0.523310 0.345170
vt 0.541920 0.343910
vt 0.657960 0.362360
vt 0.676480 0.361450
vt 0.673620 0.352030
vt 0.655100 0.352940
vt 0.526460 0.354220
vt 0.545080 0.352960
vt 0.548790 0.153040
vt 0.530170 0.154300
vt 0.671510 0.341800
vt 0.652990 0.342700
vt 0.530170 0.362360
vt 0.548790 0.361100
vt 0.743680 0.157650
vt 0.764780 0.157610
vt 0.284750 0.062770
vt 0.311010 0.045400
vt 0.162840 0.044870
vt 0.189100 0.062430
vt 0.284750 0.212610
vt 0.283120 0.227580
vt 0.309590 0.248430
vt 0.311010 0.230770
vt 0.190730 0.227250
vt 0.164270 0.247910
vt 0.168480 0.278600
vt 0.193930 0.238090
vt 0.198600 0.247730
vt 0.175330 0.300020
vt 0.184540 0.318180
vt 0.204570 0.256320
vt 0.211640 0.263820
vt 0.195770 0.333550
vt 0.208570 0.346100
vt 0.219570 0.270140
vt 0.245750 0.275260
vt 0.236930 0.278910
vt 0.236930 0.362360
vt 0.251380 0.355830
vt 0.262210 0.264000
vt 0.254280 0.270270
vt 0.265280 0.346300
vt 0.278080 0.333840
vt 0.189100 0.212260
vt 0.162840 0.230240
vt 0.228100 0.275200
vt 0.222470 0.355730
vt 0.289310 0.318560
vt 0.269280 0.256550
vt 0.279920 0.238400
vt 0.275250 0.248000
vt 0.298520 0.300460
vt 0.305370 0.279100
vt 0.567700 0.203070
vt 0.549080 0.201810
vt 0.549390 0.216670
vt 0.568000 0.217930
vt 0.561010 0.361100
vt 0.579630 0.362360
vt 0.765080 0.120380
vt 0.786180 0.120420
vt 0.787100 0.112740
vt 0.766000 0.112700
vt 0.765260 0.129920
vt 0.786370 0.129960
vt 0.626200 0.213710
vt 0.644720 0.214620
vt 0.644950 0.199580
vt 0.626430 0.198680
vt 0.788210 0.105690
vt 0.767110 0.105650
vt 0.646220 0.188380
vt 0.627700 0.187480
vt 0.579630 0.154300
vt 0.561010 0.153040
vt 0.557300 0.161180
vt 0.575920 0.162430
vt 0.648330 0.178150
vt 0.629810 0.177240
vt 0.554150 0.170230
vt 0.572770 0.171490
vt 0.941090 0.187850
vt 0.962420 0.187850
vt 0.962420 0.091420
vt 0.941090 0.091420
vt 0.651190 0.168730
vt 0.632670 0.167820
vt 0.551660 0.180050
vt 0.570270 0.181300
vt 0.767110 0.157610
vt 0.788210 0.157650
vt 0.787380 0.148870
vt 0.766280 0.148830
vt 0.632670 0.361450
vt 0.651190 0.362360
vt 0.549940 0.190530
vt 0.568550 0.191790
vt 0.786770 0.139540
vt 0.765660 0.139510
vt 0.018430 0.345120
vt 0.000150 0.362350
vt 0.162550 0.362360
vt 0.144270 0.345120
vt 0.018430 0.177370
vt 0.020570 0.167740
vt 0.001710 0.162000
vt 0.000150 0.179430
vt 0.142120 0.167750
vt 0.160990 0.162000
vt 0.156360 0.131720
vt 0.137910 0.153780
vt 0.131770 0.141620
vt 0.148860 0.110620
vt 0.138760 0.092730
vt 0.123920 0.132150
vt 0.114610 0.124170
vt 0.126460 0.077600
vt 0.112420 0.065260
vt 0.104170 0.117900
vt 0.069740 0.113480
vt 0.081350 0.110950
vt 0.081350 0.049320
vt 0.065510 0.055810
vt 0.048080 0.124170
vt 0.058520 0.117900
vt 0.050270 0.065260
vt 0.036240 0.077600
vt 0.144270 0.177370
vt 0.162550 0.179430
vt 0.092960 0.113480
vt 0.097190 0.055810
vt 0.023930 0.092720
vt 0.038780 0.132150
vt 0.024780 0.153780
vt 0.030920 0.141620
vt 0.013830 0.110610
vt 0.006330 0.131720
vt 0.580050 0.325970
vt 0.601260 0.326120
vt 0.601140 0.316360
vt 0.579930 0.316200
vt 0.602770 0.146370
vt 0.581550 0.146210
vt 0.913660 0.148690
vt 0.934090 0.148690
vt 0.934890 0.138010
vt 0.914460 0.138010
vt 0.914460 0.159370
vt 0.934890 0.159370
vt 0.603060 0.192370
vt 0.624280 0.192210
vt 0.624400 0.182440
vt 0.603190 0.182600
vt 0.936290 0.127700
vt 0.915860 0.127700
vt 0.624690 0.168260
vt 0.603480 0.168410
vt 0.938270 0.118090
vt 0.917850 0.118090
vt 0.625200 0.155880
vt 0.603980 0.156030
vt 0.940800 0.109530
vt 0.920370 0.109530
vt 0.956910 0.720070
vt 0.978230 0.720070
vt 0.978230 0.604320
vt 0.956910 0.604320
vt 0.625900 0.146210
vt 0.604690 0.146370
vt 0.581550 0.362200
vt 0.602770 0.362360
vt 0.602060 0.352690
vt 0.580850 0.352540
vt 0.920370 0.187850
vt 0.940800 0.187850
vt 0.938270 0.179290
vt 0.917850 0.179290
vt 0.604690 0.362360
vt 0.625900 0.362200
vt 0.601550 0.340310
vt 0.580340 0.340160
vt 0.936290 0.169690
vt 0.915860 0.169690
vt 0.852350 0.159680
vt 0.795180 0.159670
vt 0.795920 0.999850
vt 0.853100 0.999860
vt 0.912730 0.840350
vt 0.913370 0.000160
vt 0.856190 0.000170
vt 0.855550 0.840360
vt 0.853100 0.000150
vt 0.795920 0.000140
vt 0.795310 0.136530
vt 0.852490 0.136540
vt 0.855580 0.863580
vt 0.912760 0.863570
vt 0.516190 0.345440
vt 0.459760 0.345440
vt 0.461520 0.362360
vt 0.517950 0.362350
vt 0.856190 0.999860
vt 0.913370 0.999850
vt 0.516190 0.195860
vt 0.459760 0.195870
vt 0.517950 0.178540
vt 0.461520 0.178540
vt 0.793030 0.159670
vt 0.793770 0.999850
vt 0.854040 0.000170
vt 0.853400 0.840360
vt 0.531160 0.380130
vt 0.594520 0.362630
vt 0.396590 0.362790
vt 0.459950 0.380190
vt 0.531160 0.562460
vt 0.529950 0.568460
vt 0.592620 0.565230
vt 0.594520 0.547320
vt 0.461160 0.568510
vt 0.398500 0.565390
vt 0.404130 0.596500
vt 0.463550 0.574200
vt 0.467020 0.579380
vt 0.413270 0.618180
vt 0.425580 0.636560
vt 0.471460 0.583890
vt 0.476730 0.587560
vt 0.440580 0.652090
vt 0.457680 0.664760
vt 0.482640 0.590280
vt 0.502130 0.591930
vt 0.495560 0.592500
vt 0.495560 0.681110
vt 0.514860 0.674420
vt 0.514380 0.587530
vt 0.508470 0.590260
vt 0.533430 0.664690
vt 0.550540 0.652000
vt 0.459950 0.562520
vt 0.396590 0.547480
vt 0.488980 0.591940
vt 0.476250 0.674460
vt 0.565530 0.636440
vt 0.519650 0.583850
vt 0.527570 0.574150
vt 0.524090 0.579340
vt 0.577840 0.618050
vt 0.586980 0.596350
vt 0.763260 0.340240
vt 0.784590 0.340240
vt 0.784590 0.334150
vt 0.763260 0.334150
vt 0.784590 0.157930
vt 0.763260 0.157930
vt 0.601550 0.116890
vt 0.622870 0.116890
vt 0.622870 0.111240
vt 0.601550 0.111240
vt 0.601550 0.122870
vt 0.622870 0.122870
vt 0.935290 0.622030
vt 0.956610 0.622030
vt 0.956610 0.615930
vt 0.935290 0.615930
vt 0.622870 0.106090
vt 0.601550 0.106090
vt 0.956610 0.609960
vt 0.935290 0.609960
vt 0.622870 0.101640
vt 0.601550 0.101640
vt 0.956610 0.604320
vt 0.935290 0.604320
vt 0.763260 0.362360
vt 0.784590 0.362360
vt 0.784590 0.357550
vt 0.763260 0.357550
vt 0.719730 0.091810
vt 0.698400 0.091810
vt 0.698400 0.157650
vt 0.719730 0.157650
vt 0.601550 0.145940
vt 0.622870 0.145940
vt 0.622870 0.140710
vt 0.601550 0.140710
vt 0.784590 0.352140
vt 0.763260 0.352140
vt 0.622870 0.134990
vt 0.601550 0.134990
vt 0.935290 0.801950
vt 0.956610 0.801960
vt 0.784590 0.346300
vt 0.763260 0.346300
vt 0.622870 0.128970
vt 0.601550 0.128970
vt 0.134720 0.663610
vt 0.063500 0.663550
vt 0.000150 0.680950
vt 0.198070 0.681110
vt 0.134720 0.481280
vt 0.198070 0.496420
vt 0.196170 0.478510
vt 0.133500 0.475280
vt 0.064720 0.475220
vt 0.067100 0.469540
vt 0.007680 0.447240
vt 0.002050 0.478350
vt 0.070570 0.464350
vt 0.075020 0.459850
vt 0.029130 0.407180
vt 0.016830 0.425560
vt 0.080290 0.456180
vt 0.086190 0.453460
vt 0.061240 0.378980
vt 0.044130 0.391650
vt 0.105680 0.451810
vt 0.118420 0.369310
vt 0.099110 0.362630
vt 0.099110 0.451240
vt 0.117940 0.456210
vt 0.154090 0.391740
vt 0.136980 0.379040
vt 0.112030 0.453480
vt 0.063500 0.481220
vt 0.000150 0.496260
vt 0.092540 0.451800
vt 0.079800 0.369280
vt 0.123200 0.459890
vt 0.169090 0.407290
vt 0.131120 0.469590
vt 0.190540 0.447390
vt 0.181400 0.425690
vt 0.127650 0.464400
vt 0.719730 0.340240
vt 0.719730 0.334150
vt 0.698400 0.334150
vt 0.698400 0.340240
vt 0.719730 0.157930
vt 0.698400 0.157930
vt 0.539860 0.137520
vt 0.539860 0.143180
vt 0.561190 0.143180
vt 0.561190 0.137520
vt 0.539860 0.131540
vt 0.561190 0.131540
vt 0.956610 0.424120
vt 0.956610 0.418020
vt 0.935290 0.418020
vt 0.935290 0.424120
vt 0.539860 0.148320
vt 0.561190 0.148320
vt 0.956610 0.412050
vt 0.935290 0.412050
vt 0.539860 0.152770
vt 0.561190 0.152770
vt 0.956610 0.406410
vt 0.935290 0.406410
vt 0.719730 0.362360
vt 0.719730 0.357550
vt 0.698400 0.357550
vt 0.698400 0.362360
vt 0.502710 0.178270
vt 0.502710 0.112420
vt 0.481380 0.112420
vt 0.481380 0.178270
vt 0.539860 0.108470
vt 0.539860 0.113710
vt 0.561190 0.113710
vt 0.561190 0.108470
vt 0.719730 0.352140
vt 0.698400 0.352140
vt 0.539860 0.119430
vt 0.561190 0.119430
vt 0.956610 0.604050
vt 0.935290 0.604050
vt 0.719730 0.346300
vt 0.698400 0.346300
vt 0.539860 0.125440
vt 0.561190 0.125440
vt 0.729380 0.698880
vt 0.792740 0.681380
vt 0.594810 0.681540
vt 0.658170 0.698940
vt 0.729380 0.881210
vt 0.728170 0.887210
vt 0.790840 0.883980
vt 0.792740 0.866070
vt 0.659380 0.887270
vt 0.596710 0.884140
vt 0.602350 0.915260
vt 0.661770 0.892950
vt 0.665240 0.898140
vt 0.611490 0.936940
vt 0.623800 0.955310
vt 0.669680 0.902640
vt 0.674950 0.906320
vt 0.638790 0.970840
vt 0.655900 0.983510
vt 0.680860 0.909030
vt 0.700350 0.910680
vt 0.693770 0.911250
vt 0.693770 0.999860
vt 0.713080 0.993180
vt 0.712600 0.906290
vt 0.706690 0.909010
vt 0.731650 0.983450
vt 0.748760 0.970750
vt 0.658170 0.881270
vt 0.594810 0.866230
vt 0.687200 0.910700
vt 0.674470 0.993210
vt 0.763750 0.955200
vt 0.717870 0.902600
vt 0.725780 0.892900
vt 0.722310 0.898090
vt 0.776060 0.936800
vt 0.785200 0.915110
vt 0.913660 0.773040
vt 0.934990 0.773040
vt 0.934990 0.766960
vt 0.913660 0.766960
vt 0.934990 0.590730
vt 0.913660 0.590730
vt 0.978530 0.881680
vt 0.999850 0.881680
vt 0.999850 0.876020
vt 0.978530 0.876020
vt 0.978530 0.887660
vt 0.999850 0.887660
vt 0.935290 0.205830
vt 0.956610 0.205830
vt 0.956610 0.199730
vt 0.935290 0.199730
vt 0.999850 0.870880
vt 0.978530 0.870880
vt 0.956610 0.193760
vt 0.935290 0.193760
vt 0.999850 0.866430
vt 0.978530 0.866430
vt 0.956610 0.188120
vt 0.935290 0.188120
vt 0.913660 0.795160
vt 0.934990 0.795160
vt 0.934990 0.790360
vt 0.913660 0.790360
vt 0.698110 0.091810
vt 0.676780 0.091810
vt 0.676780 0.157650
vt 0.698110 0.157650
vt 0.978530 0.910730
vt 0.999850 0.910730
vt 0.999850 0.905490
vt 0.978530 0.905490
vt 0.934990 0.784940
vt 0.913660 0.784940
vt 0.999850 0.899770
vt 0.978530 0.899770
vt 0.935290 0.385760
vt 0.956610 0.385760
vt 0.934990 0.779110
vt 0.913660 0.779110
vt 0.999850 0.893760
vt 0.978530 0.893760
vt 0.531160 0.982360
vt 0.459950 0.982310
vt 0.396590 0.999700
vt 0.594520 0.999860
vt 0.531160 0.800030
vt 0.594520 0.815170
vt 0.592620 0.797260
vt 0.529950 0.794040
vt 0.461160 0.793980
vt 0.463540 0.788290
vt 0.404120 0.765990
vt 0.398490 0.797100
vt 0.467020 0.783110
vt 0.471460 0.778600
vt 0.425580 0.725930
vt 0.413270 0.744310
vt 0.476730 0.774930
vt 0.482640 0.772210
vt 0.457680 0.697730
vt 0.440570 0.710400
vt 0.502120 0.770560
vt 0.514860 0.688070
vt 0.495550 0.681380
vt 0.495550 0.769990
vt 0.514380 0.774960
vt 0.550530 0.710490
vt 0.533430 0.697800
vt 0.508470 0.772240
vt 0.459950 0.799970
vt 0.396590 0.815010
vt 0.488980 0.770550
vt 0.476250 0.688040
vt 0.519640 0.778640
vt 0.565530 0.726050
vt 0.527560 0.788340
vt 0.586980 0.766140
vt 0.577840 0.744440
vt 0.524090 0.783150
vt 0.741350 0.340240
vt 0.741350 0.334150
vt 0.720020 0.334150
vt 0.720020 0.340240
vt 0.741350 0.157930
vt 0.720020 0.157930
vt 0.978530 0.984610
vt 0.978530 0.990270
vt 0.999850 0.990270
vt 0.999850 0.984610
vt 0.978530 0.978630
vt 0.999850 0.978630
vt 0.978230 0.819940
vt 0.978230 0.813840
vt 0.956910 0.813840
vt 0.956910 0.819940
vt 0.978530 0.995410
vt 0.999850 0.995410
vt 0.978230 0.807870
vt 0.956910 0.807870
vt 0.978530 0.999860
vt 0.999850 0.999860
vt 0.978230 0.802230
vt 0.956910 0.802230
vt 0.741350 0.362360
vt 0.741350 0.357550
vt 0.720020 0.357550
vt 0.720020 0.362360
vt 0.647520 0.167550
vt 0.647520 0.101710
vt 0.626200 0.101710
vt 0.626200 0.167550
vt 0.978530 0.955570
vt 0.978530 0.960800
vt 0.999850 0.960800
vt 0.999850 0.955570
vt 0.741350 0.352140
vt 0.720020 0.352140
vt 0.978530 0.966520
vt 0.999850 0.966520
vt 0.978230 0.999860
vt 0.956910 0.999860
vt 0.741350 0.346300
vt 0.720020 0.346300
vt 0.978530 0.972530
vt 0.999850 0.972530
vt 0.658170 0.663610
vt 0.594810 0.681110
vt 0.792740 0.680950
vt 0.729380 0.663550
vt 0.658170 0.481280
vt 0.659380 0.475280
vt 0.596710 0.478510
vt 0.594810 0.496420
vt 0.728170 0.475220
vt 0.790840 0.478350
vt 0.785200 0.447240
vt 0.725780 0.469540
vt 0.722310 0.464350
vt 0.776060 0.425560
vt 0.763750 0.407180
vt 0.717870 0.459850
vt 0.712600 0.456180
vt 0.748760 0.391650
vt 0.731650 0.378980
vt 0.706690 0.453460
vt 0.687200 0.451810
vt 0.693770 0.451240
vt 0.693780 0.362630
vt 0.674470 0.369310
vt 0.674950 0.456210
vt 0.680860 0.453480
vt 0.655900 0.379040
vt 0.638790 0.391740
vt 0.729380 0.481220
vt 0.792740 0.496260
vt 0.700350 0.451800
vt 0.713080 0.369280
vt 0.623800 0.407290
vt 0.669680 0.459890
vt 0.661770 0.469590
vt 0.665240 0.464400
vt 0.611490 0.425690
vt 0.602350 0.447390
vt 0.913660 0.568340
vt 0.934990 0.568340
vt 0.934990 0.562250
vt 0.913660 0.562250
vt 0.934990 0.386030
vt 0.913660 0.386030
vt 0.999850 0.850910
vt 0.978530 0.850910
vt 0.978530 0.856570
vt 0.999850 0.856570
vt 0.999850 0.844930
vt 0.978530 0.844930
vt 0.913660 0.205830
vt 0.934990 0.205830
vt 0.934990 0.199730
vt 0.913660 0.199730
vt 0.978530 0.861710
vt 0.999850 0.861710
vt 0.934990 0.193760
vt 0.913670 0.193760
vt 0.978530 0.866160
vt 0.999850 0.866160
vt 0.934990 0.188120
vt 0.913670 0.188120
vt 0.913660 0.590460
vt 0.934990 0.590460
vt 0.934990 0.585650
vt 0.913660 0.585650
vt 0.481090 0.112420
vt 0.459760 0.112420
vt 0.459760 0.178270
vt 0.481090 0.178270
vt 0.999850 0.821860
vt 0.978530 0.821860
vt 0.978530 0.827090
vt 0.999850 0.827090
vt 0.934990 0.580240
vt 0.913660 0.580240
vt 0.978530 0.832810
vt 0.999850 0.832810
vt 0.913670 0.385760
vt 0.934990 0.385760
vt 0.934990 0.574400
vt 0.913660 0.574400
vt 0.978530 0.838830
vt 0.999850 0.838830
vt 0.332940 0.982360
vt 0.261730 0.982310
vt 0.198370 0.999700
vt 0.396300 0.999860
vt 0.332940 0.800030
vt 0.396300 0.815170
vt 0.394390 0.797260
vt 0.331730 0.794040
vt 0.262940 0.793980
vt 0.265320 0.788290
vt 0.205900 0.765990
vt 0.200270 0.797100
vt 0.268800 0.783110
vt 0.273240 0.778600
vt 0.227360 0.725930
vt 0.215050 0.744310
vt 0.278510 0.774930
vt 0.284420 0.772210
vt 0.259460 0.697730
vt 0.242350 0.710400
vt 0.303900 0.770560
vt 0.316640 0.688070
vt 0.297330 0.681380
vt 0.297330 0.769990
vt 0.316160 0.774960
vt 0.352310 0.710490
vt 0.335200 0.697800
vt 0.310250 0.772240
vt 0.261730 0.799970
vt 0.198370 0.815010
vt 0.290760 0.770550
vt 0.278030 0.688040
vt 0.321420 0.778640
vt 0.367310 0.726050
vt 0.329340 0.788340
vt 0.388760 0.766140
vt 0.379620 0.744440
vt 0.325870 0.783150
vt 0.762970 0.340240
vt 0.762970 0.334150
vt 0.741640 0.334150
vt 0.741640 0.340240
vt 0.762970 0.157930
vt 0.741640 0.157930
vt 0.999850 0.926250
vt 0.999850 0.920590
vt 0.978530 0.920590
vt 0.978530 0.926250
vt 0.999850 0.932230
vt 0.978530 0.932230
vt 0.978230 0.205830
vt 0.978230 0.199730
vt 0.956910 0.199730
vt 0.956910 0.205830
vt 0.999850 0.915450
vt 0.978530 0.915450
vt 0.978230 0.193760
vt 0.956910 0.193760
vt 0.999850 0.911000
vt 0.978530 0.911000
vt 0.978230 0.188120
vt 0.956910 0.188120
vt 0.762970 0.362360
vt 0.762970 0.357550
vt 0.741640 0.357550
vt 0.741640 0.362360
vt 0.956910 0.720340
vt 0.956910 0.786180
vt 0.978230 0.786180
vt 0.978230 0.720340
vt 0.999850 0.955300
vt 0.999850 0.950060
vt 0.978530 0.950060
vt 0.978530 0.955290
vt 0.762970 0.352140
vt 0.741640 0.352140
vt 0.999850 0.944340
vt 0.978530 0.944340
vt 0.978230 0.385760
vt 0.956910 0.385760
vt 0.762970 0.346300
vt 0.741640 0.346300
vt 0.999850 0.938330
vt 0.978530 0.938330
vt 0.261730 0.663610
vt 0.198370 0.681110
vt 0.396300 0.680950
vt 0.332940 0.663550
vt 0.261730 0.481280
vt 0.262940 0.475280
vt 0.200270 0.478510
vt 0.198370 0.496420
vt 0.331730 0.475220
vt 0.394390 0.478350
vt 0.388760 0.447240
vt 0.329340 0.469540
vt 0.325870 0.464350
vt 0.379620 0.425560
vt 0.367310 0.407180
vt 0.321420 0.459850
vt 0.316160 0.456180
vt 0.352310 0.391650
vt 0.335200 0.378980
vt 0.310250 0.453460
vt 0.290760 0.451810
vt 0.297330 0.451240
vt 0.297330 0.362630
vt 0.278030 0.369310
vt 0.278510 0.456210
vt 0.284420 0.453480
vt 0.259460 0.379040
vt 0.242350 0.391740
vt 0.332940 0.481220
vt 0.396300 0.496260
vt 0.303900 0.451800
vt 0.316640 0.369280
vt 0.227360 0.407290
vt 0.273240 0.459890
vt 0.265320 0.469590
vt 0.268800 0.464400
vt 0.215050 0.425690
vt 0.205900 0.447390
vt 0.913660 0.977740
vt 0.934990 0.977740
vt 0.934990 0.971660
vt 0.913660 0.971660
vt 0.934990 0.795430
vt 0.913660 0.795430
vt 0.579930 0.116890
vt 0.601250 0.116890
vt 0.601250 0.111240
vt 0.579930 0.111240
vt 0.579930 0.122870
vt 0.601250 0.122870
vt 0.935290 0.819940
vt 0.956610 0.819940
vt 0.956610 0.813840
vt 0.935290 0.813840
vt 0.601250 0.106090
vt 0.579930 0.106090
vt 0.956610 0.807870
vt 0.935290 0.807870
vt 0.601250 0.101640
vt 0.579930 0.101640
vt 0.956610 0.802230
vt 0.935290 0.802230
vt 0.913660 0.999860
vt 0.934990 0.999860
vt 0.934990 0.995060
vt 0.913660 0.995060
vt 0.741350 0.091810
vt 0.720020 0.091810
vt 0.720020 0.157650
vt 0.741350 0.157650
vt 0.579930 0.145940
vt 0.601250 0.145940
vt 0.601250 0.140710
vt 0.579930 0.140710
vt 0.934990 0.989650
vt 0.913660 0.989650
vt 0.601250 0.134990
vt 0.579930 0.134990
vt 0.935290 0.999860
vt 0.956610 0.999860
vt 0.934990 0.983810
vt 0.913660 0.983810
vt 0.601250 0.128970
vt 0.579930 0.128970
vt 0.134720 0.982360
vt 0.063500 0.982310
vt 0.000150 0.999700
vt 0.198070 0.999860
vt 0.134720 0.800030
vt 0.198070 0.815170
vt 0.196170 0.797260
vt 0.133500 0.794040
vt 0.064720 0.793980
vt 0.067100 0.788290
vt 0.007680 0.765990
vt 0.002050 0.797100
vt 0.070570 0.783110
vt 0.075020 0.778600
vt 0.029130 0.725930
vt 0.016830 0.744310
vt 0.080290 0.774930
vt 0.086190 0.772210
vt 0.061240 0.697730
vt 0.044130 0.710400
vt 0.105680 0.770560
vt 0.118420 0.688070
vt 0.099110 0.681380
vt 0.099110 0.769990
vt 0.117940 0.774960
vt 0.154090 0.710490
vt 0.136980 0.697800
vt 0.112030 0.772240
vt 0.063500 0.799970
vt 0.000150 0.815010
vt 0.092540 0.770550
vt 0.079800 0.688040
vt 0.123200 0.778640
vt 0.169090 0.726050
vt 0.131120 0.788340
vt 0.190540 0.766140
vt 0.181400 0.744440
vt 0.127650 0.783150
vt 0.698110 0.340240
vt 0.698110 0.334150
vt 0.676780 0.334150
vt 0.676780 0.340240
vt 0.698110 0.157930
vt 0.676780 0.157930
vt 0.539570 0.123720
vt 0.539570 0.118070
vt 0.518240 0.118070
vt 0.518240 0.123720
vt 0.539570 0.129700
vt 0.518240 0.129700
vt 0.978230 0.424120
vt 0.978230 0.418020
vt 0.956910 0.418020
vt 0.956910 0.424120
vt 0.539570 0.112920
vt 0.518240 0.112920
vt 0.978230 0.412050
vt 0.956910 0.412050
vt 0.539570 0.108470
vt 0.518240 0.108470
vt 0.978230 0.406410
vt 0.956910 0.406410
vt 0.698110 0.362360
vt 0.698110 0.357550
vt 0.676780 0.357550
vt 0.676780 0.362360
vt 0.651490 0.101710
vt 0.651490 0.167550
vt 0.672810 0.167550
vt 0.672810 0.101710
vt 0.539570 0.152770
vt 0.539570 0.147540
vt 0.518240 0.147540
vt 0.518240 0.152770
vt 0.698110 0.352140
vt 0.676780 0.352140
vt 0.539570 0.141820
vt 0.518240 0.141820
vt 0.978230 0.604050
vt 0.956910 0.604050
vt 0.698110 0.346300
vt 0.676780 0.346300
vt 0.539570 0.135810
vt 0.518240 0.135810
s 1
usemtl mur-haut.002
f 1/1/1 3/3/1 2/2/2
s 0
f 1/1/1 4/4/1 3/3/1
f 5/5/1 7/7/1 6/6/1
f 5/5/1 8/8/1 7/7/1
f 9/9/1 11/11/1 10/10/1
f 9/9/1 12/12/1 11/11/1
f 13/13/1 15/15/1 14/14/1
f 13/13/1 16/16/1 15/15/1
f 17/17/1 19/19/1 18/18/1
f 17/17/1 20/20/1 19/19/1
f 21/21/1 23/23/1 22/22/1
f 21/21/1 24/24/1 23/23/1
f 25/25/1 27/27/1 26/26/1
f 25/25/1 28/28/1 27/27/1
f 29/29/1 10/10/1 30/30/1
f 29/29/1 9/9/1 10/10/1
f 13/13/1 32/11/1 31/12/1
f 13/13/1 14/14/1 32/11/1
f 19/19/1 34/32/1 33/31/1
f 19/19/1 20/20/1 34/32/1
f 34/32/1 35/23/1 33/31/1
f 34/32/1 36/22/1 35/23/1
f 21/21/1 27/27/1 24/24/1
f 21/21/1 26/26/1 27/27/1
f 25/25/1 37/33/1 28/28/1
f 25/25/1 38/34/1 37/33/1
f 39/35/1 41/37/1 40/36/1
f 39/35/1 42/38/1 41/37/1
f 1/1/1 44/8/1 43/5/1
s 1
f 1/1/1 2/2/2 44/8/1
s 0
f 45/4/1 47/30/1 46/3/1
f 45/4/1 48/29/1 47/30/1
f 17/17/1 50/15/1 49/16/1
f 17/17/1 18/18/1 50/15/1
f 51/37/1 53/34/1 52/36/1
f 51/37/1 54/33/1 53/34/1
f 39/35/1 55/7/1 42/38/1
f 39/35/1 56/6/1 55/7/1
s 1
f 57/39/3 59/41/4 58/40/3
f 57/39/3 60/42/4 59/41/4
f 60/42/4 61/43/5 59/41/4
f 60/42/4 62/44/5 61/43/5
f 63/45/6 65/47/7 64/46/6
f 63/45/6 66/48/7 65/47/7
f 67/49/8 69/46/9 68/50/8
f 67/49/8 70/45/9 69/46/9
f 71/51/10 73/53/12 72/52/11
f 71/51/10 74/54/12 73/53/12
f 66/48/7 75/55/13 65/47/7
f 66/48/7 76/56/13 75/55/13
f 74/54/12 77/57/14 73/53/12
f 74/54/12 78/58/15 77/57/14
f 79/56/16 81/59/17 80/55/16
f 79/56/16 82/60/17 81/59/17
f 83/58/14 85/61/18 84/57/15
f 83/58/14 86/62/18 85/61/18
f 82/60/17 87/63/19 81/59/17
f 82/60/17 88/64/19 87/63/19
s 0
f 89/65/20 91/67/20 90/66/20
f 89/65/20 92/68/20 91/67/20
s 1
f 93/62/21 95/69/22 94/61/21
f 93/62/21 96/70/22 95/69/22
f 97/71/19 99/73/23 98/72/19
f 97/71/19 100/74/23 99/73/23
f 101/70/22 103/75/24 102/69/22
f 101/70/22 104/76/24 103/75/24
f 105/77/25 107/52/10 106/78/25
f 105/77/25 108/51/10 107/52/10
f 100/74/23 109/79/26 99/73/23
f 100/74/23 110/80/26 109/79/26
f 104/76/24 111/81/27 103/75/24
f 104/76/24 112/82/27 111/81/27
f 110/80/26 113/40/28 109/79/26
f 110/80/26 114/39/28 113/40/28
f 115/83/29 68/50/8 116/84/29
f 115/83/29 67/49/8 68/50/8
f 117/85/30 119/87/32 118/86/31
f 117/85/30 120/88/30 119/87/32
s 0
f 121/89/30 123/91/30 122/90/30
f 121/89/30 124/92/30 123/91/30
s 1
f 125/93/30 127/95/30 126/94/30
s 0
f 125/93/30 128/96/30 127/95/30
f 129/97/30 131/99/30 130/98/30
f 129/97/30 132/100/30 131/99/30
f 133/101/30 135/103/30 134/102/30
f 133/101/30 136/104/30 135/103/30
f 137/105/30 139/107/30 138/106/30
f 137/105/30 140/108/30 139/107/30
f 141/109/30 143/111/30 142/110/30
f 141/109/30 144/112/30 143/111/30
f 145/113/30 126/94/30 146/114/30
f 145/113/30 125/93/30 126/94/30
f 129/97/30 148/95/30 147/96/30
f 129/97/30 130/98/30 148/95/30
f 149/115/30 135/103/30 136/104/30
f 149/115/30 150/116/30 135/103/30
f 149/115/30 151/107/30 150/116/30
f 149/115/30 152/106/30 151/107/30
f 137/105/30 143/111/30 140/108/30
f 137/105/30 142/110/30 143/111/30
f 141/109/30 153/117/30 144/112/30
f 141/109/30 154/118/30 153/117/30
f 155/119/30 157/121/30 156/120/30
f 155/119/30 158/122/30 157/121/30
f 117/85/30 160/92/30 159/89/30
s 1
f 117/85/30 118/86/31 160/92/30
f 161/88/30 163/114/30 162/87/33
s 0
f 161/88/30 164/113/30 163/114/30
f 133/101/30 166/99/30 165/100/30
f 133/101/30 134/102/30 166/99/30
f 167/121/30 169/118/30 168/120/30
f 167/121/30 170/117/30 169/118/30
f 155/119/30 171/91/30 158/122/30
f 155/119/30 172/90/30 171/91/30
s 1
f 173/123/34 175/125/35 174/124/34
f 173/123/34 176/126/35 175/125/35
f 176/126/35 177/127/36 175/125/35
f 176/126/35 178/128/36 177/127/36
f 179/129/37 181/131/38 180/130/37
f 179/129/37 182/132/38 181/131/38
f 183/133/39 185/130/40 184/134/39
f 183/133/39 186/129/40 185/130/40
f 187/135/41 189/137/43 188/136/42
f 187/135/41 190/138/43 189/137/43
f 191/132/38 193/139/44 192/131/38
f 191/132/38 194/140/44 193/139/44
f 190/138/43 195/141/45 189/137/43
f 190/138/43 196/142/45 195/141/45
f 197/143/46 199/145/48 198/144/47
f 197/143/46 200/146/48 199/145/48
f 201/142/49 203/147/50 202/141/45
f 201/142/49 204/148/50 203/147/50
f 200/146/48 205/149/51 199/145/48
f 200/146/48 206/150/51 205/149/51
s 0
f 207/151/20 209/153/20 208/152/20
f 207/151/20 210/154/20 209/153/20
s 1
f 204/148/50 211/155/52 203/147/50
f 204/148/50 212/156/53 211/155/52
f 213/150/51 215/157/54 214/149/51
f 213/150/51 216/158/54 215/157/54
f 217/159/52 219/161/55 218/160/52
f 217/159/52 220/162/55 219/161/55
f 221/163/56 223/136/41 222/164/56
f 221/163/56 224/135/41 223/136/41
f 216/158/54 225/165/57 215/157/54
f 216/158/54 226/166/58 225/165/57
f 227/162/59 229/167/60 228/161/55
f 227/162/59 230/168/61 229/167/60
f 231/166/58 233/124/62 232/165/58
f 231/166/58 234/123/62 233/124/62
f 230/168/61 235/134/39 229/167/60
f 230/168/61 236/133/39 235/134/39
f 237/169/63 239/171/63 238/170/64
s 0
f 237/169/63 240/172/63 239/171/63
f 241/173/63 243/175/63 242/174/63
f 241/173/63 244/176/63 243/175/63
f 245/177/63 247/179/63 246/178/63
f 245/177/63 248/180/63 247/179/63
f 249/181/63 251/183/63 250/182/63
f 249/181/63 252/184/63 251/183/63
f 253/185/63 255/187/63 254/186/63
f 253/185/63 256/188/63 255/187/63
f 257/189/63 259/191/63 258/190/63
f 257/189/63 260/192/63 259/191/63
f 261/193/63 263/195/63 262/194/63
f 261/193/63 264/196/63 263/195/63
f 265/197/63 246/178/63 266/198/63
f 265/197/63 245/177/63 246/178/63
f 249/181/63 268/179/63 267/180/63
f 249/181/63 250/182/63 268/179/63
f 269/199/63 271/187/63 270/188/63
f 269/199/63 272/200/63 271/187/63
f 269/199/63 259/191/63 272/200/63
f 269/199/63 258/190/63 259/191/63
f 257/189/63 273/195/63 260/192/63
f 257/189/63 274/194/63 273/195/63
f 261/193/63 275/201/63 264/196/63
f 261/193/63 276/202/63 275/201/63
f 277/203/63 279/205/63 278/204/63
f 277/203/63 280/206/63 279/205/63
f 237/169/63 282/176/63 281/173/63
s 1
f 237/169/63 238/170/64 282/176/63
s 0
f 283/172/63 285/198/63 284/171/63
f 283/172/63 286/197/63 285/198/63
f 253/185/63 288/183/63 287/184/63
f 253/185/63 254/186/63 288/183/63
f 289/205/63 291/202/63 290/204/63
f 289/205/63 292/201/63 291/202/63
f 277/203/63 243/175/63 280/206/63
f 277/203/63 242/174/63 243/175/63
s 1
f 293/207/65 295/209/66 294/208/65
f 293/207/65 296/210/66 295/209/66
f 296/210/66 297/211/67 295/209/66
f 296/210/66 298/212/67 297/211/67
f 299/213/68 301/215/69 300/214/68
f 299/213/68 302/216/69 301/215/69
f 303/217/70 300/214/68 304/218/70
f 303/217/70 299/213/68 300/214/68
f 305/219/71 307/221/72 306/220/71
f 305/219/71 308/222/72 307/221/72
f 302/216/69 309/223/73 301/215/69
f 302/216/69 310/224/73 309/223/73
f 308/222/72 311/225/74 307/221/72
f 308/222/72 312/226/74 311/225/74
f 313/224/75 315/227/76 314/223/75
f 313/224/75 316/228/76 315/227/76
f 312/226/74 317/229/77 311/225/74
f 312/226/74 318/230/77 317/229/77
f 316/228/76 319/231/78 315/227/76
f 316/228/76 320/232/78 319/231/78
s 0
f 321/233/20 323/235/20 322/234/20
f 321/233/20 324/236/20 323/235/20
s 1
f 325/230/77 327/237/79 326/229/77
f 325/230/77 328/238/79 327/237/79
f 329/239/80 331/241/81 330/240/80
f 329/239/80 332/242/81 331/241/81
f 333/243/79 335/245/82 334/244/79
f 333/243/79 336/246/82 335/245/82
f 337/247/83 339/220/84 338/248/83
f 337/247/83 340/219/84 339/220/84
f 332/242/81 341/249/85 331/241/81
f 332/242/81 342/250/85 341/249/85
f 336/246/82 343/251/86 335/245/82
f 336/246/82 344/252/86 343/251/86
f 345/250/85 294/208/65 346/249/85
f 345/250/85 293/207/65 294/208/65
f 344/252/86 347/218/70 343/251/86
f 344/252/86 348/217/70 347/218/70
s 0
f 349/253/67 351/255/67 350/254/67
f 349/253/67 352/256/67 351/255/67
f 353/257/83 355/259/83 354/258/83
f 353/257/83 356/260/83 355/259/83
s 1
f 357/261/87 359/263/89 358/262/88
f 357/261/87 360/264/90 359/263/89
s 0
f 361/257/91 363/265/91 362/260/91
f 361/257/91 364/266/91 363/265/91
s 1
f 365/267/92 367/269/93 366/268/93
f 365/267/92 368/270/92 367/269/93
s 0
f 369/266/1 371/271/1 370/265/1
f 369/266/1 372/272/1 371/271/1
f 373/273/63 375/268/63 374/274/63
f 373/273/63 376/267/63 375/268/63
f 377/275/94 379/274/94 378/276/94
f 377/275/94 380/273/94 379/274/94
f 381/264/95 383/254/95 382/263/95
f 381/264/95 384/253/95 383/254/95
f 385/255/67 387/277/67 386/254/67
f 385/255/67 388/278/67 387/277/67
f 389/260/83 391/279/83 390/259/83
f 389/260/83 392/280/83 391/279/83
f 393/281/67 395/283/67 394/282/67
f 393/281/67 396/284/67 395/283/67
f 397/285/67 399/287/67 398/286/67
f 397/285/67 400/288/67 399/287/67
f 401/289/67 403/291/67 402/290/67
f 401/289/67 404/292/67 403/291/67
f 405/293/67 407/295/67 406/294/67
f 405/293/67 408/296/67 407/295/67
f 409/297/67 411/299/67 410/298/67
f 409/297/67 412/300/67 411/299/67
f 413/301/67 415/303/67 414/302/67
f 413/301/67 416/304/67 415/303/67
f 417/305/67 419/307/67 418/306/67
f 417/305/67 420/308/67 419/307/67
f 421/309/67 402/290/67 422/310/67
f 421/309/67 401/289/67 402/290/67
f 405/293/67 424/291/67 423/292/67
f 405/293/67 406/294/67 424/291/67
f 425/311/67 427/299/67 426/300/67
f 425/311/67 428/312/67 427/299/67
f 425/311/67 415/303/67 428/312/67
f 425/311/67 414/302/67 415/303/67
f 413/301/67 429/307/67 416/304/67
f 413/301/67 430/306/67 429/307/67
f 417/305/67 431/313/67 420/308/67
f 417/305/67 432/314/67 431/313/67
f 433/315/67 435/317/67 434/316/67
f 433/315/67 436/318/67 435/317/67
f 393/281/67 438/288/67 437/285/67
f 393/281/67 394/282/67 438/288/67
f 439/284/67 441/310/67 440/283/67
f 439/284/67 442/309/67 441/310/67
f 409/297/67 407/295/67 408/296/67
f 409/297/67 410/298/67 407/295/67
f 443/317/67 445/314/67 444/316/67
f 443/317/67 446/313/67 445/314/67
f 433/315/67 399/287/67 436/318/67
f 433/315/67 398/286/67 399/287/67
s 1
f 447/319/96 449/321/97 448/320/96
f 447/319/96 450/322/97 449/321/97
f 450/322/97 451/323/98 449/321/97
f 450/322/97 452/324/98 451/323/98
f 453/325/68 455/327/99 454/326/68
f 453/325/68 456/328/99 455/327/99
f 457/329/100 454/326/68 458/330/100
f 457/329/100 453/325/68 454/326/68
f 459/331/101 461/333/102 460/332/101
f 459/331/101 462/334/102 461/333/102
f 456/328/99 463/335/103 455/327/99
f 456/328/99 464/336/103 463/335/103
f 462/334/102 465/337/104 461/333/102
f 462/334/102 466/338/104 465/337/104
f 464/336/103 467/339/105 463/335/103
f 464/336/103 468/340/105 467/339/105
f 466/338/104 469/341/106 465/337/104
f 466/338/104 470/342/106 469/341/106
f 471/343/105 473/345/107 472/344/105
f 471/343/105 474/346/107 473/345/107
s 0
f 475/347/20 477/349/20 476/348/20
f 475/347/20 478/350/20 477/349/20
s 1
f 479/351/106 481/353/108 480/352/106
f 479/351/106 482/354/108 481/353/108
f 483/346/107 485/355/109 484/345/107
f 483/346/107 486/356/109 485/355/109
f 487/354/108 489/357/110 488/353/108
f 487/354/108 490/358/110 489/357/110
f 491/359/63 493/332/111 492/360/63
f 491/359/63 494/331/111 493/332/111
f 486/356/109 495/361/112 485/355/109
f 486/356/109 496/362/112 495/361/112
f 490/358/110 497/363/113 489/357/110
f 490/358/110 498/364/114 497/363/113
f 499/362/115 448/320/96 500/361/115
f 499/362/115 447/319/96 448/320/96
f 501/364/114 458/330/100 502/363/114
f 501/364/114 457/329/100 458/330/100
s 0
f 503/365/83 505/367/83 504/366/83
f 503/365/83 506/368/83 505/367/83
f 507/369/83 509/371/83 508/370/83
f 507/369/83 510/372/83 509/371/83
f 511/373/83 513/375/83 512/374/83
f 511/373/83 514/376/83 513/375/83
f 515/377/83 517/379/83 516/378/83
f 515/377/83 518/380/83 517/379/83
f 519/381/83 521/383/83 520/382/83
f 519/381/83 522/384/83 521/383/83
f 523/385/83 525/387/83 524/386/83
f 523/385/83 526/388/83 525/387/83
f 527/389/83 529/391/83 528/390/83
f 527/389/83 530/392/83 529/391/83
f 531/393/83 514/376/83 511/373/83
f 531/393/83 532/394/83 514/376/83
f 515/377/83 533/375/83 518/380/83
f 515/377/83 534/374/83 533/375/83
f 535/395/83 537/383/83 536/396/83
f 535/395/83 538/382/83 537/383/83
f 535/395/83 525/387/83 526/388/83
f 535/395/83 536/396/83 525/387/83
f 523/385/83 540/391/83 539/392/83
f 523/385/83 524/386/83 540/391/83
f 527/389/83 542/398/83 541/397/83
f 527/389/83 528/390/83 542/398/83
f 543/399/83 545/401/83 544/400/83
f 543/399/83 546/402/83 545/401/83
f 503/365/83 547/370/83 506/368/83
f 503/365/83 548/369/83 547/370/83
f 549/366/83 551/394/83 550/393/83
f 549/366/83 552/367/83 551/394/83
f 519/381/83 517/379/83 522/384/83
f 519/381/83 516/378/83 517/379/83
f 553/401/83 555/397/83 554/398/83
f 553/401/83 556/402/83 555/397/83
f 543/399/83 509/371/83 510/372/83
f 543/399/83 544/400/83 509/371/83
s 1
f 557/403/96 559/405/97 558/404/97
f 557/403/96 560/406/96 559/405/97
f 558/404/97 562/408/98 561/407/98
f 558/404/97 559/405/97 562/408/98
f 563/409/68 565/411/99 564/410/116
f 563/409/68 566/412/68 565/411/99
f 567/413/100 566/412/68 563/409/68
f 567/413/100 568/414/117 566/412/68
f 569/415/101 571/417/102 570/416/102
f 569/415/101 572/418/101 571/417/102
f 564/410/116 574/420/103 573/419/103
f 564/410/116 565/411/99 574/420/103
f 570/416/102 576/422/104 575/421/104
f 570/416/102 571/417/102 576/422/104
f 573/419/103 578/424/105 577/423/105
f 573/419/103 574/420/103 578/424/105
f 575/421/104 580/426/106 579/425/106
f 575/421/104 576/422/104 580/426/106
f 581/427/105 583/429/107 582/428/107
f 581/427/105 584/430/105 583/429/107
s 0
f 585/431/20 587/433/20 586/432/20
f 585/431/20 588/434/20 587/433/20
s 1
f 589/435/106 591/437/108 590/436/108
f 589/435/106 592/438/106 591/437/108
f 593/428/107 595/440/109 594/439/109
f 593/428/107 596/429/107 595/440/109
f 597/436/108 599/442/110 598/441/110
f 597/436/108 600/437/108 599/442/110
f 601/443/63 603/418/111 602/415/111
f 601/443/63 604/444/63 603/418/111
f 594/439/109 606/446/112 605/445/118
f 594/439/109 595/440/109 606/446/112
f 598/441/110 608/448/113 607/447/113
f 598/441/110 599/442/110 608/448/113
f 609/445/115 560/406/96 557/403/96
f 609/445/115 610/446/115 560/406/96
f 611/447/114 568/414/117 567/413/100
f 611/447/114 612/448/114 568/414/117
s 0
f 613/449/67 615/451/67 614/450/67
f 613/449/67 616/452/67 615/451/67
f 617/453/67 619/455/67 618/454/67
f 617/453/67 620/456/67 619/455/67
f 621/457/67 623/459/67 622/458/67
f 621/457/67 624/460/67 623/459/67
f 625/461/67 627/463/67 626/462/67
f 625/461/67 628/464/67 627/463/67
f 629/465/67 631/467/67 630/466/67
f 629/465/67 632/468/67 631/467/67
f 633/469/67 635/471/67 634/470/67
f 633/469/67 636/472/67 635/471/67
f 637/473/67 639/475/67 638/474/67
f 637/473/67 640/476/67 639/475/67
f 641/477/67 622/458/67 642/478/67
f 641/477/67 621/457/67 622/458/67
f 625/461/67 644/459/67 643/460/67
f 625/461/67 626/462/67 644/459/67
f 645/479/67 647/467/67 646/468/67
f 645/479/67 648/480/67 647/467/67
f 645/479/67 635/471/67 648/480/67
f 645/479/67 634/470/67 635/471/67
f 633/469/67 649/475/67 636/472/67
f 633/469/67 650/474/67 649/475/67
f 637/473/67 651/481/67 640/476/67
f 637/473/67 652/482/67 651/481/67
f 653/483/67 655/485/67 654/484/67
f 653/483/67 656/486/67 655/485/67
f 613/449/67 658/456/67 657/453/67
f 613/449/67 614/450/67 658/456/67
f 659/452/67 661/478/67 660/451/67
f 659/452/67 662/477/67 661/478/67
f 629/465/67 627/463/67 628/464/67
f 629/465/67 630/466/67 627/463/67
f 663/485/67 665/482/67 664/484/67
f 663/485/67 666/481/67 665/482/67
f 653/483/67 619/455/67 656/486/67
f 653/483/67 618/454/67 619/455/67
s 1
f 667/487/96 669/489/97 668/488/96
f 667/487/96 670/490/97 669/489/97
f 670/490/97 671/491/98 669/489/97
f 670/490/97 672/492/98 671/491/98
f 673/493/68 675/495/99 674/494/68
f 673/493/68 676/496/116 675/495/99
f 677/497/100 674/494/68 678/498/100
f 677/497/100 673/493/68 674/494/68
f 679/499/101 681/501/102 680/500/101
f 679/499/101 682/502/102 681/501/102
f 676/496/116 683/503/103 675/495/99
f 676/496/116 684/504/103 683/503/103
f 682/502/102 685/505/104 681/501/102
f 682/502/102 686/506/104 685/505/104
f 684/504/103 687/507/105 683/503/103
f 684/504/103 688/508/105 687/507/105
f 686/506/104 689/509/106 685/505/104
f 686/506/104 690/510/106 689/509/106
f 691/511/105 693/513/107 692/512/105
f 691/511/105 694/514/107 693/513/107
s 0
f 695/515/20 697/517/20 696/516/20
f 695/515/20 698/518/20 697/517/20
s 1
f 699/519/119 701/521/108 700/520/106
f 699/519/119 702/522/108 701/521/108
f 703/514/107 705/523/109 704/513/107
f 703/514/107 706/524/109 705/523/109
f 707/522/108 709/525/110 708/521/108
f 707/522/108 710/526/110 709/525/110
f 711/527/63 713/500/111 712/528/63
f 711/527/63 714/499/111 713/500/111
f 706/524/109 715/529/112 705/523/109
f 706/524/109 716/530/112 715/529/112
f 710/526/110 717/531/113 709/525/110
f 710/526/110 718/532/114 717/531/113
f 719/530/115 668/488/96 720/529/115
f 719/530/115 667/487/96 668/488/96
f 721/532/114 678/498/100 722/531/114
f 721/532/114 677/497/100 678/498/100
s 0
f 723/533/83 725/535/83 724/534/83
f 723/533/83 726/536/83 725/535/83
f 727/537/83 729/539/83 728/538/83
f 727/537/83 730/540/83 729/539/83
f 731/541/83 733/543/83 732/542/83
f 731/541/83 734/544/83 733/543/83
f 735/545/83 737/547/83 736/546/83
f 735/545/83 738/548/83 737/547/83
f 739/549/83 741/551/83 740/550/83
f 739/549/83 742/552/83 741/551/83
f 743/553/83 745/555/83 744/554/83
f 743/553/83 746/556/83 745/555/83
f 747/557/83 749/559/83 748/558/83
f 747/557/83 750/560/83 749/559/83
f 751/561/83 734/544/83 731/541/83
f 751/561/83 752/562/83 734/544/83
f 735/545/83 753/543/83 738/548/83
f 735/545/83 754/542/83 753/543/83
f 755/563/83 757/551/83 756/564/83
f 755/563/83 758/550/83 757/551/83
f 755/563/83 745/555/83 746/556/83
f 755/563/83 756/564/83 745/555/83
f 743/553/83 760/559/83 759/560/83
f 743/553/83 744/554/83 760/559/83
f 747/557/83 762/566/83 761/565/83
f 747/557/83 748/558/83 762/566/83
f 763/567/83 765/569/83 764/568/83
f 763/567/83 766/570/83 765/569/83
f 723/533/83 767/538/83 726/536/83
f 723/533/83 768/537/83 767/538/83
f 769/534/83 771/562/83 770/561/83
f 769/534/83 772/535/83 771/562/83
f 739/549/83 737/547/83 742/552/83
f 739/549/83 736/546/83 737/547/83
f 773/569/83 775/565/83 774/566/83
f 773/569/83 776/570/83 775/565/83
f 763/567/83 729/539/83 730/540/83
f 763/567/83 764/568/83 729/539/83
s 1
f 777/571/96 779/573/97 778/572/97
f 777/571/96 780/574/96 779/573/97
f 778/572/97 782/576/98 781/575/98
f 778/572/97 779/573/97 782/576/98
f 783/577/68 785/579/99 784/578/116
f 783/577/68 786/580/68 785/579/99
f 787/581/100 786/580/68 783/577/68
f 787/581/100 788/582/100 786/580/68
f 789/583/101 791/585/102 790/584/102
f 789/583/101 792/586/101 791/585/102
f 784/578/116 794/588/103 793/587/103
f 784/578/116 785/579/99 794/588/103
f 790/584/102 796/590/104 795/589/104
f 790/584/102 791/585/102 796/590/104
f 793/587/103 798/592/105 797/591/105
f 793/587/103 794/588/103 798/592/105
f 795/589/104 800/594/106 799/593/106
f 795/589/104 796/590/104 800/594/106
f 801/595/105 803/597/107 802/596/107
f 801/595/105 804/598/105 803/597/107
s 0
f 805/599/20 807/601/20 806/600/20
f 805/599/20 808/602/20 807/601/20
s 1
f 809/603/106 811/605/108 810/604/108
f 809/603/106 812/606/106 811/605/108
f 813/596/107 815/608/109 814/607/109
f 813/596/107 816/597/107 815/608/109
f 817/604/108 819/610/110 818/609/110
f 817/604/108 820/605/108 819/610/110
f 821/611/63 823/586/111 822/583/111
f 821/611/63 824/612/63 823/586/111
f 814/607/109 826/614/112 825/613/118
f 814/607/109 815/608/109 826/614/112
f 818/609/110 828/616/113 827/615/113
f 818/609/110 819/610/110 828/616/113
f 829/613/115 780/574/96 777/571/96
f 829/613/115 830/614/115 780/574/96
f 831/615/114 788/582/100 787/581/100
f 831/615/114 832/616/114 788/582/100
s 0
f 833/617/67 835/619/67 834/618/67
f 833/617/67 836/620/67 835/619/67
f 837/621/67 839/623/67 838/622/67
f 837/621/67 840/624/67 839/623/67
f 841/625/67 843/627/67 842/626/67
f 841/625/67 844/628/67 843/627/67
f 845/629/67 847/631/67 846/630/67
f 845/629/67 848/632/67 847/631/67
f 849/633/67 851/635/67 850/634/67
f 849/633/67 852/636/67 851/635/67
f 853/637/67 855/639/67 854/638/67
f 853/637/67 856/640/67 855/639/67
f 857/641/67 859/643/67 858/642/67
f 857/641/67 860/644/67 859/643/67
f 861/645/67 842/626/67 862/646/67
f 861/645/67 841/625/67 842/626/67
f 845/629/67 864/627/67 863/628/67
f 845/629/67 846/630/67 864/627/67
f 865/647/67 867/635/67 866/636/67
f 865/647/67 868/648/67 867/635/67
f 865/647/67 855/639/67 868/648/67
f 865/647/67 854/638/67 855/639/67
f 853/637/67 869/643/67 856/640/67
f 853/637/67 870/642/67 869/643/67
f 857/641/67 871/649/67 860/644/67
f 857/641/67 872/650/67 871/649/67
f 873/651/67 875/653/67 874/652/67
f 873/651/67 876/654/67 875/653/67
f 833/617/67 878/624/67 877/621/67
f 833/617/67 834/618/67 878/624/67
f 879/620/67 881/646/67 880/619/67
f 879/620/67 882/645/67 881/646/67
f 849/633/67 847/631/67 848/632/67
f 849/633/67 850/634/67 847/631/67
f 883/653/67 885/650/67 884/652/67
f 883/653/67 886/649/67 885/650/67
f 873/651/67 839/623/67 876/654/67
f 873/651/67 838/622/67 839/623/67
s 1
f 887/655/96 889/657/97 888/656/96
f 887/655/96 890/658/97 889/657/97
f 890/658/97 891/659/98 889/657/97
f 890/658/97 892/660/98 891/659/98
f 893/661/68 895/663/99 894/662/68
f 893/661/68 896/664/99 895/663/99
f 897/665/100 894/662/68 898/666/100
f 897/665/100 893/661/68 894/662/68
f 899/667/101 901/669/102 900/668/101
f 899/667/101 902/670/102 901/669/102
f 896/664/99 903/671/103 895/663/99
f 896/664/99 904/672/103 903/671/103
f 902/670/102 905/673/104 901/669/102
f 902/670/102 906/674/104 905/673/104
f 904/672/103 907/675/105 903/671/103
f 904/672/103 908/676/105 907/675/105
f 906/674/104 909/677/106 905/673/104
f 906/674/104 910/678/106 909/677/106
f 911/679/105 913/681/120 912/680/105
f 911/679/105 914/682/120 913/681/120
s 0
f 915/683/20 917/685/20 916/684/20
f 915/683/20 918/686/20 917/685/20
s 1
f 919/687/119 921/689/108 920/688/106
f 919/687/119 922/690/108 921/689/108
f 923/682/107 925/691/109 924/681/107
f 923/682/107 926/692/109 925/691/109
f 927/690/108 929/693/110 928/689/108
f 927/690/108 930/694/110 929/693/110
f 931/695/63 933/668/111 932/696/63
f 931/695/63 934/667/111 933/668/111
f 926/692/109 935/697/115 925/691/109
f 926/692/109 936/698/112 935/697/115
f 930/694/110 937/699/113 929/693/110
f 930/694/110 938/700/114 937/699/113
f 939/698/115 888/656/96 940/697/115
f 939/698/115 887/655/96 888/656/96
f 941/700/114 898/666/100 942/699/114
f 941/700/114 897/665/100 898/666/100
s 0
f 943/701/83 945/703/83 944/702/83
f 943/701/83 946/704/83 945/703/83
f 947/705/83 949/707/83 948/706/83
f 947/705/83 950/708/83 949/707/83
f 951/709/83 953/711/83 952/710/83
f 951/709/83 954/712/83 953/711/83
f 955/713/83 957/715/83 956/714/83
f 955/713/83 958/716/83 957/715/83
f 959/717/83 961/719/83 960/718/83
f 959/717/83 962/720/83 961/719/83
f 963/721/83 965/723/83 964/722/83
f 963/721/83 966/724/83 965/723/83
f 967/725/83 969/727/83 968/726/83
f 967/725/83 970/728/83 969/727/83
f 971/729/83 954/712/83 951/709/83
f 971/729/83 972/730/83 954/712/83
f 955/713/83 973/711/83 958/716/83
f 955/713/83 974/710/83 973/711/83
f 975/731/83 977/719/83 976/732/83
f 975/731/83 978/718/83 977/719/83
f 975/731/83 965/723/83 966/724/83
f 975/731/83 976/732/83 965/723/83
f 963/721/83 980/727/83 979/728/83
f 963/721/83 964/722/83 980/727/83
f 967/725/83 982/734/83 981/733/83
f 967/725/83 968/726/83 982/734/83
f 983/735/83 985/737/83 984/736/83
f 983/735/83 986/738/83 985/737/83
f 943/701/83 987/706/83 946/704/83
f 943/701/83 988/705/83 987/706/83
f 989/702/83 991/730/83 990/729/83
f 989/702/83 992/703/83 991/730/83
f 959/717/83 957/715/83 962/720/83
f 959/717/83 956/714/83 957/715/83
f 993/737/83 995/733/83 994/734/83
f 993/737/83 996/738/83 995/733/83
f 983/735/83 949/707/83 950/708/83
f 983/735/83 984/736/83 949/707/83
s 1
f 997/739/96 999/741/97 998/740/97
f 997/739/96 1000/742/96 999/741/97
f 998/740/97 1002/744/98 1001/743/98
f 998/740/97 999/741/97 1002/744/98
f 1003/745/68 1005/747/99 1004/746/116
f 1003/745/68 1006/748/68 1005/747/99
f 1007/749/100 1006/748/68 1003/745/68
f 1007/749/100 1008/750/117 1006/748/68
f 1009/751/101 1011/753/102 1010/752/102
f 1009/751/101 1012/754/101 1011/753/102
f 1004/746/116 1014/756/103 1013/755/103
f 1004/746/116 1005/747/99 1014/756/103
f 1010/752/102 1016/758/104 1015/757/104
f 1010/752/102 1011/753/102 1016/758/104
f 1013/755/103 1018/760/105 1017/759/105
f 1013/755/103 1014/756/103 1018/760/105
f 1015/757/104 1020/762/106 1019/761/106
f 1015/757/104 1016/758/104 1020/762/106
f 1021/763/105 1023/765/107 1022/764/107
f 1021/763/105 1024/766/105 1023/765/107
s 0
f 1025/767/20 1027/769/20 1026/768/20
f 1025/767/20 1028/770/20 1027/769/20
s 1
f 1029/771/106 1031/773/108 1030/772/108
f 1029/771/106 1032/774/106 1031/773/108
f 1033/764/107 1035/776/109 1034/775/109
f 1033/764/107 1036/765/107 1035/776/109
f 1037/772/108 1039/778/110 1038/777/110
f 1037/772/108 1040/773/108 1039/778/110
f 1041/779/63 1043/754/111 1042/751/111
f 1041/779/63 1044/780/63 1043/754/111
f 1034/775/109 1046/782/112 1045/781/112
f 1034/775/109 1035/776/109 1046/782/112
f 1038/777/110 1048/784/113 1047/783/113
f 1038/777/110 1039/778/110 1048/784/113
f 1049/781/115 1000/742/96 997/739/96
f 1049/781/115 1050/782/115 1000/742/96
f 1051/783/114 1008/750/117 1007/749/100
f 1051/783/114 1052/784/114 1008/750/117
s 0
f 1053/785/67 1055/787/67 1054/786/67
f 1053/785/67 1056/788/67 1055/787/67
f 1057/789/67 1059/791/67 1058/790/67
f 1057/789/67 1060/792/67 1059/791/67
f 1061/793/67 1063/795/67 1062/794/67
f 1061/793/67 1064/796/67 1063/795/67
f 1065/797/67 1067/799/67 1066/798/67
f 1065/797/67 1068/800/67 1067/799/67
f 1069/801/67 1071/803/67 1070/802/67
f 1069/801/67 1072/804/67 1071/803/67
f 1073/805/67 1075/807/67 1074/806/67
f 1073/805/67 1076/808/67 1075/807/67
f 1077/809/67 1079/811/67 1078/810/67
f 1077/809/67 1080/812/67 1079/811/67
f 1081/813/67 1062/794/67 1082/814/67
f 1081/813/67 1061/793/67 1062/794/67
f 1065/797/67 1084/795/67 1083/796/67
f 1065/797/67 1066/798/67 1084/795/67
f 1085/815/67 1087/803/67 1086/804/67
f 1085/815/67 1088/816/67 1087/803/67
f 1085/815/67 1075/807/67 1088/816/67
f 1085/815/67 1074/806/67 1075/807/67
f 1073/805/67 1089/811/67 1076/808/67
f 1073/805/67 1090/810/67 1089/811/67
f 1077/809/67 1091/817/67 1080/812/67
f 1077/809/67 1092/818/67 1091/817/67
f 1093/819/67 1095/821/67 1094/820/67
f 1093/819/67 1096/822/67 1095/821/67
f 1053/785/67 1098/792/67 1097/789/67
f 1053/785/67 1054/786/67 1098/792/67
f 1099/788/67 1101/814/67 1100/787/67
f 1099/788/67 1102/813/67 1101/814/67
f 1069/801/67 1067/799/67 1068/800/67
f 1069/801/67 1070/802/67 1067/799/67
f 1103/821/67 1105/818/67 1104/820/67
f 1103/821/67 1106/817/67 1105/818/67
f 1093/819/67 1059/791/67 1096/822/67
f 1093/819/67 1058/790/67 1059/791/67
s 1
f 1107/823/96 1109/825/97 1108/824/96
f 1107/823/96 1110/826/97 1109/825/97
f 1110/826/97 1111/827/98 1109/825/97
f 1110/826/97 1112/828/98 1111/827/98
f 1113/829/68 1115/831/99 1114/830/68
f 1113/829/68 1116/832/99 1115/831/99
f 1117/833/100 1114/830/68 1118/834/100
f 1117/833/100 1113/829/68 1114/830/68
f 1119/835/101 1121/837/102 1120/836/101
f 1119/835/101 1122/838/102 1121/837/102
f 1116/832/99 1123/839/103 1115/831/99
f 1116/832/99 1124/840/103 1123/839/103
f 1122/838/102 1125/841/104 1121/837/102
f 1122/838/102 1126/842/104 1125/841/104
f 1124/840/103 1127/843/105 1123/839/103
f 1124/840/103 1128/844/105 1127/843/105
f 1126/842/104 1129/845/106 1125/841/104
f 1126/842/104 1130/846/106 1129/845/106
f 1131/847/105 1133/849/107 1132/848/105
f 1131/847/105 1134/850/107 1133/849/107
s 0
f 1135/851/20 1137/853/20 1136/852/20
f 1135/851/20 1138/854/20 1137/853/20
s 1
f 1139/855/106 1141/857/108 1140/856/106
f 1139/855/106 1142/858/108 1141/857/108
f 1143/850/107 1145/859/109 1144/849/107
f 1143/850/107 1146/860/109 1145/859/109
f 1147/858/108 1149/861/110 1148/857/108
f 1147/858/108 1150/862/110 1149/861/110
f 1151/863/63 1153/836/111 1152/864/63
f 1151/863/63 1154/835/111 1153/836/111
f 1146/860/109 1155/865/112 1145/859/109
f 1146/860/109 1156/866/112 1155/865/112
f 1150/862/110 1157/867/113 1149/861/110
f 1150/862/110 1158/868/114 1157/867/113
f 1159/866/115 1108/824/96 1160/865/115
f 1159/866/115 1107/823/96 1108/824/96
f 1161/868/114 1118/834/100 1162/867/114
f 1161/868/114 1117/833/100 1118/834/100
s 0
f 1163/869/83 1165/871/83 1164/870/83
f 1163/869/83 1166/872/83 1165/871/83
f 1167/873/83 1169/875/83 1168/874/83
f 1167/873/83 1170/876/83 1169/875/83
f 1171/877/83 1173/879/83 1172/878/83
f 1171/877/83 1174/880/83 1173/879/83
f 1175/881/83 1177/883/83 1176/882/83
f 1175/881/83 1178/884/83 1177/883/83
f 1179/885/83 1181/887/83 1180/886/83
f 1179/885/83 1182/888/83 1181/887/83
f 1183/889/83 1185/891/83 1184/890/83
f 1183/889/83 1186/892/83 1185/891/83
f 1187/893/83 1189/895/83 1188/894/83
f 1187/893/83 1190/896/83 1189/895/83
f 1191/897/83 1174/880/83 1171/877/83
f 1191/897/83 1192/898/83 1174/880/83
f 1175/881/83 1193/879/83 1178/884/83
f 1175/881/83 1194/878/83 1193/879/83
f 1195/899/83 1197/887/83 1196/900/83
f 1195/899/83 1198/886/83 1197/887/83
f 1195/899/83 1185/891/83 1186/892/83
f 1195/899/83 1196/900/83 1185/891/83
f 1183/889/83 1200/895/83 1199/896/83
f 1183/889/83 1184/890/83 1200/895/83
f 1187/893/83 1202/902/83 1201/901/83
f 1187/893/83 1188/894/83 1202/902/83
f 1203/903/83 1205/905/83 1204/904/83
f 1203/903/83 1206/906/83 1205/905/83
f 1163/869/83 1207/874/83 1166/872/83
f 1163/869/83 1208/873/83 1207/874/83
f 1209/870/83 1211/898/83 1210/897/83
f 1209/870/83 1212/871/83 1211/898/83
f 1179/885/83 1177/883/83 1182/888/83
f 1179/885/83 1176/882/83 1177/883/83
f 1213/905/83 1215/901/83 1214/902/83
f 1213/905/83 1216/906/83 1215/901/83
f 1203/903/83 1169/875/83 1170/876/83
f 1203/903/83 1204/904/83 1169/875/83
s 1
f 1217/907/96 1219/909/97 1218/908/97
f 1217/907/96 1220/910/96 1219/909/97
f 1218/908/97 1222/912/98 1221/911/98
f 1218/908/97 1219/909/97 1222/912/98
f 1223/913/68 1225/915/99 1224/914/116
f 1223/913/68 1226/916/68 1225/915/99
f 1227/917/100 1226/916/68 1223/913/68
f 1227/917/100 1228/918/117 1226/916/68
f 1229/919/101 1231/921/102 1230/920/102
f 1229/919/101 1232/922/101 1231/921/102
f 1224/914/116 1234/924/103 1233/923/103
f 1224/914/116 1225/915/99 1234/924/103
f 1230/920/102 1236/926/104 1235/925/104
f 1230/920/102 1231/921/102 1236/926/104
f 1233/923/103 1238/928/105 1237/927/105
f 1233/923/103 1234/924/103 1238/928/105
f 1235/925/104 1240/930/106 1239/929/106
f 1235/925/104 1236/926/104 1240/930/106
f 1241/931/105 1243/933/107 1242/932/107
f 1241/931/105 1244/934/105 1243/933/107
s 0
f 1245/935/20 1247/937/20 1246/936/20
f 1245/935/20 1248/938/20 1247/937/20
s 1
f 1249/939/119 1251/941/108 1250/940/108
f 1249/939/119 1252/942/106 1251/941/108
f 1253/932/107 1255/944/109 1254/943/109
f 1253/932/107 1256/933/107 1255/944/109
f 1257/940/108 1259/946/110 1258/945/110
f 1257/940/108 1260/941/108 1259/946/110
f 1261/947/63 1263/922/111 1262/919/111
f 1261/947/63 1264/948/63 1263/922/111
f 1254/943/109 1266/950/112 1265/949/118
f 1254/943/109 1255/944/109 1266/950/112
f 1258/945/110 1268/952/113 1267/951/113
f 1258/945/110 1259/946/110 1268/952/113
f 1269/949/115 1220/910/96 1217/907/96
f 1269/949/115 1270/950/115 1220/910/96
f 1271/951/114 1228/918/117 1227/917/100
f 1271/951/114 1272/952/114 1228/918/117
