# Blender 5.1.1
# www.blender.org
mtllib Arches.mtl
o Circle.006
v 17.187788 2.669968 12.701218
v 17.768705 2.669979 12.642077
v 17.187923 2.670124 13.685616
v 17.768858 2.670124 13.685206
v 4.341820 2.669968 12.701218
v 3.760900 2.669979 12.642077
v 4.341684 2.670124 13.685616
v 3.760750 2.670124 13.685206
v 1.565788 2.669968 12.701218
v 2.146706 2.669979 12.642077
v 1.565924 2.670124 13.685616
v 2.146858 2.670124 13.685206
v -11.280180 2.669968 12.701218
v -11.861099 2.669979 12.642077
v -11.280315 2.670124 13.685616
v -11.861250 2.670124 13.685206
v -14.056211 2.669968 12.701218
v -13.475294 2.669979 12.642077
v -14.056078 2.670124 13.685616
v -13.475142 2.670124 13.685206
v -26.902178 2.669968 12.701218
v -27.483099 2.669979 12.642077
v -26.902315 2.670124 13.685616
v -27.483248 2.670124 13.685206
v -29.678209 2.669968 12.701218
v -29.097292 2.669979 12.642077
v -29.678076 2.670124 13.685616
v -29.097139 2.670124 13.685206
v -42.524178 2.669968 12.701218
v -43.105095 2.669979 12.642077
v -42.524315 2.670124 13.685616
v -43.105247 2.670124 13.685206
v 17.187788 2.669968 -12.657602
v 17.768705 2.669979 -12.598462
v 17.187923 2.670124 -13.642001
v 17.768858 2.670124 -13.641591
v 4.341820 2.669968 -12.657602
v 3.760900 2.669979 -12.598462
v 4.341684 2.670124 -13.642001
v 3.760750 2.670124 -13.641591
v 1.565788 2.669968 -12.657602
v 2.146706 2.669979 -12.598462
v 1.565924 2.670124 -13.642001
v 2.146858 2.670124 -13.641591
v -11.280180 2.669968 -12.657602
v -11.861099 2.669979 -12.598462
v -11.280315 2.670124 -13.642001
v -11.861250 2.670124 -13.641591
v -14.056211 2.669968 -12.657602
v -13.475294 2.669979 -12.598462
v -14.056078 2.670124 -13.642001
v -13.475142 2.670124 -13.641591
v -26.902178 2.669968 -12.657602
v -27.483099 2.669979 -12.598462
v -26.902315 2.670124 -13.642001
v -27.483248 2.670124 -13.641591
v -29.678209 2.669968 -12.657602
v -29.097292 2.669979 -12.598462
v -29.678076 2.670124 -13.642001
v -29.097139 2.670124 -13.641591
v -42.524178 2.669968 -12.657602
v -43.105095 2.669979 -12.598462
v -42.524315 2.670124 -13.642001
v -43.105247 2.670124 -13.641591
v 30.360476 2.813183 5.061701
v 29.589149 2.813339 5.061808
v 29.589149 2.813339 5.516999
v 30.360474 2.813183 -5.003764
v 30.360477 2.813194 -6.684210
v 29.589149 2.813339 -5.003870
v 29.589149 2.813339 -5.459062
v 20.312590 2.813183 12.539366
v 19.338844 2.813719 13.099342
v 19.926838 2.813339 11.871429
v 19.535389 2.813892 12.103809
v 29.029539 2.813183 7.506632
v 30.357567 2.813719 6.737123
v 28.643967 2.813339 6.838591
v 29.040937 2.813892 6.615778
v 20.312590 2.813183 -12.481426
v 19.338844 2.813719 -13.041403
v 19.926838 2.813339 -11.813490
v 19.535389 2.813892 -12.045870
v 29.029539 2.813183 -7.448692
v 30.357567 2.813719 -6.679183
v 28.643967 2.813339 -6.780651
v 29.040937 2.813892 -6.557838
v 17.171179 8.133232 12.701669
v 16.805470 10.106234 12.700653
v 16.094391 11.541721 12.702509
v 14.583621 13.002733 12.702923
v 13.147127 13.743111 12.701555
v 17.767876 15.731524 12.630812
v 17.171322 8.132883 13.685620
v 16.805643 10.106358 13.685613
v 16.094614 11.541746 13.685626
v 14.583918 13.002718 13.685629
v 13.147282 13.743248 13.685619
v 17.768675 15.732641 13.685113
v 4.358437 8.133274 12.701670
v 4.724138 10.106236 12.700653
v 5.435151 11.541601 12.702504
v 6.946003 13.002741 12.702925
v 8.382477 13.743109 12.701555
v 10.764803 14.280952 12.700589
v 3.761725 15.731520 12.630803
v 10.764832 15.732914 12.652153
v 4.358274 8.132614 13.685620
v 4.723966 10.106365 13.685613
v 5.434904 11.541601 13.685626
v 6.945565 13.002649 13.685629
v 8.382322 13.743246 13.685619
v 10.764803 14.281134 13.685613
v 3.760935 15.732672 13.685122
v 1.432419 9.279469 12.688437
v 0.472328 11.541973 12.702521
v -1.038141 13.002546 12.702923
v -2.474873 13.743109 12.701555
v 2.145880 15.731522 12.630806
v 1.549332 8.132816 13.685620
v 1.183641 10.106367 13.685613
v 0.472435 11.542120 13.685626
v -1.038315 13.002867 13.685629
v -2.474718 13.743248 13.685619
v 2.146673 15.732672 13.685122
v -11.146812 9.279467 12.688438
v -10.186718 11.541977 12.702521
v -8.676254 13.002542 12.702923
v -7.239523 13.743109 12.701555
v -4.857197 14.280952 12.700589
v -11.860273 15.731522 12.630806
v -4.857197 15.732914 12.652154
v -11.263723 8.132839 13.685620
v -10.898035 10.106363 13.685613
v -10.186823 11.542126 13.685626
v -8.676077 13.002869 13.685629
v -7.239676 13.743246 13.685619
v -4.857197 14.281134 13.685613
v -11.861067 15.732641 13.685113
v -14.189592 9.279486 12.688439
v -15.149527 11.541685 12.702510
v -16.659880 13.002449 12.702903
v -18.096869 13.743109 12.701555
v -13.476118 15.731520 12.630804
v -14.072660 8.132231 13.685620
v -14.438356 10.106363 13.685613
v -15.149405 11.541809 13.685626
v -16.660158 13.002783 13.685629
v -18.096720 13.743248 13.685619
v -13.475325 15.732672 13.685122
v -26.768793 9.279503 12.688439
v -25.808878 11.541670 12.702510
v -24.298529 13.002439 12.702903
v -22.861521 13.743111 12.701555
v -20.479197 14.280952 12.700589
v -27.482275 15.731520 12.630804
v -20.479197 15.732916 12.652160
v -26.885733 8.132231 13.685620
v -26.520033 10.106361 13.685613
v -25.808992 11.541807 13.685626
v -24.298235 13.002783 13.685629
v -22.861673 13.743248 13.685619
v -20.479197 14.281134 13.685613
v -27.483065 15.732641 13.685113
v -29.694826 8.133196 12.701670
v -30.060530 10.106247 12.700653
v -30.771521 11.541681 12.702510
v -32.281883 13.002457 12.702904
v -33.718864 13.743109 12.701555
v -29.098116 15.731522 12.630804
v -29.694654 8.132233 13.685620
v -30.060354 10.106361 13.685613
v -30.771406 11.541821 13.685626
v -32.282173 13.002794 13.685629
v -33.718719 13.743248 13.685619
v -29.097322 15.732672 13.685122
v -42.507561 8.133196 12.701671
v -42.141861 10.106247 12.700654
v -41.430870 11.541681 12.702510
v -39.920502 13.002459 12.702904
v -38.483521 13.743109 12.701555
v -36.101196 14.280952 12.700589
v -43.104271 15.731522 12.630805
v -36.101196 15.732916 12.652160
v -42.507736 8.132233 13.685620
v -42.142036 10.106369 13.685613
v -41.430977 11.541824 13.685626
v -39.920219 13.002789 13.685629
v -38.483665 13.743250 13.685619
v -36.101196 14.281134 13.685613
v -43.105064 15.732641 13.685113
v 17.171175 8.133257 -12.658054
v 16.805470 10.106234 -12.657038
v 16.094391 11.541721 -12.658894
v 14.583621 13.002733 -12.659307
v 13.147127 13.743111 -12.657940
v 17.767876 15.731524 -12.587195
v 10.764832 15.732914 -12.608538
v 17.171322 8.132883 -13.642005
v 16.805643 10.106358 -13.641997
v 16.094614 11.541746 -13.642011
v 14.583918 13.002718 -13.642014
v 13.147282 13.743248 -13.642004
v 4.358437 8.133274 -12.658054
v 4.724138 10.106236 -12.657038
v 5.435151 11.541601 -12.658889
v 6.946003 13.002741 -12.659309
v 8.382477 13.743109 -12.657940
v 10.764803 14.280952 -12.656974
v 3.761725 15.731520 -12.587188
v 4.358274 8.132614 -13.642005
v 4.723966 10.106365 -13.641997
v 5.434904 11.541601 -13.642011
v 6.945565 13.002649 -13.642014
v 8.382322 13.743246 -13.642004
v 10.764803 14.281134 -13.641997
v 3.760933 15.732641 -13.641498
v 17.768673 15.732672 -13.641506
v 1.432419 9.279469 -12.644822
v 0.472328 11.541973 -12.658906
v -1.038141 13.002546 -12.659307
v -2.474873 13.743109 -12.657940
v 2.145880 15.731522 -12.587191
v -4.857197 15.732914 -12.608539
v 1.549332 8.132816 -13.642005
v 1.183641 10.106367 -13.641997
v 0.472435 11.542120 -13.642011
v -1.038315 13.002867 -13.642014
v -2.474718 13.743248 -13.642004
v 2.146675 15.732641 -13.641498
v -11.146812 9.279467 -12.644823
v -10.186718 11.541977 -12.658906
v -8.676254 13.002542 -12.659307
v -7.239523 13.743109 -12.657940
v -4.857197 14.280952 -12.656974
v -11.860273 15.731522 -12.587191
v -11.263723 8.132839 -13.642005
v -10.898035 10.106363 -13.641997
v -10.186823 11.542126 -13.642011
v -8.676077 13.002869 -13.642014
v -7.239676 13.743246 -13.642004
v -4.857197 14.281134 -13.641997
v -11.861065 15.732672 -13.641506
v -14.189592 9.279486 -12.644824
v -15.149527 11.541685 -12.658895
v -16.659880 13.002449 -12.659287
v -18.096869 13.743109 -12.657940
v -13.476118 15.731520 -12.587189
v -20.479197 15.732916 -12.608544
v -14.072660 8.132231 -13.642005
v -14.438356 10.106363 -13.641997
v -15.149405 11.541809 -13.642011
v -16.660158 13.002783 -13.642014
v -18.096720 13.743248 -13.642004
v -13.475325 15.732641 -13.641498
v -26.768793 9.279503 -12.644824
v -25.808878 11.541670 -12.658895
v -24.298529 13.002439 -12.659287
v -22.861521 13.743111 -12.657940
v -20.479197 14.280952 -12.656974
v -27.482275 15.731520 -12.587189
v -26.885733 8.132231 -13.642005
v -26.520033 10.106361 -13.641997
v -25.808992 11.541807 -13.642011
v -24.298235 13.002783 -13.642014
v -22.861673 13.743248 -13.642004
v -20.479197 14.281134 -13.641997
v -27.483065 15.732672 -13.641506
v -29.694826 8.133196 -12.658054
v -30.060530 10.106247 -12.657038
v -30.771521 11.541681 -12.658895
v -32.281883 13.002457 -12.659288
v -33.718864 13.743109 -12.657940
v -29.098116 15.731522 -12.587189
v -36.101196 15.732916 -12.608544
v -29.694654 8.132233 -13.642005
v -30.060354 10.106361 -13.641997
v -30.771406 11.541821 -13.642011
v -32.282173 13.002794 -13.642014
v -33.718719 13.743248 -13.642004
v -29.097322 15.732641 -13.641498
v -42.507561 8.133196 -12.658055
v -42.141861 10.106247 -12.657039
v -41.430870 11.541681 -12.658895
v -39.920502 13.002459 -12.659288
v -38.483521 13.743109 -12.657940
v -36.101196 14.280952 -12.656974
v -43.104271 15.731522 -12.587190
v -42.507736 8.132233 -13.642005
v -42.142036 10.106369 -13.641997
v -41.430977 11.541824 -13.642011
v -39.920219 13.002789 -13.642014
v -38.483665 13.743250 -13.642004
v -36.101196 14.281134 -13.641997
v -43.105064 15.732672 -13.641506
v 30.360477 9.448698 4.955100
v 30.360477 11.700821 4.195923
v 30.360477 13.564753 2.556671
v 30.360477 2.813194 6.742147
v 30.360477 15.875683 6.741934
v 29.589149 9.431967 4.957142
v 29.589149 11.696663 4.198574
v 29.589149 13.561087 2.562330
v 29.589149 15.875881 5.516807
v 30.360474 9.448704 -4.897162
v 30.360474 11.700825 -4.137985
v 30.360476 13.564751 -2.498735
v 30.360477 14.424124 0.028969
v 30.360477 15.875719 -6.683995
v 29.589149 9.431965 -4.899205
v 29.589149 11.696665 -4.140636
v 29.589149 13.561085 -2.504393
v 29.589149 14.424280 0.028969
v 29.589149 15.875906 -5.458868
v 20.404446 9.443861 12.486279
v 21.061516 11.699032 12.107027
v 22.477238 13.561068 11.289406
v 19.338961 15.876163 13.099257
v 20.018089 9.432056 11.820114
v 20.674122 11.696445 11.439635
v 22.091698 13.561214 10.621903
v 19.536175 15.876457 12.104722
v 28.937294 9.447628 7.559855
v 28.279991 11.700312 7.939435
v 26.865116 13.560755 8.756074
v 24.671059 14.424124 10.022988
v 30.357338 15.875042 6.736944
v 26.137043 15.876368 9.175509
v 28.553905 9.432192 6.891968
v 27.896343 11.696531 7.269880
v 26.479616 13.561035 8.088647
v 24.285431 14.424280 9.355062
v 29.041409 15.876431 6.616976
v 20.404520 9.444275 -12.428369
v 21.061550 11.699100 -12.049067
v 22.477257 13.561089 -11.231428
v 19.338915 15.876162 -13.041274
v 26.292442 15.876368 -9.027829
v 20.018080 9.431944 -11.762188
v 20.674112 11.696402 -11.381705
v 22.091719 13.561203 -10.563995
v 28.937263 9.447813 -7.501941
v 28.279953 11.700394 -7.881493
v 26.865032 13.560787 -8.698108
v 24.671061 14.424124 -9.965049
v 30.357361 15.875042 -6.679045
v 28.553913 9.432127 -6.834037
v 27.896343 11.696531 -7.211941
v 26.479624 13.561020 -8.030665
v 24.285431 14.424280 -9.297122
v 29.041412 15.876431 -6.559042
v 19.536190 15.876457 -12.046817
vn -0.1013 -0.0002 -0.9949
vn -0.1017 -0.0003 -0.9948
vn 0.0007 -0.0000 1.0000
vn 0.1013 -0.0002 -0.9949
vn 0.1017 -0.0003 -0.9948
vn -0.0007 -0.0000 1.0000
vn -0.1013 -0.0040 -0.9949
vn -0.0993 -0.0038 -0.9950
vn 0.1013 -0.0040 -0.9949
vn 0.0993 -0.0038 -0.9950
vn -0.1013 -0.0002 0.9949
vn -0.1017 -0.0003 0.9948
vn 0.0007 -0.0000 -1.0000
vn 0.1013 -0.0002 0.9949
vn 0.1017 -0.0003 0.9948
vn -0.0007 -0.0000 -1.0000
vn -0.1013 -0.0040 0.9948
vn -0.0993 -0.0038 0.9950
vn 0.1013 -0.0040 0.9949
vn 0.0993 -0.0038 0.9950
vn 1.0000 -0.0000 -0.0000
vn -1.0000 -0.0000 -0.0000
vn 0.4985 -0.0000 0.8669
vn -0.5105 0.0004 -0.8599
vn -0.5103 0.0004 -0.8600
vn 0.5014 -0.0000 0.8652
vn 0.5013 -0.0000 0.8652
vn -0.4895 0.0004 -0.8720
vn -0.4896 0.0004 -0.8719
vn 0.4985 -0.0000 -0.8669
vn -0.5105 0.0004 0.8599
vn -0.5103 0.0004 0.8600
vn 0.5014 -0.0000 -0.8652
vn 0.5013 -0.0000 -0.8652
vn -0.4895 0.0004 0.8720
vn -0.4896 0.0004 0.8719
vn -0.1011 -0.0013 -0.9949
vn -0.0310 -0.0071 -0.9995
vn -0.0177 -0.0100 -0.9998
vn -0.0081 -0.0199 -0.9998
vn -0.0275 -0.0578 -0.9980
vn -0.0152 -0.0157 -0.9998
vn 0.0002 0.0001 1.0000
vn 0.0001 0.0001 1.0000
vn -0.0000 0.0002 1.0000
vn 0.1011 -0.0013 -0.9949
vn 0.0310 -0.0071 -0.9995
vn 0.0177 -0.0100 -0.9998
vn 0.0081 -0.0199 -0.9998
vn 0.0275 -0.0578 -0.9980
vn -0.0000 -0.0333 -0.9994
vn 0.0152 -0.0157 -0.9998
vn -0.0000 -0.0306 -0.9995
vn -0.0002 0.0001 1.0000
vn -0.0001 0.0001 1.0000
vn -0.0000 0.0003 1.0000
vn -0.0670 -0.0017 -0.9978
vn -0.0229 -0.0080 -0.9997
vn -0.0276 -0.0578 -0.9980
vn -0.0151 -0.0151 -0.9998
vn 0.0670 -0.0017 -0.9978
vn 0.0229 -0.0080 -0.9997
vn 0.0276 -0.0578 -0.9980
vn 0.0151 -0.0151 -0.9998
vn -0.0276 -0.0578 -0.9979
vn 0.0276 -0.0578 -0.9979
vn 0.0002 -0.0000 1.0000
vn -0.1011 -0.0013 0.9949
vn -0.0310 -0.0071 0.9995
vn -0.0177 -0.0100 0.9998
vn -0.0081 -0.0199 0.9998
vn -0.0275 -0.0578 0.9980
vn -0.0152 -0.0157 0.9998
vn -0.0000 -0.0306 0.9995
vn 0.0002 -0.0000 -1.0000
vn 0.0001 0.0001 -1.0000
vn -0.0000 0.0002 -1.0000
vn 0.1011 -0.0013 0.9949
vn 0.0310 -0.0071 0.9995
vn 0.0177 -0.0100 0.9998
vn 0.0081 -0.0199 0.9998
vn 0.0275 -0.0577 0.9980
vn -0.0000 -0.0333 0.9994
vn 0.0152 -0.0157 0.9998
vn -0.0002 0.0001 -1.0000
vn -0.0001 0.0001 -1.0000
vn -0.0000 0.0003 -1.0000
vn -0.0670 -0.0017 0.9978
vn -0.0229 -0.0080 0.9997
vn -0.0276 -0.0578 0.9980
vn -0.0151 -0.0151 0.9998
vn 0.0002 0.0001 -1.0000
vn 0.0670 -0.0017 0.9978
vn 0.0229 -0.0080 0.9997
vn 0.0276 -0.0578 0.9980
vn 0.0151 -0.0151 0.9998
vn -0.0276 -0.0578 0.9979
vn 0.0276 -0.0578 0.9979
vn -0.0002 -0.0000 -1.0000
vn 0.4988 -0.0000 0.8667
vn 0.4996 0.0002 0.8663
vn 0.4998 0.0005 0.8661
vn 0.4996 0.0004 0.8662
vn -0.5071 0.0002 -0.8619
vn -0.5025 0.0008 -0.8646
vn -0.5008 0.0016 -0.8656
vn -0.5014 0.0018 -0.8652
vn 0.5012 0.0001 0.8653
vn 0.5005 0.0003 0.8657
vn 0.5003 0.0004 0.8659
vn 0.4997 0.0010 0.8662
vn 0.5001 0.0005 0.8659
vn -0.4928 0.0002 -0.8702
vn -0.4975 0.0008 -0.8675
vn -0.4992 0.0016 -0.8665
vn -0.5000 0.0037 -0.8660
vn -0.4986 0.0018 -0.8668
vn 0.4987 -0.0000 -0.8668
vn 0.4996 0.0002 -0.8663
vn 0.4998 0.0005 -0.8661
vn 0.4996 0.0004 -0.8662
vn 0.5002 0.0005 -0.8659
vn -0.5072 0.0002 0.8619
vn -0.5025 0.0008 0.8646
vn -0.5008 0.0016 0.8656
vn 0.5012 0.0001 -0.8653
vn 0.5005 0.0003 -0.8657
vn 0.5003 0.0004 -0.8659
vn 0.4997 0.0011 -0.8662
vn -0.4928 0.0002 0.8702
vn -0.4975 0.0008 0.8675
vn -0.4992 0.0016 0.8665
vn -0.5000 0.0038 0.8660
vn -0.4986 0.0018 0.8668
vn -0.5014 0.0018 0.8652
vt 0.200160 0.202497
vt 0.283638 0.193585
vt 0.399828 0.202471
vt 0.313833 0.188580
vt 0.335327 0.177725
vt 0.357594 0.156152
vt 0.369428 0.135734
vt 0.399850 0.101321
vt 0.377650 0.101321
vt 0.316369 0.801513
vt 0.399845 0.810425
vt 0.200169 0.810399
vt 0.286167 0.796508
vt 0.264674 0.785654
vt 0.242407 0.764082
vt 0.230571 0.743662
vt 0.222349 0.709246
vt 0.283638 0.009057
vt 0.200160 0.000145
vt 0.399828 0.000170
vt 0.313833 0.014061
vt 0.335326 0.024915
vt 0.357594 0.046489
vt 0.369428 0.066907
vt 0.316373 0.616979
vt 0.399845 0.608068
vt 0.399845 0.616460
vt 0.286167 0.621984
vt 0.200169 0.608093
vt 0.264676 0.632837
vt 0.242408 0.654408
vt 0.230571 0.674831
vt 0.199843 0.202786
vt 0.099085 0.214562
vt 0.000175 0.202811
vt 0.064673 0.227559
vt 0.042411 0.249127
vt 0.030575 0.269548
vt 0.000153 0.303962
vt 0.022353 0.303962
vt 0.116369 0.801513
vt 0.199843 0.810425
vt 0.000168 0.810399
vt 0.086165 0.796508
vt 0.064667 0.785651
vt 0.042403 0.764079
vt 0.030569 0.743662
vt 0.022348 0.709246
vt 0.099085 0.393362
vt 0.199843 0.405138
vt 0.000175 0.405113
vt 0.064673 0.380364
vt 0.042411 0.358797
vt 0.030575 0.338375
vt 0.116368 0.616979
vt 0.199843 0.608068
vt 0.199843 0.616460
vt 0.086165 0.621984
vt 0.000168 0.608093
vt 0.064667 0.632842
vt 0.042403 0.654413
vt 0.030569 0.674831
vt 0.599846 0.000144
vt 0.499088 0.011920
vt 0.400177 0.000170
vt 0.464679 0.024915
vt 0.442417 0.046482
vt 0.430577 0.066907
vt 0.400156 0.101321
vt 0.422356 0.101321
vt 0.716382 0.801527
vt 0.799848 0.810438
vt 0.600172 0.810412
vt 0.686170 0.796521
vt 0.664676 0.785667
vt 0.642409 0.764094
vt 0.630574 0.743675
vt 0.622352 0.709259
vt 0.499088 0.190721
vt 0.599846 0.202497
vt 0.400177 0.202471
vt 0.464680 0.177726
vt 0.442417 0.156159
vt 0.430577 0.135734
vt 0.716382 0.616992
vt 0.799848 0.608081
vt 0.799848 0.616473
vt 0.686170 0.621997
vt 0.600172 0.608106
vt 0.664676 0.632852
vt 0.642409 0.654424
vt 0.630574 0.674844
vt 0.199843 0.000144
vt 0.116366 0.009056
vt 0.000175 0.000170
vt 0.086170 0.014061
vt 0.064677 0.024915
vt 0.042414 0.046482
vt 0.030575 0.066907
vt 0.000153 0.101321
vt 0.022353 0.101321
vt 0.683623 0.211700
vt 0.600157 0.202790
vt 0.799833 0.202815
vt 0.713835 0.216706
vt 0.735329 0.227561
vt 0.757596 0.249134
vt 0.769431 0.269553
vt 0.777653 0.303968
vt 0.116366 0.193585
vt 0.199843 0.202497
vt 0.000175 0.202471
vt 0.086170 0.188580
vt 0.064677 0.177726
vt 0.042414 0.156159
vt 0.030575 0.135734
vt 0.683623 0.396236
vt 0.600157 0.405147
vt 0.600157 0.396755
vt 0.713835 0.391230
vt 0.799833 0.405122
vt 0.735329 0.380376
vt 0.757596 0.358803
vt 0.769431 0.338384
vt 0.316366 0.396226
vt 0.399845 0.405138
vt 0.200176 0.405113
vt 0.286171 0.391222
vt 0.264677 0.380366
vt 0.242410 0.358793
vt 0.200154 0.303962
vt 0.230576 0.338375
vt 0.222354 0.303962
vt 0.716372 0.414347
vt 0.799848 0.405436
vt 0.799848 0.413828
vt 0.686170 0.419352
vt 0.600172 0.405461
vt 0.664677 0.430206
vt 0.642410 0.451778
vt 0.630574 0.472198
vt 0.622352 0.506614
vt 0.399845 0.202786
vt 0.316366 0.211698
vt 0.200176 0.202811
vt 0.286171 0.216702
vt 0.264679 0.227556
vt 0.242410 0.249131
vt 0.230576 0.269548
vt 0.716376 0.598881
vt 0.799848 0.607792
vt 0.600172 0.607767
vt 0.686170 0.593876
vt 0.664679 0.583023
vt 0.642411 0.561452
vt 0.630574 0.541030
vt 0.299087 0.596003
vt 0.399845 0.607779
vt 0.200176 0.607754
vt 0.264674 0.583006
vt 0.242413 0.561438
vt 0.200154 0.506603
vt 0.230576 0.541016
vt 0.222354 0.506603
vt 0.483631 0.598872
vt 0.400156 0.607783
vt 0.400156 0.599392
vt 0.513834 0.593867
vt 0.599831 0.607758
vt 0.535332 0.583010
vt 0.557596 0.561438
vt 0.569430 0.541021
vt 0.577651 0.506605
vt 0.399845 0.405427
vt 0.299087 0.417203
vt 0.200176 0.405452
vt 0.264674 0.430200
vt 0.242413 0.451768
vt 0.230576 0.472189
vt 0.483631 0.414338
vt 0.400156 0.405427
vt 0.599831 0.405452
vt 0.513834 0.419343
vt 0.535332 0.430201
vt 0.557596 0.451772
vt 0.569430 0.472189
vt 0.099085 0.596003
vt 0.199843 0.607779
vt 0.000175 0.607754
vt 0.064677 0.583008
vt 0.042414 0.561441
vt 0.000153 0.506603
vt 0.030575 0.541016
vt 0.022353 0.506603
vt 0.516380 0.616983
vt 0.599846 0.608072
vt 0.599846 0.616464
vt 0.486168 0.621989
vt 0.400171 0.608098
vt 0.464674 0.632843
vt 0.442408 0.654416
vt 0.430572 0.674835
vt 0.422350 0.709251
vt 0.199843 0.405427
vt 0.099085 0.417203
vt 0.000175 0.405452
vt 0.064677 0.430198
vt 0.042414 0.451764
vt 0.030575 0.472190
vt 0.516380 0.801519
vt 0.599846 0.810429
vt 0.400170 0.810404
vt 0.486168 0.796513
vt 0.464674 0.785658
vt 0.442408 0.764086
vt 0.430572 0.743666
vt 0.483639 0.211698
vt 0.400161 0.202786
vt 0.599830 0.202811
vt 0.513835 0.216702
vt 0.535328 0.227556
vt 0.557591 0.249123
vt 0.599851 0.303962
vt 0.569430 0.269548
vt 0.577651 0.303962
vt 0.683623 0.193591
vt 0.600157 0.202501
vt 0.600157 0.194109
vt 0.713835 0.188585
vt 0.799833 0.202476
vt 0.735329 0.177730
vt 0.757596 0.156158
vt 0.769431 0.135738
vt 0.777653 0.101323
vt 0.400161 0.405138
vt 0.483639 0.396226
vt 0.599830 0.405112
vt 0.513835 0.391222
vt 0.535328 0.380367
vt 0.557591 0.358800
vt 0.569430 0.338375
vt 0.683623 0.009055
vt 0.600157 0.000144
vt 0.799833 0.000170
vt 0.713835 0.014061
vt 0.735329 0.024916
vt 0.757596 0.046488
vt 0.769431 0.066907
vt 0.935702 0.156786
vt 0.999829 0.194074
vt 0.901417 0.167108
vt 0.963084 0.132700
vt 0.977650 0.097121
vt 0.809952 0.666644
vt 0.800153 0.762089
vt 0.800181 0.573402
vt 0.820870 0.634066
vt 0.846316 0.608189
vt 0.884051 0.594365
vt 0.999829 0.000168
vt 0.935702 0.037456
vt 0.901418 0.027134
vt 0.963084 0.061541
vt 0.958150 0.666644
vt 0.967949 0.762089
vt 0.960990 0.762089
vt 0.947232 0.634066
vt 0.967920 0.573402
vt 0.921786 0.608189
vt 0.800153 0.384406
vt 0.817519 0.479962
vt 0.800175 0.573085
vt 0.826973 0.512374
vt 0.848993 0.538148
vt 0.881669 0.551869
vt 0.904079 0.572782
vt 0.137024 0.906177
vt 0.145468 0.810714
vt 0.145443 0.999398
vt 0.127571 0.938778
vt 0.105530 0.964728
vt 0.072852 0.978650
vt 0.945813 0.479623
vt 0.968601 0.383888
vt 0.968587 0.572555
vt 0.936355 0.512056
vt 0.914351 0.537942
vt 0.008681 0.906573
vt 0.000153 0.811160
vt 0.006221 0.811134
vt 0.018135 0.939116
vt 0.000177 0.999844
vt 0.040172 0.964927
vt 0.817519 0.287519
vt 0.800153 0.383082
vt 0.800175 0.194403
vt 0.826974 0.255113
vt 0.848994 0.229339
vt 0.906456 0.194713
vt 0.881669 0.215619
vt 0.937025 0.856058
vt 0.945468 0.951520
vt 0.939484 0.951509
vt 0.927571 0.823456
vt 0.945444 0.762835
vt 0.905531 0.797505
vt 0.872853 0.783583
vt 0.968601 0.383599
vt 0.945813 0.287862
vt 0.968587 0.194932
vt 0.936354 0.255430
vt 0.914350 0.229545
vt 0.808681 0.855661
vt 0.800153 0.951074
vt 0.800178 0.762390
vt 0.818136 0.823118
vt 0.840172 0.797307
vt 0.200154 0.194105
vt 0.399845 0.802033
vt 0.200154 0.008536
vt 0.199849 0.211177
vt 0.199843 0.802033
vt 0.199849 0.396746
vt 0.599851 0.008536
vt 0.799848 0.802046
vt 0.599851 0.194105
vt 0.199849 0.008536
vt 0.600157 0.211182
vt 0.199849 0.194105
vt 0.399850 0.396746
vt 0.399850 0.211177
vt 0.799848 0.599400
vt 0.399850 0.599387
vt 0.399850 0.413819
vt 0.400156 0.413819
vt 0.199849 0.599387
vt 0.199849 0.413819
vt 0.599846 0.802037
vt 0.400156 0.211177
vt 0.400156 0.396746
vt 0.600157 0.008537
vt 0.800154 0.194097
vt 0.800153 0.169822
vt 0.807112 0.762089
vt 0.800154 0.000144
vt 0.800153 0.024420
vt 0.815039 0.384352
vt 0.139483 0.810724
vt 0.948299 0.383943
vt 0.815039 0.383135
vt 0.948299 0.383544
vt 0.806222 0.951100
s 1
usemtl mur-bas
f 2/1/2 88/2/37 93/3/42
f 89/4/38 93/3/42 88/2/37
f 90/5/39 93/3/42 89/4/38
f 91/6/40 93/3/42 90/5/39
f 92/7/41 107/8/53 91/6/40
f 105/9/51 107/8/53 92/7/41
f 94/10/3 4/11/3 99/12/44
f 99/12/44 95/13/43 94/10/3
f 99/12/44 96/14/44 95/13/43
f 99/12/44 97/15/44 96/14/44
f 99/12/44 98/16/45 97/15/44
f 99/12/44 113/17/56 98/16/45
f 100/18/46 6/19/5 106/20/52
f 106/20/52 101/21/47 100/18/46
f 106/20/52 102/22/48 101/21/47
f 106/20/52 103/23/49 102/22/48
f 107/8/53 104/24/50 103/23/49
f 107/8/53 105/9/51 104/24/50
f 108/25/6 8/26/6 7/27/6
f 109/28/54 114/29/55 108/25/6
f 110/30/55 114/29/55 109/28/54
f 111/31/55 114/29/55 110/30/55
f 112/32/45 114/29/55 111/31/55
f 113/17/56 114/29/55 112/32/45
f 10/33/8 115/34/57 119/35/60
f 116/36/58 119/35/60 115/34/57
f 117/37/40 119/35/60 116/36/58
f 118/38/59 132/39/53 117/37/40
f 130/40/51 132/39/53 118/38/59
f 120/41/3 12/42/3 125/43/44
f 125/43/44 121/44/43 120/41/3
f 125/43/44 122/45/44 121/44/43
f 125/43/44 123/46/44 122/45/44
f 125/43/44 124/47/45 123/46/44
f 125/43/44 138/48/56 124/47/45
f 126/49/61 14/50/10 131/51/64
f 131/51/64 127/52/62 126/49/61
f 131/51/64 128/53/49 127/52/62
f 132/39/53 129/54/63 128/53/49
f 132/39/53 130/40/51 129/54/63
f 133/55/6 16/56/6 15/57/6
f 134/58/54 139/59/55 133/55/6
f 135/60/55 139/59/55 134/58/54
f 136/61/55 139/59/55 135/60/55
f 137/62/45 139/59/55 136/61/55
f 138/48/56 139/59/55 137/62/45
f 18/63/8 140/64/57 144/65/60
f 141/66/58 144/65/60 140/64/57
f 142/67/40 144/65/60 141/66/58
f 143/68/65 157/69/53 142/67/40
f 155/70/51 157/69/53 143/68/65
f 145/71/3 20/72/3 150/73/44
f 150/73/44 146/74/43 145/71/3
f 150/73/44 147/75/44 146/74/43
f 150/73/44 148/76/44 147/75/44
f 150/73/44 149/77/45 148/76/44
f 150/73/44 163/78/56 149/77/45
f 151/79/61 22/80/10 156/81/64
f 156/81/64 152/82/62 151/79/61
f 156/81/64 153/83/49 152/82/62
f 157/69/53 154/84/66 153/83/49
f 157/69/53 155/70/51 154/84/66
f 158/85/6 24/86/6 23/87/6
f 159/88/54 164/89/55 158/85/6
f 160/90/55 164/89/55 159/88/54
f 161/91/55 164/89/55 160/90/55
f 162/92/45 164/89/55 161/91/55
f 163/78/56 164/89/55 162/92/45
f 26/93/2 165/94/37 170/95/42
f 166/96/38 170/95/42 165/94/37
f 167/97/39 170/95/42 166/96/38
f 168/98/40 170/95/42 167/97/39
f 169/99/65 184/100/53 168/98/40
f 182/101/51 184/100/53 169/99/65
f 171/102/3 28/103/3 176/104/44
f 176/104/44 172/105/67 171/102/3
f 176/104/44 173/106/44 172/105/67
f 176/104/44 174/107/44 173/106/44
f 176/104/44 175/108/45 174/107/44
f 176/104/44 190/109/56 175/108/45
f 177/110/46 30/111/5 183/112/52
f 183/112/52 178/113/47 177/110/46
f 183/112/52 179/114/48 178/113/47
f 183/112/52 180/115/49 179/114/48
f 184/100/53 181/116/66 180/115/49
f 184/100/53 182/101/51 181/116/66
f 185/117/6 32/118/6 31/119/6
f 186/120/54 191/121/55 185/117/6
f 187/122/55 191/121/55 186/120/54
f 188/123/55 191/121/55 187/122/55
f 189/124/45 191/121/55 188/123/55
f 190/109/56 191/121/55 189/124/45
f 192/125/68 34/126/12 197/127/73
f 197/127/73 193/128/69 192/125/68
f 197/127/73 194/129/70 193/128/69
f 197/127/73 195/130/71 194/129/70
f 198/131/74 196/132/72 195/130/71
f 198/131/74 209/133/83 196/132/72
f 199/134/13 36/135/13 35/136/13
f 200/137/75 218/138/76 199/134/13
f 201/139/76 218/138/76 200/137/75
f 202/140/76 218/138/76 201/139/76
f 203/141/77 218/138/76 202/140/76
f 216/142/87 218/138/76 203/141/77
f 38/143/15 204/144/78 210/145/84
f 205/146/79 210/145/84 204/144/78
f 206/147/80 210/145/84 205/146/79
f 207/148/81 210/145/84 206/147/80
f 208/149/82 198/131/74 207/148/81
f 209/133/83 198/131/74 208/149/82
f 211/150/16 40/151/16 217/152/86
f 217/152/86 212/153/85 211/150/16
f 217/152/86 213/154/86 212/153/85
f 217/152/86 214/155/86 213/154/86
f 217/152/86 215/156/77 214/155/86
f 217/152/86 216/142/87 215/156/77
f 219/157/88 42/158/18 223/159/91
f 223/159/91 220/160/89 219/157/88
f 223/159/91 221/161/71 220/160/89
f 224/162/74 222/163/90 221/161/71
f 224/162/74 235/164/83 222/163/90
f 225/165/13 44/166/13 43/167/13
f 226/168/92 230/169/76 225/165/13
f 227/170/76 230/169/76 226/168/92
f 228/171/76 230/169/76 227/170/76
f 229/172/77 230/169/76 228/171/76
f 242/173/87 230/169/76 229/172/77
f 46/174/20 231/175/93 236/176/96
f 232/177/94 236/176/96 231/175/93
f 233/178/81 236/176/96 232/177/94
f 234/179/95 224/162/74 233/178/81
f 235/164/83 224/162/74 234/179/95
f 237/180/16 48/181/16 243/182/86
f 243/182/86 238/183/85 237/180/16
f 243/182/86 239/184/86 238/183/85
f 243/182/86 240/185/86 239/184/86
f 243/182/86 241/186/77 240/185/86
f 243/182/86 242/173/87 241/186/77
f 244/187/88 50/188/18 248/189/91
f 248/189/91 245/190/89 244/187/88
f 248/189/91 246/191/71 245/190/89
f 249/192/74 247/193/97 246/191/71
f 249/192/74 260/194/83 247/193/97
f 250/195/13 52/196/13 51/197/13
f 251/198/92 255/199/76 250/195/13
f 252/200/76 255/199/76 251/198/92
f 253/201/76 255/199/76 252/200/76
f 254/202/77 255/199/76 253/201/76
f 267/203/87 255/199/76 254/202/77
f 54/204/20 256/205/93 261/206/96
f 257/207/94 261/206/96 256/205/93
f 258/208/81 261/206/96 257/207/94
f 259/209/98 249/192/74 258/208/81
f 260/194/83 249/192/74 259/209/98
f 262/210/16 56/211/16 268/212/86
f 268/212/86 263/213/99 262/210/16
f 268/212/86 264/214/86 263/213/99
f 268/212/86 265/215/86 264/214/86
f 268/212/86 266/216/77 265/215/86
f 268/212/86 267/203/87 266/216/77
f 269/217/68 58/218/12 274/219/73
f 274/219/73 270/220/69 269/217/68
f 274/219/73 271/221/70 270/220/69
f 274/219/73 272/222/71 271/221/70
f 275/223/74 273/224/97 272/222/71
f 275/223/74 287/225/83 273/224/97
f 276/226/13 60/227/13 59/228/13
f 277/229/92 281/230/76 276/226/13
f 278/231/76 281/230/76 277/229/92
f 279/232/76 281/230/76 278/231/76
f 280/233/77 281/230/76 279/232/76
f 294/234/87 281/230/76 280/233/77
f 62/235/15 282/236/78 288/237/84
f 283/238/79 288/237/84 282/236/78
f 284/239/80 288/237/84 283/238/79
f 285/240/81 288/237/84 284/239/80
f 286/241/98 275/223/74 285/240/81
f 287/225/83 275/223/74 286/241/98
f 289/242/16 64/243/16 295/244/86
f 295/244/86 290/245/85 289/242/16
f 295/244/86 291/246/86 290/245/85
f 295/244/86 292/247/86 291/246/86
f 295/244/86 293/248/77 292/247/86
f 295/244/86 294/234/87 293/248/77
f 297/249/21 300/250/21 296/251/21
f 298/252/21 300/250/21 297/249/21
f 308/253/21 300/250/21 298/252/21
f 301/254/22 67/255/22 304/256/22
f 304/256/22 302/257/22 301/254/22
f 304/256/22 303/258/22 302/257/22
f 304/256/22 313/259/22 303/258/22
f 309/260/21 306/261/21 305/262/21
f 309/260/21 307/263/21 306/261/21
f 309/260/21 308/253/21 307/263/21
f 310/264/22 71/265/22 70/266/22
f 311/267/22 314/268/22 310/264/22
f 312/269/22 314/268/22 311/267/22
f 313/259/22 314/268/22 312/269/22
f 73/270/23 315/271/100 318/272/103
f 316/273/101 318/272/103 315/271/100
f 317/274/102 318/272/103 316/273/101
f 326/275/111 328/276/112 317/274/102
f 319/277/104 75/278/25 322/279/107
f 322/279/107 320/280/105 319/277/104
f 322/279/107 321/281/106 320/280/105
f 322/279/107 332/282/116 321/281/106
f 323/283/108 77/284/27 327/285/109
f 327/285/109 324/286/109 323/283/108
f 327/285/109 325/287/110 324/286/109
f 328/276/112 326/275/111 325/287/110
f 329/288/113 79/289/29 78/290/28
f 330/291/114 333/292/117 329/288/113
f 331/293/115 333/292/117 330/291/114
f 332/282/116 333/292/117 331/293/115
f 334/294/118 81/295/30 337/296/121
f 337/296/121 335/297/119 334/294/118
f 337/296/121 336/298/120 335/297/119
f 338/299/122 345/300/129 336/298/120
f 339/301/123 83/302/32 82/303/31
f 340/304/124 352/305/135 339/301/123
f 341/306/125 352/305/135 340/304/124
f 350/307/133 352/305/135 341/306/125
f 85/308/34 342/309/126 346/310/127
f 343/311/127 346/310/127 342/309/126
f 344/312/128 346/310/127 343/311/127
f 345/300/129 338/299/122 344/312/128
f 347/313/130 87/314/36 351/315/134
f 351/315/134 348/316/131 347/313/130
f 351/315/134 349/317/132 348/316/131
f 351/315/134 350/307/133 349/317/132
f 2/1/2 1/318/1 88/2/37
f 91/6/40 107/8/53 93/3/42
f 94/10/3 3/319/3 4/11/3
f 99/12/44 114/29/55 113/17/56
f 100/18/46 5/320/4 6/19/5
f 106/20/52 107/8/53 103/23/49
f 108/25/6 114/29/55 8/26/6
f 10/33/8 9/321/7 115/34/57
f 117/37/40 132/39/53 119/35/60
f 120/41/3 11/322/3 12/42/3
f 126/49/61 13/323/9 14/50/10
f 131/51/64 132/39/53 128/53/49
f 133/55/6 139/59/55 16/56/6
f 138/48/56 125/43/44 139/59/55
f 18/63/8 17/324/7 140/64/57
f 142/67/40 157/69/53 144/65/60
f 145/71/3 19/325/3 20/72/3
f 151/79/61 21/326/9 22/80/10
f 156/81/64 157/69/53 153/83/49
f 158/85/6 164/89/55 24/86/6
f 163/78/56 150/73/44 164/89/55
f 26/93/2 25/327/1 165/94/37
f 168/98/40 184/100/53 170/95/42
f 171/102/3 27/328/3 28/103/3
f 177/110/46 29/329/4 30/111/5
f 183/112/52 184/100/53 180/115/49
f 185/117/6 191/121/55 32/118/6
f 190/109/56 176/104/44 191/121/55
f 192/125/68 33/330/11 34/126/12
f 197/127/73 198/131/74 195/130/71
f 199/134/13 218/138/76 36/135/13
f 38/143/15 37/331/14 204/144/78
f 207/148/81 198/131/74 210/145/84
f 211/150/16 39/332/16 40/151/16
f 217/152/86 218/138/76 216/142/87
f 219/157/88 41/333/17 42/158/18
f 223/159/91 224/162/74 221/161/71
f 225/165/13 230/169/76 44/166/13
f 242/173/87 243/182/86 230/169/76
f 46/174/20 45/334/19 231/175/93
f 233/178/81 224/162/74 236/176/96
f 237/180/16 47/335/16 48/181/16
f 244/187/88 49/336/17 50/188/18
f 248/189/91 249/192/74 246/191/71
f 250/195/13 255/199/76 52/196/13
f 267/203/87 268/212/86 255/199/76
f 54/204/20 53/337/19 256/205/93
f 258/208/81 249/192/74 261/206/96
f 262/210/16 55/338/16 56/211/16
f 269/217/68 57/339/11 58/218/12
f 274/219/73 275/223/74 272/222/71
f 276/226/13 281/230/76 60/227/13
f 294/234/87 295/244/86 281/230/76
f 62/235/15 61/340/14 282/236/78
f 285/240/81 275/223/74 288/237/84
f 289/242/16 63/341/16 64/243/16
f 296/251/21 300/250/21 299/342/21
f 299/342/21 65/343/21 296/251/21
f 308/253/21 309/260/21 300/250/21
f 301/254/22 66/344/22 67/255/22
f 304/256/22 314/268/22 313/259/22
f 69/345/21 309/260/21 305/262/21
f 305/262/21 68/346/21 69/345/21
f 310/264/22 314/268/22 71/265/22
f 73/270/23 72/347/23 315/271/100
f 317/274/102 328/276/112 318/272/103
f 319/277/104 74/348/24 75/278/25
f 323/283/108 76/349/26 77/284/27
f 327/285/109 328/276/112 325/287/110
f 329/288/113 333/292/117 79/289/29
f 332/282/116 322/279/107 333/292/117
f 334/294/118 80/350/30 81/295/30
f 337/296/121 338/299/122 336/298/120
f 339/301/123 352/305/135 83/302/32
f 85/308/34 84/351/33 342/309/126
f 344/312/128 338/299/122 346/310/127
f 347/313/130 86/352/35 87/314/36
f 351/315/134 352/305/135 350/307/133
