# Blender 5.1.1
# www.blender.org
mtllib Flooring.mtl
o Circle.051_0.002
v -14.986642 2.667373 11.290267
v 24.558411 2.667373 11.290267
v 24.558411 2.624277 11.290267
v -14.986642 2.624277 11.290267
v -14.987521 2.667373 11.289388
v -14.987521 2.624277 11.289388
v 24.559292 2.667373 11.289388
v 24.559292 2.624277 11.289388
v 24.558411 2.668252 11.289388
v 24.559292 2.667373 11.289388
v 24.558411 2.667373 11.290267
v -14.986642 2.667373 11.290267
v -14.987521 2.667373 11.289388
v -14.986642 2.668252 11.289388
v 24.559292 2.667373 11.289388
v 24.558411 2.668252 11.289388
v -14.987521 2.667373 11.289388
v -14.986642 2.668252 11.289388
v -14.986642 2.668252 11.289388
v 24.558411 2.668252 11.289388
v 24.558411 2.667373 11.290267
v -14.986642 2.667373 11.290267
v 24.559292 2.667373 11.289388
v 24.559292 2.624277 11.289388
v 24.558411 2.624277 11.290267
v 24.558411 2.667373 11.290267
v -14.986642 2.667373 11.290267
v -14.986642 2.624277 11.290267
v -14.987521 2.624277 11.289388
v -14.987521 2.667373 11.289388
v 24.558411 2.668252 11.289388
v -14.986642 2.668252 11.289388
v -14.987521 2.657504 -6.052145
v -14.987521 2.667367 -6.052327
v -14.987521 2.624271 -6.051536
v 24.559292 2.627333 -9.600228
v 24.559292 2.667366 -9.600965
v 24.559292 2.624270 -9.600174
v 24.559229 2.667428 -9.600961
v 24.559292 2.667366 -9.600965
v 24.558411 2.668245 -9.600902
v -14.986843 2.668045 -6.052398
v -14.987521 2.667367 -6.052325
v -14.986642 2.668246 -6.052422
v -7.170210 2.668246 -6.753808
v -14.986642 2.668246 -6.052421
v 24.558411 2.668245 -9.600902
vn 0.5780 0.5751 0.5789
vn -0.5779 0.5763 0.5779
vn -0.0000 -0.0000 1.0000
vn -1.0000 -0.0000 -0.0000
vn 0.7058 0.7084 -0.0000
vn 0.7049 0.7093 0.0006
vn 0.7024 0.7118 -0.0000
vn 0.7059 0.7084 -0.0000
vn 0.7064 0.7078 -0.0008
vn -0.0000 0.7073 0.7069
vn -0.0000 0.7067 0.7075
vn 0.7047 -0.0000 0.7095
vn 0.7070 -0.0000 0.7073
vn -0.7070 -0.0000 0.7072
vn -0.7070 -0.0000 0.7073
vn -0.0000 1.0000 -0.0000
vn -0.7071 0.7071 -0.0000
vn -0.7070 0.7072 -0.0000
vn 1.0000 -0.0000 -0.0000
vn -0.7068 0.7074 -0.0000
vt 0.000100 0.999900
vt 0.000080 0.999900
vt 0.000100 0.999920
vt 0.999900 0.999920
vt 0.999920 0.999920
vt 0.999920 0.999900
vt 0.999920 0.561461
vt 0.999920 0.561456
vt 0.999920 0.561476
vt 0.000080 0.471738
vt 0.000080 0.471737
vt 0.000080 0.471739
vt 0.999900 0.999900
vt 0.000080 0.999920
vt 0.802281 0.543721
vt 0.000100 0.471739
vt 0.999920 0.561456
vt 0.999920 0.561454
vt 0.000080 0.471737
vt 0.000080 0.471756
vt 0.000080 0.471757
vt 0.999900 0.561454
vt 0.999920 0.561454
s 1
usemtl material_24.001
f 9/1/1 11/3/1 10/2/1
f 12/4/2 14/4/2 13/5/2
s 0
f 1/4/3 3/3/3 2/3/3
f 1/4/3 4/4/3 3/3/3
f 5/6/4 34/8/4 33/7/4
f 33/7/4 35/9/4 6/6/4
s 1
f 15/2/5 40/11/7 39/10/6
f 39/10/6 41/12/9 16/2/8
s 0
f 19/13/10 21/3/10 20/1/10
f 19/13/11 22/4/11 21/3/11
f 23/2/12 25/14/12 24/2/12
f 23/2/13 26/14/13 25/14/13
s 1
f 27/4/14 29/5/14 28/4/14
s 0
f 27/4/15 30/5/15 29/5/15
f 32/13/16 31/1/16 45/15/16
f 31/1/16 47/16/16 45/15/16
f 17/6/17 42/18/17 43/17/17
f 42/18/18 17/6/18 18/6/18
f 7/2/19 36/20/19 37/19/19
f 7/2/19 8/2/19 38/21/19
f 5/6/4 33/7/4 6/6/4
s 1
f 15/2/5 39/10/6 16/2/8
s 0
f 32/13/16 45/15/16 46/22/16
f 42/18/20 18/6/20 44/23/20
f 7/2/19 38/21/19 36/20/19
