# Blender 5.1.1
# www.blender.org
mtllib Floor.mtl
o Circle.051
v -44.964890 2.781164 -25.569155
v -44.962891 2.832167 -25.569155
v -44.962891 2.781164 -25.571157
v -44.964890 2.781176 25.569166
v -44.962891 2.781176 25.571165
v -44.962891 2.832186 25.569166
v 44.964890 2.781176 25.569166
v 44.962891 2.832186 25.569166
v 44.962891 2.781176 25.571165
v 44.964890 2.781164 -25.569155
v 44.962891 2.830168 -25.571157
v 44.962891 2.832167 -25.569155
v 44.962891 2.732160 -25.571157
v -44.962891 2.830168 -25.571157
v -44.962891 2.831168 -25.570156
v -44.963890 2.830168 -25.570158
v -44.963692 2.830968 -25.569555
v -44.964016 2.831292 -25.569155
v -44.962891 2.832186 25.569166
v -44.964016 2.831303 25.569166
v -44.962891 2.831179 25.570166
v -44.963692 2.830573 25.569967
v -44.963890 2.830172 25.570168
v 44.963692 2.830573 25.569967
v 44.962891 2.831179 25.570166
v 44.963890 2.830172 25.570168
v 44.963768 2.831056 25.569166
v 44.962891 2.832186 25.569166
v 44.963692 2.830968 -25.569555
v 44.963768 2.831045 -25.569155
v 44.962891 2.831168 -25.570156
v 44.963890 2.830168 -25.570158
v 44.962891 2.830168 -25.571157
v -44.963890 2.732160 -25.570158
v -44.963890 2.732180 25.570168
v 44.963890 2.732180 25.570168
v 44.963890 2.732160 -25.570158
vn -0.0000 1.0000 -0.0000
vn -0.0000 -0.0000 -1.0000
vt 0.999902 0.000098
vt 0.000098 0.568659
vt 0.000092 0.000098
vt 0.999902 0.568665
vt 0.999902 0.568681
vt 0.000098 0.568681
s 1
usemtl sol.006
f 8/1/1 2/2/1 6/3/1
f 8/1/1 12/4/1 2/2/1
f 11/5/2 13/5/2 3/6/2
l 14 17
l 19 22
l 24 28
l 29 33
l 27 30
l 21 25
l 15 31
l 16 34
l 23 35
l 26 36
l 32 37
l 1 4
l 5 9
l 7 10
l 18 20
