# Blender 5.1.1
# www.blender.org
mtllib PillarBottom.mtl
o Cylinder.002
v 27.930489 7.279594 7.570541
v 30.747395 7.279594 7.570541
v 27.930489 7.279594 4.753640
v 30.747395 7.279594 4.753640
v 27.738403 7.043877 7.825128
v 31.064480 7.043877 7.825128
v 27.738403 7.043877 4.499053
v 31.064480 7.043877 4.499053
v 27.736137 6.977192 7.827394
v 31.066746 6.977192 7.827394
v 27.736137 6.977192 4.496787
v 31.066746 6.977192 4.496787
v 31.279049 6.806099 8.039700
v 27.523830 6.806099 4.284482
v 31.279049 6.806099 4.284482
v 27.523830 3.663803 4.284482
v 27.523830 6.549110 7.732588
v 27.523830 3.920784 7.732588
v 27.523830 6.549110 4.591593
v 27.523830 3.920784 4.591593
v 27.543095 6.488091 7.659666
v 27.543095 3.981804 7.659666
v 27.543095 6.488091 4.664515
v 27.543095 3.981804 4.664515
v 27.533463 6.317581 7.455894
v 27.523830 6.317581 7.455894
v 27.533463 4.152321 7.455894
v 27.523830 6.317581 4.868288
v 27.533463 4.152321 4.868288
v 27.533463 6.263176 4.933300
v 27.533463 6.263176 7.390882
v 27.533463 4.206718 7.390882
v 27.533463 4.206718 4.933300
v 27.830944 6.549110 4.284482
v 27.830944 3.920784 4.284482
v 30.971939 6.549110 4.284481
v 30.971939 3.920784 4.284481
v 27.903866 6.488091 4.303746
v 27.903866 3.981804 4.303746
v 30.899017 6.488091 4.303745
v 30.899017 3.981804 4.303745
v 28.107639 6.317581 4.294114
v 28.107639 6.317581 4.284482
v 28.107639 4.152321 4.294114
v 30.695244 6.317581 4.284481
v 30.695244 4.152321 4.294113
v 30.630234 6.263176 4.294113
v 28.172649 6.263176 4.294114
v 28.172649 4.206718 4.294114
v 30.630234 4.206718 4.294113
v 31.279053 3.663803 8.039700
v 31.279049 3.663803 4.284482
v 31.279049 6.549110 4.591593
v 31.279049 3.920784 4.591593
v 31.279053 6.549110 7.732588
v 31.279053 3.920784 7.732588
v 31.259785 6.488091 4.664515
v 31.259785 3.981804 4.664515
v 31.259785 6.488091 7.659666
v 31.259785 3.981804 7.659666
v 31.269417 6.317581 4.868288
v 31.279049 6.317581 4.868288
v 31.269417 4.152321 4.868288
v 31.279049 6.317581 7.455894
v 31.269417 4.152321 7.455894
v 31.269417 6.263176 7.390882
v 31.269417 6.263176 4.933300
v 31.269417 4.206718 4.933299
v 31.269417 4.206718 7.390882
v 27.523830 6.806099 8.039700
v 27.523830 3.663803 8.039700
v 30.971939 6.549110 8.039700
v 30.971939 3.920784 8.039700
v 27.830944 6.549110 8.039700
v 27.830944 3.920784 8.039700
v 30.899017 6.488091 8.020434
v 30.899017 3.981804 8.020434
v 27.903866 6.488091 8.020435
v 27.903866 3.981804 8.020435
v 30.695244 6.317581 8.030066
v 30.695244 6.317581 8.039700
v 30.695244 4.152321 8.030066
v 28.107639 6.317581 8.039700
v 28.107639 4.152321 8.030067
v 28.172649 6.263176 8.030067
v 30.630234 6.263176 8.030066
v 30.630234 4.206718 8.030066
v 28.172649 4.206718 8.030067
v 27.930489 7.279594 -7.526925
v 30.747395 7.279594 -7.526925
v 27.930489 7.279594 -4.710023
v 30.747395 7.279594 -4.710023
v 27.738403 7.043877 -7.781512
v 31.064480 7.043877 -7.781512
v 27.738403 7.043877 -4.455437
v 31.064480 7.043877 -4.455437
v 27.736137 6.977192 -7.783778
v 31.066746 6.977192 -7.783778
v 27.736137 6.977192 -4.453171
v 31.066746 6.977192 -4.453171
v 31.279049 6.806099 -7.996083
v 27.523830 6.806099 -4.240865
v 31.279049 6.806099 -4.240865
v 27.523830 3.663803 -4.240865
v 27.523830 6.549110 -7.688972
v 27.523830 3.920784 -7.688972
v 27.523830 6.549110 -4.547976
v 27.523830 3.920784 -4.547976
v 27.543095 6.488091 -7.616050
v 27.543095 3.981804 -7.616050
v 27.543095 6.488091 -4.620899
v 27.543095 3.981804 -4.620899
v 27.533463 6.317581 -7.412277
v 27.523830 6.317581 -7.412277
v 27.533463 4.152321 -7.412277
v 27.523830 6.317581 -4.824671
v 27.533463 4.152321 -4.824671
v 27.533463 6.263176 -4.889683
v 27.533463 6.263176 -7.347266
v 27.533463 4.206718 -7.347266
v 27.533463 4.206718 -4.889683
v 27.830944 6.549110 -4.240865
v 27.830944 3.920784 -4.240865
v 30.971939 6.549110 -4.240865
v 30.971939 3.920784 -4.240865
v 27.903866 6.488091 -4.260129
v 27.903866 3.981804 -4.260129
v 30.899017 6.488091 -4.260129
v 30.899017 3.981804 -4.260129
v 28.107639 6.317581 -4.250497
v 28.107639 6.317581 -4.240865
v 28.107639 4.152321 -4.250497
v 30.695244 6.317581 -4.240865
v 30.695244 4.152321 -4.250497
v 30.630234 6.263176 -4.250497
v 28.172649 6.263176 -4.250497
v 28.172649 4.206718 -4.250497
v 30.630234 4.206718 -4.250497
v 31.279053 3.663803 -7.996083
v 31.279049 3.663803 -4.240865
v 31.279049 6.549110 -4.547976
v 31.279049 3.920784 -4.547976
v 31.279053 6.549110 -7.688972
v 31.279053 3.920784 -7.688972
v 31.259785 6.488091 -4.620899
v 31.259785 3.981804 -4.620899
v 31.259785 6.488091 -7.616050
v 31.259785 3.981804 -7.616050
v 31.269417 6.317581 -4.824672
v 31.279049 6.317581 -4.824672
v 31.269417 4.152321 -4.824672
v 31.279049 6.317581 -7.412277
v 31.269417 4.152321 -7.412277
v 31.269417 6.263176 -7.347266
v 31.269417 6.263176 -4.889683
v 31.269417 4.206718 -4.889683
v 31.269417 4.206718 -7.347266
v 27.523830 6.806099 -7.996083
v 27.523830 3.663803 -7.996083
v 30.971939 6.549110 -7.996083
v 30.971939 3.920784 -7.996083
v 27.830944 6.549110 -7.996083
v 27.830944 3.920784 -7.996083
v 30.899017 6.488091 -7.976818
v 30.899017 3.981804 -7.976818
v 27.903866 6.488091 -7.976819
v 27.903866 3.981804 -7.976819
v 30.695244 6.317581 -7.986451
v 30.695244 6.317581 -7.996083
v 30.695244 4.152321 -7.986451
v 28.107639 6.317581 -7.996083
v 28.107639 4.152321 -7.986451
v 28.172649 6.263176 -7.986451
v 30.630234 6.263176 -7.986451
v 30.630234 4.206718 -7.986451
v 28.172649 4.206718 -7.986451
v 16.887386 5.238716 11.256665
v 16.874308 5.238716 14.308720
v 20.543911 4.280151 11.256665
v 20.553280 4.264751 11.242688
v 20.569397 4.266991 11.266995
v 16.861897 4.266991 11.266995
v 16.878014 4.264751 11.242688
v 16.888878 4.279648 11.257164
v 16.728241 4.159054 11.095364
v 20.854904 3.506878 10.955808
v 16.576344 3.506893 10.955808
v 16.581537 3.506989 10.948167
v 16.587831 3.507477 10.940351
v 20.844219 3.365742 10.940430
v 20.852592 3.356819 10.924956
v 20.855297 3.365742 10.955905
v 16.564922 3.356819 10.949831
v 16.587076 3.365742 10.940430
v 16.479305 3.342293 10.820595
v 20.951992 3.350842 10.845012
v 20.951786 3.350273 14.745759
v 20.962265 3.342293 10.835429
v 16.474167 3.342293 10.828012
v 20.947680 3.349834 10.836107
v 16.479305 2.873116 10.820595
v 20.951992 2.873116 10.820595
v 20.957130 2.873116 10.828012
v 20.962265 2.873116 10.835429
v 16.469028 2.873116 10.835429
v 16.474167 2.873116 10.828012
v 16.887386 5.248718 14.308720
v 20.550457 5.238716 14.317027
v 20.543915 5.248718 14.308720
v 20.556992 5.238716 11.273272
v 16.887386 5.248718 11.273272
v 16.880848 5.238716 14.317021
v 20.543911 5.238716 14.325328
v 16.887383 4.280151 14.325328
v 20.573166 4.298016 14.339871
v 20.542416 4.279621 14.324807
v 20.556992 4.280151 14.308720
v 20.556927 4.279892 11.275452
v 16.874306 4.280151 11.273272
v 16.861897 4.266991 14.314996
v 16.878014 4.264751 14.339303
v 16.874239 4.280056 14.306533
v 20.709610 4.159336 14.478001
v 20.716208 4.159569 14.470847
v 20.692497 4.159767 14.486918
v 20.716320 4.159702 11.112499
v 16.714975 4.159702 14.469489
v 16.721693 4.159332 14.477995
v 16.715084 4.159595 14.470839
v 20.703053 4.159054 14.486627
v 16.739323 4.160427 14.486832
v 20.849758 3.506989 14.633822
v 20.855211 3.506966 14.626183
v 20.843468 3.507458 14.641614
v 20.855297 3.506989 10.955905
v 16.575998 3.506989 14.626085
v 16.581537 3.506989 14.633823
v 16.576389 3.506878 14.626184
v 16.587822 3.507431 14.641607
v 20.866375 3.356819 14.632161
v 20.844219 3.365742 14.641561
v 20.865612 3.355602 10.925412
v 16.576000 3.365742 10.955905
v 16.578705 3.356819 14.657035
v 16.576000 3.365742 14.626085
v 16.587076 3.365742 14.641561
v 20.957130 3.342293 14.753981
v 20.962265 3.342289 14.746561
v 16.479496 3.350163 10.837452
v 16.474167 3.342293 14.753980
v 16.479303 3.350842 14.736976
v 20.951992 3.342293 14.761397
v 16.483295 3.348743 14.745007
v 20.951992 2.873116 14.761397
v 20.962265 2.873116 14.746562
v 20.957129 2.873116 14.753980
v 16.469028 2.873116 14.746562
v 16.479305 2.873116 14.761397
v 16.474167 2.873116 14.753980
v 16.887386 5.238716 -11.225520
v 16.887386 5.248718 -11.242126
v 20.553280 4.264751 -11.211543
v 20.569397 4.266991 -11.235850
v 20.557076 4.280037 -11.244299
v 16.861897 4.266991 -11.235850
v 16.878014 4.264751 -11.211543
v 16.888855 4.279987 -11.225644
v 20.543911 4.280151 -11.225520
v 20.716284 4.159691 -11.079999
v 16.739161 4.160145 -11.064046
v 16.728241 4.159054 -11.064219
v 20.854797 3.506851 -10.924662
v 16.576363 3.506886 -10.924663
v 16.587816 3.507427 -10.909139
v 16.581537 3.506989 -10.917023
v 20.844219 3.365742 -10.909285
v 16.565680 3.355686 -10.894262
v 20.852592 3.356819 -10.893812
v 20.855297 3.365742 -10.924760
v 16.564922 3.356819 -10.918686
v 16.587076 3.365742 -10.909285
v 16.479305 3.342293 -10.789450
v 20.951992 3.350842 -10.813868
v 20.951891 3.350323 -14.709201
v 20.962265 3.342293 -10.804284
v 16.474167 3.342293 -10.796867
v 20.947632 3.350010 -10.804831
v 16.479305 2.873116 -10.789450
v 20.951992 2.873116 -10.789450
v 20.957130 2.873116 -10.796866
v 20.962265 2.873116 -10.804284
v 16.469028 2.873116 -10.804284
v 16.474167 2.873116 -10.796867
v 20.550447 5.238716 -14.285874
v 20.556992 5.238716 -11.242126
v 20.543915 5.248718 -14.277575
v 16.874308 5.238716 -14.277575
v 16.887386 5.248718 -14.277575
v 16.880848 5.238716 -14.285876
v 20.543911 5.238716 -14.294183
v 16.887383 4.280151 -14.294183
v 20.573166 4.298016 -14.308726
v 20.542408 4.279305 -14.293348
v 20.556992 4.280151 -14.277575
v 16.874306 4.280151 -11.242126
v 16.861897 4.266991 -14.283851
v 16.878014 4.264751 -14.308158
v 16.874205 4.280018 -14.275412
v 20.709612 4.159336 -14.446858
v 20.716120 4.159500 -14.439680
v 20.692318 4.160011 -14.455760
v 20.716320 4.159702 -11.081354
v 16.714975 4.159702 -14.438344
v 16.721693 4.159332 -14.446850
v 16.738880 4.159882 -14.455770
v 16.715151 4.159504 -14.439691
v 20.703053 4.159054 -14.455482
v 20.849758 3.506989 -14.602678
v 20.855022 3.506912 -14.595038
v 20.843468 3.507458 -14.610458
v 20.855297 3.506989 -10.924760
v 16.581537 3.506989 -14.602678
v 16.576374 3.506886 -14.595038
v 20.866375 3.356819 -14.601016
v 20.844219 3.365742 -14.610415
v 16.576000 3.365742 -10.924760
v 16.578705 3.356819 -14.625890
v 16.576000 3.365742 -14.594940
v 20.865616 3.355686 -14.625439
v 16.587076 3.365742 -14.610415
v 16.483664 3.350010 -14.714870
v 20.957130 3.342293 -14.722836
v 20.962265 3.342293 -14.715416
v 16.479404 3.350323 -10.810498
v 16.474167 3.342293 -14.722835
v 16.479305 3.350842 -14.705831
v 20.951992 3.342293 -14.730252
v 20.962265 2.873116 -14.715417
v 20.957129 2.873116 -14.722835
v 16.469028 2.873116 -14.715417
v 16.479305 2.873116 -14.730252
v 16.474167 2.873116 -14.722835
v 20.951992 2.873116 -14.730252
v 1.252307 5.238716 14.308720
v 1.265386 5.238716 11.256665
v 1.266885 4.279507 11.257309
v 4.931279 4.264751 11.242688
v 4.947396 4.266991 11.266995
v 4.935182 4.280159 11.275447
v 1.252304 4.280151 11.273272
v 1.239898 4.266991 11.266995
v 1.256015 4.264751 11.242688
v 4.921910 4.280151 11.256665
v 1.106242 4.159054 11.095364
v 5.094319 4.159702 11.112498
v 1.092975 4.159702 14.469489
v 0.965828 3.507450 10.940391
v 0.954000 3.506989 14.626085
v 0.959538 3.506989 10.948167
v 5.222219 3.365742 10.940430
v 0.951248 3.355873 10.925177
v 5.230593 3.356819 10.924956
v 5.233296 3.365742 10.955905
v 0.943686 3.355602 14.656579
v 0.942922 3.356819 10.949831
v 0.965076 3.365742 10.940430
v 0.857305 3.342293 10.820595
v 5.325798 3.349438 10.836428
v 5.329992 3.350842 10.845013
v 5.329785 3.350273 14.745759
v 0.847030 3.342293 14.746562
v 0.852166 3.342293 10.828012
v 5.329991 2.873116 10.820595
v 5.335129 2.873116 10.828012
v 0.847030 2.873116 14.746562
v 0.847030 2.873116 10.835429
v 0.852166 2.873116 10.828012
v 0.857305 2.873116 10.820595
v 1.265386 5.248718 14.308720
v 4.928447 5.238716 14.317019
v 4.934993 5.238716 11.273272
v 4.921915 5.248718 14.308720
v 1.258846 5.238716 14.317023
v 4.921912 5.238716 14.325328
v 1.265384 4.280151 14.325328
v 4.951166 4.298016 14.339871
v 4.920510 4.278976 14.324453
v 4.934991 4.280151 14.308720
v 1.239898 4.266991 14.314996
v 1.256015 4.264751 14.339303
v 1.252348 4.279839 14.306563
v 5.081052 4.159054 14.486627
v 5.087608 4.159336 14.478001
v 5.094183 4.159542 14.470843
v 5.070372 4.159931 14.486904
v 1.099690 4.159332 14.477997
v 1.116921 4.159950 14.486918
v 0.965827 3.507446 14.641614
v 5.227757 3.506989 14.633822
v 5.233073 3.506927 14.626184
v 5.221470 3.507442 14.641610
v 5.233296 3.506989 10.955905
v 0.959538 3.506989 14.633823
v 0.954323 3.506897 14.626184
v 5.244375 3.356819 14.632161
v 5.222219 3.365742 14.641560
v 5.243791 3.355259 10.932696
v 0.954000 3.365742 10.955905
v 0.956704 3.356819 14.657035
v 0.954000 3.365742 14.626085
v 0.965077 3.365742 14.641561
v 5.329991 3.342293 14.761397
v 5.335129 3.342293 14.753980
v 5.340265 3.342293 14.746561
v 5.340266 3.342293 10.835429
v 0.852167 3.342293 14.753980
v 0.857304 3.350842 14.736976
v 0.857502 3.350166 14.744905
v 5.329991 2.873116 14.761397
v 5.340266 2.873116 14.746562
v 5.335129 2.873116 14.753980
v 5.340266 2.873116 10.835429
v 0.857305 2.873116 14.761397
v 0.852166 2.873116 14.753981
v -10.687009 5.238716 11.273272
v -14.356614 5.248718 11.273272
v -14.369693 5.238716 14.308720
v -14.356614 5.248718 11.273272
v -10.700086 5.248718 11.273272
v -14.356616 5.238716 11.256665
v -14.355138 4.279167 11.257566
v -10.670835 4.298012 11.242122
v -14.382102 4.266991 11.266995
v -14.365985 4.264751 11.242688
v -14.515758 4.159054 11.095364
v -14.656177 3.507420 10.940414
v -14.662461 3.506989 10.948167
v -10.391826 3.357265 10.925730
v -10.388703 3.365742 10.955905
v -14.678313 3.355602 14.656579
v -14.679076 3.356819 10.949831
v -14.656924 3.365742 10.940430
v -10.399781 3.365742 10.940430
v -10.296155 3.349213 10.836566
v -14.764695 3.342293 10.820595
v -10.292008 3.350842 10.845012
v -10.292214 3.350258 14.745685
v -10.281734 3.342293 10.835429
v -14.769834 3.342293 10.828012
v -14.764695 2.873116 10.820595
v -10.292008 2.873116 10.820595
v -10.286872 2.873116 10.828012
v -14.774972 2.873116 10.835429
v -14.769834 2.873116 10.828012
v -14.356614 5.248718 14.308720
v -10.693538 5.238716 14.317031
v -10.700086 5.248718 14.308720
v -14.363154 5.238716 14.317023
v -10.700088 5.238716 14.325328
v -10.670835 4.298016 14.339870
v -10.701566 4.279224 14.324483
v -10.687011 4.280151 14.308720
v -10.687081 4.279907 11.275458
v -14.369693 4.280151 11.273272
v -14.382102 4.266991 14.314996
v -14.365985 4.264751 14.339303
v -14.369737 4.280090 14.306514
v -14.356616 4.280151 14.325328
v -10.534392 4.159336 14.478001
v -10.555701 4.166122 14.487056
v -10.527808 4.159584 14.470830
v -10.527682 4.159702 11.112499
v -14.529025 4.159702 14.469489
v -14.522315 4.159336 14.478001
v -14.505250 4.159695 14.486919
v -14.528884 4.159584 14.470824
v -10.540950 4.159054 14.486627
v -10.394242 3.506989 14.633822
v -10.389028 3.506897 14.626184
v -10.400514 3.507347 14.641537
v -10.388703 3.506989 10.955905
v -14.668000 3.506989 14.626085
v -14.667661 3.506893 10.955808
v -14.662461 3.506989 14.633823
v -14.667560 3.506866 14.626184
v -14.656922 3.365742 14.641561
v -10.377624 3.356819 14.632161
v -10.399781 3.365742 14.641561
v -10.388703 3.365742 14.626085
v -14.668000 3.365742 10.955905
v -14.665296 3.356819 14.657035
v -14.668000 3.365742 14.626086
v -10.286872 3.342293 14.753980
v -10.281735 3.342293 14.746561
v -14.774972 3.342293 14.746562
v -14.764491 3.350239 10.836396
v -14.769832 3.342293 14.753980
v -14.764697 3.350842 14.736977
v -10.292008 3.342293 14.761397
v -14.760613 3.349007 14.745248
v -10.281734 2.873116 14.746562
v -10.286872 2.873116 14.753980
v -10.281734 2.873116 10.835429
v -14.774972 2.873116 14.746562
v -14.764695 2.873116 14.761397
v -14.769834 2.873116 14.753980
v 27.930489 7.279594 4.753640
v 27.930489 7.279594 4.753640
v 27.930489 7.279594 7.570541
v 27.930489 7.279594 7.570541
v 30.747395 7.279594 7.570541
v 30.747395 7.279594 7.570541
v 30.747395 7.279594 4.753640
v 30.747395 7.279594 4.753640
v 27.738403 7.043877 4.499053
v 27.738403 7.043877 4.499053
v 27.738403 7.043877 4.499053
v 27.738403 7.043877 7.825128
v 27.738403 7.043877 7.825128
v 27.738403 7.043877 7.825128
v 31.064480 7.043877 7.825128
v 31.064480 7.043877 7.825128
v 31.064480 7.043877 7.825128
v 31.064480 7.043877 4.499053
v 31.064480 7.043877 4.499053
v 31.064480 7.043877 4.499053
v 27.736137 6.977192 4.496787
v 27.736137 6.977192 4.496787
v 27.736137 6.977192 4.496787
v 27.736137 6.977192 7.827394
v 27.736137 6.977192 7.827394
v 27.736137 6.977192 7.827394
v 31.066746 6.977192 7.827394
v 31.066746 6.977192 7.827394
v 31.066746 6.977192 7.827394
v 31.066746 6.977192 4.496787
v 31.066746 6.977192 4.496787
v 31.066746 6.977192 4.496787
v 31.279049 6.806099 8.039700
v 31.279049 6.806099 8.039700
v 31.279049 6.806099 8.039700
v 31.279049 6.806099 4.284482
v 31.279049 6.806099 4.284482
v 31.279049 6.806099 4.284482
v 27.523830 6.806099 4.284482
v 27.523830 6.806099 4.284482
v 27.523830 6.806099 4.284482
v 27.523830 3.663803 4.284482
v 27.523830 6.549110 4.591593
v 27.523830 6.549110 7.732588
v 27.523830 3.920784 4.591593
v 27.523830 3.920784 7.732588
v 27.543095 6.488091 4.664515
v 27.543095 6.488091 7.659666
v 27.543095 3.981804 4.664515
v 27.543095 3.981804 7.659666
v 27.533463 6.317581 7.455894
v 27.543095 6.317581 7.455894
v 27.543095 4.152321 7.455894
v 27.543095 6.317581 4.868288
v 27.543095 4.152321 4.868288
v 27.533463 4.152321 7.455894
v 27.523830 4.152321 7.455894
v 27.533463 6.317581 4.868288
v 27.533463 6.317581 4.868288
v 27.533463 4.152321 4.868288
v 27.523830 4.152321 4.868288
v 27.523830 6.263176 7.390882
v 27.523830 4.206718 7.390882
v 27.523830 6.263176 4.933299
v 27.533463 6.263176 4.933299
v 27.523830 4.206718 4.933299
v 27.543095 6.263176 7.390882
v 27.533463 6.263176 7.390882
v 27.543095 4.206718 7.390882
v 27.533463 4.206718 7.390882
v 27.543095 6.263176 4.933299
v 27.543095 4.206718 4.933299
v 27.533463 4.206718 4.933299
v 30.971939 6.549110 4.284481
v 27.830944 6.549110 4.284482
v 30.971939 3.920784 4.284481
v 27.830944 3.920784 4.284482
v 30.899017 6.488091 4.303745
v 27.903866 6.488091 4.303746
v 30.899017 3.981804 4.303745
v 27.903866 3.981804 4.303746
v 28.107639 6.317581 4.294114
v 28.107639 6.317581 4.303746
v 28.107639 4.152321 4.303746
v 30.695244 6.317581 4.303745
v 30.695244 4.152321 4.303745
v 28.107639 4.152321 4.294114
v 28.107639 4.152321 4.284482
v 30.695244 6.317581 4.294113
v 30.695244 6.317581 4.294113
v 30.695244 4.152321 4.294113
v 30.695244 4.152321 4.284481
v 28.172649 6.263176 4.284482
v 28.172649 4.206718 4.284482
v 30.630234 6.263176 4.284481
v 30.630234 6.263176 4.294114
v 30.630234 4.206718 4.284481
v 28.172649 6.263176 4.303746
v 28.172649 6.263176 4.294114
v 28.172649 4.206718 4.303746
v 28.172649 4.206718 4.294114
v 30.630234 6.263176 4.303745
v 30.630234 4.206718 4.303745
v 30.630234 4.206718 4.294114
v 31.279053 6.549110 7.732588
v 31.279049 6.549110 4.591593
v 31.279053 3.920784 7.732588
v 31.279049 3.920784 4.591593
v 31.259785 6.488091 7.659666
v 31.259785 6.488091 4.664515
v 31.259785 3.981804 7.659666
v 31.259785 3.981804 4.664515
v 31.269417 6.317581 4.868288
v 31.259785 6.317581 4.868288
v 31.259785 4.152321 4.868288
v 31.259785 6.317581 7.455894
v 31.259785 4.152321 7.455894
v 31.269417 4.152321 4.868288
v 31.279049 4.152321 4.868288
v 31.269417 6.317581 7.455894
v 31.269417 6.317581 7.455894
v 31.269417 4.152321 7.455894
v 31.279049 4.152321 7.455894
v 31.279049 6.263176 4.933299
v 31.279049 4.206718 4.933299
v 31.279049 6.263176 7.390882
v 31.269417 6.263176 7.390882
v 31.279049 4.206718 7.390882
v 31.259785 6.263176 4.933299
v 31.269417 6.263176 4.933299
v 31.259785 4.206718 4.933299
v 31.269417 4.206718 4.933300
v 31.259785 6.263176 7.390882
v 31.259785 4.206718 7.390882
v 31.269417 4.206718 7.390882
v 27.523830 6.806099 8.039700
v 27.523830 6.806099 8.039700
v 27.523830 6.806099 8.039700
v 27.523830 3.663803 8.039700
v 27.830944 6.549110 8.039700
v 30.971939 6.549110 8.039700
v 27.830944 3.920784 8.039700
v 30.971939 3.920784 8.039700
v 27.903866 6.488091 8.020435
v 30.899017 6.488091 8.020434
v 27.903866 3.981804 8.020435
v 30.899017 3.981804 8.020434
v 30.695244 6.317581 8.030066
v 30.695244 6.317581 8.020434
v 30.695244 4.152321 8.020434
v 28.107639 6.317581 8.020435
v 28.107639 4.152321 8.020435
v 30.695244 4.152321 8.030066
v 30.695244 4.152321 8.039700
v 28.107639 6.317581 8.030067
v 28.107639 6.317581 8.030067
v 28.107639 4.152321 8.030067
v 28.107639 4.152321 8.039700
v 30.630234 6.263176 8.039700
v 30.630234 4.206718 8.039700
v 28.172649 6.263176 8.039700
v 28.172649 6.263176 8.030067
v 28.172649 4.206718 8.039700
v 30.630234 6.263176 8.020434
v 30.630234 6.263176 8.030066
v 30.630234 4.206718 8.020434
v 30.630234 4.206718 8.030066
v 28.172649 6.263176 8.020435
v 28.172649 4.206718 8.020435
v 28.172649 4.206718 8.030067
v 31.279049 3.663803 4.284482
v 31.279053 3.663803 8.039700
v 27.930489 7.279594 -4.710023
v 27.930489 7.279594 -4.710023
v 27.930489 7.279594 -7.526925
v 27.930489 7.279594 -7.526925
v 30.747395 7.279594 -7.526925
v 30.747395 7.279594 -7.526925
v 30.747395 7.279594 -4.710023
v 30.747395 7.279594 -4.710023
v 27.738403 7.043877 -4.455437
v 27.738403 7.043877 -4.455437
v 27.738403 7.043877 -4.455437
v 27.738403 7.043877 -7.781512
v 27.738403 7.043877 -7.781512
v 27.738403 7.043877 -7.781512
v 31.064480 7.043877 -7.781512
v 31.064480 7.043877 -7.781512
v 31.064480 7.043877 -7.781512
v 31.064480 7.043877 -4.455437
v 31.064480 7.043877 -4.455437
v 31.064480 7.043877 -4.455437
v 27.736137 6.977192 -4.453171
v 27.736137 6.977192 -4.453171
v 27.736137 6.977192 -4.453171
v 27.736137 6.977192 -7.783778
v 27.736137 6.977192 -7.783778
v 27.736137 6.977192 -7.783778
v 31.066746 6.977192 -7.783778
v 31.066746 6.977192 -7.783778
v 31.066746 6.977192 -7.783778
v 31.066746 6.977192 -4.453171
v 31.066746 6.977192 -4.453171
v 31.066746 6.977192 -4.453171
v 31.279049 6.806099 -7.996083
v 31.279049 6.806099 -7.996083
v 31.279049 6.806099 -7.996083
v 31.279049 6.806099 -4.240865
v 31.279049 6.806099 -4.240865
v 31.279049 6.806099 -4.240865
v 27.523830 6.806099 -4.240865
v 27.523830 6.806099 -4.240865
v 27.523830 6.806099 -4.240865
v 27.523830 3.663803 -4.240865
v 27.523830 6.549110 -4.547976
v 27.523830 6.549110 -7.688972
v 27.523830 3.920784 -4.547976
v 27.523830 3.920784 -7.688972
v 27.543095 6.488091 -4.620899
v 27.543095 6.488091 -7.616050
v 27.543095 3.981804 -4.620899
v 27.543095 3.981804 -7.616050
v 27.533463 6.317581 -7.412278
v 27.543095 6.317581 -7.412277
v 27.543095 4.152321 -7.412277
v 27.543095 6.317581 -4.824671
v 27.543095 4.152321 -4.824671
v 27.533463 4.152321 -7.412278
v 27.523830 4.152321 -7.412277
v 27.533463 6.317581 -4.824671
v 27.533463 6.317581 -4.824671
v 27.533463 4.152321 -4.824671
v 27.523830 4.152321 -4.824671
v 27.523830 6.263176 -7.347266
v 27.523830 4.206718 -7.347266
v 27.523830 6.263176 -4.889683
v 27.533463 6.263176 -4.889683
v 27.523830 4.206718 -4.889683
v 27.543095 6.263176 -7.347266
v 27.533463 6.263176 -7.347266
v 27.543095 4.206718 -7.347266
v 27.533463 4.206718 -7.347266
v 27.543095 6.263176 -4.889683
v 27.543095 4.206718 -4.889683
v 27.533463 4.206718 -4.889683
v 30.971939 6.549110 -4.240865
v 27.830944 6.549110 -4.240865
v 30.971939 3.920784 -4.240865
v 27.830944 3.920784 -4.240865
v 30.899017 6.488091 -4.260129
v 27.903866 6.488091 -4.260129
v 30.899017 3.981804 -4.260129
v 27.903866 3.981804 -4.260129
v 28.107639 6.317581 -4.250497
v 28.107639 6.317581 -4.260129
v 28.107639 4.152321 -4.260129
v 30.695244 6.317581 -4.260129
v 30.695244 4.152321 -4.260129
v 28.107639 4.152321 -4.250497
v 28.107639 4.152321 -4.240865
v 30.695244 6.317581 -4.250497
v 30.695244 6.317581 -4.250497
v 30.695244 4.152321 -4.250497
v 30.695244 4.152321 -4.240865
v 28.172649 6.263176 -4.240865
v 28.172649 4.206718 -4.240865
v 30.630234 6.263176 -4.240865
v 30.630234 6.263176 -4.250497
v 30.630234 4.206718 -4.240865
v 28.172649 6.263176 -4.260129
v 28.172649 6.263176 -4.250497
v 28.172649 4.206718 -4.260129
v 28.172649 4.206718 -4.250497
v 30.630234 6.263176 -4.260129
v 30.630234 4.206718 -4.260129
v 30.630234 4.206718 -4.250497
v 31.279053 6.549110 -7.688972
v 31.279049 6.549110 -4.547976
v 31.279053 3.920784 -7.688972
v 31.279049 3.920784 -4.547976
v 31.259785 6.488091 -7.616050
v 31.259785 6.488091 -4.620899
v 31.259785 3.981804 -7.616050
v 31.259785 3.981804 -4.620899
v 31.269417 6.317581 -4.824672
v 31.259785 6.317581 -4.824672
v 31.259785 4.152321 -4.824672
v 31.259785 6.317581 -7.412277
v 31.259785 4.152321 -7.412277
v 31.269417 4.152321 -4.824672
v 31.279049 4.152321 -4.824672
v 31.269417 6.317581 -7.412278
v 31.269417 6.317581 -7.412277
v 31.269417 4.152321 -7.412278
v 31.279049 4.152321 -7.412277
v 31.279049 6.263176 -4.889683
v 31.279049 4.206718 -4.889683
v 31.279049 6.263176 -7.347266
v 31.269417 6.263176 -7.347266
v 31.279049 4.206718 -7.347266
v 31.259785 6.263176 -4.889683
v 31.269417 6.263176 -4.889683
v 31.259785 4.206718 -4.889683
v 31.269417 4.206718 -4.889683
v 31.259785 6.263176 -7.347266
v 31.259785 4.206718 -7.347266
v 31.269417 4.206718 -7.347266
v 27.523830 6.806099 -7.996083
v 27.523830 6.806099 -7.996083
v 27.523830 6.806099 -7.996083
v 27.523830 3.663803 -7.996083
v 27.830944 6.549110 -7.996083
v 30.971939 6.549110 -7.996083
v 27.830944 3.920784 -7.996083
v 30.971939 3.920784 -7.996083
v 27.903866 6.488091 -7.976819
v 30.899017 6.488091 -7.976818
v 27.903866 3.981804 -7.976819
v 30.899017 3.981804 -7.976818
v 30.695244 6.317581 -7.986451
v 30.695244 6.317581 -7.976818
v 30.695244 4.152321 -7.976818
v 28.107639 6.317581 -7.976819
v 28.107639 4.152321 -7.976819
v 30.695244 4.152321 -7.986451
v 30.695244 4.152321 -7.996083
v 28.107639 6.317581 -7.986451
v 28.107639 6.317581 -7.986451
v 28.107639 4.152321 -7.986451
v 28.107639 4.152321 -7.996083
v 30.630234 6.263176 -7.996083
v 30.630234 4.206718 -7.996083
v 28.172649 6.263176 -7.996083
v 28.172649 6.263176 -7.986451
v 28.172649 4.206718 -7.996083
v 30.630234 6.263176 -7.976818
v 30.630234 6.263176 -7.986451
v 30.630234 4.206718 -7.976818
v 30.630234 4.206718 -7.986451
v 28.172649 6.263176 -7.976819
v 28.172649 4.206718 -7.976819
v 28.172649 4.206718 -7.986451
v 31.279049 3.663803 -4.240865
v 31.279053 3.663803 -7.996083
v 16.887386 5.238716 11.256665
v 20.550457 5.238716 11.264964
v 20.543911 5.238716 11.256665
v 20.543911 5.238716 11.256665
v 20.543911 5.238716 11.256665
v 20.549042 5.243382 11.270922
v 20.543915 5.248718 11.273272
v 20.543915 5.248718 11.273272
v 16.887386 5.238716 11.256665
v 16.880844 5.238716 11.264966
v 16.882256 5.243382 11.270923
v 16.874308 5.238716 11.273272
v 16.874308 5.238716 11.273272
v 16.887386 5.248718 11.273272
v 20.542425 4.279343 11.257420
v 20.549007 4.272964 11.250299
v 20.550455 4.280151 11.264964
v 20.563713 4.273720 11.270420
v 20.556992 4.280151 11.273272
v 16.874348 4.279839 11.275428
v 16.867580 4.273720 11.270420
v 16.880840 4.280151 11.264966
v 16.882286 4.272964 11.250299
v 16.887383 4.280151 11.256665
v 16.738796 4.159760 11.095075
v 20.709614 4.159336 11.103983
v 20.702089 4.175438 11.087262
v 20.703053 4.159054 11.095364
v 20.691963 4.160233 11.095316
v 20.715588 4.160671 11.111450
v 20.716131 4.159588 11.111191
v 16.721685 4.159332 11.103989
v 16.716486 4.157600 11.112626
v 16.714975 4.159702 11.112498
v 16.715118 4.159546 11.111148
v 16.732958 4.164364 11.091378
v 20.849758 3.506989 10.948167
v 20.843449 3.506943 10.940202
v 20.843483 3.507370 10.940447
v 20.854900 3.506920 10.955818
v 16.576395 3.506920 10.955818
v 16.575998 3.506989 10.955905
v 16.587845 3.506943 10.940202
v 16.578705 3.356819 10.924956
v 20.854778 3.372555 10.929388
v 20.849758 3.365742 10.948167
v 20.866199 3.370640 10.949442
v 20.855297 3.365742 10.955905
v 16.565506 3.355259 10.932696
v 16.565096 3.370640 10.949442
v 16.581537 3.365742 10.948167
v 16.576519 3.372551 10.929389
v 16.587076 3.365742 10.940430
v 20.844219 3.365742 10.940430
v 20.957130 3.342293 10.828012
v 20.951988 3.342274 10.820606
v 20.951992 3.342293 10.820595
v 20.951992 3.350842 14.736976
v 16.479305 3.350842 10.845013
v 16.469030 3.342293 14.746561
v 16.473814 3.322933 10.837487
v 16.469028 3.342293 10.835429
v 16.469030 3.342293 10.835429
v 16.481544 3.337807 10.844610
v 20.958073 3.344444 10.839727
v 20.543911 5.247883 14.310103
v 20.543911 5.238716 14.325327
v 20.549042 5.243382 14.311069
v 20.556992 5.238716 14.308720
v 20.556992 5.238716 14.308720
v 20.556992 5.238716 11.273272
v 16.874308 5.238716 14.308720
v 16.882256 5.243382 14.311069
v 16.887386 5.248718 14.308720
v 16.887386 5.238716 14.325327
v 16.887386 5.238716 14.325328
v 16.887386 5.238716 14.325327
v 20.549006 4.272961 14.331691
v 20.543911 4.280151 14.325328
v 20.563711 4.273716 14.311570
v 20.557076 4.280037 14.306547
v 20.550453 4.280151 14.317027
v 16.867638 4.273643 14.311526
v 16.874306 4.280151 14.308720
v 16.882351 4.272881 14.331641
v 16.880846 4.280151 14.317021
v 16.888874 4.279388 14.324597
v 20.700377 4.167900 14.492051
v 20.713730 4.155479 14.468609
v 20.716320 4.159702 14.469488
v 16.716488 4.157600 14.469360
v 16.732958 4.164364 14.490611
v 16.728241 4.159054 14.486627
v 20.842918 3.506714 14.641392
v 20.854534 3.506760 14.625907
v 20.855297 3.506989 14.626085
v 16.576395 3.506920 14.626173
v 16.587845 3.506943 14.641789
v 20.854778 3.372555 14.652602
v 20.844219 3.365742 14.641561
v 20.859119 3.351482 14.652875
v 20.866199 3.370640 14.632549
v 20.855297 3.365742 14.626085
v 20.849758 3.365742 14.633823
v 20.855297 3.365742 14.626086
v 20.866375 3.356819 10.949831
v 16.576000 3.365742 10.955905
v 16.564924 3.356819 14.632160
v 16.567265 3.366890 14.630658
v 16.576000 3.365742 14.626085
v 16.573248 3.355873 14.656815
v 16.578987 3.368572 14.650686
v 16.581537 3.365742 14.633822
v 20.852592 3.356819 14.657035
v 16.587076 3.365742 14.641561
v 16.480326 3.344624 14.742343
v 20.952578 3.334587 14.735738
v 20.962265 3.342293 14.746562
v 20.962265 3.342293 10.835429
v 16.473814 3.322933 14.744504
v 16.469028 3.342293 14.746562
v 16.479305 3.342293 14.761397
v 20.951981 3.342274 14.761387
v 20.543911 5.248718 11.273272
v 20.543915 5.248718 14.308720
v 16.887386 5.248718 11.273272
v 16.887386 5.248718 14.308720
v 16.887386 5.238716 -11.225520
v 20.550457 5.238716 -11.233819
v 20.543911 5.238716 -11.225520
v 20.543911 5.238716 -11.225520
v 20.543911 5.238716 -11.225520
v 20.549042 5.243382 -11.239777
v 20.543915 5.248718 -11.242126
v 20.543915 5.248718 -11.242126
v 16.887386 5.238716 -11.225520
v 16.880844 5.238716 -11.233822
v 16.882256 5.243382 -11.239778
v 16.874308 5.238716 -11.242126
v 16.874308 5.238716 -11.242126
v 16.887386 5.248718 -11.242126
v 20.542412 4.279217 -11.226430
v 20.549007 4.272964 -11.219154
v 20.550455 4.280151 -11.233819
v 20.563713 4.273720 -11.239275
v 20.556992 4.280151 -11.242126
v 16.867638 4.273643 -11.239319
v 16.874378 4.279907 -11.244314
v 16.880842 4.280151 -11.233822
v 16.882349 4.272881 -11.219204
v 16.887383 4.280151 -11.225520
v 20.709614 4.159336 -11.072838
v 20.695272 4.154526 -11.064248
v 20.703053 4.159054 -11.064219
v 20.692474 4.159798 -11.063927
v 20.713415 4.154247 -11.082787
v 16.721682 4.159336 -11.072840
v 16.716486 4.157600 -11.081480
v 16.714975 4.159702 -11.081353
v 16.715015 4.159691 -11.080002
v 16.732958 4.164364 -11.060233
v 20.849758 3.506989 -10.917022
v 20.842918 3.506710 -10.909454
v 20.843466 3.507458 -10.909254
v 20.854532 3.506760 -10.924940
v 16.576393 3.506920 -10.924671
v 16.576000 3.506989 -10.924760
v 16.587837 3.506947 -10.909051
v 20.859119 3.351482 -10.897971
v 20.854778 3.372555 -10.898243
v 20.849758 3.365742 -10.917022
v 20.866199 3.370640 -10.918297
v 20.855297 3.365742 -10.924760
v 20.855297 3.365742 -14.594941
v 16.564922 3.356819 -14.601015
v 16.567265 3.366890 -10.920188
v 16.581539 3.365742 -10.917023
v 16.578987 3.368572 -10.900158
v 16.587076 3.365742 -10.909285
v 16.578705 3.356819 -10.893811
v 20.844219 3.365742 -10.909286
v 20.957130 3.342293 -10.796866
v 20.951981 3.342274 -10.789461
v 20.951992 3.342293 -10.789450
v 20.952579 3.334591 -10.815105
v 16.469030 3.342293 -14.715416
v 16.473814 3.322933 -10.806342
v 16.469028 3.342293 -10.804284
v 16.478569 3.350231 -10.813183
v 16.480324 3.344624 -10.808501
v 20.543911 5.248718 -14.277575
v 20.543911 5.238716 -14.294182
v 20.549042 5.243382 -14.279923
v 20.556993 5.238716 -14.277575
v 20.556992 5.238716 -14.277575
v 20.556992 5.238716 -11.242126
v 16.874308 5.238716 -14.277575
v 16.882256 5.243382 -14.279923
v 16.887384 5.248718 -14.277575
v 16.887386 5.238716 -14.294182
v 16.887386 5.238716 -14.294183
v 16.887386 5.238716 -14.294182
v 20.543911 5.238716 -14.294182
v 20.549006 4.272961 -14.300546
v 20.543911 4.280151 -14.294182
v 20.563711 4.273716 -14.280425
v 20.550446 4.280151 -14.285874
v 20.556923 4.279888 -14.275395
v 16.867582 4.273716 -14.280425
v 16.874306 4.280151 -14.277575
v 16.882288 4.272961 -14.300546
v 16.888863 4.279819 -14.293884
v 16.880846 4.280151 -14.285876
v 20.702089 4.175438 -14.463583
v 20.715586 4.160671 -14.439391
v 20.716320 4.159702 -14.438343
v 16.715710 4.160671 -14.439391
v 16.729202 4.175438 -14.463582
v 16.728241 4.159054 -14.455482
v 20.843456 3.506947 -14.610650
v 20.854902 3.506920 -14.595030
v 20.855297 3.506989 -14.594940
v 16.576395 3.506920 -14.595028
v 16.575998 3.506989 -14.594940
v 16.587845 3.506943 -14.610644
v 16.587822 3.507435 -14.610480
v 20.852592 3.356819 -14.625890
v 20.854778 3.372555 -14.621457
v 20.844219 3.365742 -14.610415
v 20.866199 3.370640 -14.601404
v 20.855297 3.365742 -14.594940
v 20.849758 3.365742 -14.602678
v 20.866375 3.356819 -10.918686
v 16.576000 3.365742 -10.924760
v 16.565096 3.370640 -14.601403
v 16.575998 3.365742 -14.594940
v 16.572178 3.351482 -14.621730
v 16.576519 3.372551 -14.621456
v 16.581537 3.365742 -14.602677
v 16.587076 3.365742 -14.610415
v 20.957909 3.343666 -14.710588
v 20.962265 3.342293 -14.715417
v 20.951992 3.350842 -14.705831
v 20.962265 3.342293 -10.804284
v 16.473814 3.322933 -14.713359
v 16.469028 3.342293 -14.715417
v 16.479305 3.342293 -14.730252
v 20.951988 3.342274 -14.730242
v 16.481161 3.339951 -14.707870
v 20.543915 5.248718 -14.277575
v 20.543911 5.248718 -11.242126
v 16.887386 5.248718 -14.277575
v 16.887386 5.248718 -11.242126
v 4.928457 5.238716 11.264964
v 4.921912 5.238716 11.256665
v 4.921912 5.238716 11.256665
v 4.921912 5.238716 11.256665
v 4.927042 5.243382 11.270923
v 4.921915 5.248718 11.273272
v 4.921914 5.248718 11.273272
v 4.934993 5.238716 11.273272
v 1.265386 5.238716 11.256665
v 1.258846 5.238716 11.264968
v 1.260256 5.243382 11.270923
v 1.252307 5.238716 11.273272
v 1.252307 5.238716 11.273272
v 1.265386 5.248718 11.273272
v 1.265386 5.248718 11.273272
v 1.265386 5.238716 11.256665
v 4.927008 4.272964 11.250299
v 4.920425 4.279503 11.257271
v 4.928455 4.280151 11.264964
v 4.941713 4.273720 11.270420
v 4.934991 4.280151 11.273272
v 1.245581 4.273720 11.270420
v 1.252238 4.280060 11.275459
v 1.258844 4.280151 11.264968
v 1.260286 4.272964 11.250299
v 1.265384 4.280151 11.256665
v 1.116924 4.159893 11.095117
v 5.087615 4.159336 11.103983
v 5.080090 4.175438 11.087262
v 5.081052 4.159054 11.095364
v 5.070379 4.160137 11.094919
v 5.093586 4.160671 11.111450
v 5.094208 4.159611 11.111156
v 1.093111 4.159542 14.470843
v 1.099684 4.159336 11.103987
v 1.094486 4.157600 11.112626
v 1.092975 4.159702 11.112498
v 1.093085 4.159611 11.111156
v 1.110958 4.164364 11.091378
v 5.227758 3.506989 10.948167
v 5.221450 3.506943 10.940202
v 5.221472 3.507439 10.940361
v 5.232900 3.506920 10.955818
v 0.954395 3.506920 10.955818
v 0.954000 3.506989 10.955905
v 0.954412 3.506874 10.955807
v 0.965845 3.506943 10.940202
v 0.956704 3.356819 10.924956
v 5.232780 3.372555 10.929388
v 5.227757 3.365742 10.948167
v 5.244201 3.370640 10.949442
v 5.233296 3.365742 10.955905
v 5.244376 3.356819 10.949830
v 5.233296 3.365742 14.626086
v 0.942924 3.356819 14.632160
v 0.954000 3.365742 10.955905
v 0.943096 3.370640 10.949443
v 0.959538 3.365742 10.948167
v 0.954518 3.372551 10.929389
v 0.965077 3.365742 10.940430
v 5.222219 3.365742 10.940430
v 0.857308 3.342274 10.820606
v 5.335482 3.322933 10.837487
v 5.335129 3.342293 10.828012
v 5.329991 3.342293 10.820595
v 0.851794 3.341717 10.841655
v 0.847030 3.342293 10.835429
v 0.847031 3.342293 10.835429
v 0.861502 3.349380 10.836432
v 5.328598 3.342533 10.841088
v 4.921912 5.248718 14.308720
v 4.921912 5.238716 14.325327
v 4.927042 5.243382 14.311069
v 4.934993 5.238716 14.308720
v 4.934992 5.238716 14.308720
v 1.252307 5.238716 14.308720
v 1.260256 5.243382 14.311069
v 1.265386 5.248718 14.308720
v 1.265386 5.238716 14.325327
v 1.265386 5.238716 14.325328
v 1.265386 5.238716 14.325327
v 4.921912 5.238716 14.325327
v 4.927005 4.272961 14.331691
v 4.921910 4.280151 14.325328
v 4.941711 4.273716 14.311570
v 4.928445 4.280151 14.317019
v 4.934859 4.279797 14.306547
v 1.245638 4.273643 14.311526
v 1.252304 4.280151 14.308720
v 1.260350 4.272881 14.331641
v 1.266868 4.279900 14.325090
v 1.258844 4.280151 14.317023
v 5.078377 4.167900 14.492051
v 5.091730 4.155479 14.468609
v 5.094319 4.159702 14.469489
v 1.094487 4.157600 14.469360
v 1.110958 4.164364 14.490612
v 1.106243 4.159054 14.486627
v 5.220920 3.506710 14.641393
v 5.232533 3.506760 14.625907
v 5.233296 3.506989 14.626085
v 5.232877 3.506870 10.955807
v 0.954395 3.506920 14.626173
v 0.965846 3.506943 14.641789
v 5.230593 3.356819 14.657034
v 0.965076 3.365742 14.641561
v 5.232780 3.372555 14.652602
v 5.222219 3.365742 14.641561
v 5.237120 3.351482 14.652875
v 5.244200 3.370640 14.632549
v 5.233296 3.365742 14.626085
v 5.227757 3.365742 14.633823
v 0.945266 3.366890 14.630658
v 0.954000 3.365742 14.626085
v 0.956986 3.368572 14.650686
v 0.959538 3.365742 14.633822
v 0.858326 3.344624 14.742343
v 5.330578 3.334587 14.735738
v 5.340266 3.342293 14.746562
v 5.329992 3.350842 14.736976
v 5.340265 3.342293 10.835429
v 0.847030 3.342293 14.746561
v 0.857305 3.350842 10.845013
v 0.851814 3.322933 14.744504
v 0.857305 3.342293 14.761397
v 5.329981 3.342274 14.761387
v 4.921914 5.248718 14.308720
v 1.265386 5.248718 11.273272
v 4.921912 5.248718 11.273272
v 1.265386 5.248718 14.308720
v -10.693538 5.238716 11.264961
v -10.700088 5.238716 11.256665
v -10.700088 5.238716 11.256665
v -10.700088 5.238716 11.256665
v -10.694957 5.243382 11.270922
v -10.700086 5.248718 11.273272
v -14.356614 5.238716 11.256665
v -14.363154 5.238716 11.264968
v -14.361745 5.243382 11.270922
v -14.369693 5.238716 11.273272
v -14.369693 5.238716 11.273272
v -14.356614 5.240383 11.259433
v -10.694993 4.272964 11.250299
v -10.700089 4.280151 11.256665
v -10.693540 4.280151 11.264960
v -10.680285 4.273720 11.270419
v -10.687011 4.280151 11.273272
v -14.376420 4.273720 11.270420
v -14.370833 4.278530 11.274599
v -14.363156 4.280151 11.264968
v -14.361712 4.272964 11.250299
v -14.356616 4.280151 11.256665
v -10.701571 4.279873 11.256924
v -10.534385 4.159336 11.103983
v -10.541909 4.175434 11.087263
v -10.540948 4.159054 11.095364
v -10.551522 4.159809 11.095060
v -10.528413 4.160671 11.111450
v -14.522321 4.159336 11.103983
v -14.527514 4.157600 11.112626
v -14.529025 4.159702 11.112498
v -14.528903 4.159561 11.111142
v -14.511041 4.164364 11.091378
v -14.504836 4.160103 11.095224
v -10.394242 3.506989 10.948167
v -10.400552 3.506943 10.940202
v -10.400525 3.507435 10.940287
v -10.389100 3.506920 10.955819
v -10.389117 3.506874 10.955807
v -14.667605 3.506920 10.955817
v -14.668000 3.506989 10.955905
v -14.656154 3.506943 10.940201
v -10.385949 3.355873 10.925177
v -10.389218 3.372559 10.929387
v -10.394242 3.365742 10.948167
v -10.377799 3.370644 10.949442
v -10.388703 3.365742 10.955905
v -10.388703 3.365742 14.626086
v -10.377624 3.356819 10.949830
v -14.679076 3.356819 14.632161
v -14.671821 3.351482 10.929116
v -14.678903 3.370640 10.949442
v -14.662461 3.365742 10.948167
v -14.667481 3.372551 10.929389
v -14.656922 3.365742 10.940430
v -14.665296 3.356819 10.924956
v -10.293864 3.339954 10.842975
v -14.764691 3.342274 10.820606
v -10.286519 3.322933 10.837487
v -10.286872 3.342293 10.828012
v -10.292008 3.342293 10.820595
v -10.281735 3.342293 10.835429
v -14.770614 3.343670 10.840256
v -14.774972 3.342293 10.835429
v -14.774970 3.342293 10.835429
v -10.700088 5.238716 14.325327
v -10.700088 5.248718 14.308720
v -10.700088 5.238716 14.325327
v -10.694957 5.243382 14.311069
v -10.687009 5.238716 14.308720
v -10.687007 5.238716 14.308720
v -10.687007 5.238716 11.273272
v -14.361745 5.243382 14.311069
v -14.367513 5.240383 14.308720
v -14.356614 5.238716 14.325327
v -14.356614 5.238716 14.325327
v -14.356614 5.238716 14.325327
v -14.355126 4.279762 14.324948
v -10.694995 4.272961 14.331691
v -10.700089 4.280151 14.325328
v -10.680289 4.273716 14.311570
v -10.693540 4.280151 14.317031
v -10.686908 4.280018 14.306558
v -14.376363 4.273643 14.311525
v -14.369693 4.280151 14.308720
v -14.361650 4.272881 14.331641
v -14.363156 4.280151 14.317023
v -10.543622 4.167900 14.492050
v -10.530269 4.155479 14.468608
v -10.527682 4.159702 14.469488
v -10.527808 4.159557 11.111144
v -14.527513 4.157600 14.469360
v -14.511041 4.164364 14.490611
v -14.515758 4.159054 14.486627
v -10.401082 3.506710 14.641393
v -10.389468 3.506760 14.625906
v -10.388703 3.506989 14.626085
v -14.667603 3.506920 14.626173
v -14.656154 3.506943 14.641790
v -14.656177 3.507442 14.641700
v -14.656924 3.365742 14.641561
v -10.391406 3.356819 14.657034
v -10.389220 3.372559 14.652603
v -10.399781 3.365742 14.641561
v -10.378209 3.355259 14.649295
v -10.377799 3.370644 14.632549
v -10.394242 3.365742 14.633823
v -14.668000 3.365742 10.955905
v -14.676734 3.366890 14.630659
v -14.668000 3.365742 14.626085
v -14.665013 3.368572 14.650686
v -14.662461 3.365742 14.633822
v -14.763673 3.344624 14.742344
v -10.291423 3.334587 14.735739
v -10.281734 3.342293 14.746562
v -10.292006 3.350842 14.736978
v -14.764695 3.350842 10.845012
v -14.774970 3.342293 14.746561
v -14.770185 3.322933 14.744504
v -14.764695 3.342293 14.761397
v -10.292020 3.342274 14.761387
v -10.700088 5.248718 11.273272
v -14.356614 5.248718 14.308720
v -10.700086 5.248718 14.308720
v -14.356614 5.248718 11.273272
v -10.292008 2.873116 14.761397
vn -0.0000 1.0000 -0.0000
vn -0.0000 0.0340 -0.9994
vn -0.0000 0.7338 -0.6794
vn -0.0000 0.7338 0.6794
vn 0.5966 0.8025 -0.0000
vn -0.7752 0.6317 -0.0000
vn 0.6275 0.7786 -0.0000
vn -0.0000 0.0340 0.9994
vn 0.9994 0.0340 -0.0000
vn -0.9994 0.0340 -0.0000
vn -0.0000 -0.0000 -1.0000
vn -0.6275 0.7786 -0.0000
vn -0.0000 0.7786 -0.6275
vn -0.0000 0.7786 0.6275
vn -0.0000 0.3011 -0.9536
vn -1.0000 -0.0000 -0.0000
vn -0.9536 0.3011 -0.0000
vn -0.9668 -0.0000 0.2554
vn -0.9536 -0.3011 -0.0000
vn -0.9668 -0.0000 -0.2554
vn -0.2554 -0.0000 -0.9668
vn -0.0000 -0.3010 -0.9536
vn 0.2554 -0.0000 -0.9668
vn 1.0000 -0.0000 -0.0000
vn 0.9536 0.3011 -0.0000
vn 0.9668 -0.0000 -0.2555
vn 0.9536 -0.3011 -0.0000
vn 0.9668 -0.0000 0.2554
vn -0.0000 -0.0000 1.0000
vn -0.0000 0.3010 0.9536
vn 0.2554 -0.0000 0.9668
vn -0.0000 -0.3011 0.9536
vn -0.2554 -0.0000 0.9668
vn -0.0000 0.3011 0.9536
vn 0.9668 -0.0000 0.2555
vn 0.9668 -0.0000 -0.2554
vn -0.0000 -0.3011 -0.9536
vn 0.6029 0.7978 -0.0000
vn 0.6036 0.7973 -0.0001
vn -0.0000 0.1081 -0.9941
vn -0.0000 -0.0005 -1.0000
vn -0.0000 0.1078 -0.9942
vn 0.0354 0.9989 -0.0317
vn 0.0073 0.9999 0.0074
vn 0.0332 0.9989 -0.0340
vn -0.0001 0.8042 0.5944
vn -0.0001 0.8041 0.5945
vn 0.0001 0.8063 0.5915
vn -0.6028 0.7979 -0.0001
vn -0.6035 0.7974 -0.0000
vn -0.6027 0.7979 -0.0001
vn -0.0000 0.2314 0.9729
vn -0.0000 0.1079 0.9942
vn -0.0000 -0.0004 1.0000
vn 0.9781 0.2081 -0.0001
vn 0.9782 0.2077 -0.0000
vn -0.0280 0.9992 -0.0286
vn -0.0392 0.9984 0.0403
vn -0.0303 0.9992 -0.0261
vn 0.0065 1.0000 0.0066
vn -0.0000 0.8566 -0.5159
vn -0.0000 0.8566 -0.5160
vn -0.0000 0.8663 -0.4995
vn -0.6399 0.7685 -0.0000
vn -0.6394 0.7689 -0.0000
vn 0.6075 0.7943 -0.0000
vn -0.0000 0.8663 0.4995
vn 0.6396 0.7687 -0.0000
vn 0.6395 0.7688 -0.0000
vn -0.6075 0.7943 -0.0000
vn -0.0001 0.8041 -0.5946
vn 0.0001 0.8058 -0.5922
vn -0.0001 0.8040 -0.5946
vn 0.6285 0.7747 0.0694
vn 0.3154 0.9193 -0.2354
vn 0.6507 0.7532 0.0967
vn -0.4959 0.8575 -0.1371
vn -0.3352 0.8997 -0.2797
vn -0.3177 0.9016 -0.2937
vn -0.9782 0.2077 -0.0000
vn -0.0053 0.4358 -0.9000
vn -0.0016 0.9935 -0.1139
vn -0.0053 0.4341 -0.9008
vn -0.0000 0.8567 0.5159
vn 0.7017 0.7121 0.0223
vn -0.3352 0.8997 0.2797
vn -0.4958 0.8576 0.1370
vn -0.3177 0.9016 0.2937
vn 0.6274 0.7787 -0.0000
vn 0.6269 0.7791 -0.0000
vn -0.6273 0.7788 -0.0000
vn -0.6274 0.7787 -0.0000
vn 0.0017 0.9588 -0.2841
vn 0.0017 0.9579 -0.2870
vn -0.0042 0.1036 0.9946
vn -0.0042 0.1004 0.9949
vn 0.6031 0.7977 -0.0001
vn -0.0000 -0.0010 1.0000
vn -0.0000 0.1080 0.9942
vn -0.0000 0.1076 0.9942
vn 0.0085 0.9999 0.0083
vn 0.0090 0.9999 0.0074
vn -0.0314 0.9990 0.0313
vn 0.0315 0.9990 -0.0308
vn 0.0315 0.9990 -0.0313
vn -0.6040 0.7970 0.0001
vn -0.6038 0.7971 0.0001
vn -0.6023 0.7983 -0.0001
vn 0.9782 0.2078 0.0001
vn 0.9782 0.2075 -0.0000
vn -0.0091 0.9999 -0.0074
vn -0.0315 0.9990 0.0308
vn -0.0000 0.1079 -0.9942
vn -0.0000 -0.0004 -1.0000
vn -0.0000 0.8566 0.5159
vn -0.0000 0.8566 0.5160
vn -0.6076 0.7943 -0.0000
vn 0.3457 0.8807 0.3237
vn 0.3541 0.8799 0.3170
vn 0.3549 0.8798 0.3163
vn -0.6022 0.7983 -0.0001
vn 0.0001 0.8058 0.5922
vn 0.0003 0.8032 0.5956
vn 0.0001 0.8058 0.5921
vn -0.4958 0.8575 0.1371
vn -0.7699 0.2995 0.5636
vn -0.0000 0.2315 0.9728
vn -0.0042 0.1034 0.9946
vn -0.6397 0.7686 -0.0000
vn -0.0000 0.8567 -0.5159
vn 0.7096 0.7038 0.0337
vn -0.3154 0.9193 -0.2354
vn -0.6285 0.7747 0.0694
vn -0.6507 0.7531 0.0968
vn 0.7699 0.2994 -0.5636
vn -0.0000 0.2314 -0.9729
vn 0.6394 0.7688 -0.0000
vn 0.6399 0.7685 -0.0000
vn -0.0049 0.3110 -0.9504
vn -0.0009 0.9974 -0.0724
vn -0.0049 0.3091 -0.9510
vn -0.0001 0.8056 -0.5924
vn -0.0000 0.8049 -0.5935
vn -0.0000 0.8048 -0.5935
vn -0.6028 0.7979 0.0001
vn -0.6027 0.7980 0.0001
vn -0.0359 0.9987 -0.0367
vn -0.0311 0.9990 0.0312
vn -0.0317 0.9990 0.0303
vn -0.0000 -0.0003 -1.0000
vn 0.0364 0.9989 -0.0292
vn 0.0319 0.9989 -0.0334
vn 0.0072 0.9999 0.0072
vn 0.0003 0.8032 0.5957
vn 0.0003 0.8034 0.5954
vn -0.0000 0.8065 0.5912
vn 0.0065 1.0000 0.0065
vn 0.6076 0.7943 -0.0000
vn 0.6277 0.7784 -0.0000
vn 0.6025 0.7981 0.0001
vn 0.6040 0.7970 -0.0000
vn 0.6023 0.7982 0.0002
vn -0.3177 0.9016 -0.2936
vn -0.9782 0.2076 -0.0000
vn -0.0363 0.9987 -0.0364
vn 0.7017 0.7121 0.0224
vn -0.3353 0.8996 0.2797
vn -0.4957 0.8576 0.1370
vn -0.3178 0.9015 0.2936
vn -0.0000 0.8663 0.4996
vn -0.0000 0.8033 -0.5956
vn -0.0002 0.8063 -0.5915
vn -0.0003 0.8065 -0.5912
vn -0.0000 0.2315 -0.9728
vn -0.0000 0.1076 -0.9942
vn -0.0000 0.1080 -0.9942
vn -0.0067 1.0000 -0.0068
vn -0.0076 0.9999 -0.0075
vn -0.0402 0.9985 0.0365
vn -0.0000 -0.0010 -1.0000
vn 0.0368 0.9986 -0.0374
vn 0.0272 0.9992 0.0280
vn 0.0373 0.9986 -0.0372
vn 0.6036 0.7973 -0.0000
vn 0.6029 0.7978 -0.0001
vn 0.6028 0.7979 -0.0001
vn -0.6014 0.7989 -0.0002
vn -0.6036 0.7973 -0.0000
vn -0.6012 0.7991 -0.0002
vn -0.0000 0.2313 0.9729
vn 0.9782 0.2076 -0.0000
vn -0.0000 -0.0009 1.0000
vn -0.0000 0.1081 0.9941
vn 0.0299 0.9992 0.0252
vn 0.6277 0.7785 -0.0000
vn 0.6268 0.7792 -0.0000
vn -0.6270 0.7790 -0.0000
vn -0.6276 0.7786 -0.0000
vn -0.6276 0.7785 -0.0000
vn -0.0000 0.8663 -0.4996
vn 0.6400 0.7684 -0.0000
vn 0.7097 0.7037 0.0336
vn -0.0000 0.2313 -0.9729
vn -0.6077 0.7941 -0.0000
vn 0.0002 0.8033 0.5956
vn 0.0001 0.8042 0.5943
vn -0.0013 0.8199 0.5725
vn -0.3351 0.8997 0.2797
vn -0.3177 0.9016 0.2936
vn 0.0017 0.9588 -0.2842
vn -0.0000 0.3010 -0.9536
vn -0.9536 0.3010 -0.0000
vn 0.9536 0.3010 -0.0000
vn -0.0000 -0.3010 0.9536
vn 0.0001 0.8059 -0.5921
vn -0.0000 0.2314 -0.9728
vn -0.0000 0.0001 -1.0000
vn -0.6035 0.7973 -0.0000
vn 0.0001 0.8064 0.5914
vn -0.0400 0.9984 0.0399
vn -0.0000 -0.0003 1.0000
vn -0.0016 0.9937 -0.1123
vn 0.2749 0.9235 -0.2674
vn -0.5093 0.8516 -0.1238
vn -0.7697 0.2995 -0.5639
vn 0.7696 0.2995 -0.5640
vn -0.5092 0.8517 0.1237
vn -0.7696 0.2995 0.5639
vn 0.7629 0.2993 0.5730
vn -0.0000 -0.0002 1.0000
vn -0.0000 0.8059 -0.5921
vn -0.0000 0.8059 -0.5920
vn 0.0002 0.8036 -0.5952
vn 0.0002 0.8034 -0.5954
vn -0.0085 0.9999 -0.0083
vn -0.0009 0.9975 -0.0704
vn 0.0003 0.8031 0.5959
vn 0.3450 0.8808 0.3243
vn -0.5093 0.8517 0.1238
vn -0.0042 0.1002 0.9950
vn -0.2749 0.9235 -0.2674
vn -0.7696 0.2995 -0.5639
vn -0.9782 0.2078 -0.0000
vn 0.9782 0.2079 -0.0000
vn 0.9781 0.2079 -0.0001
vn -0.0002 0.9997 0.0264
vn 0.0045 0.1846 -0.9828
vn -0.0002 0.9997 0.0240
vn 0.6041 0.7969 -0.0000
vn 0.7696 0.2995 -0.5639
vn 0.0045 0.1822 -0.9832
vn -0.0000 0.8066 0.5911
vn -0.0000 0.8032 -0.5957
vn -0.0000 -0.0001 -1.0000
vn -0.6037 0.7972 -0.0000
vn -0.0014 0.8203 0.5719
vn 0.9782 0.2078 -0.0000
vn -0.0380 0.9985 0.0389
vn -0.0000 0.0002 1.0000
vn 0.0009 0.9974 -0.0726
vn 0.0009 0.9975 -0.0706
vn 0.0049 0.3106 -0.9505
vn -0.6270 0.7791 -0.0000
vn -0.6398 0.7685 -0.0000
vn -0.6393 0.7690 -0.0000
vn 0.0049 0.3087 -0.9512
vn -0.5092 0.8517 0.1238
vn -0.7697 0.2995 0.5638
vn 0.7628 0.2993 0.5731
vt 0.541997 0.257689
vt 0.459401 0.340184
vt 0.459401 0.257689
vt 0.539300 0.589121
vt 0.537346 0.686593
vt 0.537346 0.589187
vt 0.529835 0.598473
vt 0.529835 0.680968
vt 0.604556 0.761403
vt 0.597045 0.849523
vt 0.597045 0.767029
vt 0.551295 0.250234
vt 0.541997 0.340184
vt 0.915713 0.378853
vt 0.922695 0.289357
vt 0.922695 0.371721
vt 0.348705 0.242440
vt 0.354931 0.138683
vt 0.354931 0.236222
vt 0.606510 0.761337
vt 0.604556 0.858809
vt 0.551881 0.347618
vt 0.553837 0.250297
vt 0.553837 0.347549
vt 0.913757 0.378917
vt 0.915713 0.281602
vt 0.564867 0.000293
vt 0.649173 0.009287
vt 0.572375 0.009287
vt 0.458815 0.132466
vt 0.452590 0.236222
vt 0.452590 0.138683
vt 0.348705 0.132466
vt 0.574206 0.099137
vt 0.572375 0.101273
vt 0.564867 0.110267
vt 0.649173 0.101273
vt 0.656682 0.110267
vt 0.100317 0.624445
vt 0.184912 0.615405
vt 0.192447 0.624379
vt 0.656682 0.000293
vt 0.107852 0.523620
vt 0.109648 0.613358
vt 0.107852 0.615460
vt 0.192447 0.514580
vt 0.184913 0.523565
vt 0.100317 0.514645
vt 0.183131 0.613306
vt 0.178131 0.531692
vt 0.183131 0.525730
vt 0.109648 0.525782
vt 0.114647 0.531737
vt 0.114647 0.607396
vt 0.178131 0.607351
vt 0.705225 0.758627
vt 0.706820 0.684867
vt 0.706820 0.756725
vt 0.767114 0.756682
vt 0.768709 0.758582
vt 0.767114 0.684824
vt 0.768709 0.682922
vt 0.705225 0.682968
vt 0.792328 0.570416
vt 0.732035 0.498601
vt 0.792328 0.498558
vt 0.647437 0.099137
vt 0.642455 0.017390
vt 0.647437 0.011422
vt 0.574206 0.011422
vt 0.579188 0.017390
vt 0.579188 0.093170
vt 0.642455 0.093170
vt 0.475826 0.697556
vt 0.474237 0.771432
vt 0.474237 0.699460
vt 0.414149 0.699460
vt 0.412559 0.697556
vt 0.414149 0.771432
vt 0.412559 0.773336
vt 0.475826 0.773336
vt 0.742392 0.277581
vt 0.802479 0.349553
vt 0.742392 0.349553
vt 0.548753 0.353585
vt 0.633349 0.362625
vt 0.556288 0.362570
vt 0.558084 0.452248
vt 0.556288 0.454410
vt 0.548753 0.463385
vt 0.633349 0.454465
vt 0.640883 0.463450
vt 0.640883 0.353651
vt 0.631567 0.452300
vt 0.626567 0.370679
vt 0.631567 0.364724
vt 0.558084 0.364672
vt 0.563083 0.370634
vt 0.563083 0.446293
vt 0.626568 0.446338
vt 0.704639 0.758627
vt 0.703044 0.684867
vt 0.704639 0.682968
vt 0.642750 0.684824
vt 0.641155 0.682922
vt 0.642750 0.756682
vt 0.641155 0.758582
vt 0.703044 0.756725
vt 0.792328 0.425486
vt 0.732035 0.353585
vt 0.792328 0.353628
vt 0.651240 0.242440
vt 0.566934 0.233446
vt 0.643732 0.233446
vt 0.643732 0.141460
vt 0.641901 0.231310
vt 0.641901 0.143595
vt 0.651240 0.132466
vt 0.566934 0.141460
vt 0.559425 0.132466
vt 0.559425 0.242440
vt 0.568670 0.143595
vt 0.573652 0.225343
vt 0.568670 0.231310
vt 0.636919 0.225343
vt 0.636919 0.149563
vt 0.573652 0.149563
vt 0.411973 0.773336
vt 0.410383 0.699460
vt 0.411972 0.697556
vt 0.350295 0.699460
vt 0.348705 0.697556
vt 0.348705 0.773336
vt 0.350295 0.771432
vt 0.410383 0.771432
vt 0.742392 0.132466
vt 0.802480 0.204438
vt 0.742392 0.204438
vt 0.657268 0.007749
vt 0.739865 0.090243
vt 0.657268 0.090243
vt 0.415699 0.773988
vt 0.417653 0.871461
vt 0.415699 0.871394
vt 0.408188 0.862108
vt 0.087531 0.750135
vt 0.095042 0.838255
vt 0.087531 0.832630
vt 0.739865 0.007749
vt 0.749162 0.097699
vt 0.938281 0.007489
vt 0.945263 0.097608
vt 0.938281 0.089853
vt 0.354931 0.346782
vt 0.348705 0.243026
vt 0.354931 0.249243
vt 0.095042 0.740849
vt 0.096996 0.838322
vt 0.345696 0.494128
vt 0.343740 0.396812
vt 0.345696 0.396876
vt 0.945263 0.000357
vt 0.947219 0.097677
vt 0.559425 0.353000
vt 0.643731 0.344006
vt 0.651240 0.353000
vt 0.452590 0.249243
vt 0.458815 0.353000
vt 0.452590 0.346782
vt 0.348705 0.353000
vt 0.458815 0.243026
vt 0.568764 0.254155
vt 0.566934 0.344006
vt 0.566934 0.252020
vt 0.643731 0.252020
vt 0.559425 0.243026
vt 0.651240 0.243026
vt 0.556288 0.564916
vt 0.640883 0.573836
vt 0.548753 0.573901
vt 0.631553 0.562699
vt 0.633349 0.473021
vt 0.633349 0.564861
vt 0.548753 0.464102
vt 0.640883 0.464036
vt 0.556288 0.473076
vt 0.563069 0.481130
vt 0.558070 0.562751
vt 0.558070 0.475175
vt 0.631553 0.475123
vt 0.626553 0.481085
vt 0.626553 0.556744
vt 0.343336 0.698790
vt 0.344931 0.625031
vt 0.344931 0.700690
vt 0.283042 0.698833
vt 0.281447 0.700735
vt 0.283042 0.626975
vt 0.281447 0.625076
vt 0.792014 0.574487
vt 0.731720 0.646388
vt 0.731720 0.574530
vt 0.637013 0.335902
vt 0.641996 0.254155
vt 0.641996 0.341870
vt 0.568764 0.341870
vt 0.573746 0.335902
vt 0.573746 0.260123
vt 0.281447 0.701321
vt 0.283036 0.775197
vt 0.281447 0.777101
vt 0.343124 0.703225
vt 0.344714 0.701321
vt 0.343124 0.775197
vt 0.344714 0.777101
vt 0.742392 0.276995
vt 0.802480 0.205023
vt 0.802480 0.276995
vt 0.200341 0.624379
vt 0.284936 0.615460
vt 0.292471 0.624445
vt 0.209672 0.525666
vt 0.207876 0.615405
vt 0.207876 0.523565
vt 0.284936 0.523620
vt 0.200341 0.514580
vt 0.292471 0.514645
vt 0.278155 0.607333
vt 0.283155 0.525719
vt 0.283155 0.613294
vt 0.209672 0.613242
vt 0.214671 0.607288
vt 0.214671 0.531628
vt 0.550348 0.686948
vt 0.548753 0.760706
vt 0.548753 0.685046
vt 0.610642 0.686991
vt 0.612237 0.685092
vt 0.610642 0.758849
vt 0.612237 0.760751
vt 0.792328 0.426115
vt 0.732035 0.497929
vt 0.732035 0.426072
vt 0.548753 0.684461
vt 0.633060 0.675467
vt 0.640568 0.684461
vt 0.556262 0.583481
vt 0.558092 0.673331
vt 0.556262 0.675467
vt 0.633060 0.583481
vt 0.548753 0.574487
vt 0.640568 0.574487
vt 0.626342 0.667364
vt 0.631324 0.585616
vt 0.631324 0.673331
vt 0.563075 0.667364
vt 0.563075 0.591584
vt 0.558092 0.585616
vt 0.538090 0.771432
vt 0.539679 0.697556
vt 0.539679 0.773336
vt 0.478002 0.771432
vt 0.476412 0.773336
vt 0.476412 0.697556
vt 0.478002 0.699460
vt 0.160405 0.733466
vt 0.100317 0.805438
vt 0.100317 0.733466
vt 0.219961 0.733740
vt 0.247969 0.733740
vt 0.247969 0.840824
vt 0.005326 0.627459
vt 0.099240 0.631776
vt 0.000786 0.631775
vt 0.851561 0.257731
vt 0.855705 0.382398
vt 0.851559 0.382391
vt 0.119663 0.393110
vt 0.231289 0.395849
vt 0.117090 0.395737
vt 0.654911 0.999290
vt 0.641155 0.884922
vt 0.654911 0.884932
vt 0.392583 0.864253
vt 0.406292 0.864253
vt 0.392583 0.995238
vt 0.831559 0.239824
vt 0.803550 0.239824
vt 0.831559 0.132740
vt 0.099620 0.631151
vt 0.095411 0.626987
vt 0.095411 0.519354
vt 0.094698 0.627459
vt 0.000784 0.514565
vt 0.094698 0.518883
vt 0.005326 0.518883
vt 0.879851 0.253005
vt 0.860436 0.257133
vt 0.879851 0.136600
vt 0.856291 0.132466
vt 0.860437 0.132472
vt 0.184322 0.944677
vt 0.165132 0.842158
vt 0.184322 0.846521
vt 0.117127 0.265006
vt 0.228849 0.267811
vt 0.119828 0.267664
vt 0.160992 0.949468
vt 0.165133 0.842158
vt 0.165133 0.949471
vt 0.228747 0.393111
vt 0.967012 0.683349
vt 0.980768 0.683339
vt 0.980768 0.797697
vt 0.961493 0.544090
vt 0.975202 0.413104
vt 0.975202 0.544090
vt 0.641155 0.681954
vt 0.641155 0.574870
vt 0.641642 0.574870
vt 0.119491 0.267851
vt 0.119944 0.392769
vt 0.119491 0.393014
vt 0.231546 0.264639
vt 0.117147 0.264940
vt 0.116866 0.264639
vt 0.730646 0.681954
vt 0.730646 0.682337
vt 0.641642 0.682337
vt 0.228921 0.393014
vt 0.228468 0.268096
vt 0.228921 0.267851
vt 0.116866 0.396226
vt 0.231265 0.395925
vt 0.231546 0.396226
vt 0.641642 0.681954
vt 0.641642 0.574487
vt 0.730646 0.574870
vt 0.856931 0.897443
vt 0.885035 0.808709
vt 0.885035 0.897463
vt 0.157513 0.806531
vt 0.129408 0.895305
vt 0.129408 0.806551
vt 0.004613 0.519354
vt 0.000413 0.631133
vt 0.000404 0.515191
vt 0.000329 0.631301
vt 0.005326 0.627459
vt 0.000802 0.631754
vt 0.000344 0.515069
vt 0.005326 0.518883
vt 0.004613 0.519354
vt 0.189049 0.842118
vt 0.208238 0.846913
vt 0.208238 0.945068
vt 0.117127 0.265003
vt 0.116431 0.395925
vt 0.116841 0.264656
vt 0.730646 0.574487
vt 0.731133 0.574870
vt 0.730687 0.681954
vt 0.095093 0.627197
vt 0.099694 0.631300
vt 0.099224 0.631756
vt 0.094698 0.518883
vt 0.099680 0.515069
vt 0.095411 0.519354
vt 0.120220 0.393418
vt 0.120398 0.393094
vt 0.228192 0.393418
vt 0.120220 0.267447
vt 0.228014 0.267772
vt 0.120398 0.267772
vt 0.184908 0.842121
vt 0.189049 0.842118
vt 0.189049 0.949431
vt 0.231981 0.395925
vt 0.231366 0.395896
vt 0.231287 0.265011
vt 0.231571 0.264656
vt 0.559248 0.113172
vt 0.465334 0.117489
vt 0.469875 0.113172
vt 0.875219 0.515013
vt 0.879365 0.390346
vt 0.879363 0.515007
vt 0.347460 0.131389
vt 0.344884 0.128765
vt 0.344887 0.003410
vt 0.233275 0.131549
vt 0.235800 0.128763
vt 0.783642 0.996281
vt 0.797398 0.881932
vt 0.797398 0.996290
vt 0.343153 0.527797
vt 0.329444 0.527797
vt 0.329444 0.396812
vt 0.249040 0.733740
vt 0.277049 0.733740
vt 0.277049 0.840824
vt 0.855949 0.897399
vt 0.827845 0.897419
vt 0.855949 0.808645
vt 0.469875 0.004596
vt 0.465334 0.000279
vt 0.559248 0.004596
vt 0.928162 0.687759
vt 0.908973 0.790709
vt 0.908973 0.683396
vt 0.235803 0.003408
vt 0.347412 0.000624
vt 0.927423 0.389280
vt 0.923281 0.389283
vt 0.927423 0.281967
vt 0.660569 0.759219
vt 0.664714 0.883886
vt 0.660570 0.883880
vt 0.908974 0.790709
vt 0.904832 0.790706
vt 0.908974 0.683396
vt 0.295203 0.982792
vt 0.281447 0.982802
vt 0.295203 0.868434
vt 0.967220 0.808181
vt 0.980929 0.939167
vt 0.967220 0.939167
vt 0.280860 0.625414
vt 0.280860 0.732497
vt 0.280373 0.732497
vt 0.191369 0.732880
vt 0.191369 0.732497
vt 0.280373 0.732880
vt 0.280373 0.625414
vt 0.191369 0.625031
vt 0.280373 0.625031
vt 0.564218 0.116962
vt 0.559960 0.112700
vt 0.563789 0.000278
vt 0.559960 0.112700
vt 0.564164 0.000916
vt 0.564169 0.116863
vt 0.559248 0.004596
vt 0.564230 0.000783
vt 0.559960 0.005068
vt 0.946611 0.384917
vt 0.927422 0.389280
vt 0.946611 0.286761
vt 0.946604 0.286522
vt 0.927423 0.281967
vt 0.927431 0.281534
vt 0.898778 0.510879
vt 0.898778 0.394474
vt 0.344151 0.128747
vt 0.344330 0.129072
vt 0.236536 0.128747
vt 0.344605 0.003750
vt 0.345059 0.128668
vt 0.344605 0.128423
vt 0.348119 0.131579
vt 0.347503 0.131550
vt 0.347424 0.000665
vt 0.233003 0.000293
vt 0.347423 0.000572
vt 0.233284 0.000594
vt 0.190882 0.625414
vt 0.191369 0.625414
vt 0.190882 0.732497
vt 0.475821 0.863203
vt 0.447717 0.774429
vt 0.475821 0.774449
vt 0.464879 0.117014
vt 0.469480 0.112910
vt 0.465352 0.117467
vt 0.469875 0.004596
vt 0.464879 0.000754
vt 0.465352 0.000301
vt 0.928155 0.687498
vt 0.908974 0.683396
vt 0.908982 0.682926
vt 0.641155 0.763347
vt 0.235628 0.003505
vt 0.236082 0.128423
vt 0.235628 0.128668
vt 0.236357 0.129072
vt 0.233284 0.131579
vt 0.347684 0.131880
vt 0.233003 0.131880
vt 0.233264 0.000660
vt 0.232568 0.131579
vt 0.232978 0.000310
vt 0.850172 0.574761
vt 0.822163 0.681845
vt 0.822163 0.574761
vt 0.204661 0.509219
vt 0.200454 0.397427
vt 0.204661 0.401587
vt 0.880442 0.132993
vt 0.908546 0.132973
vt 0.880442 0.221747
vt 0.205374 0.401115
vt 0.299288 0.396797
vt 0.294746 0.401115
vt 0.003426 0.135638
vt 0.115149 0.132836
vt 0.112612 0.135583
vt 0.855218 0.515007
vt 0.851073 0.390340
vt 0.855218 0.390346
vt 0.212966 0.949431
vt 0.208825 0.949434
vt 0.212966 0.842118
vt 0.003691 0.261028
vt 0.000954 0.263570
vt 0.115151 0.263676
vt 0.989498 0.544090
vt 0.975789 0.544090
vt 0.989498 0.413104
vt 0.295459 0.401587
vt 0.299666 0.397427
vt 0.295459 0.509219
vt 0.072043 0.956785
vt 0.076184 0.849475
vt 0.076184 0.956788
vt 0.112610 0.260938
vt 0.957356 0.244976
vt 0.971065 0.113990
vt 0.971065 0.244976
vt 0.349192 0.696971
vt 0.349192 0.696588
vt 0.438197 0.696971
vt 0.348705 0.589504
vt 0.348705 0.696588
vt 0.003353 0.135678
vt 0.003807 0.260596
vt 0.003353 0.260841
vt 0.004261 0.260921
vt 0.112055 0.261245
vt 0.004083 0.261245
vt 0.438684 0.589504
vt 0.438684 0.696588
vt 0.438197 0.589504
vt 0.115409 0.132466
vt 0.115128 0.132767
vt 0.001009 0.132767
vt 0.349192 0.589504
vt 0.349192 0.589121
vt 0.850172 0.681845
vt 0.200377 0.513533
vt 0.205374 0.509691
vt 0.200850 0.513986
vt 0.299288 0.514008
vt 0.205374 0.509691
vt 0.294746 0.509691
vt 0.200392 0.397302
vt 0.205374 0.401115
vt 0.204661 0.401587
vt 0.232155 0.945068
vt 0.212965 0.949432
vt 0.232155 0.846913
vt 0.000954 0.132949
vt 0.324879 0.982802
vt 0.338635 0.868434
vt 0.338635 0.982792
vt 0.438197 0.589121
vt 0.190882 0.733740
vt 0.218890 0.733740
vt 0.190882 0.840824
vt 0.281837 0.866947
vt 0.309942 0.778214
vt 0.309942 0.866967
vt 0.295141 0.509429
vt 0.299742 0.513532
vt 0.299272 0.513988
vt 0.294746 0.401115
vt 0.299728 0.397302
vt 0.295459 0.401587
vt 0.854903 0.557452
vt 0.874318 0.561580
vt 0.874318 0.677985
vt 0.854904 0.682113
vt 0.112784 0.260841
vt 0.112330 0.260596
vt 0.112330 0.135923
vt 0.115844 0.263752
vt 0.115228 0.263723
vt 0.115149 0.132838
vt 0.000728 0.264053
vt 0.115128 0.263752
vt 0.115409 0.264053
vt 0.115434 0.132483
vt 0.475625 0.979062
vt 0.489381 0.864713
vt 0.489381 0.979071
vt 0.058451 0.741057
vt 0.086460 0.741057
vt 0.086460 0.848141
vt 0.453049 0.583760
vt 0.448846 0.471976
vt 0.453049 0.476128
vt 0.761298 0.879752
vt 0.741883 0.883880
vt 0.741884 0.759219
vt 0.003528 0.267754
vt 0.000987 0.265015
vt 0.112612 0.267756
vt 0.737739 0.883886
vt 0.003426 0.393055
vt 0.115151 0.395849
vt 0.000955 0.395746
vt 0.995114 0.797741
vt 0.981358 0.683373
vt 0.995114 0.683383
vt 0.362414 0.995238
vt 0.348705 0.995238
vt 0.362414 0.864253
vt 0.189484 0.840824
vt 0.161476 0.840824
vt 0.189484 0.733740
vt 0.543134 0.584232
vt 0.449220 0.588550
vt 0.453762 0.584232
vt 0.449220 0.471339
vt 0.543134 0.475656
vt 0.453762 0.475656
vt 0.884691 0.120832
vt 0.865277 0.124960
vt 0.884691 0.004427
vt 0.071456 0.951994
vt 0.052267 0.849475
vt 0.071456 0.853838
vt 0.861132 0.124966
vt 0.865275 0.000298
vt 0.048126 0.956785
vt 0.052267 0.849475
vt 0.052267 0.956788
vt 0.024210 0.956751
vt 0.028351 0.849435
vt 0.028351 0.956748
vt 0.112446 0.393201
vt 0.111877 0.393094
vt 0.112055 0.393418
vt 0.004083 0.393418
vt 0.112055 0.267447
vt 0.004261 0.267772
vt 0.004083 0.267447
vt 0.003807 0.268096
vt 0.003376 0.393002
vt 0.003353 0.267851
vt 0.001009 0.395925
vt 0.115409 0.396226
vt 0.000728 0.396226
vt 0.528762 0.696971
vt 0.439757 0.696971
vt 0.528762 0.696588
vt 0.913387 0.089531
vt 0.885283 0.089511
vt 0.885283 0.000757
vt 0.448765 0.588074
vt 0.453367 0.583971
vt 0.449238 0.588527
vt 0.448780 0.471843
vt 0.453762 0.475656
vt 0.453049 0.476128
vt 0.028350 0.956749
vt 0.047540 0.854230
vt 0.047540 0.952385
vt 0.761298 0.763347
vt 0.529249 0.696588
vt 0.528762 0.589504
vt 0.529249 0.589504
vt 0.528762 0.589185
vt 0.439757 0.589504
vt 0.439757 0.589121
vt 0.543847 0.476128
vt 0.548057 0.471963
vt 0.543847 0.583760
vt 0.543530 0.583971
vt 0.548130 0.588073
vt 0.547660 0.588529
vt 0.548117 0.471843
vt 0.543847 0.476128
vt 0.115844 0.395925
vt 0.115228 0.395896
vt 0.115149 0.265011
vt 0.115434 0.264656
vt 0.295793 0.868444
vt 0.309549 0.868434
vt 0.309549 0.982792
vt 0.539300 0.686660
vt 0.551295 0.347640
vt 0.606510 0.858876
vt 0.551881 0.250234
vt 0.913756 0.281533
vt 0.458815 0.242440
vt 0.732035 0.570459
vt 0.802479 0.277581
vt 0.732035 0.425443
vt 0.802480 0.132466
vt 0.417653 0.773922
vt 0.408188 0.779613
vt 0.749162 0.000293
vt 0.096996 0.740783
vt 0.343740 0.494196
vt 0.947219 0.000293
vt 0.563069 0.556789
vt 0.343336 0.626933
vt 0.792014 0.646345
vt 0.637013 0.260123
vt 0.283036 0.703225
vt 0.742392 0.205023
vt 0.278155 0.531673
vt 0.550348 0.758806
vt 0.792328 0.497972
vt 0.626342 0.591584
vt 0.538090 0.699460
vt 0.160405 0.805438
vt 0.856931 0.808689
vt 0.004613 0.626987
vt 0.189049 0.949432
vt 0.832145 0.378264
vt 0.832145 0.261859
vt 0.855705 0.257725
vt 0.406292 0.995238
vt 0.641155 0.999281
vt 0.803550 0.132740
vt 0.099239 0.514565
vt 0.099611 0.515208
vt 0.165132 0.949471
vt 0.231317 0.265112
vt 0.856291 0.257139
vt 0.160992 0.842155
vt 0.961493 0.413104
vt 0.967012 0.797707
vt 0.117147 0.395925
vt 0.231265 0.264940
vt 0.116967 0.396070
vt 0.219961 0.840824
vt 0.004613 0.626987
vt 0.000798 0.514583
vt 0.208231 0.945330
vt 0.189058 0.949901
vt 0.189050 0.949431
vt 0.165133 0.842158
vt 0.165141 0.841688
vt 0.184315 0.846259
vt 0.119944 0.268096
vt 0.184908 0.949434
vt 0.157513 0.895285
vt 0.099226 0.514583
vt 0.189050 0.842119
vt 0.189058 0.841685
vt 0.208231 0.846673
vt 0.184315 0.944916
vt 0.165143 0.949904
vt 0.165134 0.949471
vt 0.228014 0.393094
vt 0.228192 0.267447
vt 0.228468 0.392769
vt 0.807320 0.107651
vt 0.779312 0.107651
vt 0.779312 0.000567
vt 0.927422 0.281967
vt 0.875219 0.390340
vt 0.343153 0.396812
vt 0.783642 0.881922
vt 0.281447 0.868444
vt 0.249040 0.840824
vt 0.447717 0.863183
vt 0.827845 0.808665
vt 0.469162 0.112700
vt 0.464956 0.116858
vt 0.464955 0.000907
vt 0.469163 0.005067
vt 0.641155 0.879752
vt 0.233227 0.000784
vt 0.664714 0.759213
vt 0.904832 0.683393
vt 0.980929 0.808181
vt 0.236357 0.003101
vt 0.344329 0.003101
vt 0.344151 0.003426
vt 0.233105 0.131727
vt 0.807320 0.000567
vt 0.559960 0.005068
vt 0.563774 0.117470
vt 0.563789 0.117489
vt 0.563776 0.000296
vt 0.928162 0.785915
vt 0.928155 0.786155
vt 0.908983 0.791142
vt 0.908974 0.790709
vt 0.345059 0.003505
vt 0.347709 0.000310
vt 0.469162 0.005068
vt 0.946604 0.385179
vt 0.927431 0.389750
vt 0.927423 0.389280
vt 0.236536 0.003426
vt 0.236082 0.003750
vt 0.923281 0.281970
vt 0.347403 0.131579
vt 0.874633 0.510879
vt 0.281837 0.778193
vt 0.908546 0.221727
vt 0.438197 0.696588
vt 0.200454 0.513379
vt 0.851073 0.515013
vt 0.975789 0.413104
vt 0.218890 0.840824
vt 0.212965 0.842118
vt 0.095373 0.951993
vt 0.076183 0.956788
vt 0.076183 0.849474
vt 0.072043 0.849472
vt 0.208825 0.842121
vt 0.957356 0.113990
vt 0.475625 0.864703
vt 0.111877 0.260921
vt 0.004083 0.135274
vt 0.111877 0.135599
vt 0.004261 0.135599
vt 0.003807 0.135923
vt 0.000831 0.132611
vt 0.000988 0.263683
vt 0.000293 0.132767
vt 0.204661 0.509219
vt 0.200833 0.514008
vt 0.200833 0.396798
vt 0.200846 0.396815
vt 0.095373 0.853838
vt 0.874633 0.394474
vt 0.232148 0.945330
vt 0.212974 0.949901
vt 0.212966 0.949431
vt 0.076184 0.849475
vt 0.076192 0.849005
vt 0.095366 0.853576
vt 0.112055 0.135274
vt 0.000703 0.264036
vt 0.000728 0.132466
vt 0.324879 0.868444
vt 0.299666 0.513379
vt 0.299274 0.396815
vt 0.212966 0.842119
vt 0.212974 0.841685
vt 0.232148 0.846673
vt 0.095366 0.952233
vt 0.076193 0.957221
vt 0.076185 0.956788
vt 0.112784 0.135678
vt 0.850758 0.557446
vt 0.850758 0.682119
vt 0.001009 0.263752
vt 0.913387 0.000777
vt 0.439757 0.696587
vt 0.451747 0.611111
vt 0.448840 0.587923
vt 0.737739 0.759213
vt 0.348705 0.864253
vt 0.161476 0.733740
vt 0.886017 0.897419
vt 0.886017 0.808665
vt 0.914122 0.808645
vt 0.547675 0.588549
vt 0.547675 0.471339
vt 0.547987 0.587785
vt 0.052267 0.956788
vt 0.115181 0.265116
vt 0.861132 0.000293
vt 0.048126 0.849472
vt 0.024210 0.849438
vt 0.952925 0.939167
vt 0.952925 0.808181
vt 0.966634 0.808181
vt 0.981358 0.797731
vt 0.058451 0.848141
vt 0.004261 0.393094
vt 0.000293 0.264940
vt 0.000830 0.264792
vt 0.000989 0.395859
vt 0.112330 0.392769
vt 0.112330 0.268096
vt 0.112784 0.267851
vt 0.111877 0.267772
vt 0.115128 0.395925
vt 0.000728 0.264639
vt 0.115128 0.264940
vt 0.001009 0.264940
vt 0.115409 0.264639
vt 0.439757 0.696588
vt 0.439270 0.696588
vt 0.439351 0.589504
vt 0.914122 0.897399
vt 0.449234 0.471356
vt 0.047533 0.952647
vt 0.028360 0.957218
vt 0.028352 0.956748
vt 0.052268 0.849475
vt 0.052276 0.849005
vt 0.071449 0.853576
vt 0.000703 0.396209
vt 0.295793 0.982802
vt 0.547662 0.471356
vt 0.028350 0.849435
vt 0.028352 0.849435
vt 0.028360 0.849002
vt 0.047533 0.853990
vt 0.071449 0.952233
vt 0.052277 0.957221
vt 0.052268 0.956788
vt 0.112784 0.393014
vt 0.966634 0.939167
s 0
usemtl pied-colonne
f 511/1/1 507/2/1 509/3/1
f 537/4/2 516/5/2 525/6/2
f 514/7/3 517/5/3 508/8/3
f 519/9/4 512/10/4 510/11/4
f 522/12/5 4/13/5 2/1/5
f 515/14/6 1/15/6 3/16/6
f 539/17/7 536/18/7 534/19/7
f 531/20/8 523/21/8 520/9/8
f 535/22/9 8/23/9 6/24/9
f 527/25/10 5/26/10 7/14/10
f 548/27/11 581/28/11 583/29/11
f 546/30/12 532/31/12 529/32/12
f 543/33/13 11/32/13 12/18/13
f 9/31/14 540/17/14 10/19/14
f 35/29/15 41/34/15 37/35/15
f 52/36/11 580/37/11 544/38/11
f 16/39/16 549/40/16 14/41/16
f 544/38/11 581/28/11 547/42/11
f 18/43/17 24/44/17 20/45/17
f 642/46/16 549/40/16 550/47/16
f 645/48/16 550/47/16 552/43/16
f 645/48/16 551/45/16 16/39/16
f 553/49/16 558/50/16 554/51/16
f 551/45/18 553/49/18 549/40/18
f 19/40/19 21/51/19 17/47/19
f 550/47/20 556/52/20 552/43/20
f 554/51/16 559/53/16 556/52/16
f 556/52/16 561/54/16 555/44/16
f 553/49/16 561/54/16 560/55/16
f 567/56/16 569/57/16 572/58/16
f 567/56/16 570/59/16 28/60/16
f 28/60/16 568/61/16 26/62/16
f 563/63/16 568/61/16 569/57/16
f 577/64/16 575/65/16 573/66/16
f 52/36/11 583/29/11 582/35/11
f 584/67/11 589/68/11 585/69/11
f 582/35/21 584/67/21 580/37/21
f 34/28/22 40/67/22 38/69/22
f 581/28/23 587/70/23 583/29/23
f 585/69/11 590/71/11 587/70/11
f 587/70/11 592/72/11 586/34/11
f 584/67/11 592/72/11 591/73/11
f 598/74/11 600/75/11 603/76/11
f 598/74/11 601/77/11 45/78/11
f 45/78/11 599/79/11 43/80/11
f 594/81/11 599/79/11 600/75/11
f 608/82/11 606/83/11 604/84/11
f 677/85/24 612/86/24 614/87/24
f 54/87/25 60/88/25 56/89/25
f 678/90/24 611/91/24 541/92/24
f 541/92/24 612/86/24 15/93/24
f 678/90/24 614/87/24 613/89/24
f 615/94/24 620/95/24 616/96/24
f 613/89/26 615/94/26 611/91/26
f 55/91/27 57/96/27 53/86/27
f 612/86/28 618/97/28 614/87/28
f 616/96/24 621/98/24 618/97/24
f 618/97/24 623/99/24 617/88/24
f 615/94/24 623/99/24 622/100/24
f 625/101/24 634/102/24 629/103/24
f 629/103/24 632/104/24 64/105/24
f 64/105/24 630/106/24 62/107/24
f 625/101/24 630/106/24 631/108/24
f 639/109/24 637/110/24 635/111/24
f 51/112/29 647/113/29 649/114/29
f 75/115/30 77/116/30 79/117/30
f 71/118/29 646/119/29 643/120/29
f 13/121/29 646/119/29 647/113/29
f 51/112/29 648/115/29 71/118/29
f 650/122/29 655/123/29 651/124/29
f 648/115/31 650/122/31 646/119/31
f 74/119/32 76/124/32 72/113/32
f 647/113/33 653/116/33 649/114/33
f 651/124/29 656/125/29 653/116/29
f 653/116/29 658/126/29 652/117/29
f 650/122/29 658/126/29 657/127/29
f 660/128/29 669/129/29 664/130/29
f 664/130/29 667/131/29 83/132/29
f 81/133/29 667/131/29 665/134/29
f 660/128/29 665/134/29 666/135/29
f 674/136/29 672/137/29 670/138/29
f 679/139/1 683/140/1 681/141/1
f 688/142/8 709/143/8 697/144/8
f 686/145/4 689/142/4 698/144/4
f 684/146/3 691/147/3 682/148/3
f 92/149/5 694/150/5 90/140/5
f 89/151/6 687/152/6 91/153/6
f 708/154/7 711/155/7 706/156/7
f 695/157/2 703/158/2 692/147/2
f 96/159/9 707/160/9 94/161/9
f 93/162/10 699/163/10 95/152/10
f 720/164/29 753/165/29 719/166/29
f 704/167/12 718/168/12 701/169/12
f 99/169/14 715/170/14 100/154/14
f 97/167/13 712/155/13 158/171/13
f 129/172/34 123/173/34 125/174/34
f 752/175/29 140/176/29 716/177/29
f 721/178/16 104/179/16 102/180/16
f 753/165/29 716/177/29 719/166/29
f 112/181/17 106/182/17 108/183/17
f 814/184/16 721/178/16 102/180/16
f 817/185/16 722/186/16 814/184/16
f 723/183/16 817/185/16 104/179/16
f 730/187/16 725/188/16 726/189/16
f 725/188/20 723/183/20 721/178/20
f 109/189/19 107/178/19 105/186/19
f 728/190/18 722/186/18 724/182/18
f 731/191/16 726/189/16 728/190/16
f 733/192/16 728/190/16 727/181/16
f 725/188/16 733/192/16 727/181/16
f 744/193/16 735/194/16 739/195/16
f 742/196/16 739/195/16 116/197/16
f 740/198/16 116/197/16 114/199/16
f 735/194/16 740/198/16 114/199/16
f 747/200/16 749/201/16 745/202/16
f 140/176/29 755/173/29 720/164/29
f 761/203/29 756/204/29 757/205/29
f 756/204/33 754/174/33 752/175/33
f 122/165/32 128/204/32 124/175/32
f 759/206/31 753/165/31 755/173/31
f 762/207/29 757/205/29 759/206/29
f 764/208/29 759/206/29 758/172/29
f 756/204/29 764/208/29 758/172/29
f 770/209/29 772/210/29 766/211/29
f 773/212/29 770/209/29 133/213/29
f 771/214/29 133/213/29 131/215/29
f 766/211/29 771/214/29 131/215/29
f 778/216/29 780/217/29 776/218/29
f 849/219/24 784/220/24 103/221/24
f 148/222/25 142/223/25 144/224/25
f 783/225/24 850/226/24 713/227/24
f 784/220/24 713/227/24 103/221/24
f 850/226/24 786/223/24 849/219/24
f 792/228/24 787/229/24 788/230/24
f 787/229/35 785/224/35 783/225/35
f 145/230/27 143/225/27 141/220/27
f 790/231/36 784/220/36 786/223/36
f 793/232/24 788/230/24 790/231/24
f 795/233/24 790/231/24 789/222/24
f 787/229/24 795/233/24 789/222/24
f 806/234/24 797/235/24 801/236/24
f 804/237/24 801/236/24 152/238/24
f 802/239/24 152/238/24 150/240/24
f 797/235/24 802/239/24 150/240/24
f 809/241/24 811/242/24 807/243/24
f 139/244/11 819/245/11 101/246/11
f 163/247/15 165/248/15 161/249/15
f 818/250/11 159/251/11 815/252/11
f 101/246/11 818/250/11 815/252/11
f 820/247/11 139/244/11 159/251/11
f 827/253/11 822/254/11 823/255/11
f 822/254/23 820/247/23 818/250/23
f 164/255/37 162/250/37 160/245/37
f 825/248/21 819/245/21 821/249/21
f 828/256/11 823/255/11 825/248/11
f 830/257/11 825/248/11 824/258/11
f 822/254/11 830/257/11 824/258/11
f 841/259/11 832/260/11 836/261/11
f 839/262/11 836/261/11 171/263/11
f 169/264/11 839/262/11 171/263/11
f 832/260/11 837/265/11 169/264/11
f 844/266/11 846/267/11 842/268/11
s 1
f 854/269/11 179/270/11 874/271/11
f 218/272/38 224/273/39 881/274/38
f 889/275/40 903/276/41 189/277/42
f 242/278/43 197/279/44 200/280/45
f 968/281/24 204/282/24 198/283/24
f 907/284/11 202/285/11 195/286/11
f 926/287/29 214/288/29 213/289/29
f 225/290/46 216/291/47 937/292/48
f 931/293/39 224/273/39 218/272/38
f 885/294/49 222/295/50 870/296/51
f 943/297/52 239/298/53 230/299/52
f 950/300/54 234/301/53 239/298/53
f 940/302/55 186/303/56 226/304/56
f 249/305/57 961/306/58 899/307/59
f 953/308/24 235/309/24 946/310/24
f 197/279/44 951/311/60 961/306/58
f 951/311/60 197/279/44 242/278/43
f 257/312/16 971/313/16 912/314/16
f 258/315/29 252/316/29 972/317/29
f 855/318/61 851/319/62 864/320/62
f 894/321/63 904/322/63 191/323/63
f 910/324/64 909/325/65 913/326/65
f 975/327/66 920/328/66 921/329/66
f 964/330/67 965/331/67 244/332/67
f 969/333/68 908/334/69 248/335/69
f 974/336/61 855/318/61 864/320/62
f 976/320/70 863/337/70 924/338/70
f 217/339/24 210/340/24 919/341/24
f 219/342/16 178/343/16 862/344/16
f 184/345/71 879/346/72 875/347/73
f 877/348/74 181/349/75 880/350/76
f 886/351/77 182/352/78 183/353/79
f 238/354/80 227/355/80 884/356/80
f 914/357/81 906/358/82 911/359/83
f 922/360/70 924/338/70 863/337/70
f 927/361/84 916/362/84 977/338/84
f 215/363/85 938/364/85 939/365/85
f 220/366/86 942/367/87 221/368/88
f 956/369/89 192/370/89 240/371/90
f 193/372/91 245/373/92 957/374/91
f 960/375/16 236/376/16 892/377/16
f 973/378/93 967/379/94 966/380/95
f 973/378/93 966/380/95 970/381/96
f 264/382/97 310/383/97 1058/384/97
f 1029/385/98 1014/386/99 274/387/100
f 287/388/101 1019/389/102 277/390/103
f 1019/389/102 284/391/104 329/392/105
f 291/393/24 1092/394/24 285/395/24
f 289/396/29 1034/397/29 282/398/29
f 300/399/11 1055/400/11 301/401/11
f 297/402/16 1060/403/16 989/404/16
f 308/405/106 316/406/107 998/407/108
f 1066/408/109 272/409/110 319/410/109
f 1087/411/111 334/412/112 277/390/103
f 1074/413/16 1086/414/16 1017/415/16
f 320/416/113 330/417/114 1076/418/113
f 321/419/24 1023/420/24 1072/421/24
f 1096/422/16 340/423/16 1038/424/16
f 337/425/11 341/426/11 1097/427/11
f 978/428/115 982/429/116 1101/430/116
f 1045/431/66 1100/432/66 1046/433/66
f 1103/434/70 1047/435/117 990/436/70
f 985/430/66 1046/433/66 1100/432/66
f 991/434/115 978/428/115 1101/430/116
f 1003/437/118 263/382/119 262/438/120
f 998/407/108 316/406/107 1010/439/121
f 992/440/122 270/441/123 1005/442/124
f 265/443/86 1011/444/125 266/445/88
f 313/446/80 323/447/80 1009/448/80
f 1007/449/126 1016/450/126 1018/451/126
f 271/452/127 274/387/100 1004/453/52
f 279/454/90 1083/455/90 1024/456/89
f 281/457/67 278/458/67 1031/459/67
f 1033/460/93 1035/461/94 1040/462/128
f 1036/463/129 1039/464/129 336/465/129
f 1052/466/61 1102/467/61 1053/468/130
f 295/469/24 304/470/24 1044/471/24
f 1064/472/131 302/473/131 1065/474/131
f 306/475/132 1068/476/133 1067/477/134
f 309/478/135 1071/479/135 1070/480/135
f 317/481/136 320/416/113 1076/418/113
f 327/482/63 325/483/63 1077/484/63
f 1024/456/89 1083/455/90 324/485/89
f 1093/486/137 1094/487/138 333/488/137
f 1099/489/139 1098/490/140 1095/491/141
f 345/492/11 353/493/11 1129/494/11
f 1121/495/142 1130/496/143 346/497/144
f 1115/498/16 350/499/16 344/500/16
f 1126/501/50 1137/502/145 391/503/146
f 361/504/147 418/505/148 364/506/149
f 1145/507/42 1163/508/150 357/509/113
f 1148/510/16 408/511/16 358/512/16
f 407/513/151 368/514/152 361/504/147
f 407/513/151 370/515/153 368/514/152
f 1168/516/11 373/517/11 367/518/11
f 1194/519/154 397/520/155 387/521/156
f 1214/522/24 402/523/24 1204/524/24
f 370/515/153 1212/525/157 364/506/149
f 1212/525/157 370/515/153 407/513/151
f 423/526/29 412/527/29 1228/528/29
f 1111/529/66 1110/530/66 1178/531/158
f 1119/532/61 1232/530/62 1107/533/62
f 1151/534/63 1164/535/63 362/536/63
f 363/537/159 405/538/90 1156/539/159
f 1184/540/115 1185/541/84 1233/542/115
f 1225/543/64 417/544/64 1226/545/65
f 1231/546/70 1116/547/70 1181/542/70
f 1232/530/62 1119/532/61 1118/546/61
f 353/493/11 345/492/11 1106/548/11
f 1132/549/74 348/550/75 1135/551/76
f 394/552/160 349/553/161 1190/554/162
f 1142/555/77 351/556/78 352/557/163
f 1140/558/164 1149/559/164 356/560/80
f 361/504/147 368/514/152 1172/561/165
f 376/562/16 371/563/16 1170/564/16
f 1179/565/70 1181/542/70 1116/547/70
f 1183/566/29 385/567/29 384/568/29
f 388/569/24 381/570/24 1177/571/24
f 386/572/166 1196/573/166 1197/574/166
f 389/575/167 1200/576/168 390/577/169
f 401/578/53 392/579/52 1201/580/52
f 1201/580/52 398/581/53 401/578/53
f 1208/582/170 406/583/170 1209/584/67
f 1229/585/93 1221/586/94 1220/587/95
f 1224/588/138 1223/589/69 414/590/69
f 1229/585/93 1220/587/95 1227/591/96
f 420/592/24 415/593/24 1222/594/24
f 1236/595/11 1247/596/11 1255/597/11
f 1256/598/171 1267/599/172 431/600/173
f 1259/601/174 1270/602/175 436/603/176
f 1284/604/177 496/605/178 440/606/179
f 1270/602/175 443/607/180 436/603/176
f 1276/608/181 447/609/182 444/610/183
f 1348/611/24 503/612/24 448/613/24
f 1294/614/11 451/615/11 445/616/11
f 1309/617/29 468/618/29 459/619/29
f 1316/620/184 1324/621/185 463/622/186
f 1265/623/187 467/624/188 1252/625/189
f 1327/626/127 1333/627/100 477/628/190
f 1323/629/56 1272/630/191 472/631/191
f 486/632/192 480/633/193 1333/627/100
f 489/634/24 481/635/24 1330/636/24
f 490/637/16 482/638/16 1274/639/16
f 447/609/182 1338/640/194 440/606/179
f 1281/641/195 487/642/195 1282/643/196
f 1283/644/197 1341/645/198 441/646/199
f 442/647/200 438/648/200 1289/649/200
f 446/650/137 494/651/201 1295/652/137
f 1304/653/66 1305/654/66 1357/655/66
f 1250/656/24 425/657/24 1303/658/24
f 1258/659/202 432/660/202 1261/661/202
f 1266/662/77 433/663/78 434/664/163
f 483/665/80 473/666/164 1264/667/80
f 436/603/176 435/668/203 1259/601/174
f 1299/669/84 1356/670/115 1310/671/115
f 1307/672/204 1358/673/204 1244/674/204
f 1311/675/205 475/676/206 461/677/207
f 460/678/166 1321/679/166 1322/680/166
f 465/624/208 1326/681/87 466/682/209
f 1354/683/210 1347/684/94 1346/685/95
f 1354/683/210 1346/685/95 1352/686/96
f 504/687/16 495/688/16 1297/689/16
s 0
f 511/1/1 513/13/1 507/2/1
f 537/4/2 528/690/2 516/5/2
f 514/7/3 526/6/3 517/5/3
f 519/9/4 521/21/4 512/10/4
f 522/12/5 524/691/5 4/13/5
f 515/14/6 518/26/6 1/15/6
f 539/17/7 542/33/7 536/18/7
f 531/20/8 533/692/8 523/21/8
f 535/22/9 538/693/9 8/23/9
f 527/25/10 530/694/10 5/26/10
f 548/27/11 547/42/11 581/28/11
f 546/30/12 644/695/12 532/31/12
f 543/33/13 545/30/13 11/32/13
f 9/31/14 70/695/14 540/17/14
f 35/29/211 39/70/211 41/34/211
f 52/36/11 582/35/11 580/37/11
f 16/39/16 551/45/16 549/40/16
f 544/38/11 580/37/11 581/28/11
f 18/43/212 22/52/212 24/44/212
f 642/46/16 14/41/16 549/40/16
f 645/48/16 642/46/16 550/47/16
f 645/48/16 552/43/16 551/45/16
f 553/49/16 560/55/16 558/50/16
f 551/45/18 555/44/18 553/49/18
f 19/40/19 23/49/19 21/51/19
f 550/47/20 554/51/20 556/52/20
f 554/51/16 558/50/16 559/53/16
f 556/52/16 559/53/16 561/54/16
f 553/49/16 555/44/16 561/54/16
f 567/56/16 563/63/16 569/57/16
f 567/56/16 572/58/16 570/59/16
f 28/60/16 570/59/16 568/61/16
f 563/63/16 26/62/16 568/61/16
f 577/64/16 578/696/16 575/65/16
f 52/36/11 548/27/11 583/29/11
f 584/67/11 591/73/11 589/68/11
f 582/35/21 586/34/21 584/67/21
f 34/28/37 36/37/37 40/67/37
f 581/28/23 585/69/23 587/70/23
f 585/69/11 589/68/11 590/71/11
f 587/70/11 590/71/11 592/72/11
f 584/67/11 586/34/11 592/72/11
f 598/74/11 594/81/11 600/75/11
f 598/74/11 603/76/11 601/77/11
f 45/78/11 601/77/11 599/79/11
f 594/81/11 43/80/11 599/79/11
f 608/82/11 609/697/11 606/83/11
f 677/85/24 15/93/24 612/86/24
f 54/87/213 58/97/213 60/88/213
f 678/90/24 613/89/24 611/91/24
f 541/92/24 611/91/24 612/86/24
f 678/90/24 677/85/24 614/87/24
f 615/94/24 622/100/24 620/95/24
f 613/89/36 617/88/36 615/94/36
f 55/91/27 59/94/27 57/96/27
f 612/86/28 616/96/28 618/97/28
f 616/96/24 620/95/24 621/98/24
f 618/97/24 621/98/24 623/99/24
f 615/94/24 617/88/24 623/99/24
f 625/101/24 631/108/24 634/102/24
f 629/103/24 634/102/24 632/104/24
f 64/105/24 632/104/24 630/106/24
f 625/101/24 62/107/24 630/106/24
f 639/109/24 640/698/24 637/110/24
f 51/112/29 13/121/29 647/113/29
f 75/115/34 73/114/34 77/116/34
f 71/118/29 648/115/29 646/119/29
f 13/121/29 643/120/29 646/119/29
f 51/112/29 649/114/29 648/115/29
f 650/122/29 657/127/29 655/123/29
f 648/115/31 652/117/31 650/122/31
f 74/119/214 78/122/214 76/124/214
f 647/113/33 651/124/33 653/116/33
f 651/124/29 655/123/29 656/125/29
f 653/116/29 656/125/29 658/126/29
f 650/122/29 652/117/29 658/126/29
f 660/128/29 666/135/29 669/129/29
f 664/130/29 669/129/29 667/131/29
f 81/133/29 83/132/29 667/131/29
f 660/128/29 81/133/29 665/134/29
f 674/136/29 675/699/29 672/137/29
f 679/139/1 685/149/1 683/140/1
f 688/142/8 700/700/8 709/143/8
f 686/145/4 680/701/4 689/142/4
f 684/146/3 693/157/3 691/147/3
f 92/149/5 696/702/5 694/150/5
f 89/151/6 690/162/6 687/152/6
f 708/154/7 714/170/7 711/155/7
f 695/157/2 705/703/2 703/158/2
f 96/159/9 710/704/9 707/160/9
f 93/162/10 702/705/10 699/163/10
f 720/164/29 755/173/29 753/165/29
f 704/167/12 816/171/12 718/168/12
f 99/169/14 717/168/14 715/170/14
f 97/167/13 98/156/13 712/155/13
f 129/172/34 127/206/34 123/173/34
f 752/175/29 754/174/29 140/176/29
f 721/178/16 723/183/16 104/179/16
f 753/165/29 752/175/29 716/177/29
f 112/181/17 110/190/17 106/182/17
f 814/184/16 722/186/16 721/178/16
f 817/185/16 724/182/16 722/186/16
f 723/183/16 724/182/16 817/185/16
f 730/187/16 732/706/16 725/188/16
f 725/188/20 727/181/20 723/183/20
f 109/189/19 111/188/19 107/178/19
f 728/190/18 726/189/18 722/186/18
f 731/191/16 730/187/16 726/189/16
f 733/192/16 731/191/16 728/190/16
f 725/188/16 732/706/16 733/192/16
f 744/193/16 741/707/16 735/194/16
f 742/196/16 744/193/16 739/195/16
f 740/198/16 742/196/16 116/197/16
f 735/194/16 741/707/16 740/198/16
f 747/200/16 750/708/16 749/201/16
f 140/176/29 754/174/29 755/173/29
f 761/203/29 763/709/29 756/204/29
f 756/204/33 758/172/33 754/174/33
f 122/165/32 126/205/32 128/204/32
f 759/206/31 757/205/31 753/165/31
f 762/207/29 761/203/29 757/205/29
f 764/208/29 762/207/29 759/206/29
f 756/204/29 763/709/29 764/208/29
f 770/209/29 775/710/29 772/210/29
f 773/212/29 775/710/29 770/209/29
f 771/214/29 773/212/29 133/213/29
f 766/211/29 772/210/29 771/214/29
f 778/216/29 781/711/29 780/217/29
f 849/219/24 786/223/24 784/220/24
f 148/222/25 146/231/25 142/223/25
f 783/225/24 785/224/24 850/226/24
f 784/220/24 783/225/24 713/227/24
f 850/226/24 785/224/24 786/223/24
f 792/228/24 794/712/24 787/229/24
f 787/229/28 789/222/28 785/224/28
f 145/230/27 147/229/27 143/225/27
f 790/231/36 788/230/36 784/220/36
f 793/232/24 792/228/24 788/230/24
f 795/233/24 793/232/24 790/231/24
f 787/229/24 794/712/24 795/233/24
f 806/234/24 803/713/24 797/235/24
f 804/237/24 806/234/24 801/236/24
f 802/239/24 804/237/24 152/238/24
f 797/235/24 803/713/24 802/239/24
f 809/241/24 812/714/24 811/242/24
f 139/244/11 821/249/11 819/245/11
f 163/247/211 167/258/211 165/248/211
f 818/250/11 820/247/11 159/251/11
f 101/246/11 819/245/11 818/250/11
f 820/247/11 821/249/11 139/244/11
f 827/253/11 829/715/11 822/254/11
f 822/254/23 824/258/23 820/247/23
f 164/255/22 166/254/22 162/250/22
f 825/248/21 823/255/21 819/245/21
f 828/256/11 827/253/11 823/255/11
f 830/257/11 828/256/11 825/248/11
f 822/254/11 829/715/11 830/257/11
f 841/259/11 838/716/11 832/260/11
f 839/262/11 841/259/11 836/261/11
f 169/264/11 837/265/11 839/262/11
f 832/260/11 838/716/11 837/265/11
f 844/266/11 847/717/11 846/267/11
s 1
f 210/340/24 217/339/24 869/718/24
f 211/320/1 207/338/1 857/336/1
f 209/327/1 857/336/1 207/338/1
f 184/345/71 865/719/215 879/346/72
f 884/356/80 187/720/80 238/354/80
f 185/721/216 878/722/203 189/277/42
f 878/722/203 889/275/40 189/277/42
f 889/275/40 190/723/217 903/276/41
f 899/307/59 242/278/43 249/305/57
f 195/286/11 202/285/11 201/724/11
f 968/281/24 255/725/24 204/282/24
f 213/289/29 214/288/29 929/726/29
f 885/294/49 229/727/218 222/295/50
f 937/292/48 231/728/219 225/290/46
f 940/302/55 233/729/55 186/303/56
f 249/305/57 253/730/220 961/306/58
f 246/731/221 950/300/54 239/298/53
f 953/308/24 898/732/24 235/309/24
f 961/306/58 253/730/220 197/279/44
f 258/315/29 254/733/29 252/316/29
f 205/734/16 257/312/16 912/314/16
f 196/735/68 908/334/69 969/333/68
f 910/324/64 251/736/64 909/325/65
f 914/357/81 915/737/222 906/358/82
f 858/336/66 975/327/66 921/329/66
f 177/738/11 854/269/11 874/271/11
f 877/348/74 180/739/223 181/349/75
f 886/351/77 883/740/224 182/352/78
f 882/741/225 893/742/225 891/743/225
f 890/744/226 888/745/226 876/746/226
f 194/747/63 904/322/63 894/321/63
f 243/748/16 960/375/16 892/377/16
f 200/280/45 249/305/57 242/278/43
f 219/342/16 934/749/16 178/343/16
f 220/366/86 941/750/227 942/367/87
f 947/751/228 948/752/228 228/753/228
f 223/754/229 944/755/229 945/756/229
f 230/299/52 239/298/53 234/301/53
f 240/371/90 192/370/89 955/757/90
f 193/372/91 958/758/92 245/373/92
f 964/330/67 241/759/67 965/331/67
f 260/760/29 1001/761/29 268/762/29
f 984/430/1 296/432/1 298/467/1
f 984/430/1 298/467/1 261/434/1
f 323/447/80 273/763/80 1009/448/80
f 1004/453/52 274/387/100 1014/386/99
f 1029/385/98 276/764/230 1014/386/99
f 277/390/103 334/412/112 287/388/101
f 1019/389/102 287/388/101 284/391/104
f 288/765/29 289/396/29 282/398/29
f 291/393/24 338/766/24 1092/394/24
f 340/423/16 292/767/16 1038/424/16
f 1051/768/11 300/399/11 301/401/11
f 295/469/24 996/769/24 304/470/24
f 989/404/16 1060/403/16 305/770/16
f 303/771/231 311/772/232 315/773/233
f 1062/774/234 303/771/231 315/773/233
f 1069/775/136 317/481/136 1076/418/113
f 1087/411/111 331/776/235 334/412/112
f 320/416/113 1079/777/150 330/417/114
f 1072/421/24 1023/420/24 1081/778/24
f 1087/411/111 329/392/105 331/776/235
f 329/392/105 284/391/104 331/776/235
f 337/425/11 343/779/11 341/426/11
f 1025/780/91 280/781/198 1084/782/198
f 1099/489/139 1091/783/236 1098/490/140
f 268/762/29 981/784/29 260/760/29
f 270/441/123 992/440/122 267/785/237
f 1003/437/118 1006/786/238 263/382/119
f 264/382/97 269/787/97 310/383/97
f 265/443/86 1008/788/239 1011/444/125
f 1066/408/109 312/789/110 272/409/110
f 1002/790/229 1013/791/229 1015/792/229
f 281/457/67 1030/793/67 278/458/67
f 1040/462/128 1037/794/240 1033/460/93
f 1053/468/130 1102/467/61 1041/432/130
f 1103/434/70 1049/467/117 1047/435/117
f 306/475/132 307/795/241 1068/476/133
f 314/796/242 1075/797/242 1073/798/242
f 1025/780/91 1084/782/198 328/799/91
f 1090/800/63 325/483/63 327/482/63
f 1017/415/16 1086/414/16 326/801/16
f 1093/486/137 283/802/138 1094/487/138
f 1133/803/136 1145/507/42 357/509/113
f 381/570/24 388/569/24 1124/804/24
f 344/500/16 350/499/16 1192/805/16
f 1117/546/1 382/806/1 1109/530/1
f 379/542/1 382/806/1 1117/546/1
f 1121/495/142 1134/807/142 1130/496/143
f 361/504/147 1172/561/165 418/505/148
f 1145/507/42 360/808/41 1163/508/150
f 367/518/11 373/517/11 378/809/11
f 384/568/29 385/567/29 1187/810/29
f 1149/559/164 404/811/243 356/560/80
f 1198/812/244 400/813/245 1205/814/56
f 1214/522/24 1155/815/24 402/523/24
f 408/511/16 1217/816/16 358/512/16
f 364/506/149 418/505/148 370/515/153
f 423/526/29 419/817/29 412/527/29
f 420/592/24 422/818/24 415/593/24
f 363/537/159 1157/819/90 405/538/90
f 365/820/91 410/821/12 1159/822/91
f 366/823/63 1164/535/63 1151/534/63
f 1169/824/246 1173/825/247 1165/826/248
f 1110/530/66 1230/806/158 1178/531/158
f 1132/549/74 347/827/223 348/550/75
f 394/552/160 1136/828/249 349/553/161
f 1126/501/50 1141/829/50 1137/502/145
f 1142/555/77 1139/830/224 351/556/78
f 355/831/191 1198/812/244 1205/814/56
f 354/832/136 1133/803/136 357/509/113
f 1138/833/242 1150/834/242 1147/835/242
f 1146/836/250 1144/837/250 1131/838/250
f 410/821/12 365/820/91 1158/839/12
f 1173/825/247 1166/840/251 1165/826/248
f 1226/545/65 1171/841/65 1225/543/64
f 376/562/16 375/842/16 371/563/16
f 1185/541/84 1174/806/84 1233/542/115
f 387/521/156 397/520/155 395/843/252
f 389/575/167 1199/844/227 1200/576/168
f 1206/845/228 1207/846/228 396/847/228
f 393/848/229 1202/849/229 1203/850/229
f 409/851/67 1208/582/170 1209/584/67
f 401/578/53 398/581/53 1211/852/54
f 411/853/54 1211/852/54 398/581/53
f 1224/588/138 369/854/138 1223/589/69
f 1303/658/24 462/855/24 1250/656/24
f 429/856/1 428/857/1 455/670/1
f 457/655/1 429/856/1 455/670/1
f 1256/598/171 1260/858/253 1267/599/172
f 436/603/176 443/607/180 1288/859/254
f 1276/608/181 444/610/183 496/605/178
f 1284/604/177 1276/608/181 496/605/178
f 1276/608/181 1338/640/194 447/609/182
f 445/616/11 451/615/11 450/860/11
f 459/619/29 468/618/29 1313/861/29
f 464/862/16 1318/863/16 427/864/16
f 1316/620/184 471/865/184 1324/621/185
f 1265/623/187 476/866/255 467/624/188
f 475/676/206 470/867/256 461/677/207
f 1333/627/100 480/633/193 477/628/190
f 1323/629/56 479/868/257 1272/630/191
f 496/605/178 500/869/258 440/606/179
f 486/632/192 1337/870/259 480/633/193
f 489/634/24 1280/871/24 481/635/24
f 490/637/16 1343/872/16 482/638/16
f 505/873/29 1359/874/29 499/875/29
f 501/876/24 503/612/24 1348/611/24
f 430/877/11 1236/595/11 1255/597/11
f 439/878/196 1281/641/195 1282/643/196
f 1291/879/260 1296/880/261 1290/881/262
f 488/882/67 1334/883/67 491/884/67
f 1283/644/197 492/885/263 1341/645/198
f 494/651/201 446/650/137 1349/886/201
f 1298/887/264 498/888/265 1350/889/264
f 1298/887/264 1351/890/265 498/888/265
f 1355/891/61 1237/892/61 1245/893/61
f 427/864/16 1243/894/16 464/862/16
f 1266/662/77 1263/895/224 433/663/78
f 1262/896/242 1275/897/242 1273/898/242
f 1271/899/250 1269/900/250 1257/901/250
f 1290/881/262 1292/902/266 1291/879/260
f 453/903/16 504/687/16 1297/689/16
f 1299/669/84 1300/655/84 1356/670/115
f 1305/654/66 1239/891/66 1357/655/66
f 465/624/208 1325/904/267 1326/681/87
f 483/665/80 485/905/164 473/666/164
f 1331/906/268 1332/907/268 474/908/268
f 469/909/269 1328/910/269 1329/911/269
f 491/884/67 1335/912/67 488/882/67
f 440/606/179 500/869/258 447/609/182
f 499/875/29 1353/913/29 505/873/29
l 564 566
l 565 25
l 595 597
l 596 42
l 602 605
l 626 628
l 627 61
l 661 663
l 736 738
l 737 113
l 767 769
l 798 800
l 799 149
l 833 835
l 853 856
l 859 861
l 868 866
l 897 895
l 917 918
l 925 923
l 933 935
l 959 962
l 980 983
l 986 988
l 995 993
l 1022 1020
l 1042 1043
l 1050 1048
l 1059 1061
l 1085 1088
l 1105 1108
l 1112 1114
l 1123 1120
l 1154 1152
l 1175 1176
l 1182 1180
l 1191 1193
l 1216 1218
l 1235 1238
l 1240 1242
l 1249 1246
l 1279 1277
l 1301 1302
l 1308 1306
l 1317 1319
l 1342 1344
l 29 27
l 31 576
l 579 32
l 30 33
l 46 44
l 47 50
l 48 607
l 610 49
l 65 63
l 66 69
l 67 638
l 641 68
l 84 82
l 85 88
l 86 673
l 676 87
l 117 115
l 119 748
l 751 120
l 118 121
l 768 130
l 134 132
l 135 138
l 136 779
l 782 137
l 153 151
l 155 810
l 813 156
l 154 157
l 172 170
l 173 176
l 174 845
l 848 175
l 852 867
l 872 860
l 887 896
l 901 188
l 905 203
l 199 206
l 936 212
l 232 954
l 237 963
l 247 256
l 250 259
l 979 994
l 999 987
l 1021 1012
l 1027 275
l 1032 290
l 286 293
l 294 1057
l 1063 299
l 318 1082
l 1089 322
l 332 339
l 335 342
l 1104 1122
l 1127 1113
l 1143 1153
l 359 1161
l 1167 374
l 372 377
l 380 1189
l 1215 399
l 403 1219
l 413 421
l 416 424
l 1234 1248
l 1241 1253
l 1278 1268
l 1286 437
l 1293 452
l 449 454
l 1320 458
l 478 1340
l 484 1345
l 493 502
l 497 506
l 562 557
l 574 571
l 593 588
l 624 619
l 636 633
l 659 654
l 662 80
l 671 668
l 729 734
l 743 746
l 760 765
l 774 777
l 791 796
l 805 808
l 826 831
l 834 168
l 840 843
l 873 871
l 902 900
l 928 930
l 949 952
l 932 208
l 1000 997
l 1028 1026
l 1056 1054
l 1080 1078
l 1128 1125
l 1162 1160
l 1186 1188
l 1210 1213
l 1195 383
l 426 428
l 1254 1251
l 1287 1285
l 1312 1314
l 1336 1339
l 1315 456
