# Blender 5.1.1
# www.blender.org
mtllib WallDetail.mtl
o Cube.000_0.002
v -3.048928 9.389185 5.596525
v 24.207449 9.392083 5.596525
v 24.090687 9.391207 5.548284
v -2.953352 9.388380 5.548284
v -3.781234 9.392083 5.419199
v -3.048928 9.389185 5.596525
v -2.953352 9.388380 5.548284
v -3.679950 9.391207 5.372498
v 24.207449 9.392083 5.419199
v 24.207449 9.392082 3.008799
v 24.090687 9.391206 2.983043
v 24.090687 9.391207 5.372498
v 24.207449 9.392079 -5.504222
v -3.048928 9.392079 -5.504222
v -2.953352 9.391203 -5.455999
v 24.090687 9.391203 -5.455999
v 24.207449 9.392080 -2.364242
v 24.207449 9.392080 -2.923440
v 24.090687 9.391204 -2.897644
v 24.090687 9.391204 -2.343306
v 24.207449 9.392079 -5.333832
v 24.207449 9.392079 -5.504222
v 24.090687 9.391203 -5.455999
v 24.090687 9.391203 -5.287090
v -3.784813 9.392079 -5.333832
v -7.959741 9.392080 -2.923440
v -7.825907 9.391204 -2.897640
v -3.683508 9.391203 -5.287090
v 24.207449 9.392083 5.596525
v 24.090687 9.391207 5.548284
v -8.281807 9.392080 -2.364238
v -8.281807 9.392082 2.462842
v -8.145462 9.391206 2.441831
v -8.145462 9.391204 -2.343301
v -7.959741 9.392082 3.008804
v -3.781234 9.392083 5.419199
v -3.679950 9.391207 5.372498
v -7.825907 9.391206 2.983047
v -7.959741 9.392080 -2.923440
v -8.281807 9.392080 -2.364238
v -8.145462 9.391204 -2.343301
v -7.825907 9.391204 -2.897640
v 24.207449 9.392079 -5.333832
v 24.090687 9.391203 -5.287090
v 24.207449 9.392082 2.462838
v 24.207449 9.392080 -2.364242
v 24.090687 9.391204 -2.343306
v 24.090687 9.391206 2.441827
v -3.048928 9.392079 -5.504222
v -3.784813 9.392079 -5.333832
v -3.683508 9.391203 -5.287090
v -2.953352 9.391203 -5.455999
v 24.207449 9.392082 3.008799
v 24.090687 9.391206 2.983043
v -8.281807 9.392082 2.462842
v -7.959741 9.392082 3.008804
v -7.825907 9.391206 2.983047
v -8.145462 9.391206 2.441831
v -3.048879 9.716141 5.596578
v -2.953304 9.717072 5.548341
v 24.090731 9.719900 5.548341
v 24.207499 9.719034 5.596578
v -3.781186 9.719034 5.419252
v -3.679902 9.719900 5.372555
v -2.953304 9.717072 5.548341
v -3.048879 9.716141 5.596578
v 24.207499 9.719034 5.419252
v 24.090731 9.719900 5.372555
v 24.090731 9.719899 2.983100
v 24.207499 9.719033 3.008852
v 24.207499 9.719030 -5.504169
v 24.090731 9.719896 -5.455942
v -2.953304 9.719896 -5.455942
v -3.048879 9.719030 -5.504165
v 24.207499 9.719031 -2.364190
v 24.090731 9.719897 -2.343253
v 24.090731 9.719897 -2.897591
v 24.207499 9.719031 -2.923387
v 24.207499 9.719030 -5.333779
v 24.090731 9.719896 -5.287033
v 24.090731 9.719896 -5.455942
v 24.207499 9.719030 -5.504169
v -3.784765 9.719030 -5.333779
v -3.683455 9.719896 -5.287033
v -7.825859 9.719897 -2.897587
v -7.959692 9.719031 -2.923383
v 24.207499 9.719034 5.596578
v 24.090731 9.719900 5.548341
v -8.281758 9.719031 -2.364185
v -8.145409 9.719897 -2.343249
v -8.145409 9.719899 2.441888
v -8.281758 9.719033 2.462895
v -7.959692 9.719033 3.008856
v -7.825859 9.719899 2.983104
v -3.679902 9.719900 5.372555
v -3.781186 9.719034 5.419252
v -7.959692 9.719031 -2.923383
v -7.825859 9.719897 -2.897587
v -8.145409 9.719897 -2.343249
v -8.281758 9.719031 -2.364185
v 24.090731 9.719896 -5.287033
v 24.207499 9.719030 -5.333779
v 24.207499 9.719033 2.462891
v 24.090731 9.719899 2.441884
v 24.090731 9.719897 -2.343253
v 24.207499 9.719031 -2.364190
v -3.048879 9.719030 -5.504165
v -2.953304 9.719896 -5.455942
v -3.683455 9.719896 -5.287033
v -3.784765 9.719030 -5.333779
v 24.207499 9.719033 3.008852
v 24.090731 9.719899 2.983100
v -8.281758 9.719033 2.462895
v -8.145409 9.719899 2.441888
v -7.825859 9.719899 2.983104
v -7.959692 9.719033 3.008856
v -8.145462 9.391204 -2.343301
v -8.145409 9.719897 -2.343249
v -7.825859 9.719897 -2.897587
v -7.825907 9.391204 -2.897640
v 24.090687 9.391204 -2.343306
v 24.090731 9.719897 -2.343253
v 24.090731 9.719899 2.441884
v 24.090687 9.391206 2.441827
v 24.090687 9.391207 5.548284
v 24.090731 9.719900 5.548341
v -2.953304 9.717072 5.548341
v -2.953352 9.388380 5.548284
v 24.090687 9.391206 2.441827
v 24.090731 9.719899 2.441884
v 24.090731 9.719899 2.983100
v 24.090687 9.391206 2.983043
v -2.953352 9.391203 -5.455999
v -2.953304 9.719896 -5.455942
v 24.090731 9.719896 -5.455942
v 24.090687 9.391203 -5.455999
v -2.953352 9.388380 5.548284
v -2.953304 9.717072 5.548341
v -3.679902 9.719900 5.372555
v -3.679950 9.391207 5.372498
v 24.090687 9.391203 -5.455999
v 24.090731 9.719896 -5.455942
v 24.090731 9.719896 -5.287033
v 24.090687 9.391203 -5.287090
v 24.090687 9.391207 5.372498
v 24.090731 9.719900 5.372555
v 24.090731 9.719900 5.548341
v 24.090687 9.391207 5.548284
v -3.679950 9.391207 5.372498
v -3.679902 9.719900 5.372555
v -7.825859 9.719899 2.983104
v -7.825907 9.391206 2.983047
v 24.090731 9.719897 -2.897591
v 24.090687 9.391204 -2.897644
v -3.683508 9.391203 -5.287090
v -3.683455 9.719896 -5.287033
v -2.953304 9.719896 -5.455942
v -2.953352 9.391203 -5.455999
v -7.825907 9.391206 2.983047
v -7.825859 9.719899 2.983104
v -8.145409 9.719899 2.441888
v -8.145462 9.391206 2.441831
v 24.090731 9.719900 5.372555
v 24.090687 9.391207 5.372498
v 24.090687 9.391204 -2.897644
v 24.090731 9.719897 -2.897591
v -7.825907 9.391204 -2.897640
v -7.825859 9.719897 -2.897587
v -3.683455 9.719896 -5.287033
v -3.683508 9.391203 -5.287090
v -8.145462 9.391206 2.441831
v -8.145409 9.719899 2.441888
v -8.145409 9.719897 -2.343249
v -8.145462 9.391204 -2.343301
vn 0.0001 -0.9998 0.0176
vn 0.0001 -0.9999 0.0172
vn -0.0055 -1.0000 0.0063
vn -0.0055 -1.0000 0.0064
vn 0.0075 -1.0000 -0.0000
vn -0.0000 -0.9998 -0.0182
vn -0.0049 -1.0000 -0.0085
vn -0.0048 -1.0000 -0.0083
vn -0.0064 -1.0000 -0.0000
vn -0.0048 -1.0000 0.0083
vn -0.0049 -1.0000 0.0085
vn -0.0059 -1.0000 -0.0034
vn -0.0029 -0.9999 -0.0125
vn -0.0059 -1.0000 0.0035
vn -0.0001 0.9998 0.0186
vn -0.0001 0.9998 0.0185
vn -0.0004 0.9998 0.0177
vn -0.0005 0.9998 0.0183
vn 0.0074 1.0000 -0.0000
vn -0.0000 0.9998 -0.0180
vn -0.0047 1.0000 -0.0082
vn -0.0049 1.0000 -0.0084
vn -0.0064 1.0000 -0.0000
vn -0.0063 1.0000 -0.0000
vn -0.0049 1.0000 0.0084
vn -0.0048 1.0000 0.0082
vn -0.0058 1.0000 -0.0034
vn -0.0029 0.9999 -0.0123
vn -0.0058 1.0000 0.0034
vn 0.8664 -0.0002 0.4994
vn -1.0000 0.0001 -0.0000
vn -0.0000 0.0002 -1.0000
vn -0.0000 -0.0002 1.0000
vn 0.2351 0.0001 -0.9720
vn 0.4993 0.0001 -0.8664
vn 0.2254 -0.0002 0.9743
vn 0.8611 -0.0000 -0.5084
vn 0.8611 -0.0001 -0.5084
vn 0.4997 -0.0002 0.8662
vn 1.0000 -0.0002 -0.0000
vt 0.477950 0.838840
vt 0.477950 0.000140
vt 0.475880 0.003730
vt 0.475880 0.835900
vt 0.470320 0.861380
vt 0.468310 0.858260
vt 0.470320 0.000140
vt 0.366580 0.000140
vt 0.365470 0.003730
vt 0.468310 0.003730
vt 0.000190 0.000140
vt 0.000190 0.838840
vt 0.002260 0.835900
vt 0.002260 0.003730
vt 0.135330 0.000140
vt 0.111260 0.000140
vt 0.112370 0.003730
vt 0.136230 0.003730
vt 0.007520 0.000140
vt 0.009530 0.003730
vt 0.007520 0.861490
vt 0.111260 0.989950
vt 0.112370 0.985840
vt 0.009530 0.858370
vt 0.135330 0.999860
vt 0.343080 0.999860
vt 0.342180 0.995670
vt 0.136230 0.995670
vt 0.366580 0.989950
vt 0.365470 0.985840
vt 0.343080 0.000140
vt 0.342180 0.003730
vt 0.478330 0.838840
vt 0.480410 0.835900
vt 0.480410 0.003730
vt 0.478330 0.000140
vt 0.485960 0.861380
vt 0.487970 0.858260
vt 0.485960 0.000140
vt 0.487970 0.003730
vt 0.590810 0.003730
vt 0.589700 0.000140
vt 0.956090 0.000140
vt 0.954020 0.003730
vt 0.954020 0.835900
vt 0.956090 0.838840
vt 0.820950 0.000140
vt 0.820050 0.003730
vt 0.843910 0.003730
vt 0.845020 0.000140
vt 0.948760 0.000140
vt 0.946750 0.003730
vt 0.948760 0.861490
vt 0.946750 0.858370
vt 0.843910 0.985840
vt 0.845020 0.989950
vt 0.820950 0.999860
vt 0.820050 0.995670
vt 0.614110 0.995670
vt 0.613200 0.999860
vt 0.589700 0.989950
vt 0.590810 0.985840
vt 0.613200 0.000140
vt 0.614110 0.003730
vt 0.985660 0.497050
vt 0.999810 0.497050
vt 0.999810 0.480020
vt 0.985660 0.480020
vt 0.999810 0.757030
vt 0.985660 0.757030
vt 0.985660 0.904280
vt 0.999810 0.904270
vt 0.956590 0.999860
vt 0.970740 0.999860
vt 0.970620 0.194230
vt 0.956470 0.194230
vt 0.985660 0.920930
vt 0.999810 0.920930
vt 0.971120 0.835120
vt 0.985260 0.835120
vt 0.985280 0.028800
vt 0.971140 0.028800
vt 0.970740 0.171230
vt 0.956590 0.171230
vt 0.999810 0.661250
vt 0.985660 0.661250
vt 0.985660 0.666450
vt 0.999810 0.666450
vt 0.999810 0.994450
vt 0.985660 0.994460
vt 0.985660 0.999860
vt 0.999810 0.999860
vt 0.970730 0.029300
vt 0.956580 0.029300
vt 0.985660 0.739970
vt 0.999810 0.739970
vt 0.971120 0.858170
vt 0.985270 0.858170
vt 0.985660 0.660980
vt 0.999810 0.660980
vt 0.999810 0.644290
vt 0.985660 0.644290
vt 0.971140 0.999860
vt 0.985280 0.999860
s 0
usemtl debord-mur.002
f 1/1/1 3/3/1 2/2/1
f 1/1/2 4/4/2 3/3/2
f 5/5/3 7/4/3 6/1/3
f 5/5/4 8/6/4 7/4/4
f 9/7/5 11/9/5 10/8/5
f 9/7/5 12/10/5 11/9/5
f 13/11/6 15/13/6 14/12/6
f 13/11/6 16/14/6 15/13/6
f 17/15/5 19/17/5 18/16/5
f 17/15/5 20/18/5 19/17/5
f 21/19/5 23/14/5 22/11/5
f 21/19/5 24/20/5 23/14/5
f 25/21/7 27/23/7 26/22/7
f 25/21/8 28/24/8 27/23/8
f 29/2/5 12/10/5 9/7/5
f 29/2/5 30/3/5 12/10/5
f 31/25/9 33/27/9 32/26/9
f 31/25/9 34/28/9 33/27/9
f 35/29/10 37/6/10 36/5/10
f 35/29/11 38/30/11 37/6/11
f 39/22/12 41/28/12 40/25/12
f 39/22/12 42/23/12 41/28/12
f 18/16/5 44/20/5 43/19/5
f 18/16/5 19/17/5 44/20/5
f 45/31/5 47/18/5 46/15/5
f 45/31/5 48/32/5 47/18/5
f 49/12/13 51/24/13 50/21/13
f 49/12/13 52/13/13 51/24/13
f 53/8/5 48/32/5 45/31/5
f 53/8/5 54/9/5 48/32/5
f 55/26/14 57/30/14 56/29/14
f 55/26/14 58/27/14 57/30/14
s 1
f 59/33/15 61/35/15 60/34/15
s 0
f 59/33/16 62/36/16 61/35/16
f 63/37/17 65/34/17 64/38/17
f 63/37/18 66/33/18 65/34/18
f 67/39/19 69/41/19 68/40/19
f 67/39/19 70/42/19 69/41/19
f 71/43/20 73/45/20 72/44/20
f 71/43/20 74/46/20 73/45/20
f 75/47/19 77/49/19 76/48/19
f 75/47/19 78/50/19 77/49/19
f 79/51/19 81/44/19 80/52/19
f 79/51/19 82/43/19 81/44/19
f 83/53/21 85/55/21 84/54/21
f 83/53/22 86/56/22 85/55/22
f 87/36/19 68/40/19 88/35/19
f 87/36/19 67/39/19 68/40/19
f 89/57/23 91/59/23 90/58/23
f 89/57/24 92/60/24 91/59/24
f 93/61/25 95/38/25 94/62/25
f 93/61/26 96/37/26 95/38/26
f 97/56/27 99/58/27 98/55/27
f 97/56/27 100/57/27 99/58/27
f 78/50/19 101/52/19 77/49/19
f 78/50/19 102/51/19 101/52/19
f 103/63/19 105/48/19 104/64/19
f 103/63/19 106/47/19 105/48/19
f 107/46/28 109/54/28 108/45/28
f 107/46/28 110/53/28 109/54/28
f 111/42/19 104/64/19 112/41/19
f 111/42/19 103/63/19 104/64/19
f 113/60/29 115/62/29 114/59/29
f 113/60/29 116/61/29 115/62/29
f 117/65/30 119/67/30 118/66/30
f 117/65/30 120/68/30 119/67/30
f 121/69/31 123/71/31 122/70/31
f 121/69/31 124/72/31 123/71/31
f 125/73/32 127/75/32 126/74/32
f 125/73/32 128/76/32 127/75/32
f 129/72/31 131/77/31 130/71/31
f 129/72/31 132/78/31 131/77/31
f 133/79/33 135/81/33 134/80/33
f 133/79/33 136/82/33 135/81/33
f 137/76/34 139/83/34 138/75/34
f 137/76/34 140/84/34 139/83/34
f 141/85/31 143/87/31 142/86/31
f 141/85/31 144/88/31 143/87/31
f 145/89/31 147/91/31 146/90/31
f 145/89/31 148/92/31 147/91/31
s 1
f 149/84/35 151/93/35 150/83/35
s 0
f 149/84/35 152/94/35 151/93/35
f 144/88/31 153/95/31 143/87/31
f 144/88/31 154/96/31 153/95/31
f 155/97/36 157/80/36 156/98/36
f 155/97/36 158/79/36 157/80/36
f 159/99/37 161/101/37 160/100/37
f 159/99/38 162/102/38 161/101/38
f 132/78/31 163/90/31 131/77/31
f 132/78/31 164/89/31 163/90/31
f 165/96/31 122/70/31 166/95/31
f 165/96/31 121/69/31 122/70/31
f 167/103/39 169/98/39 168/104/39
f 167/103/39 170/97/39 169/98/39
f 171/102/40 173/66/40 172/101/40
f 171/102/40 174/65/40 173/66/40
