# Blender 5.1.1
# www.blender.org
mtllib WindowUpper.mtl
o TexturesCom_WindowStainedGlass0098_1_M.000_0.002
v 1.215134 11.628318 5.886967
v 1.215134 18.822449 5.886967
v -1.319933 18.822449 5.886967
v -1.319933 11.628318 5.886967
v 8.135454 11.626088 5.886967
v 8.135454 18.822449 5.886967
v 5.616574 18.822449 5.886967
v 5.616574 11.626088 5.886967
v 21.920702 11.604290 5.886967
v 21.920702 18.790148 5.886967
v 19.311462 18.790148 5.886967
v 19.311462 11.604290 5.886967
v 15.067789 11.609685 5.886967
v 15.067789 18.794537 5.886967
v 12.403444 18.794537 5.886967
v 12.403444 11.609685 5.886967
vn -0.0000 -0.0000 -1.0000
vt 0.000000 1.000000
vt 0.000000 0.000000
vt 0.242270 0.000000
vt 0.242270 1.000000
vt 0.759350 1.000000
vt 0.759350 0.000000
vt 1.000000 0.000000
vt 1.000000 1.000000
vt 0.496150 0.000000
vt 0.496150 1.000000
s 0
usemtl vitrail-droite.001
f 1/1/1 3/3/1 2/2/1
f 1/1/1 4/4/1 3/3/1
f 5/5/1 7/7/1 6/6/1
f 5/5/1 8/8/1 7/7/1
f 9/4/1 11/9/1 10/3/1
f 9/4/1 12/10/1 11/9/1
f 13/10/1 15/6/1 14/9/1
f 13/10/1 16/5/1 15/6/1
