# Blender 5.1.1
# www.blender.org
mtllib WindowBasic.mtl
o TexturesCom_WindowStainedGlass0084_1_M.000_0.002
v 1.960755 1.404774 11.013822
v -2.014802 1.404774 11.013822
v -2.014802 8.677417 11.013820
v 1.960755 8.677417 11.013820
v 8.830562 1.404774 11.013822
v 4.855005 1.404774 11.013822
v 4.855005 8.677417 11.013820
v 8.830562 8.677417 11.013820
v 15.700370 1.404774 11.013822
v 11.724813 1.404774 11.013822
v 11.724813 8.677417 11.013820
v 15.700370 8.677417 11.013820
v 22.570173 1.404774 11.013822
v 18.594618 1.404774 11.013822
v 18.594618 8.677417 11.013820
v 22.570173 8.677417 11.013820
vn -0.0000 -0.0000 1.0000
vt 0.000000 1.000000
vt 1.000000 1.000000
vt 1.000000 0.000000
vt 0.000000 0.000000
s 0
usemtl vitrail-bas.001
f 1/1/1 3/3/1 2/2/1
f 1/1/1 4/4/1 3/3/1
f 5/1/1 7/3/1 6/2/1
f 5/1/1 8/4/1 7/3/1
f 9/1/1 11/3/1 10/2/1
f 9/1/1 12/4/1 11/3/1
f 13/1/1 15/3/1 14/2/1
f 13/1/1 16/4/1 15/3/1
