# Blender 5.1.1
# www.blender.org
mtllib AltarTable.mtl
o Plane.004_0
v 2.513710 -0.480977 -10.586455
v 2.495251 -0.481191 -10.730285
v 0.705376 -1.010940 -10.499803
v 0.723834 -1.010726 -10.355973
v 0.579570 -1.119131 -10.483498
v 0.598028 -1.118917 -10.339668
v 0.579617 -1.055726 -10.337399
v 0.561159 -1.055939 -10.481229
v 2.810816 -0.501890 -9.569216
v 2.792358 -0.502104 -9.713045
v 2.773947 -0.438913 -9.710776
v 2.792405 -0.438699 -9.566947
v 0.733662 -1.116744 -9.299500
v 0.872155 -1.075755 -9.317334
v 0.853745 -1.012563 -9.315065
v 0.715251 -1.053553 -9.297232
v 2.656723 -0.504277 -10.753213
v 2.518230 -0.545266 -10.735379
v 2.499820 -0.482075 -10.733110
v 2.638313 -0.441085 -10.750944
v 0.719896 -1.077518 -10.503807
v 0.581402 -1.118508 -10.485973
v 0.562991 -1.055317 -10.483706
v 0.701485 -1.014327 -10.501538
v 2.514001 -0.546518 -10.734835
v 0.724125 -1.076267 -10.504353
v 0.705714 -1.013075 -10.502084
v 2.495590 -0.483327 -10.732566
v 0.712806 -1.117588 -9.445261
v 0.731264 -1.117374 -9.301432
v 0.712854 -1.054182 -9.299164
v 0.694396 -1.054396 -9.442992
v 2.646946 -0.479434 -9.548220
v 2.628488 -0.479648 -9.692049
v 0.838612 -1.009396 -9.461567
v 0.857070 -1.009183 -9.317738
v 0.693154 -1.050132 -9.442840
v 0.711612 -1.049918 -9.299010
v 0.674959 -0.924115 -9.294494
v 0.656502 -0.924329 -9.438323
v 2.496745 -0.478433 -10.730480
v 2.515202 -0.478219 -10.586652
v 2.478551 -0.352417 -10.582135
v 2.460093 -0.352630 -10.725964
v 0.854334 -1.007676 -9.317389
v 0.835877 -1.007890 -9.461218
v 0.799225 -0.882087 -9.456701
v 0.817683 -0.881873 -9.312872
v 2.751775 -0.307125 -9.561929
v 2.733317 -0.307339 -9.705758
v 2.594823 -0.348329 -9.687924
v 2.613281 -0.348115 -9.544095
v 2.791792 -0.502111 -9.717453
v 2.678145 -0.503427 -10.603044
v 2.659734 -0.440236 -10.600775
v 2.773382 -0.438919 -9.715184
v 2.770307 -0.435277 -9.712555
v 2.631815 -0.476267 -9.694721
v 2.595162 -0.350465 -9.690205
v 2.733655 -0.309475 -9.708038
v 2.677579 -0.503434 -10.607451
v 2.659122 -0.503647 -10.751281
v 2.640711 -0.440456 -10.749012
v 2.659168 -0.440242 -10.605183
v 0.598593 -1.118911 -10.335259
v 0.712241 -1.117594 -9.449670
v 0.693831 -1.054403 -9.447401
v 0.580183 -1.055719 -10.332991
v 2.791163 -0.434434 -9.566794
v 2.772705 -0.434648 -9.710623
v 2.736053 -0.308845 -9.706106
v 2.754511 -0.308631 -9.562278
v 2.770646 -0.437413 -9.714836
v 2.656998 -0.438729 -10.600426
v 2.518505 -0.479719 -10.582592
v 2.632152 -0.478403 -9.697002
v 0.559917 -1.051675 -10.481075
v 0.578374 -1.051461 -10.337246
v 0.541723 -0.925658 -10.332729
v 0.523265 -0.925872 -10.476559
v 0.580772 -1.050832 -10.335314
v 0.719266 -1.009842 -10.353148
v 0.682614 -0.884039 -10.348632
v 0.544120 -0.925029 -10.330798
v 0.814946 -0.880367 -9.312523
v 0.796489 -0.880581 -9.456352
v 0.657995 -0.921570 -9.438519
v 0.676453 -0.921357 -9.294689
v 0.681710 -0.881910 -10.350760
v 0.663252 -0.882124 -10.494589
v 0.524758 -0.923114 -10.476754
v 0.543216 -0.922900 -10.332926
v 2.618538 -0.308669 -10.600164
v 2.600080 -0.308882 -10.743994
v 2.461587 -0.349872 -10.726160
v 2.480044 -0.349658 -10.582331
v 2.455694 -0.498485 -10.505099
v 0.799262 -0.988738 -10.291800
v 0.639895 -0.441734 -10.272161
v 2.296327 0.048519 -10.485460
v 2.650837 -0.476047 -9.546484
v 2.789331 -0.435057 -9.564318
v 2.752679 -0.309254 -9.559801
v 2.614185 -0.350244 -9.541967
v 2.629982 -0.476890 -9.692245
v 2.648440 -0.476676 -9.548415
v 2.611788 -0.350873 -9.543899
v 2.593330 -0.351087 -9.687728
v 2.657926 -0.435978 -10.605030
v 2.639468 -0.436191 -10.748859
v 2.602816 -0.310389 -10.744343
v 2.621274 -0.310175 -10.600513
v 2.637071 -0.436821 -10.750791
v 2.498577 -0.477810 -10.732957
v 2.461925 -0.352008 -10.728440
v 2.600419 -0.311018 -10.746275
v 2.511331 -0.481842 -10.581668
v 0.727343 -1.009848 -10.351944
v 0.798370 -0.991238 -10.293922
v 2.457264 -0.500256 -10.507538
v 0.700242 -1.010062 -10.501386
v 0.561749 -1.051052 -10.483552
v 0.525097 -0.925250 -10.479035
v 0.663590 -0.884260 -10.496869
v 0.714009 -1.049289 -9.297078
v 0.852503 -1.008299 -9.314912
v 0.815850 -0.882496 -9.310395
v 0.677356 -0.923486 -9.292562
v 0.833479 -1.008519 -9.463150
v 0.694986 -1.049509 -9.445316
v 0.658334 -0.923706 -9.440800
v 0.796827 -0.882716 -9.458633
v 2.517600 -0.477590 -10.584720
v 2.656094 -0.436600 -10.602553
v 2.619442 -0.310798 -10.598037
v 2.480948 -0.351787 -10.580203
v 0.876384 -1.074503 -9.317879
v 2.666261 -0.544754 -9.548361
v 2.647850 -0.481563 -9.546092
v 0.857974 -1.011311 -9.315610
v 0.721098 -1.009220 -10.355624
v 0.702640 -1.009433 -10.499454
v 0.665988 -0.883630 -10.494937
v 0.684446 -0.883417 -10.351108
v 0.833818 -1.010654 -9.465430
v 0.720170 -1.011971 -10.351021
v 0.581676 -1.052961 -10.333187
v 0.695324 -1.051644 -9.447597
v 0.797430 -0.989361 -10.289324
v 0.892987 -0.988254 -9.544703
v 0.733620 -0.441250 -9.525064
v 0.638063 -0.442357 -10.269686
v 0.840991 -1.008531 -9.466354
v 2.624979 -0.480526 -9.696078
v 2.553953 -0.499136 -9.754100
v 0.895058 -0.990118 -9.540484
v 0.724806 -1.010715 -10.348395
v 0.837640 -1.009407 -9.469145
v 0.891660 -0.991010 -9.543210
v 0.795770 -0.992121 -10.290424
v 2.627516 -0.479659 -9.699627
v 2.514681 -0.480966 -10.578877
v 2.460662 -0.499364 -10.504812
v 2.556552 -0.498253 -9.757598
v 2.395941 0.053015 -9.737811
v 2.300052 0.051904 -10.485016
v 2.600254 0.153977 -10.891955
v 2.789129 0.156164 -9.420159
v 0.895386 -0.987624 -9.542770
v 2.551817 -0.497371 -9.756069
v 2.392450 0.049632 -9.736430
v 0.736018 -0.440621 -9.523131
v 2.553649 -0.496749 -9.758546
v 2.458092 -0.497856 -10.503167
v 2.298725 0.049148 -10.483529
v 2.394283 0.050255 -9.738907
v 2.296662 0.051014 -10.487747
v 0.637752 -0.439972 -10.274130
v 0.244554 -0.543124 -10.591789
v 2.596871 0.153089 -10.894697
v 0.238013 -0.542887 -10.591626
v 0.427861 -0.540688 -9.112248
v 0.371337 -0.461784 -9.068100
v 0.172143 -0.464092 -10.620303
v 2.599530 0.156141 -10.898108
v 0.239964 -0.542219 -10.594267
v 0.174096 -0.463428 -10.622938
v 2.604043 0.255762 -10.935843
v 0.635161 -0.440853 -10.270628
v 0.731050 -0.439742 -9.523423
v 0.430849 -0.541814 -9.116484
v 0.241973 -0.544002 -10.588280
v 0.734440 -0.438852 -9.520692
v 2.393351 0.052134 -9.734309
v 2.786548 0.155286 -9.416650
v 0.434232 -0.540927 -9.113743
v 2.805499 0.263088 -9.380586
v 2.606060 0.260778 -10.934692
v 2.596513 0.293546 -10.933517
v 2.795952 0.295857 -9.379409
v 0.430416 -0.540013 -9.110189
v 2.789983 0.158347 -9.414031
v 2.803839 0.258076 -9.378949
v 0.373892 -0.461114 -9.066045
v 2.791936 0.159006 -9.416671
v 2.602088 0.156807 -10.896049
v 2.606599 0.256433 -10.933787
v 2.805793 0.258740 -9.381585
v 2.603662 0.260149 -10.936625
v 0.171871 -0.459587 -10.623483
v 0.162324 -0.426818 -10.622307
v 2.594115 0.292917 -10.935449
v 2.793216 0.297363 -9.379061
v 2.593777 0.295053 -10.933167
v 0.161986 -0.424683 -10.620026
v 0.361424 -0.422373 -9.065919
v 0.170039 -0.460209 -10.621007
v 0.369478 -0.457899 -9.066899
v 0.359931 -0.425131 -9.065722
v 0.160492 -0.427441 -10.619830
v 0.371876 -0.457270 -9.064967
v 2.803667 0.262466 -9.378109
v 2.794120 0.295234 -9.376933
v 0.362328 -0.424502 -9.063791
v 2.791163 -0.434434 -9.566794
v 2.789331 -0.435057 -9.564318
v 2.790573 -0.439321 -9.564470
v 2.792405 -0.438699 -9.566947
v 2.637071 -0.436821 -10.750791
v 2.639468 -0.436191 -10.748859
v 2.640711 -0.440456 -10.749012
v 2.638313 -0.441085 -10.750944
v 0.714009 -1.049289 -9.297078
v 0.711612 -1.049918 -9.299010
v 0.712854 -1.054182 -9.299164
v 0.715251 -1.053553 -9.297232
v 0.559917 -1.051675 -10.481075
v 0.561749 -1.051052 -10.483552
v 0.562991 -1.055317 -10.483706
v 0.561159 -1.055939 -10.481229
v 0.854334 -1.007676 -9.317389
v 0.857974 -1.011311 -9.315610
v 0.857070 -1.009183 -9.317738
v 0.852503 -1.008299 -9.314912
v 0.853745 -1.012563 -9.315065
v 0.857974 -1.011311 -9.315610
v 0.852503 -1.008299 -9.314912
v 2.652080 -0.480311 -9.546637
v 2.646946 -0.479434 -9.548220
v 2.647850 -0.481563 -9.546092
v 2.650837 -0.476047 -9.546484
v 2.648440 -0.476676 -9.548415
v 2.646946 -0.479434 -9.548220
v 2.652080 -0.480311 -9.546637
v 2.650837 -0.476047 -9.546484
v 2.646946 -0.479434 -9.548220
v 2.496745 -0.478433 -10.730480
v 2.495590 -0.483327 -10.732566
v 2.495251 -0.481191 -10.730285
v 2.498577 -0.477810 -10.732957
v 2.499820 -0.482075 -10.733110
v 2.495590 -0.483327 -10.732566
v 2.498577 -0.477810 -10.732957
v 0.701485 -1.014327 -10.501538
v 0.705376 -1.010940 -10.499803
v 0.705714 -1.013075 -10.502084
v 0.700242 -1.010062 -10.501386
v 0.702640 -1.009433 -10.499454
v 0.705376 -1.010940 -10.499803
v 0.701485 -1.014327 -10.501538
v 0.700242 -1.010062 -10.501386
v 0.705376 -1.010940 -10.499803
v 2.770307 -0.435277 -9.712555
v 2.773382 -0.438919 -9.715184
v 2.770646 -0.437413 -9.714836
v 2.772705 -0.434648 -9.710623
v 2.773947 -0.438913 -9.710776
v 2.773382 -0.438919 -9.715184
v 2.772705 -0.434648 -9.710623
v 2.659168 -0.440242 -10.605183
v 2.656998 -0.438729 -10.600426
v 2.659734 -0.440236 -10.600775
v 2.657926 -0.435978 -10.605030
v 2.656094 -0.436600 -10.602553
v 2.656998 -0.438729 -10.600426
v 2.659168 -0.440242 -10.605183
v 2.657926 -0.435978 -10.605030
v 2.656998 -0.438729 -10.600426
v 0.580772 -1.050832 -10.335314
v 0.580183 -1.055719 -10.332991
v 0.581676 -1.052961 -10.333187
v 0.578374 -1.051461 -10.337246
v 0.579617 -1.055726 -10.337399
v 0.580183 -1.055719 -10.332991
v 0.578374 -1.051461 -10.337246
v 0.694396 -1.054396 -9.442992
v 0.695324 -1.051644 -9.447597
v 0.693831 -1.054403 -9.447401
v 0.693154 -1.050132 -9.442840
v 0.694986 -1.049509 -9.445316
v 0.695324 -1.051644 -9.447597
v 0.694396 -1.054396 -9.442992
v 0.693154 -1.050132 -9.442840
v 0.695324 -1.051644 -9.447597
v 2.517600 -0.477590 -10.584720
v 2.514681 -0.480966 -10.578877
v 2.518505 -0.479719 -10.582592
v 2.513710 -0.480977 -10.586455
v 2.511331 -0.481842 -10.581668
v 2.514681 -0.480966 -10.578877
v 2.517600 -0.477590 -10.584720
v 2.515202 -0.478219 -10.586652
v 2.513710 -0.480977 -10.586455
v 2.517600 -0.477590 -10.584720
v 2.513710 -0.480977 -10.586455
v 2.514681 -0.480966 -10.578877
v 2.627516 -0.479659 -9.699627
v 2.624979 -0.480526 -9.696078
v 2.631815 -0.476267 -9.694721
v 2.632152 -0.478403 -9.697002
v 2.627516 -0.479659 -9.699627
v 2.628488 -0.479648 -9.692049
v 2.629982 -0.476890 -9.692245
v 2.631815 -0.476267 -9.694721
v 2.628488 -0.479648 -9.692049
v 2.631815 -0.476267 -9.694721
v 2.627516 -0.479659 -9.699627
v 0.724806 -1.010715 -10.348395
v 0.719266 -1.009842 -10.353148
v 0.720170 -1.011971 -10.351021
v 0.724806 -1.010715 -10.348395
v 0.723834 -1.010726 -10.355973
v 0.721098 -1.009220 -10.355624
v 0.719266 -1.009842 -10.353148
v 0.723834 -1.010726 -10.355973
v 0.719266 -1.009842 -10.353148
v 0.724806 -1.010715 -10.348395
v 0.833479 -1.008519 -9.463150
v 0.837640 -1.009407 -9.469145
v 0.833818 -1.010654 -9.465430
v 0.838612 -1.009396 -9.461567
v 0.840991 -1.008531 -9.466354
v 0.837640 -1.009407 -9.469145
v 0.833479 -1.008519 -9.463150
v 0.835877 -1.007890 -9.461218
v 0.838612 -1.009396 -9.461567
v 0.833479 -1.008519 -9.463150
v 0.838612 -1.009396 -9.461567
v 0.837640 -1.009407 -9.469145
v 2.611788 -0.350873 -9.543899
v 2.614185 -0.350244 -9.541967
v 2.613281 -0.348115 -9.544095
v 2.751775 -0.307125 -9.561929
v 2.752679 -0.309254 -9.559801
v 2.754511 -0.308631 -9.562278
v 2.619442 -0.310798 -10.598037
v 2.621274 -0.310175 -10.600513
v 2.618538 -0.308669 -10.600164
v 2.600080 -0.308882 -10.743994
v 2.602816 -0.310389 -10.744343
v 2.600419 -0.311018 -10.746275
v 0.665988 -0.883630 -10.494937
v 0.663590 -0.884260 -10.496869
v 0.663252 -0.882124 -10.494589
v 0.524758 -0.923114 -10.476754
v 0.525097 -0.925250 -10.479035
v 0.523265 -0.925872 -10.476559
v 0.658334 -0.923706 -9.440800
v 0.656502 -0.924329 -9.438323
v 0.657995 -0.921570 -9.438519
v 0.676453 -0.921357 -9.294689
v 0.674959 -0.924115 -9.294494
v 0.677356 -0.923486 -9.292562
v 0.814946 -0.880367 -9.312523
v 0.815850 -0.882496 -9.310395
v 0.817683 -0.881873 -9.312872
v 2.461587 -0.349872 -10.726160
v 2.461925 -0.352008 -10.728440
v 2.460093 -0.352630 -10.725964
v 2.595162 -0.350465 -9.690205
v 2.593330 -0.351087 -9.687728
v 2.594823 -0.348329 -9.687924
v 0.796489 -0.880581 -9.456352
v 0.799225 -0.882087 -9.456701
v 0.796827 -0.882716 -9.458633
v 2.733317 -0.307339 -9.705758
v 2.736053 -0.308845 -9.706106
v 2.733655 -0.309475 -9.708038
v 0.543216 -0.922900 -10.332926
v 0.541723 -0.925658 -10.332729
v 0.544120 -0.925029 -10.330798
v 2.480044 -0.349658 -10.582331
v 2.478551 -0.352417 -10.582135
v 2.480948 -0.351787 -10.580203
v 0.682614 -0.884039 -10.348632
v 0.684446 -0.883417 -10.351108
v 0.681710 -0.881910 -10.350760
v 2.455694 -0.498485 -10.505099
v 2.458092 -0.497856 -10.503167
v 2.460662 -0.499364 -10.504812
v 2.457264 -0.500256 -10.507538
v 2.556552 -0.498253 -9.757598
v 2.553649 -0.496749 -9.758546
v 2.551817 -0.497371 -9.756069
v 2.553953 -0.499136 -9.754100
v 0.795770 -0.992121 -10.290424
v 0.797430 -0.989361 -10.289324
v 0.799262 -0.988738 -10.291800
v 0.798370 -0.991238 -10.293922
v 0.895386 -0.987624 -9.542770
v 0.892987 -0.988254 -9.544703
v 0.891660 -0.991010 -9.543210
v 0.895058 -0.990118 -9.540484
v 2.296662 0.051014 -10.487747
v 2.300052 0.051904 -10.485016
v 2.298725 0.049148 -10.483529
v 2.296327 0.048519 -10.485460
v 2.394283 0.050255 -9.738907
v 2.395941 0.053015 -9.737811
v 2.393351 0.052134 -9.734309
v 2.392450 0.049632 -9.736430
v 0.638063 -0.442357 -10.269686
v 0.635161 -0.440853 -10.270628
v 0.637752 -0.439972 -10.274130
v 0.639895 -0.441734 -10.272161
v 0.734440 -0.438852 -9.520692
v 0.731050 -0.439742 -9.523423
v 0.733620 -0.441250 -9.525064
v 0.736018 -0.440621 -9.523131
v 2.599530 0.156141 -10.898108
v 2.602088 0.156807 -10.896049
v 2.600254 0.153977 -10.891955
v 2.596871 0.153089 -10.894697
v 2.789129 0.156164 -9.420159
v 2.791936 0.159006 -9.416671
v 2.789983 0.158347 -9.414031
v 2.786548 0.155286 -9.416650
v 0.241973 -0.544002 -10.588280
v 0.238013 -0.542887 -10.591626
v 0.239964 -0.542219 -10.594267
v 0.244554 -0.543124 -10.591789
v 0.430416 -0.540013 -9.110189
v 0.427861 -0.540688 -9.112248
v 0.430849 -0.541814 -9.116484
v 0.434232 -0.540927 -9.113743
v 2.603662 0.260149 -10.936625
v 2.606060 0.260778 -10.934692
v 2.606599 0.256433 -10.933787
v 2.604043 0.255762 -10.935843
v 2.805793 0.258740 -9.381585
v 2.805499 0.263088 -9.380586
v 2.803667 0.262466 -9.378109
v 2.803839 0.258076 -9.378949
v 0.172143 -0.464092 -10.620303
v 0.170039 -0.460209 -10.621007
v 0.171871 -0.459587 -10.623483
v 0.174096 -0.463428 -10.622938
v 0.371876 -0.457270 -9.064967
v 0.369478 -0.457899 -9.066899
v 0.371337 -0.461784 -9.068100
v 0.373892 -0.461114 -9.066045
v 2.593777 0.295053 -10.933167
v 2.596513 0.293546 -10.933517
v 2.594115 0.292917 -10.935449
v 2.794120 0.295234 -9.376933
v 2.795952 0.295857 -9.379409
v 2.793216 0.297363 -9.379061
v 0.162324 -0.426818 -10.622307
v 0.160492 -0.427441 -10.619830
v 0.161986 -0.424683 -10.620026
v 0.361424 -0.422373 -9.065919
v 0.359931 -0.425131 -9.065722
v 0.362328 -0.424502 -9.063791
v 2.652080 -0.480311 -9.546637
v 2.790573 -0.439321 -9.564470
v 0.579570 -1.119131 -10.483498
v 0.581402 -1.118508 -10.485973
v 2.640711 -0.440456 -10.749012
v 2.659122 -0.503647 -10.751281
v 2.656723 -0.504277 -10.753213
v 2.638313 -0.441085 -10.750944
v 2.810816 -0.501890 -9.569216
v 2.808984 -0.502513 -9.566739
v 0.712854 -1.054182 -9.299164
v 0.731264 -1.117374 -9.301432
v 0.733662 -1.116744 -9.299500
v 0.715251 -1.053553 -9.297232
v 0.857974 -1.011311 -9.315610
v 2.647850 -0.481563 -9.546092
v 2.646946 -0.479434 -9.548220
v 0.857070 -1.009183 -9.317738
v 2.495590 -0.483327 -10.732566
v 0.705714 -1.013075 -10.502084
v 0.705376 -1.010940 -10.499803
v 2.495251 -0.481191 -10.730285
v 2.670491 -0.543503 -9.548905
v 2.647850 -0.481563 -9.546092
v 2.666261 -0.544754 -9.548361
v 0.705714 -1.013075 -10.502084
v 0.724125 -1.076267 -10.504353
v 2.628488 -0.479648 -9.692049
v 2.646946 -0.479434 -9.548220
v 2.648440 -0.476676 -9.548415
v 2.629982 -0.476890 -9.692245
v 0.835877 -1.007890 -9.461218
v 0.854334 -1.007676 -9.317389
v 0.857070 -1.009183 -9.317738
v 0.838612 -1.009396 -9.461567
v 2.773382 -0.438919 -9.715184
v 2.659734 -0.440236 -10.600775
v 2.656998 -0.438729 -10.600426
v 2.770646 -0.437413 -9.714836
v 0.580183 -1.055719 -10.332991
v 0.693831 -1.054403 -9.447401
v 0.695324 -1.051644 -9.447597
v 0.581676 -1.052961 -10.333187
v 2.495251 -0.481191 -10.730285
v 2.513710 -0.480977 -10.586455
v 2.515202 -0.478219 -10.586652
v 2.496745 -0.478433 -10.730480
v 0.702640 -1.009433 -10.499454
v 0.721098 -1.009220 -10.355624
v 0.723834 -1.010726 -10.355973
v 0.705376 -1.010940 -10.499803
v 0.837640 -1.009407 -9.469145
v 0.724806 -1.010715 -10.348395
v 0.838612 -1.009396 -9.461567
v 2.628488 -0.479648 -9.692049
v 2.770646 -0.437413 -9.714836
v 2.632152 -0.478403 -9.697002
v 2.631815 -0.476267 -9.694721
v 2.770307 -0.435277 -9.712555
v 2.656094 -0.436600 -10.602553
v 2.517600 -0.477590 -10.584720
v 2.518505 -0.479719 -10.582592
v 2.656998 -0.438729 -10.600426
v 2.773947 -0.438913 -9.710776
v 2.792358 -0.502104 -9.713045
v 2.659734 -0.440236 -10.600775
v 2.678145 -0.503427 -10.603044
v 0.693831 -1.054403 -9.447401
v 0.712241 -1.117594 -9.449670
v 0.833818 -1.010654 -9.465430
v 0.695324 -1.051644 -9.447597
v 0.694986 -1.049509 -9.445316
v 0.833479 -1.008519 -9.463150
v 0.719266 -1.009842 -10.353148
v 0.580772 -1.050832 -10.335314
v 0.581676 -1.052961 -10.333187
v 0.720170 -1.011971 -10.351021
v 2.614185 -0.350244 -9.541967
v 2.752679 -0.309254 -9.559801
v 2.751775 -0.307125 -9.561929
v 2.613281 -0.348115 -9.544095
v 2.621274 -0.310175 -10.600513
v 2.602816 -0.310389 -10.744343
v 2.600080 -0.308882 -10.743994
v 2.618538 -0.308669 -10.600164
v 0.663590 -0.884260 -10.496869
v 0.525097 -0.925250 -10.479035
v 0.524758 -0.923114 -10.476754
v 0.663252 -0.882124 -10.494589
v 0.656502 -0.924329 -9.438323
v 0.674959 -0.924115 -9.294494
v 0.676453 -0.921357 -9.294689
v 0.657995 -0.921570 -9.438519
v 0.677356 -0.923486 -9.292562
v 0.815850 -0.882496 -9.310395
v 0.814946 -0.880367 -9.312523
v 0.676453 -0.921357 -9.294689
v 2.600419 -0.311018 -10.746275
v 2.461925 -0.352008 -10.728440
v 2.461587 -0.349872 -10.726160
v 2.600080 -0.308882 -10.743994
v 2.593330 -0.351087 -9.687728
v 2.611788 -0.350873 -9.543899
v 2.613281 -0.348115 -9.544095
v 2.594823 -0.348329 -9.687924
v 0.796489 -0.880581 -9.456352
v 0.814946 -0.880367 -9.312523
v 0.817683 -0.881873 -9.312872
v 0.799225 -0.882087 -9.456701
v 2.754511 -0.308631 -9.562278
v 2.736053 -0.308845 -9.706106
v 2.733317 -0.307339 -9.705758
v 2.751775 -0.307125 -9.561929
v 0.523265 -0.925872 -10.476559
v 0.541723 -0.925658 -10.332729
v 0.543216 -0.922900 -10.332926
v 0.524758 -0.923114 -10.476754
v 2.460093 -0.352630 -10.725964
v 2.478551 -0.352417 -10.582135
v 2.480044 -0.349658 -10.582331
v 2.461587 -0.349872 -10.726160
v 0.663252 -0.882124 -10.494589
v 0.681710 -0.881910 -10.350760
v 0.684446 -0.883417 -10.351108
v 0.665988 -0.883630 -10.494937
v 2.733655 -0.309475 -9.708038
v 2.595162 -0.350465 -9.690205
v 2.594823 -0.348329 -9.687924
v 2.733317 -0.307339 -9.705758
v 2.618538 -0.308669 -10.600164
v 2.480044 -0.349658 -10.582331
v 2.480948 -0.351787 -10.580203
v 2.619442 -0.310798 -10.598037
v 0.796827 -0.882716 -9.458633
v 0.658334 -0.923706 -9.440800
v 0.657995 -0.921570 -9.438519
v 0.796489 -0.880581 -9.456352
v 0.681710 -0.881910 -10.350760
v 0.543216 -0.922900 -10.332926
v 0.544120 -0.925029 -10.330798
v 0.682614 -0.884039 -10.348632
v 0.677356 -0.923486 -9.292562
v 0.674959 -0.924115 -9.294494
v 0.658334 -0.923706 -9.440800
v 0.694986 -1.049509 -9.445316
v 0.693154 -1.050132 -9.442840
v 0.656502 -0.924329 -9.438323
v 0.700242 -1.010062 -10.501386
v 0.663590 -0.884260 -10.496869
v 0.665988 -0.883630 -10.494937
v 0.702640 -1.009433 -10.499454
v 0.682614 -0.884039 -10.348632
v 0.719266 -1.009842 -10.353148
v 0.721098 -1.009220 -10.355624
v 0.684446 -0.883417 -10.351108
v 0.854334 -1.007676 -9.317389
v 0.817683 -0.881873 -9.312872
v 0.815850 -0.882496 -9.310395
v 0.852503 -1.008299 -9.314912
v 2.650837 -0.476047 -9.546484
v 2.614185 -0.350244 -9.541967
v 2.611788 -0.350873 -9.543899
v 2.648440 -0.476676 -9.548415
v 2.595162 -0.350465 -9.690205
v 2.631815 -0.476267 -9.694721
v 2.629982 -0.476890 -9.692245
v 2.593330 -0.351087 -9.687728
v 2.770307 -0.435277 -9.712555
v 2.733655 -0.309475 -9.708038
v 2.736053 -0.308845 -9.706106
v 2.772705 -0.434648 -9.710623
v 2.752679 -0.309254 -9.559801
v 2.789331 -0.435057 -9.564318
v 2.791163 -0.434434 -9.566794
v 2.754511 -0.308631 -9.562278
v 0.833479 -1.008519 -9.463150
v 0.796827 -0.882716 -9.458633
v 0.799225 -0.882087 -9.456701
v 0.835877 -1.007890 -9.461218
v 2.496745 -0.478433 -10.730480
v 2.460093 -0.352630 -10.725964
v 2.461925 -0.352008 -10.728440
v 2.498577 -0.477810 -10.732957
v 2.602816 -0.310389 -10.744343
v 2.639468 -0.436191 -10.748859
v 2.637071 -0.436821 -10.750791
v 2.600419 -0.311018 -10.746275
v 0.580772 -1.050832 -10.335314
v 0.544120 -0.925029 -10.330798
v 0.541723 -0.925658 -10.332729
v 0.578374 -1.051461 -10.337246
v 0.525097 -0.925250 -10.479035
v 0.561749 -1.051052 -10.483552
v 0.559917 -1.051675 -10.481075
v 0.523265 -0.925872 -10.476559
v 2.619442 -0.310798 -10.598037
v 2.656094 -0.436600 -10.602553
v 2.657926 -0.435978 -10.605030
v 2.621274 -0.310175 -10.600513
v 2.517600 -0.477590 -10.584720
v 2.480948 -0.351787 -10.580203
v 2.478551 -0.352417 -10.582135
v 2.515202 -0.478219 -10.586652
v 2.458092 -0.497856 -10.503167
v 2.553649 -0.496749 -9.758546
v 2.556552 -0.498253 -9.757598
v 2.460662 -0.499364 -10.504812
v 0.795770 -0.992121 -10.290424
v 0.891660 -0.991010 -9.543210
v 0.892987 -0.988254 -9.544703
v 0.797430 -0.989361 -10.289324
v 2.551817 -0.497371 -9.756069
v 0.895386 -0.987624 -9.542770
v 0.895058 -0.990118 -9.540484
v 2.553953 -0.499136 -9.754100
v 2.457264 -0.500256 -10.507538
v 0.798370 -0.991238 -10.293922
v 0.799262 -0.988738 -10.291800
v 2.455694 -0.498485 -10.505099
v 0.891660 -0.991010 -9.543210
v 0.795770 -0.992121 -10.290424
v 2.460662 -0.499364 -10.504812
v 2.514681 -0.480966 -10.578877
v 2.627516 -0.479659 -9.699627
v 2.556552 -0.498253 -9.757598
v 2.300052 0.051904 -10.485016
v 2.395941 0.053015 -9.737811
v 2.394283 0.050255 -9.738907
v 2.298725 0.049148 -10.483529
v 0.638063 -0.442357 -10.269686
v 0.733620 -0.441250 -9.525064
v 0.731050 -0.439742 -9.523423
v 0.635161 -0.440853 -10.270628
v 2.393351 0.052134 -9.734309
v 0.734440 -0.438852 -9.520692
v 0.736018 -0.440621 -9.523131
v 2.392450 0.049632 -9.736430
v 2.296327 0.048519 -10.485460
v 0.639895 -0.441734 -10.272161
v 0.637752 -0.439972 -10.274130
v 2.296662 0.051014 -10.487747
v 2.553649 -0.496749 -9.758546
v 2.394283 0.050255 -9.738907
v 2.392450 0.049632 -9.736430
v 2.551817 -0.497371 -9.756069
v 0.733620 -0.441250 -9.525064
v 0.892987 -0.988254 -9.544703
v 0.895386 -0.987624 -9.542770
v 0.736018 -0.440621 -9.523131
v 2.455694 -0.498485 -10.505099
v 2.296327 0.048519 -10.485460
v 2.298725 0.049148 -10.483529
v 2.458092 -0.497856 -10.503167
v 0.797430 -0.989361 -10.289324
v 0.638063 -0.442357 -10.269686
v 0.639895 -0.441734 -10.272161
v 0.799262 -0.988738 -10.291800
v 2.602088 0.156807 -10.896049
v 2.791936 0.159006 -9.416671
v 2.789129 0.156164 -9.420159
v 2.600254 0.153977 -10.891955
v 0.241973 -0.544002 -10.588280
v 0.430849 -0.541814 -9.116484
v 0.427861 -0.540688 -9.112248
v 0.238013 -0.542887 -10.591626
v 2.789983 0.158347 -9.414031
v 0.430416 -0.540013 -9.110189
v 0.434232 -0.540927 -9.113743
v 2.786548 0.155286 -9.416650
v 2.596871 0.153089 -10.894697
v 0.244554 -0.543124 -10.591789
v 0.239964 -0.542219 -10.594267
v 2.599530 0.156141 -10.898108
v 0.244554 -0.543124 -10.591789
v 0.637752 -0.439972 -10.274130
v 2.296662 0.051014 -10.487747
v 2.596871 0.153089 -10.894697
v 0.430849 -0.541814 -9.116484
v 0.731050 -0.439742 -9.523423
v 2.786548 0.155286 -9.416650
v 2.393351 0.052134 -9.734309
v 2.606060 0.260778 -10.934692
v 2.805499 0.263088 -9.380586
v 2.805793 0.258740 -9.381585
v 2.606599 0.256433 -10.933787
v 0.172143 -0.464092 -10.620303
v 0.371337 -0.461784 -9.068100
v 0.369478 -0.457899 -9.066899
v 0.170039 -0.460209 -10.621007
v 2.803667 0.262466 -9.378109
v 0.371876 -0.457270 -9.064967
v 0.373892 -0.461114 -9.066045
v 2.803839 0.258076 -9.378949
v 2.604043 0.255762 -10.935843
v 0.174096 -0.463428 -10.622938
v 0.171871 -0.459587 -10.623483
v 2.603662 0.260149 -10.936625
v 2.791936 0.159006 -9.416671
v 2.805793 0.258740 -9.381585
v 2.803839 0.258076 -9.378949
v 2.789983 0.158347 -9.414031
v 0.371337 -0.461784 -9.068100
v 0.427861 -0.540688 -9.112248
v 0.430416 -0.540013 -9.110189
v 0.373892 -0.461114 -9.066045
v 2.599530 0.156141 -10.898108
v 2.604043 0.255762 -10.935843
v 2.606599 0.256433 -10.933787
v 2.602088 0.156807 -10.896049
v 0.238013 -0.542887 -10.591626
v 0.172143 -0.464092 -10.620303
v 0.174096 -0.463428 -10.622938
v 0.239964 -0.542219 -10.594267
v 2.593777 0.295053 -10.933167
v 2.793216 0.297363 -9.379061
v 2.795952 0.295857 -9.379409
v 2.596513 0.293546 -10.933517
v 0.160492 -0.427441 -10.619830
v 0.359931 -0.425131 -9.065722
v 0.361424 -0.422373 -9.065919
v 0.161986 -0.424683 -10.620026
v 2.793216 0.297363 -9.379061
v 0.361424 -0.422373 -9.065919
v 0.362328 -0.424502 -9.063791
v 2.794120 0.295234 -9.376933
v 2.594115 0.292917 -10.935449
v 0.162324 -0.426818 -10.622307
v 0.161986 -0.424683 -10.620026
v 2.593777 0.295053 -10.933167
v 0.170039 -0.460209 -10.621007
v 0.160492 -0.427441 -10.619830
v 0.162324 -0.426818 -10.622307
v 0.171871 -0.459587 -10.623483
v 2.596513 0.293546 -10.933517
v 2.606060 0.260778 -10.934692
v 2.603662 0.260149 -10.936625
v 2.594115 0.292917 -10.935449
v 0.371876 -0.457270 -9.064967
v 0.362328 -0.424502 -9.063791
v 0.359931 -0.425131 -9.065722
v 0.369478 -0.457899 -9.066899
v 2.805499 0.263088 -9.380586
v 2.795952 0.295857 -9.379409
v 2.794120 0.295234 -9.376933
v 2.803667 0.262466 -9.378109
v 2.808984 -0.502513 -9.566739
vn 0.4614 0.7173 0.5221
vn 0.1273 0.0015 0.9919
vn 0.4615 0.7175 0.5217
vn -0.1077 0.6795 0.7257
vn -0.6373 0.3922 0.6633
vn -0.3117 -0.1247 0.9420
vn -0.7843 0.3905 -0.4821
vn -0.1273 -0.0015 -0.9919
vn -0.7844 0.3905 -0.4819
vn -0.2877 0.6774 -0.6770
vn 0.3146 0.7158 -0.6235
vn 0.3117 0.1246 -0.9420
vn 0.3145 0.7155 -0.6238
vn 0.9517 0.2817 -0.1225
vn 0.3145 0.7158 -0.6235
vn 0.4752 0.8777 -0.0623
vn 0.4614 0.7175 0.5218
vn 0.9081 0.2526 0.3340
vn -0.6374 0.3921 0.6633
vn -0.9516 -0.2817 0.1227
vn -0.8706 0.4794 0.1109
vn -0.7844 0.3905 -0.4820
vn -0.9081 -0.2525 -0.3340
vn 0.3353 0.7333 0.5915
vn -0.2796 0.9595 0.0345
vn -0.6373 0.3920 0.6635
vn -0.6756 0.7323 0.0856
vn -0.2795 0.9595 0.0344
vn 0.1749 0.7315 -0.6590
vn -0.7842 0.3904 -0.4822
vn -0.6756 0.7323 0.0855
vn -0.2794 0.9595 0.0344
vn -0.5273 0.4782 0.7024
vn 0.1755 0.9842 -0.0239
vn -0.6877 0.4762 -0.5480
vn 0.1756 0.9842 -0.0240
vn -0.6374 0.3923 0.6632
vn 0.4615 0.7175 0.5218
vn 0.4615 0.7174 0.5218
vn 0.3146 0.7157 -0.6235
vn -0.7843 0.3905 -0.4820
vn -0.7843 0.3904 -0.4822
vn -0.6373 0.3921 0.6634
vn 0.4616 0.7174 0.5218
vn 0.3144 0.7157 -0.6236
vn 0.3146 0.7158 -0.6234
vn -0.6375 0.3922 0.6632
vn -0.6373 0.3923 0.6633
vn 0.4616 0.7175 0.5217
vn -0.2796 0.9595 0.0344
vn -0.9517 -0.2817 0.1225
vn -0.9517 -0.2817 0.1226
vn 0.2795 -0.9595 -0.0344
vn 0.2796 -0.9595 -0.0344
vn -0.7811 -0.6162 0.1012
vn -0.0158 -0.3536 -0.9353
vn 0.2210 -0.3508 0.9100
vn 0.9876 -0.0927 -0.1266
vn 0.7630 0.2002 0.6146
vn 0.7629 0.2002 0.6147
vn 0.5829 0.1981 -0.7880
vn 0.5830 0.1981 -0.7880
vn -0.5830 -0.1981 0.7879
vn -0.5830 -0.1982 0.7880
vn -0.7629 -0.2001 -0.6148
vn -0.7630 -0.2002 -0.6146
vn 0.1789 0.8477 -0.4994
vn 0.1786 0.8479 -0.4993
vn 0.1789 0.8478 -0.4992
vn 0.1786 0.8477 -0.4995
vn 0.2985 0.8491 0.4357
vn 0.2985 0.8492 0.4357
vn 0.2986 0.8491 0.4358
vn -0.7158 0.5830 -0.3843
vn -0.7158 0.5829 -0.3844
vn -0.5960 0.5842 0.5508
vn -0.5960 0.5846 0.5505
vn -0.5961 0.5843 0.5507
vn -0.5957 0.5844 0.5511
vn 0.5966 -0.5844 -0.5500
vn 0.5966 -0.5843 -0.5501
vn 0.7164 -0.5829 0.3835
vn 0.7163 -0.5830 0.3834
vn -0.2990 -0.8494 -0.4348
vn -0.2991 -0.8494 -0.4348
vn -0.1793 -0.8480 0.4987
vn -0.1792 -0.8480 0.4987
vn 0.4861 -0.8050 -0.3403
vn 0.4860 -0.8050 -0.3403
vn 0.4862 -0.8049 -0.3404
vn 0.4863 -0.8048 -0.3403
vn 0.5566 -0.8040 0.2090
vn 0.5565 -0.8041 0.2092
vn 0.5565 -0.8041 0.2091
vn 0.5567 -0.8040 0.2089
vn -0.0424 -0.9613 -0.2724
vn -0.0422 -0.9613 -0.2723
vn -0.0422 -0.9613 -0.2724
vn -0.0425 -0.9613 -0.2723
vn 0.0283 -0.9605 0.2770
vn 0.0281 -0.9604 0.2770
vn 0.0280 -0.9605 0.2770
vn 0.6381 -0.0804 -0.7657
vn 0.6379 -0.0806 -0.7659
vn 0.8106 -0.0786 0.5802
vn 0.8106 -0.0788 0.5802
vn -0.6529 -0.4626 -0.5998
vn -0.6528 -0.4626 -0.5998
vn -0.4805 -0.4606 0.7463
vn -0.4801 -0.4606 0.7466
vn 0.9517 0.2816 -0.1225
vn 0.9516 0.2817 -0.1225
vn -0.1273 -0.0014 -0.9919
vn -0.9517 -0.2816 0.1225
vn -0.9517 -0.2816 0.1226
vn -0.7629 -0.2002 -0.6148
vn 0.5828 0.1981 -0.7881
vn 0.7628 0.2002 0.6149
vn -0.5828 -0.1981 0.7881
vn -0.5830 -0.1982 0.7879
vn -0.1077 0.6795 0.7258
vn -0.1077 0.6796 0.7256
vn -0.2877 0.6775 -0.6770
vn -0.8706 0.4793 0.1110
vn 0.9517 0.2816 -0.1226
vn 0.4753 0.8776 -0.0623
vn -0.9516 -0.2817 0.1226
vn -0.8706 0.4794 0.1110
vn -0.8707 0.4791 0.1110
vn -0.8706 0.4792 0.1110
vn 0.4752 0.8776 -0.0623
vn -0.2877 0.6775 -0.6769
vn -0.2877 0.6774 -0.6771
vn 0.9516 0.2817 -0.1226
vn 0.9517 0.2817 -0.1226
vn 0.9517 0.2817 -0.1224
vn -0.1077 0.6796 0.7257
vn -0.5829 -0.1981 0.7880
vn -0.7629 -0.2002 -0.6147
vn 0.5830 0.1982 -0.7879
vn -0.5830 -0.1981 0.7880
vn -0.5829 -0.1981 0.7881
vn -0.7628 -0.2002 -0.6149
vn 0.5829 0.1981 -0.7881
vn 0.5830 0.1981 -0.7879
vn 0.5827 0.1981 -0.7882
vn -0.7630 -0.2002 -0.6145
vn 0.5831 0.1982 -0.7879
vn -0.7630 -0.2002 -0.6147
vn -0.5831 -0.1982 0.7879
vn -0.5827 -0.1981 0.7882
vn 0.4754 0.8776 -0.0623
vn -0.2794 0.9595 0.0345
vn -0.2795 0.9595 0.0345
vn 0.8706 -0.4793 -0.1110
vn -0.4752 -0.8777 0.0623
vn -0.4753 -0.8776 0.0623
vn 0.2877 -0.6774 0.6770
vn 0.2877 -0.6775 0.6770
vn 0.1077 -0.6795 -0.7257
vn 0.5827 0.1981 -0.7881
vn 0.7657 -0.6358 -0.0973
vn 0.7656 -0.6359 -0.0973
vn -0.3031 -0.9521 0.0403
vn -0.3030 -0.9521 0.0403
vn 0.3027 -0.7924 0.5295
vn 0.3027 -0.7924 0.5296
vn 0.3028 -0.7927 0.5292
vn 0.1596 -0.7943 -0.5861
vn 0.2795 -0.9595 -0.0345
vn 0.2796 -0.9595 -0.0345
vn 0.9873 0.0959 -0.1268
vn 0.9872 0.0963 -0.1268
vn -0.8822 -0.4569 0.1139
vn 0.1773 -0.1780 0.9679
vn 0.1773 -0.1778 0.9680
vn -0.0727 -0.1812 -0.9808
vn -0.0728 -0.1808 -0.9808
vn 0.8019 -0.2944 0.5200
vn 0.8019 -0.2944 0.5199
vn -0.3715 -0.6416 0.6710
vn -0.3716 -0.6416 0.6710
vn 0.6449 -0.2961 -0.7046
vn 0.6451 -0.2961 -0.7044
vn -0.5285 -0.6434 -0.5538
vn -0.5287 -0.6434 -0.5536
vn 0.7629 0.2002 0.6148
vt 0.228690 0.271590
vt 0.227960 0.271080
vt 0.228320 0.271590
vt 0.228690 0.271080
vt 0.658390 0.034680
vt 0.658030 0.035700
vt 0.658390 0.035700
vt 0.657670 0.034680
vt 0.657670 0.035190
vt 0.179130 0.271470
vt 0.178400 0.270960
vt 0.178760 0.271470
vt 0.179130 0.270960
vt 0.623620 0.034680
vt 0.623260 0.035700
vt 0.623620 0.035700
vt 0.622890 0.034680
vt 0.622890 0.035190
vt 0.226500 0.376920
vt 0.227230 0.377430
vt 0.226870 0.376920
vt 0.226500 0.377420
vt 0.461140 0.397680
vt 0.461510 0.396670
vt 0.461140 0.396670
vt 0.461870 0.397680
vt 0.461870 0.397170
vt 0.226500 0.340720
vt 0.227230 0.341220
vt 0.226870 0.340720
vt 0.226500 0.341220
vt 0.106960 0.380080
vt 0.107320 0.379060
vt 0.106960 0.379060
vt 0.107690 0.380080
vt 0.107690 0.379570
vt 0.200580 0.340720
vt 0.200940 0.341730
vt 0.200940 0.340720
vt 0.200940 0.342430
vt 0.200580 0.341220
vt 0.529730 0.964300
vt 0.530980 0.964300
vt 0.530450 0.963600
vt 0.530090 0.965320
vt 0.530450 0.965320
vt 0.529730 0.964810
vt 0.677370 0.535700
vt 0.676120 0.535700
vt 0.676640 0.536400
vt 0.677000 0.534680
vt 0.676640 0.534680
vt 0.677370 0.535190
vt 0.250140 0.376920
vt 0.250500 0.377930
vt 0.250500 0.376920
vt 0.250500 0.378640
vt 0.250140 0.377420
vt 0.250140 0.340720
vt 0.250140 0.341220
vt 0.250500 0.340720
vt 0.179130 0.413120
vt 0.178760 0.413120
vt 0.179130 0.413630
vt 0.179130 0.307550
vt 0.179130 0.307040
vt 0.178760 0.307550
vt 0.228800 0.413120
vt 0.228800 0.413630
vt 0.229160 0.413120
vt 0.226500 0.304510
vt 0.226500 0.305020
vt 0.226870 0.304510
vt 0.254720 0.379960
vt 0.255080 0.379960
vt 0.254720 0.379450
vt 0.228690 0.343750
vt 0.228690 0.343250
vt 0.228320 0.343750
vt 0.179130 0.343750
vt 0.179130 0.343250
vt 0.178760 0.343750
vt 0.179130 0.376920
vt 0.178760 0.376920
vt 0.179130 0.377420
vt 0.228800 0.379960
vt 0.229160 0.379960
vt 0.228800 0.379450
vt 0.205050 0.343750
vt 0.205050 0.343250
vt 0.204690 0.343750
vt 0.202870 0.376920
vt 0.202870 0.377420
vt 0.203230 0.376920
vt 0.202870 0.413120
vt 0.202870 0.413630
vt 0.203230 0.413120
vt 0.230980 0.379960
vt 0.230980 0.379450
vt 0.230610 0.379960
vt 0.205050 0.379960
vt 0.205050 0.379450
vt 0.204690 0.379960
vt 0.205050 0.307550
vt 0.205050 0.307040
vt 0.204690 0.307550
vt 0.257630 0.998480
vt 0.257630 0.998990
vt 0.258000 0.998480
vt 0.727190 0.416160
vt 0.727190 0.415650
vt 0.726830 0.416160
vt 0.703290 0.416160
vt 0.703290 0.415650
vt 0.702930 0.416160
vt 0.001090 0.416160
vt 0.001090 0.415650
vt 0.000730 0.416160
vt 0.677370 0.964300
vt 0.701110 0.964300
vt 0.701110 0.535700
vt 0.096190 0.141540
vt 0.096190 0.174580
vt 0.106960 0.174580
vt 0.106960 0.141540
vt 0.450370 0.159140
vt 0.450370 0.192180
vt 0.461140 0.192180
vt 0.461140 0.159140
vt 0.669170 0.498480
vt 0.669170 0.465320
vt 0.658390 0.465320
vt 0.658390 0.498480
vt 0.634400 0.498480
vt 0.634400 0.465320
vt 0.623620 0.465320
vt 0.623620 0.498480
vt 0.634400 0.034680
vt 0.634400 0.001520
vt 0.623620 0.001520
vt 0.634400 0.464300
vt 0.634400 0.035700
vt 0.623620 0.464300
vt 0.096190 0.380080
vt 0.096190 0.413120
vt 0.106960 0.413120
vt 0.505980 0.964300
vt 0.529730 0.535700
vt 0.505980 0.535700
vt 0.107690 0.413120
vt 0.129140 0.413120
vt 0.129140 0.380080
vt 0.179130 0.304510
vt 0.200580 0.304510
vt 0.200580 0.271470
vt 0.228690 0.304630
vt 0.250140 0.304630
vt 0.250140 0.271590
vt 0.202870 0.379960
vt 0.179130 0.379960
vt 0.450370 0.193200
vt 0.450370 0.396670
vt 0.461140 0.193200
vt 0.226500 0.343750
vt 0.205050 0.376920
vt 0.450370 0.397680
vt 0.450370 0.430720
vt 0.461140 0.430720
vt 0.096190 0.175600
vt 0.096190 0.379060
vt 0.106960 0.175600
vt 0.461870 0.159140
vt 0.461870 0.192180
vt 0.483320 0.192180
vt 0.483320 0.159140
vt 0.530450 0.998480
vt 0.676640 0.998480
vt 0.676640 0.965320
vt 0.107690 0.141540
vt 0.107690 0.174580
vt 0.129140 0.174580
vt 0.129140 0.141540
vt 0.226500 0.307550
vt 0.205050 0.340720
vt 0.202870 0.343750
vt 0.230980 0.413120
vt 0.254720 0.413120
vt 0.205050 0.413120
vt 0.353090 0.430720
vt 0.353090 0.034070
vt 0.259810 0.034070
vt 0.259810 0.430720
vt 0.657670 0.001520
vt 0.636220 0.001520
vt 0.636220 0.034680
vt 0.228690 0.307670
vt 0.228690 0.340720
vt 0.250140 0.307670
vt 0.461870 0.430720
vt 0.483320 0.430720
vt 0.483320 0.397680
vt 0.622890 0.498480
vt 0.622890 0.465320
vt 0.601440 0.465320
vt 0.601440 0.498480
vt 0.676640 0.963600
vt 0.665730 0.551380
vt 0.665730 0.948620
vt 0.622890 0.001520
vt 0.601440 0.001520
vt 0.601440 0.034680
vt 0.657670 0.498480
vt 0.657670 0.465320
vt 0.636220 0.465320
vt 0.636220 0.498480
vt 0.250140 0.343750
vt 0.228690 0.376920
vt 0.200580 0.307550
vt 0.179130 0.340720
vt 0.669170 0.464300
vt 0.669170 0.035700
vt 0.658390 0.464300
vt 0.205050 0.271470
vt 0.205050 0.304510
vt 0.226500 0.271470
vt 0.530450 0.534680
vt 0.676640 0.501520
vt 0.530450 0.501520
vt 0.094370 0.413120
vt 0.094370 0.242040
vt 0.001090 0.242040
vt 0.001090 0.413120
vt 0.530450 0.536400
vt 0.541360 0.948620
vt 0.541360 0.551380
vt 0.530980 0.535700
vt 0.541870 0.550660
vt 0.665220 0.550660
vt 0.676120 0.964300
vt 0.665220 0.949340
vt 0.541870 0.949340
vt 0.320140 0.516780
vt 0.443480 0.516780
vt 0.503280 0.433760
vt 0.260330 0.433760
vt 0.599260 0.498480
vt 0.599260 0.101830
vt 0.505980 0.101830
vt 0.505980 0.498480
vt 0.448550 0.430720
vt 0.448550 0.259640
vt 0.355270 0.259640
vt 0.355270 0.430720
vt 0.443990 0.517500
vt 0.443990 0.914740
vt 0.503800 0.997770
vt 0.503800 0.434480
vt 0.153060 0.404540
vt 0.153060 0.064640
vt 0.137620 0.056280
vt 0.137620 0.412900
vt 0.725030 0.989830
vt 0.725030 0.424810
vt 0.709590 0.416380
vt 0.709590 0.998260
vt 0.443480 0.915460
vt 0.320140 0.915460
vt 0.260330 0.998480
vt 0.503280 0.998480
vt 0.319620 0.914740
vt 0.319620 0.517500
vt 0.259810 0.434480
vt 0.259810 0.997770
vt 0.160810 0.413120
vt 0.160810 0.056060
vt 0.155220 0.056060
vt 0.155220 0.413120
vt 0.748930 0.989830
vt 0.748930 0.424810
vt 0.733490 0.416380
vt 0.733490 0.998260
vt 0.176970 0.404540
vt 0.176970 0.064640
vt 0.161520 0.056280
vt 0.161520 0.412900
vt 0.708880 0.998480
vt 0.708880 0.416160
vt 0.703290 0.998480
vt 0.001090 0.998480
vt 0.257630 0.416160
vt 0.136910 0.413120
vt 0.136910 0.056060
vt 0.131320 0.056060
vt 0.131320 0.413120
vt 0.732780 0.998480
vt 0.732780 0.416160
vt 0.727190 0.998480
vt 0.461870 0.158630
vt 0.461140 0.158630
vt 0.622890 0.498990
vt 0.623620 0.498990
vt 0.657670 0.498990
vt 0.658390 0.498990
vt 0.107690 0.141030
vt 0.106960 0.141030
vt 0.353090 0.431230
vt 0.353450 0.431740
vt 0.353450 0.431020
vt 0.542090 0.948830
vt 0.541720 0.948330
vt 0.665000 0.551170
vt 0.665370 0.551670
vt 0.599260 0.498990
vt 0.599620 0.499490
vt 0.599620 0.498780
vt 0.443270 0.517290
vt 0.443630 0.517790
vt 0.354910 0.431020
vt 0.354910 0.431740
vt 0.355270 0.431230
vt 0.000730 0.413420
vt 0.000730 0.414130
vt 0.001090 0.413630
vt 0.320350 0.914950
vt 0.319990 0.914450
vt 0.725160 0.990370
vt 0.725680 0.989680
vt 0.725500 0.988970
vt 0.259710 0.433070
vt 0.259320 0.433610
vt 0.503910 0.999170
vt 0.504300 0.998630
vt 0.749060 0.990370
vt 0.749580 0.989680
vt 0.749400 0.988970
vt 0.708880 0.998990
vt 0.709580 0.998800
vt 0.709580 0.998260
vt 0.160860 0.413120
vt 0.160980 0.413630
vt 0.161650 0.413440
vt 0.136950 0.413120
vt 0.137080 0.413630
vt 0.137750 0.413440
vt 0.732780 0.998990
vt 0.733480 0.998800
vt 0.733480 0.998260
vt 0.658390 0.001520
vt 0.096190 0.141030
vt 0.450370 0.431230
vt 0.461140 0.431230
vt 0.450370 0.158630
vt 0.096190 0.413630
vt 0.106960 0.413630
vt 0.658030 0.464300
vt 0.623260 0.464300
vt 0.669170 0.034680
vt 0.505980 0.964810
vt 0.228320 0.304630
vt 0.461510 0.193200
vt 0.107320 0.175600
vt 0.677370 0.964810
vt 0.701110 0.964810
vt 0.204690 0.271470
vt 0.204690 0.304510
vt 0.530090 0.998480
vt 0.200940 0.307550
vt 0.530090 0.501520
vt 0.530090 0.534680
vt 0.226870 0.307550
vt 0.635850 0.001520
vt 0.635850 0.034680
vt 0.483690 0.430720
vt 0.483690 0.397680
vt 0.601080 0.001520
vt 0.601080 0.034680
vt 0.129500 0.413120
vt 0.129500 0.380080
vt 0.635850 0.465320
vt 0.635850 0.498480
vt 0.601080 0.465320
vt 0.601080 0.498480
vt 0.250500 0.307670
vt 0.483690 0.192180
vt 0.483690 0.159140
vt 0.129500 0.174580
vt 0.129500 0.141540
vt 0.200940 0.304510
vt 0.200940 0.271470
vt 0.230980 0.413630
vt 0.254720 0.413630
vt 0.204690 0.376920
vt 0.204690 0.413120
vt 0.228320 0.376920
vt 0.230610 0.413120
vt 0.636220 0.498990
vt 0.250140 0.343250
vt 0.601440 0.035190
vt 0.226500 0.307040
vt 0.250140 0.271080
vt 0.636220 0.035190
vt 0.226500 0.343250
vt 0.205050 0.377420
vt 0.657670 0.001010
vt 0.636220 0.001010
vt 0.228690 0.377420
vt 0.200580 0.270960
vt 0.461870 0.431230
vt 0.483320 0.431230
vt 0.205050 0.341220
vt 0.622890 0.001010
vt 0.601440 0.001010
vt 0.200580 0.307040
vt 0.179130 0.341220
vt 0.448910 0.431020
vt 0.448910 0.259350
vt 0.542090 0.551170
vt 0.599620 0.101530
vt 0.665370 0.948330
vt 0.320350 0.517290
vt 0.000730 0.241750
vt 0.319990 0.517790
vt 0.259450 0.033770
vt 0.259450 0.431020
vt 0.448550 0.431230
vt 0.094370 0.241540
vt 0.001090 0.241540
vt 0.259810 0.431230
vt 0.094370 0.413630
vt 0.177430 0.403670
vt 0.177430 0.065510
vt 0.259710 0.999170
vt 0.749400 0.425670
vt 0.504300 0.433610
vt 0.177100 0.405080
vt 0.153200 0.064100
vt 0.137750 0.055740
vt 0.709720 0.998800
vt 0.153200 0.405080
vt 0.001090 0.998990
vt 0.130960 0.056060
vt 0.130960 0.413120
vt 0.000730 0.998480
vt 0.702930 0.998480
vt 0.131320 0.413630
vt 0.136910 0.413630
vt 0.160810 0.055550
vt 0.155220 0.055550
vt 0.727190 0.998990
vt 0.155220 0.413630
vt 0.160810 0.413630
vt 0.669170 0.001520
s 0
usemtl autel
f 241/1/1 242/2/1 243/3/1
f 244/4/2 245/2/2 246/2/2
f 241/1/3 247/4/3 242/2/3
f 248/5/4 249/6/4 250/7/4
f 251/8/5 252/9/5 253/6/5
f 254/5/6 255/8/6 256/6/6
f 257/10/7 258/11/7 259/12/7
f 260/13/8 261/11/8 262/11/8
f 257/10/9 263/13/9 258/11/9
f 264/14/10 265/15/10 266/16/10
f 267/17/11 268/18/11 269/15/11
f 270/14/12 271/17/12 272/15/12
f 273/19/13 274/20/13 275/21/13
f 276/22/14 277/20/14 278/20/14
s 1
f 273/19/15 279/22/15 274/20/15
s 0
f 280/23/16 281/24/16 282/25/16
f 283/26/17 284/27/17 285/24/17
f 286/23/18 287/26/18 288/24/18
f 289/28/19 290/29/19 291/30/19
f 292/31/20 293/29/20 294/29/20
s 1
f 289/28/5 295/31/5 290/29/5
s 0
f 296/32/21 297/33/21 298/34/21
f 299/35/22 300/36/22 301/33/22
f 302/32/23 303/35/23 304/33/23
f 305/37/24 306/38/24 307/39/24
f 308/38/25 309/40/25 310/38/25
f 311/37/26 312/41/26 313/38/26
f 314/37/27 315/38/27 316/38/27
f 34/42/28 317/43/28 318/44/28
f 319/45/29 320/46/29 321/43/29
f 322/42/30 323/47/30 324/45/30
f 325/42/31 326/45/31 327/43/31
f 4/48/32 328/49/32 118/50/32
f 329/51/33 330/52/33 331/49/33
f 332/48/3 333/53/3 334/51/3
f 335/48/34 336/51/34 337/49/34
f 338/54/35 339/55/35 340/56/35
f 341/55/28 342/57/28 343/55/28
f 344/54/11 345/58/11 346/55/11
f 347/54/36 348/55/36 349/55/36
f 350/59/37 351/60/37 352/61/37
f 353/62/38 354/63/38 355/64/38
f 356/65/39 357/66/39 358/67/39
f 359/68/40 360/69/40 361/70/40
f 362/71/11 363/72/11 364/73/11
f 365/74/41 366/75/41 367/76/41
f 368/77/42 369/78/42 370/79/42
f 371/80/43 372/81/43 373/82/43
f 374/83/44 375/84/44 376/85/44
f 377/86/9 378/87/9 379/88/9
f 380/89/41 381/90/41 382/91/41
f 383/92/45 384/93/45 385/94/45
f 386/95/46 387/96/46 388/97/46
f 389/98/47 390/99/47 391/100/47
f 392/101/48 393/102/48 394/103/48
f 395/104/38 396/105/38 397/106/38
s 1
f 462/107/40 463/108/40 464/109/40
f 465/110/49 466/111/49 467/112/49
f 468/113/22 469/114/22 470/115/22
f 471/116/48 472/117/48 473/118/48
s 0
f 1/119/50 2/120/50 3/121/50
f 1/119/50 3/121/50 4/48/50
f 5/122/51 6/123/51 7/124/51
f 5/122/51 7/124/51 8/125/51
f 9/126/14 10/127/14 11/128/14
f 9/126/14 11/128/14 12/129/14
f 13/130/2 14/131/2 15/132/2
f 13/130/2 15/132/2 16/133/2
f 17/134/8 18/135/8 19/136/8
f 17/134/8 19/136/8 20/137/8
f 21/138/8 22/139/8 23/140/8
f 21/138/8 23/140/8 24/14/8
f 25/141/8 26/142/8 27/16/8
f 25/141/8 27/16/8 28/143/8
f 29/144/51 30/145/51 31/146/51
f 29/144/51 31/146/51 32/32/51
f 33/147/50 34/42/50 35/148/50
f 33/147/50 35/148/50 36/149/50
f 37/35/51 38/150/51 39/151/51
f 37/35/51 39/151/51 40/152/51
f 41/10/51 42/153/51 43/154/51
f 41/10/51 43/154/51 44/155/51
f 45/1/14 46/156/14 47/157/14
f 45/1/14 47/157/14 48/158/14
f 49/62/50 50/95/50 51/159/50
f 49/62/50 51/159/50 52/160/50
f 53/161/14 54/162/14 55/25/14
f 53/161/14 55/25/14 56/163/14
f 57/19/8 58/164/8 59/89/8
f 57/19/8 59/89/8 60/165/8
f 61/166/14 62/167/14 63/168/14
f 61/166/14 63/168/14 64/23/14
f 65/169/51 66/170/51 67/34/51
f 65/169/51 67/34/51 68/171/51
f 69/172/14 70/173/14 71/174/14
f 69/172/14 71/174/14 72/175/14
f 73/176/28 74/177/28 75/178/28
f 73/176/50 75/178/50 76/46/50
f 77/179/51 78/180/51 79/181/51
f 77/179/51 79/181/51 80/182/51
f 81/28/2 82/183/2 83/104/2
f 81/28/2 83/104/2 84/184/2
f 85/83/28 86/92/28 87/185/28
f 85/83/50 87/185/50 88/80/50
f 89/186/50 90/187/50 91/74/50
f 89/186/28 91/74/28 92/98/28
f 93/188/28 94/68/28 95/86/28
f 93/188/50 95/86/50 96/101/50
f 97/189/8 98/190/8 99/191/8
f 97/189/8 99/191/8 100/192/8
f 101/8/2 102/193/2 103/194/2
f 101/8/2 103/194/2 104/195/2
f 105/196/51 106/197/51 107/59/51
f 105/196/52 107/59/52 108/198/52
f 109/26/14 110/199/14 111/200/14
f 109/26/14 111/200/14 112/201/14
f 113/202/8 114/203/8 115/204/8
f 113/202/8 115/204/8 116/205/8
f 117/206/50 118/50/50 119/207/50
f 117/206/50 119/207/50 120/208/50
f 121/17/8 122/209/8 123/210/8
f 121/17/8 123/210/8 124/211/8
f 125/212/2 126/213/2 127/214/2
f 125/212/2 127/214/2 128/215/2
f 129/54/8 130/216/8 131/77/8
f 129/54/8 131/77/8 132/217/8
f 133/37/2 134/218/2 135/65/2
f 133/37/2 135/65/2 136/219/2
f 137/220/2 138/221/2 139/7/2
f 137/220/2 139/7/2 140/222/2
f 141/223/14 142/224/14 143/71/14
f 141/223/14 143/71/14 144/225/14
f 145/226/50 146/52/50 147/227/50
f 145/226/28 147/227/28 148/228/28
f 149/229/51 150/230/51 151/231/51
f 149/229/51 151/231/51 152/232/51
f 153/233/50 154/44/50 155/234/50
f 153/233/50 155/234/50 156/235/50
f 157/49/50 158/236/50 159/237/50
f 157/49/28 159/237/28 160/238/28
f 161/43/28 162/239/28 163/240/28
f 161/43/50 163/240/50 164/241/50
f 165/242/53 166/243/53 167/244/53
f 165/242/54 167/244/54 168/245/54
f 169/246/2 170/247/2 171/248/2
f 169/246/2 171/248/2 172/249/2
f 173/250/14 174/251/14 175/252/14
f 173/250/14 175/252/14 176/253/14
f 177/254/54 178/255/54 179/256/54
f 177/254/54 179/256/54 180/257/54
f 181/258/55 182/259/55 183/260/55
f 181/258/55 183/260/55 184/261/55
f 185/262/56 186/263/56 187/264/56
f 185/262/56 187/264/56 188/265/56
f 189/266/53 190/267/53 191/268/53
f 189/266/54 191/268/54 192/269/54
f 193/270/54 194/271/54 195/272/54
f 193/270/54 195/272/54 196/273/54
f 197/274/14 198/275/14 199/276/14
f 197/274/14 199/276/14 200/277/14
f 201/278/57 202/279/57 203/280/57
f 201/278/57 203/280/57 204/281/57
f 205/282/58 206/283/58 207/284/58
f 205/282/58 207/284/58 208/285/58
f 209/286/8 210/287/8 211/113/8
f 209/286/8 211/113/8 212/288/8
f 213/289/50 214/107/50 215/290/50
f 213/289/50 215/290/50 216/116/50
f 217/291/51 218/292/51 219/293/51
f 217/291/51 219/293/51 220/294/51
f 221/295/2 222/296/2 223/110/2
f 221/295/2 223/110/2 224/297/2
f 225/172/59 226/298/59 227/299/59
f 225/172/60 227/299/60 228/129/60
f 229/202/61 230/300/61 231/301/61
f 229/202/62 231/301/62 232/137/62
f 233/212/63 234/302/63 235/303/63
f 233/212/64 235/303/64 236/133/64
f 237/179/65 238/304/65 239/305/65
f 237/179/66 239/305/66 240/125/66
s 1
f 398/189/67 399/306/68 400/307/69
f 398/189/67 400/307/69 401/308/70
f 402/241/71 403/309/72 404/310/71
f 402/241/71 404/310/71 405/234/73
f 406/238/74 407/311/74 408/312/74
f 406/238/74 408/312/74 409/207/75
f 410/246/76 411/313/77 412/314/78
f 410/246/76 412/314/78 413/315/79
s 0
f 414/254/80 415/243/80 416/316/80
f 414/254/81 416/316/81 417/317/81
f 418/253/82 419/318/82 420/319/82
f 418/253/83 420/319/83 421/320/83
f 422/232/84 423/321/84 424/322/84
f 422/232/85 424/322/85 425/323/85
f 426/270/86 427/267/86 428/324/86
f 426/270/87 428/324/87 429/325/87
s 1
f 430/262/88 431/326/89 432/327/90
f 430/262/88 432/327/90 433/328/91
f 434/245/92 435/329/93 436/330/94
f 434/245/92 436/330/94 437/272/95
f 438/269/96 439/331/97 440/332/98
f 438/269/96 440/332/98 441/256/99
f 442/278/100 443/333/100 444/334/101
f 442/278/100 444/334/101 445/335/102
s 0
f 446/286/103 447/336/103 448/337/103
s 1
f 446/286/104 448/337/104 449/338/104
s 0
f 450/285/105 451/339/105 452/340/105
s 1
f 450/285/106 452/340/106 453/341/106
s 0
f 454/261/107 455/342/107 456/343/107
s 1
f 454/261/108 456/343/108 457/344/108
s 0
f 458/295/109 459/345/109 460/346/109
s 1
f 458/295/110 460/346/110 461/347/110
s 0
f 474/5/2 475/348/2 102/193/2
f 474/5/2 102/193/2 101/8/2
f 64/23/111 63/168/111 110/199/111
f 64/23/112 110/199/112 109/26/112
f 24/14/113 23/140/113 122/209/113
f 24/14/8 122/209/8 121/17/8
f 32/32/114 31/146/114 38/150/114
f 32/32/115 38/150/115 37/35/115
f 476/122/66 240/125/66 239/305/66
f 476/122/116 239/305/116 477/349/116
f 478/168/117 479/167/117 480/350/117
f 478/168/61 480/350/61 481/351/61
f 482/126/60 228/129/60 227/299/60
f 482/126/118 227/299/118 483/352/118
f 484/146/119 485/145/119 486/353/119
f 484/146/120 486/353/120 487/354/120
f 16/133/2 15/132/2 126/213/2
f 16/133/2 126/213/2 125/212/2
f 488/222/121 489/7/121 490/6/121
f 488/222/122 490/6/122 491/355/122
f 20/137/8 19/136/8 114/203/8
f 20/137/8 114/203/8 113/202/8
f 492/143/10 493/16/10 494/15/10
f 492/143/123 494/15/123 495/356/123
f 137/220/2 140/222/2 15/132/2
f 137/220/2 15/132/2 14/131/2
f 496/357/2 474/5/2 497/7/2
f 496/357/2 497/7/2 498/221/2
f 25/141/8 28/143/8 19/136/8
f 25/141/8 19/136/8 18/135/8
f 21/138/8 24/14/8 499/16/8
f 21/138/8 499/16/8 500/142/8
f 501/42/124 502/147/124 503/358/124
f 501/42/124 503/358/124 504/47/124
f 505/156/16 506/1/16 507/3/16
f 505/156/16 507/3/16 508/359/16
f 12/129/112 11/128/112 70/173/112
f 12/129/125 70/173/125 69/172/125
f 509/163/16 510/25/16 511/24/16
f 509/163/126 511/24/126 512/360/126
f 8/125/114 7/124/114 78/180/114
f 8/125/127 78/180/127 77/179/127
f 513/171/128 514/34/128 515/33/128
f 513/171/129 515/33/129 516/361/129
f 517/120/130 518/119/130 519/362/130
f 517/120/124 519/362/124 520/363/124
f 162/239/28 161/43/28 76/46/28
f 162/239/50 76/46/50 75/178/50
f 521/224/16 522/223/16 523/364/16
f 521/224/131 523/364/131 524/365/131
f 146/52/28 145/226/28 525/236/28
f 146/52/50 525/236/50 526/49/50
f 154/44/25 153/233/25 527/148/25
f 154/44/50 527/148/50 528/42/50
f 1/119/28 4/48/28 118/50/28
f 1/119/50 118/50/50 117/206/50
f 529/176/132 530/46/132 531/45/132
f 529/176/133 531/45/133 532/366/133
f 533/218/4 534/37/4 535/39/4
f 533/218/4 535/39/4 536/367/4
f 53/161/134 56/163/134 537/128/134
f 53/161/134 537/128/134 538/127/134
f 61/166/135 64/23/135 539/25/135
f 61/166/136 539/25/136 540/162/136
f 65/169/20 68/171/20 7/124/20
f 65/169/51 7/124/51 6/123/51
f 29/144/52 32/32/52 541/34/52
f 29/144/127 541/34/127 542/170/127
f 543/226/132 544/228/132 545/368/132
f 543/226/123 545/368/123 546/369/123
f 547/183/137 548/28/137 549/30/137
f 547/183/4 549/30/4 550/370/4
f 551/195/4 552/194/4 553/371/4
f 551/195/4 553/371/4 554/372/4
f 555/201/131 556/200/131 557/373/131
f 555/201/126 557/373/126 558/374/126
f 559/211/10 560/210/10 561/375/10
f 559/211/123 561/375/123 562/376/123
f 563/152/124 564/151/124 565/377/124
f 563/152/124 565/377/124 566/378/124
f 567/215/4 568/214/4 569/379/4
f 567/215/4 569/379/4 570/380/4
f 571/205/10 572/204/10 573/381/10
f 571/205/132 573/381/132 574/382/132
f 575/198/128 576/59/128 577/61/128
f 575/198/124 577/61/124 578/383/124
f 579/92/126 580/83/126 581/85/126
f 579/92/131 581/85/131 582/93/131
f 583/175/126 584/174/126 585/384/126
f 583/175/131 585/384/131 586/385/131
f 587/182/124 588/181/124 589/386/124
f 587/182/124 589/386/124 590/387/124
f 591/155/124 592/154/124 593/388/124
f 591/155/128 593/388/128 594/389/128
f 595/187/131 596/186/131 597/390/131
f 595/187/16 597/390/16 598/391/16
f 599/165/10 600/89/10 601/91/10
f 599/165/133 601/91/133 602/392/133
f 603/188/4 604/101/4 605/103/4
f 603/188/121 605/103/121 606/393/121
f 607/217/10 608/77/10 609/79/10
f 607/217/133 609/79/133 610/394/133
f 611/186/4 612/98/4 613/100/4
f 611/186/4 613/100/4 614/395/4
f 233/212/138 615/215/138 616/396/138
f 233/212/138 616/396/138 234/302/138
f 617/77/66 618/216/66 619/397/66
f 617/77/139 619/397/139 620/78/139
s 1
f 621/17/61 622/211/61 623/398/61
s 0
f 621/17/140 623/398/140 624/18/140
f 625/104/60 626/183/60 627/399/60
f 625/104/60 627/399/60 628/105/60
f 629/1/60 630/158/60 631/400/60
f 629/1/60 631/400/60 632/4/60
s 1
f 633/8/141 634/195/141 635/401/141
s 0
f 633/8/142 635/401/142 636/9/142
f 637/89/143 638/164/143 639/402/143
f 637/89/139 639/402/139 640/90/139
f 641/19/61 642/165/61 643/403/61
f 641/19/144 643/403/144 644/22/144
f 645/194/60 646/193/60 647/404/60
f 645/194/59 647/404/59 648/405/59
s 1
f 649/54/145 650/217/145 651/406/145
s 0
f 649/54/146 651/406/146 652/58/146
f 653/10/116 654/155/116 655/407/116
f 653/10/147 655/407/147 656/13/147
f 657/200/148 658/199/148 659/408/148
f 657/200/144 659/408/144 660/409/144
f 661/28/141 662/184/141 663/410/141
f 661/28/138 663/410/138 664/31/138
f 665/210/116 666/209/116 667/411/116
f 665/210/149 667/411/149 668/412/149
f 669/65/60 670/218/60 671/413/60
f 669/65/60 671/413/60 672/66/60
s 1
f 673/37/150 674/219/150 675/414/150
s 0
f 673/37/151 675/414/151 676/41/151
f 677/251/126 678/250/126 679/415/126
f 677/251/152 679/415/152 680/416/152
f 681/238/130 682/237/130 683/417/130
s 1
f 681/238/124 683/417/124 684/311/124
s 0
f 685/247/4 686/246/4 687/315/4
f 685/247/4 687/315/4 688/418/4
f 689/208/10 690/207/10 691/312/10
f 689/208/10 691/312/10 692/419/10
f 153/233/153 156/235/153 693/237/153
f 153/233/154 693/237/154 525/236/154
f 119/207/25 118/50/25 328/49/25
f 119/207/50 328/49/50 694/238/50
f 117/206/50 120/208/50 695/240/50
f 117/206/154 695/240/154 696/239/154
f 155/234/28 154/44/28 697/43/28
f 155/234/154 697/43/154 698/241/154
f 699/243/155 700/242/155 701/420/155
f 699/243/155 701/420/155 702/316/155
f 703/232/156 704/231/156 705/421/156
f 703/232/157 705/421/157 706/321/157
f 707/271/158 708/270/158 709/325/158
s 1
f 707/271/159 709/325/159 710/422/159
s 0
f 711/192/160 712/191/160 713/423/160
f 711/192/160 713/423/160 714/424/160
f 715/250/60 716/253/60 717/320/60
f 715/250/118 717/320/118 718/425/118
f 719/231/63 720/230/63 721/426/63
f 719/231/138 721/426/138 722/427/138
f 723/189/140 724/192/140 725/428/140
f 723/189/161 725/428/161 726/306/161
f 727/229/66 728/232/66 729/323/66
f 727/229/143 729/323/143 730/429/143
s 1
f 731/283/162 732/282/163 733/430/162
f 731/283/162 733/430/162 734/431/163
f 735/269/164 736/268/164 737/432/165
f 735/269/164 737/432/165 738/331/165
f 739/279/166 740/278/167 741/335/168
f 739/279/166 741/335/168 742/433/166
s 0
f 743/257/169 744/256/169 745/332/169
f 743/257/169 745/332/169 746/434/169
f 189/266/54 192/269/54 747/256/54
f 189/266/53 747/256/53 748/255/53
f 167/244/170 166/243/170 749/254/170
f 167/244/54 749/254/54 750/257/54
f 193/270/170 196/273/170 751/268/170
f 193/270/170 751/268/170 752/267/170
f 165/242/171 168/245/171 753/272/171
f 165/242/170 753/272/170 754/271/170
f 755/275/172 756/274/172 757/285/172
f 755/275/173 757/285/173 758/284/173
f 759/261/174 760/260/174 761/292/174
f 759/261/174 761/292/174 762/291/174
f 763/296/175 764/295/175 765/281/175
s 1
f 763/296/176 765/281/176 766/280/176
s 0
f 767/265/177 768/264/177 769/287/177
f 767/265/178 769/287/178 770/286/178
f 771/282/179 772/285/179 773/341/179
f 771/282/180 773/341/180 774/435/180
f 775/260/181 776/259/181 777/436/181
f 775/260/182 777/436/182 778/437/182
f 779/262/183 780/265/183 781/438/183
s 1
f 779/262/184 781/438/184 782/326/184
s 0
f 783/258/185 784/261/185 785/344/185
f 783/258/186 785/344/186 786/439/186
f 787/107/126 788/289/126 789/440/126
f 787/107/126 789/440/126 790/108/126
f 791/294/124 792/293/124 793/441/124
f 791/294/124 793/441/124 794/442/124
f 795/289/4 796/116/4 797/118/4
f 795/289/4 797/118/4 798/443/4
f 799/288/10 800/113/10 801/115/10
f 799/288/10 801/115/10 802/444/10
f 803/291/149 804/294/149 805/445/149
f 803/291/143 805/445/143 806/446/143
f 807/276/61 808/275/61 809/447/61
f 807/276/145 809/447/145 810/448/145
f 811/295/138 812/297/138 813/449/138
f 811/295/119 813/449/119 814/345/119
f 815/274/59 816/277/59 817/450/59
f 815/274/187 817/450/187 818/451/187
f 496/357/2 819/452/2 475/348/2
f 496/357/2 475/348/2 474/5/2
