# Blender 5.1.1
# www.blender.org
mtllib AltarBase.mtl
o Plane.000_0
v -0.430501 -1.579858 -6.105306
v -0.323883 -1.945808 -6.118443
v 0.453350 -1.715770 -6.218528
v 0.346732 -1.349821 -6.205390
v -0.574170 -1.360489 -13.381433
v -0.467552 -1.726438 -13.394571
v -1.244784 -1.956475 -13.294487
v -1.351402 -1.590526 -13.281349
v 3.031695 -0.293263 -13.845760
v 3.138313 -0.659213 -13.858898
v -0.450633 -1.721431 -13.396749
v -0.557251 -1.355481 -13.383612
v 0.482615 -1.312382 -6.145498
v 0.589233 -1.678332 -6.158637
v 0.621332 -1.670748 -6.109395
v 0.514714 -1.304798 -6.096257
v 0.523225 -1.302872 -6.080826
v 0.629843 -1.668822 -6.093965
v 0.683986 -1.657278 -5.976133
v 0.577368 -1.291328 -5.962995
v 0.583715 -1.290072 -5.946479
v 0.690332 -1.656022 -5.959617
v 0.714912 -1.651681 -5.881060
v 0.608294 -1.285732 -5.867922
v 0.615888 -1.284085 -5.852159
v 0.722507 -1.650035 -5.865296
v 0.775117 -1.637492 -5.787723
v 0.668499 -1.271542 -5.774584
v 0.680204 -1.268591 -5.761805
v 0.786822 -1.634540 -5.774943
v 0.894081 -1.606417 -5.687867
v 0.787463 -1.240467 -5.674729
v 3.969515 -0.277588 -6.671896
v 4.076133 -0.643538 -6.685034
v 4.853366 -0.413501 -6.785118
v 4.746748 -0.047551 -6.771980
v 3.766983 -0.354486 -6.173576
v 3.873600 -0.720436 -6.186714
v 3.904914 -0.708140 -6.275094
v 3.798295 -0.342190 -6.261956
v 3.134877 -0.283510 -13.022047
v 3.030341 -0.284721 -13.836637
v -0.558605 -1.346939 -13.374489
v -0.454069 -1.345728 -12.559903
v 3.742369 -0.353113 -6.153531
v 0.692407 -1.255808 -5.760787
v 0.794132 -1.229135 -5.678201
v 3.664806 -0.379504 -6.047857
v 3.807578 -0.335285 -6.378949
v 3.914197 -0.701235 -6.392087
v 3.936832 -0.690054 -6.519806
v 3.830215 -0.324105 -6.506668
v 3.929029 -0.048466 -13.124310
v 3.824493 -0.049677 -13.938900
v 3.047260 -0.279714 -13.838816
v 3.151796 -0.278503 -13.024225
v 0.824061 -1.220921 -5.664130
v 0.970590 -1.180579 -5.598708
v 3.514153 -0.427763 -5.926242
v 3.639400 -0.387667 -6.026660
v 5.548227 0.189984 -6.884149
v 5.654844 -0.175966 -6.897286
v 5.550308 -0.177177 -7.711877
v 5.443690 0.188773 -7.698739
v 3.834553 -0.322227 -6.523753
v 3.941171 -0.688177 -6.536891
v 3.959789 -0.680751 -6.592664
v 3.853171 -0.314801 -6.579525
v 3.677099 -0.385224 -6.046827
v 3.783716 -0.751173 -6.059965
v 3.865502 -0.723345 -6.171385
v 3.758885 -0.357395 -6.158247
v 4.619998 0.176825 -14.050286
v 4.726616 -0.189124 -14.063423
v 3.949382 -0.419161 -13.963341
v 3.842764 -0.053212 -13.950201
v 0.908715 -1.602477 -5.678863
v 1.070661 -1.557890 -5.606553
v 0.964042 -1.191941 -5.593414
v 0.802098 -1.236527 -5.665724
v -2.152881 -1.828060 -13.169180
v -2.046263 -2.194010 -13.182319
v -1.941727 -2.192799 -12.367733
v -2.048345 -1.826850 -12.354594
v 3.801664 -0.340592 -6.279131
v 3.908282 -0.706542 -6.292270
v 3.912227 -0.702440 -6.374500
v 3.805609 -0.336490 -6.361362
v -1.224652 -1.814902 -6.003043
v -1.118034 -2.180852 -6.016181
v -0.340801 -1.950815 -6.116265
v -0.447419 -1.584866 -6.103127
v 3.785863 -0.336642 -6.259334
v 0.623614 -1.272571 -5.852130
v 0.674930 -1.260337 -5.776462
v 3.755320 -0.348636 -6.173123
v 3.818751 -0.318249 -6.504766
v 0.529826 -1.291670 -6.081251
v 0.583587 -1.280208 -5.964252
v 3.796278 -0.329349 -6.377951
v 3.948980 -0.274080 -6.678227
v 3.844444 -0.275291 -7.492818
v 0.255498 -1.337509 -7.030669
v 0.360033 -1.336298 -6.216084
v 1.043377 -1.159680 -5.590156
v 1.216499 -1.109945 -5.570568
v 3.283344 -0.498222 -5.836717
v 3.445891 -0.448609 -5.899528
v 1.087023 -1.553284 -5.602077
v 1.317257 -1.487141 -5.576033
v 1.210639 -1.121192 -5.562895
v 0.980405 -1.187334 -5.588939
v 3.665213 -0.389132 -6.034408
v 3.526794 -0.433445 -5.923420
v 3.633413 -0.799395 -5.936558
v 3.771832 -0.755082 -6.047545
v 5.430484 0.194772 -7.714976
v 4.725443 0.186605 -13.208940
v 3.948210 -0.043432 -13.108855
v 4.653251 -0.035265 -7.614892
v 1.227593 -1.116247 -5.563022
v 1.334211 -1.482197 -5.576159
v 3.386101 -0.874901 -5.840381
v 3.279483 -0.508951 -5.827243
v 3.512090 -0.438033 -5.914944
v 3.295917 -0.504013 -5.831416
v 3.402536 -0.869963 -5.844554
v 3.618708 -0.803983 -5.928082
v 3.928031 -0.280923 -6.657605
v 0.385509 -1.329401 -6.201435
v 0.476444 -1.304335 -6.161687
v 3.850087 -0.305840 -6.596112
v 3.794514 -0.330515 -6.359795
v 0.589877 -1.278989 -5.947134
v 0.614367 -1.274664 -5.868865
v 3.790583 -0.334602 -6.277866
v 3.862733 -0.311523 -6.593231
v 3.969351 -0.677473 -6.606369
v 4.060908 -0.648205 -6.678606
v 3.954289 -0.282255 -6.665467
v -1.265138 -1.585780 -12.455462
v -1.369674 -1.586991 -13.270048
v -2.146906 -1.817028 -13.169964
v -2.042371 -1.815817 -12.355377
v 5.537282 0.196009 -6.882753
v 5.432746 0.194798 -7.697343
v 4.655513 -0.035239 -7.597259
v 4.760050 -0.034028 -6.782669
v -0.557835 -1.577587 -6.943861
v -1.262875 -1.585754 -12.437828
v -2.040108 -1.815791 -12.337744
v -1.335068 -1.807624 -6.843777
v 0.343115 -1.341305 -6.213905
v 0.238579 -1.342516 -7.028491
v -0.538654 -1.572553 -6.928407
v -0.434118 -1.571342 -6.113821
v 3.825846 -0.058219 -13.948023
v 3.932464 -0.424169 -13.961162
v 3.155232 -0.654206 -13.861076
v 3.048613 -0.288256 -13.847939
v -1.368321 -1.595533 -13.279170
v -1.261703 -1.961483 -13.292309
v -2.038936 -2.191520 -13.192225
v -2.145553 -1.825570 -13.179086
v -2.046082 -1.826823 -12.336961
v -1.939464 -2.192773 -12.350100
v -1.234424 -2.184606 -6.856133
v -1.341042 -1.818656 -6.842994
v 0.363085 -1.345141 -6.203029
v 0.469703 -1.711091 -6.216166
v 0.576522 -1.681646 -6.169476
v 0.469903 -1.315696 -6.156337
v -0.451036 -1.576349 -6.111642
v -0.555572 -1.577560 -6.926228
v -1.332805 -1.807597 -6.826144
v -1.228269 -1.806386 -6.011558
v -0.470987 -1.350736 -12.557725
v -0.575523 -1.351946 -13.372311
v -1.352756 -1.581984 -13.272226
v -1.248220 -1.580773 -12.457640
v 3.840880 -0.309208 -6.576997
v 0.490178 -1.300914 -6.145532
v 0.521122 -1.293603 -6.098055
v 3.822930 -0.316369 -6.523229
v 5.441426 0.188747 -7.716372
v 5.548045 -0.177203 -7.729510
v 4.843004 -0.185370 -13.223473
v 4.736387 0.180579 -13.210335
v 4.734124 0.180553 -13.227968
v 4.840742 -0.185397 -13.241106
v 4.736206 -0.186608 -14.055696
v 4.629588 0.179342 -14.042559
v 4.743132 -0.039035 -6.780490
v 4.638596 -0.040246 -7.595080
v 3.861362 -0.270283 -7.494996
v 3.965898 -0.269072 -6.680405
v 4.723180 0.186579 -13.226572
v 4.618644 0.185368 -14.041162
v 3.841411 -0.044669 -13.941078
v 3.945947 -0.043458 -13.126488
v -1.338779 -1.818630 -6.825361
v -1.232161 -2.184580 -6.838499
v -1.127625 -2.183369 -6.023913
v -1.234243 -1.817419 -6.010775
v 5.548227 0.189984 -6.884149
v 5.537282 0.196009 -6.882753
v 5.540899 0.187493 -6.874243
v 4.619998 0.176825 -14.050286
v 4.618644 0.185368 -14.041162
v 4.629588 0.179342 -14.042559
v -1.224652 -1.814902 -6.003043
v -1.228269 -1.806386 -6.011558
v -1.234243 -1.817419 -6.010775
v -2.152881 -1.828060 -13.169180
v -2.146906 -1.817028 -13.169964
v -2.145553 -1.825570 -13.179086
v 0.343115 -1.341305 -6.213905
v 0.385509 -1.329401 -6.201435
v 0.360033 -1.336298 -6.216084
v 0.346732 -1.349821 -6.205390
v 0.363085 -1.345141 -6.203029
v 3.948980 -0.274080 -6.678227
v 3.969515 -0.277588 -6.671896
v 3.965898 -0.269072 -6.680405
v 3.928031 -0.280923 -6.657605
v 3.954289 -0.282255 -6.665467
v 3.030341 -0.284721 -13.836637
v 3.047260 -0.279714 -13.838816
v 3.048613 -0.288256 -13.847939
v 3.031695 -0.293263 -13.845760
v -0.575523 -1.351946 -13.372311
v -0.558605 -1.346939 -13.374489
v -0.557251 -1.355481 -13.383612
v -0.574170 -1.360489 -13.381433
v 0.523225 -1.302872 -6.080826
v 0.529826 -1.291670 -6.081251
v 0.521122 -1.293603 -6.098055
v 0.514714 -1.304798 -6.096257
v 3.834553 -0.322227 -6.523753
v 3.822930 -0.316369 -6.523229
v 3.818751 -0.318249 -6.504766
v 3.830215 -0.324105 -6.506668
v 0.583715 -1.290072 -5.946479
v 0.589877 -1.278989 -5.947134
v 0.583587 -1.280208 -5.964252
v 0.577368 -1.291328 -5.962995
v 3.796278 -0.329349 -6.377951
v 3.794514 -0.330515 -6.359795
v 3.805609 -0.336490 -6.361362
v 3.807578 -0.335285 -6.378949
v 0.615888 -1.284085 -5.852159
v 0.623614 -1.272571 -5.852130
v 0.614367 -1.274664 -5.868865
v 0.608294 -1.285732 -5.867922
v 3.790583 -0.334602 -6.277866
v 3.785863 -0.336642 -6.259334
v 3.798295 -0.342190 -6.261956
v 3.801664 -0.340592 -6.279131
v 0.680204 -1.268591 -5.761805
v 0.692407 -1.255808 -5.760787
v 0.674930 -1.260337 -5.776462
v 0.668499 -1.271542 -5.774584
v 3.755320 -0.348636 -6.173123
v 3.742369 -0.353113 -6.153531
v 3.758885 -0.357395 -6.158247
v 3.766983 -0.354486 -6.173576
v 0.802098 -1.236527 -5.665724
v 0.824061 -1.220921 -5.664130
v 0.794132 -1.229135 -5.678201
v 0.787463 -1.240467 -5.674729
v 3.664806 -0.379504 -6.047857
v 3.639400 -0.387667 -6.026660
v 3.665213 -0.389132 -6.034408
v 3.677099 -0.385224 -6.046827
v 0.980405 -1.187334 -5.588939
v 1.043377 -1.159680 -5.590156
v 0.970590 -1.180579 -5.598708
v 0.964042 -1.191941 -5.593414
v 3.514153 -0.427763 -5.926242
v 3.445891 -0.448609 -5.899528
v 3.512090 -0.438033 -5.914944
v 3.526794 -0.433445 -5.923420
v 1.227593 -1.116247 -5.563022
v 1.216499 -1.109945 -5.570568
v 1.210639 -1.121192 -5.562895
v 3.295917 -0.504013 -5.831416
v 3.283344 -0.498222 -5.836717
v 3.279483 -0.508951 -5.827243
v 0.482615 -1.312382 -6.145498
v 0.490178 -1.300914 -6.145532
v 0.476444 -1.304335 -6.161687
v 0.469903 -1.315696 -6.156337
v 3.862733 -0.311523 -6.593231
v 3.850087 -0.305840 -6.596112
v 3.840880 -0.309208 -6.576997
v 3.853171 -0.314801 -6.579525
v 5.430484 0.194772 -7.714976
v 5.432746 0.194798 -7.697343
v 5.443690 0.188773 -7.698739
v 5.441426 0.188747 -7.716372
v 4.734124 0.180553 -13.227968
v 4.723180 0.186579 -13.226572
v 4.725443 0.186605 -13.208940
v 4.736387 0.180579 -13.210335
v -2.040108 -1.815791 -12.337744
v -2.042371 -1.815817 -12.355377
v -2.048345 -1.826850 -12.354594
v -2.046082 -1.826823 -12.336961
v -1.338779 -1.818630 -6.825361
v -1.332805 -1.807597 -6.826144
v -1.335068 -1.807624 -6.843777
v -1.341042 -1.818656 -6.842994
v 3.859099 -0.270310 -7.512630
v 3.842181 -0.275317 -7.510450
v -0.468724 -1.350710 -12.540092
v -0.451806 -1.345702 -12.542270
v -1.368321 -1.595533 -13.279170
v -1.369674 -1.586991 -13.270048
v -1.352756 -1.581984 -13.272226
v -1.351402 -1.590526 -13.281349
v -0.447419 -1.584866 -6.103127
v -0.430501 -1.579858 -6.105306
v -0.434118 -1.571342 -6.113821
v -0.451036 -1.576349 -6.111642
v -0.540916 -1.572579 -6.946039
v -1.245957 -1.580746 -12.440007
v 4.746748 -0.047551 -6.771980
v 4.763665 -0.042544 -6.774158
v 4.760050 -0.034028 -6.782669
v 4.743132 -0.039035 -6.780490
v 3.825846 -0.058219 -13.948023
v 3.824493 -0.049677 -13.938900
v 3.841411 -0.044669 -13.941078
v 3.842764 -0.053212 -13.950201
v 3.931292 -0.048440 -13.106676
v 5.540899 0.187493 -6.874243
v 5.537282 0.196009 -6.882753
v 4.629588 0.179342 -14.042559
v 4.618644 0.185368 -14.041162
v -2.145553 -1.825570 -13.179086
v -2.146906 -1.817028 -13.169964
v -1.234243 -1.817419 -6.010775
v -1.228269 -1.806386 -6.011558
v 0.346732 -1.349821 -6.205390
v 0.343115 -1.341305 -6.213905
v 3.048613 -0.288256 -13.847939
v 3.047260 -0.279714 -13.838816
v 3.031695 -0.293263 -13.845760
v -0.557251 -1.355481 -13.383612
v -0.558605 -1.346939 -13.374489
v 3.030341 -0.284721 -13.836637
v 0.514714 -1.304798 -6.096257
v 0.521122 -1.293603 -6.098055
v 3.954289 -0.282255 -6.665467
v 3.928031 -0.280923 -6.657605
v 0.577368 -1.291328 -5.962995
v 0.583587 -1.280208 -5.964252
v 3.807578 -0.335285 -6.378949
v 3.818751 -0.318249 -6.504766
v 3.796278 -0.329349 -6.377951
v 0.608294 -1.285732 -5.867922
v 0.614367 -1.274664 -5.868865
v 3.801664 -0.340592 -6.279131
v 3.805609 -0.336490 -6.361362
v 3.794514 -0.330515 -6.359795
v 3.790583 -0.334602 -6.277866
v 0.668499 -1.271542 -5.774584
v 0.674930 -1.260337 -5.776462
v 3.766983 -0.354486 -6.173576
v 3.798295 -0.342190 -6.261956
v 3.785863 -0.336642 -6.259334
v 3.755320 -0.348636 -6.173123
v 0.787463 -1.240467 -5.674729
v 0.794132 -1.229135 -5.678201
v 3.677099 -0.385224 -6.046827
v 3.758885 -0.357395 -6.158247
v 3.742369 -0.353113 -6.153531
v 3.664806 -0.379504 -6.047857
v 4.726616 -0.189124 -14.063423
v 4.619998 0.176825 -14.050286
v 4.629588 0.179342 -14.042559
v 4.736206 -0.186608 -14.055696
v 5.540899 0.187493 -6.874243
v 5.647517 -0.178456 -6.887381
v 5.654844 -0.175966 -6.897286
v 5.548227 0.189984 -6.884149
v -2.145553 -1.825570 -13.179086
v -2.038936 -2.191520 -13.192225
v -2.046263 -2.194010 -13.182319
v -2.152881 -1.828060 -13.169180
v -1.234243 -1.817419 -6.010775
v -1.127625 -2.183369 -6.023913
v -1.118034 -2.180852 -6.016181
v -1.224652 -1.814902 -6.003043
v 0.346732 -1.349821 -6.205390
v 0.453350 -1.715770 -6.218528
v 0.964042 -1.191941 -5.593414
v 0.970590 -1.180579 -5.598708
v 3.526794 -0.433445 -5.923420
v 3.665213 -0.389132 -6.034408
v 3.639400 -0.387667 -6.026660
v 3.514153 -0.427763 -5.926242
v 3.279483 -0.508951 -5.827243
v 3.283344 -0.498222 -5.836717
v 1.210639 -1.121192 -5.562895
v 1.317257 -1.487141 -5.576033
v 1.210639 -1.121192 -5.562895
v 1.216499 -1.109945 -5.570568
v 3.512090 -0.438033 -5.914944
v 3.445891 -0.448609 -5.899528
v 0.363085 -1.345141 -6.203029
v 0.469903 -1.315696 -6.156337
v 0.476444 -1.304335 -6.161687
v 0.385509 -1.329401 -6.201435
v 3.853171 -0.314801 -6.579525
v 3.840880 -0.309208 -6.576997
v 0.469903 -1.315696 -6.156337
v 0.576522 -1.681646 -6.169476
v 3.853171 -0.314801 -6.579525
v 3.959789 -0.680751 -6.592664
v 5.548227 0.189984 -6.884149
v 5.443690 0.188773 -7.698739
v 5.432746 0.194798 -7.697343
v 5.537282 0.196009 -6.882753
v 5.441426 0.188747 -7.716372
v 5.430484 0.194772 -7.714976
v -2.152881 -1.828060 -13.169180
v -2.048345 -1.826850 -12.354594
v -2.042371 -1.815817 -12.355377
v -2.146906 -1.817028 -13.169964
v -2.046082 -1.826823 -12.336961
v -2.040108 -1.815791 -12.337744
v 3.137141 -0.283484 -13.004414
v 3.154059 -0.278477 -13.006592
v -0.574170 -1.360489 -13.381433
v -0.575523 -1.351946 -13.372311
v -1.224652 -1.814902 -6.003043
v -1.228269 -1.806386 -6.011558
v 3.969515 -0.277588 -6.671896
v 3.965898 -0.269072 -6.680405
v 4.619998 0.176825 -14.050286
v 4.618644 0.185368 -14.041162
v 4.870284 -0.408494 -6.787296
v 4.763665 -0.042544 -6.774158
v 5.647517 -0.178456 -6.887381
v 5.540899 0.187493 -6.874243
vn 0.4615 0.7174 0.5218
vn 0.3145 0.7158 -0.6235
vn -0.6375 0.3923 0.6631
vn -0.7843 0.3905 -0.4820
vn -0.2330 0.6975 0.6777
vn -0.4386 0.6025 0.6668
vn -0.3541 0.7025 0.6173
vn -0.2399 0.6981 0.6746
vn -0.3695 0.6861 0.6267
vn 0.0546 0.8236 0.5646
vn -0.0223 0.7625 0.6466
vn -0.0268 0.7584 0.6512
vn 0.1884 0.7881 0.5860
vn 0.0781 0.8185 0.5691
vn -0.1279 0.6606 0.7398
vn -0.1816 0.6422 0.7447
vn -0.2369 0.6288 0.7406
vn 0.0279 0.7072 0.7065
vn -0.0232 0.6892 0.7242
vn -0.0779 0.6755 0.7332
vn 0.1273 0.0015 0.9919
vn 0.0024 -0.0352 0.9994
vn -0.1273 -0.0015 -0.9919
vn -0.7058 -0.2297 0.6701
vn -0.8127 -0.2556 0.5236
vn -0.8490 -0.2638 0.4578
vn -0.8787 -0.2701 0.3937
vn -0.9023 -0.2748 0.3321
vn -0.8875 -0.2719 0.3719
vn -0.8223 -0.2578 0.5073
vn -0.7392 -0.2380 0.6301
vn -0.6405 -0.2131 0.7378
vn -0.5352 -0.1855 0.8241
vn 0.2500 0.0381 0.9675
vn 0.8742 0.2395 0.4224
vn 0.8742 0.2395 0.4223
vn 0.9237 0.2590 0.2824
vn 0.9236 0.2590 0.2825
vn -0.2796 0.9595 0.0344
vn 0.9495 0.2709 0.1583
vn 0.9370 0.2648 0.2278
vn -0.2795 0.9595 0.0344
vn 0.9517 0.2817 -0.1225
vn 0.9185 0.2568 0.3007
vn 0.9185 0.2568 0.3006
vn 0.8521 0.2314 0.4695
vn 0.7259 0.1877 0.6617
vn 0.8060 0.2150 0.5515
vn 0.8059 0.2150 0.5516
vn -0.4276 -0.1565 0.8903
vn -0.3040 -0.1225 0.9448
vn -0.9517 -0.2817 0.1225
vn 0.9526 0.2727 0.1350
vn 0.9526 0.2727 0.1349
vn 0.9568 0.2754 0.0928
vn 0.9568 0.2754 0.0927
vn -0.1652 -0.0834 0.9827
vn -0.0389 -0.0472 0.9981
vn 0.6385 0.1590 0.7530
vn 0.5326 0.1251 0.8371
vn 0.0720 -0.0148 0.9973
vn 0.1822 0.0178 0.9831
vn 0.1821 0.0178 0.9831
vn 0.4079 0.0862 0.9089
vn 0.2897 0.0501 0.9558
vn 0.4080 0.0862 0.9089
vn 0.6891 0.1755 0.7031
vn 0.6892 0.1755 0.7030
vn 0.4808 0.1088 0.8701
vn -0.2455 -0.1061 0.9636
vn -0.2454 -0.1061 0.9636
vn -0.4892 -0.1732 0.8548
vn -0.2796 0.9595 0.0345
vn -0.2877 0.6774 -0.6770
vn -0.7981 0.4927 0.3469
vn -0.8016 0.4918 0.3399
vn -0.7768 0.4977 0.3859
vn -0.7721 0.4986 0.3940
vn 0.4510 0.8606 0.2366
vn 0.4534 0.8618 0.2276
vn 0.4661 0.8669 0.1767
vn 0.4643 0.8663 0.1843
vn -0.8356 0.4848 0.2585
vn -0.8370 0.4844 0.2545
vn -0.8207 0.4878 0.2975
vn -0.8186 0.4882 0.3026
vn 0.4737 0.8709 0.1307
vn 0.4787 0.8739 0.0850
vn 0.4783 0.8737 0.0893
vn 0.4730 0.8705 0.1362
vn -0.7773 0.5003 0.3815
vn -0.7670 0.5015 0.4003
vn -0.8161 0.4924 0.3024
vn -0.8220 0.4906 0.2892
vn 0.4687 0.8727 0.1370
vn 0.4468 0.8607 0.2440
vn 0.4514 0.8640 0.2233
vn 0.4713 0.8734 0.1226
vn -0.6460 0.5324 0.5470
vn -0.6240 0.5361 0.5685
vn -0.6960 0.5207 0.4944
vn -0.7161 0.5148 0.4713
vn 0.4009 0.8453 0.3532
vn 0.3515 0.8248 0.4429
vn 0.3663 0.8320 0.4167
vn 0.4149 0.8495 0.3257
vn -0.4894 0.5729 0.6575
vn -0.4655 0.5778 0.6704
vn -0.5378 0.5610 0.6293
vn -0.5714 0.5512 0.6080
vn 0.2824 0.8037 0.5237
vn 0.2243 0.7819 0.5816
vn 0.2432 0.7897 0.5632
vn 0.3099 0.8120 0.4945
vn -0.2844 0.6298 0.7228
vn -0.2656 0.6336 0.7266
vn -0.3442 0.6152 0.7092
vn -0.4046 0.5976 0.6922
vn 0.1149 0.7511 0.6501
vn 0.0453 0.7256 0.6866
vn 0.0617 0.7322 0.6783
vn 0.1693 0.7675 0.6183
vn -0.7000 0.5239 0.4853
vn -0.7280 0.5138 0.4540
vn -0.5892 0.5569 0.5854
vn -0.5422 0.5671 0.6200
vn 0.2805 0.8105 0.5142
vn 0.3160 0.8248 0.4689
vn 0.4210 0.8539 0.3061
vn 0.4002 0.8495 0.3437
vn 0.4752 0.8776 -0.0623
vn 0.4753 0.8776 -0.0623
vn -0.8706 0.4793 0.1110
vn -0.2876 0.6774 -0.6770
vn -0.1077 0.6795 0.7258
vn -0.1077 0.6797 0.7255
vn -0.2795 0.9595 0.0345
vn -0.1077 0.6795 0.7257
vn 0.4752 0.8777 -0.0623
vn -0.2398 0.6981 0.6746
vn -0.2877 0.6775 -0.6770
vn -0.7721 0.4986 0.3941
vn -0.7768 0.4977 0.3860
vn 0.0782 0.8185 0.5692
vn 0.1884 0.7880 0.5861
vn 0.4660 0.8669 0.1767
vn 0.4737 0.8709 0.1308
vn -0.8220 0.4906 0.2891
vn -0.8162 0.4924 0.3024
vn 0.4713 0.8734 0.1225
vn 0.4687 0.8727 0.1369
vn -0.7162 0.5148 0.4713
vn 0.4149 0.8496 0.3257
vn 0.4514 0.8639 0.2233
vn 0.4008 0.8453 0.3532
vn -0.5714 0.5513 0.6080
vn 0.3099 0.8121 0.4945
vn 0.3664 0.8320 0.4167
vn 0.5828 0.1981 -0.7881
vn 0.5829 0.1981 -0.7880
vn 0.7629 0.2002 0.6147
vn -0.7629 -0.2002 -0.6147
vn -0.5831 -0.1982 0.7878
vn 0.0023 -0.0352 0.9994
vn -0.4047 0.5976 0.6921
vn -0.3443 0.6153 0.7092
vn 0.1693 0.7675 0.6182
vn 0.2433 0.7896 0.5633
vn 0.2244 0.7819 0.5817
vn 0.1149 0.7512 0.6500
vn -0.0780 0.6755 0.7332
vn -0.0233 0.6892 0.7242
vn -0.0388 -0.0471 0.9981
vn -0.2369 0.6289 0.7405
vn -0.1817 0.6423 0.7446
vn 0.0616 0.7323 0.6782
vn 0.0453 0.7257 0.6866
vn -0.3695 0.6860 0.6268
vn -0.5421 0.5671 0.6201
vn -0.5892 0.5568 0.5854
vn 0.4002 0.8496 0.3435
vn 0.4210 0.8539 0.3060
vn -0.4893 -0.1732 0.8547
vn 0.8520 0.2314 0.4696
vn 0.9517 0.2817 -0.1226
vn -0.1077 0.6797 0.7256
vn -0.0223 0.7624 0.6467
vt 0.857900 0.714890
vt 0.856830 0.714890
vt 0.857900 0.715770
vt 0.905800 0.998550
vt 0.904730 0.998550
vt 0.905800 0.999520
vt 0.046300 0.056130
vt 0.047370 0.056130
vt 0.046300 0.055730
vt 0.953700 0.998640
vt 0.952630 0.998640
vt 0.953700 0.999520
vt 0.199740 0.917100
vt 0.204800 0.919030
vt 0.201880 0.917100
vt 0.199740 0.918070
vt 0.201730 0.918550
vt 0.654420 0.917100
vt 0.656560 0.918070
vt 0.656560 0.917100
vt 0.651500 0.919030
vt 0.654570 0.918550
vt 0.857900 0.999120
vt 0.856830 0.999470
vt 0.857900 0.999910
vt 0.857900 0.900930
vt 0.856830 0.901450
vt 0.857900 0.902090
vt 0.046300 0.093750
vt 0.000530 0.093750
vt 0.000530 0.130570
vt 0.046300 0.130570
vt 0.905800 0.405490
vt 0.951570 0.405490
vt 0.951570 0.316750
vt 0.905800 0.316750
vt 0.905800 0.817200
vt 0.951570 0.817200
vt 0.951570 0.407420
vt 0.905800 0.407420
vt 0.905800 0.210980
vt 0.951570 0.210980
vt 0.951570 0.204550
vt 0.905800 0.204550
vt 0.905800 0.202620
vt 0.951570 0.202620
vt 0.951570 0.188570
vt 0.905800 0.188570
vt 0.905800 0.186670
vt 0.951570 0.186670
vt 0.951570 0.177980
vt 0.905800 0.177980
vt 0.905800 0.176080
vt 0.951570 0.176080
vt 0.951570 0.165820
vt 0.905800 0.165820
vt 0.905800 0.163950
vt 0.951570 0.163950
vt 0.951570 0.149580
vt 0.905800 0.149580
vt 0.857900 0.790600
vt 0.903670 0.790600
vt 0.903670 0.753780
vt 0.857900 0.753780
vt 0.857900 0.849330
vt 0.903670 0.849330
vt 0.903670 0.839070
vt 0.857900 0.839070
vt 0.654420 0.222140
vt 0.654420 0.132900
vt 0.201880 0.132900
vt 0.201880 0.222140
vt 0.620440 0.970780
vt 0.235860 0.970780
vt 0.247160 0.981090
vt 0.609140 0.981090
vt 0.857900 0.826580
vt 0.903670 0.826580
vt 0.903670 0.812520
vt 0.857900 0.812520
vt 0.754560 0.222140
vt 0.754560 0.132900
vt 0.656560 0.132900
vt 0.656560 0.222140
vt 0.250650 0.983020
vt 0.267790 0.992110
vt 0.588520 0.992110
vt 0.605650 0.983020
vt 0.903670 0.714890
vt 0.903670 0.633690
vt 0.857900 0.633690
vt 0.857900 0.810600
vt 0.903670 0.810600
vt 0.903670 0.804160
vt 0.857900 0.804160
vt 0.857900 0.865570
vt 0.903670 0.865570
vt 0.903670 0.851200
vt 0.857900 0.851200
vt 0.951570 0.998550
vt 0.951570 0.909810
vt 0.905800 0.909810
vt 0.951570 0.147880
vt 0.951570 0.131630
vt 0.905800 0.131630
vt 0.905800 0.147880
vt 0.999470 0.998640
vt 0.999470 0.917440
vt 0.953700 0.917440
vt 0.857900 0.837170
vt 0.903670 0.837170
vt 0.903670 0.828480
vt 0.857900 0.828480
vt 0.000530 0.056130
vt 0.000530 0.092950
vt 0.046300 0.092950
vt 0.627520 0.959980
vt 0.228780 0.959980
vt 0.233940 0.968850
vt 0.622360 0.968850
vt 0.635510 0.933990
vt 0.220790 0.933990
vt 0.225600 0.947340
vt 0.630700 0.947340
vt 0.654420 0.827860
vt 0.201880 0.827860
vt 0.276680 0.994040
vt 0.297840 0.998550
vt 0.558460 0.998550
vt 0.579620 0.994040
vt 0.951570 0.130250
vt 0.951570 0.114220
vt 0.905800 0.114220
vt 0.905800 0.130250
vt 0.857900 0.867260
vt 0.857900 0.883510
vt 0.903670 0.883510
vt 0.903670 0.867260
vt 0.854700 0.825930
vt 0.854700 0.224070
vt 0.756700 0.224070
vt 0.756700 0.825930
vt 0.903670 0.999120
vt 0.903670 0.901920
vt 0.857900 0.901920
vt 0.857900 0.884890
vt 0.903670 0.900930
vt 0.903670 0.884890
vt 0.215450 0.924580
vt 0.640850 0.924580
vt 0.630190 0.949270
vt 0.226110 0.949270
vt 0.227900 0.958050
vt 0.628400 0.958050
vt 0.857900 0.802410
vt 0.903670 0.802410
vt 0.903670 0.791790
vt 0.857900 0.791790
vt 0.099600 0.222140
vt 0.099600 0.132900
vt 0.001600 0.132900
vt 0.001600 0.222140
vt 0.854700 0.917100
vt 0.854700 0.827860
vt 0.756700 0.827860
vt 0.756700 0.917100
vt 0.099600 0.825930
vt 0.099600 0.224070
vt 0.001600 0.224070
vt 0.001600 0.825930
vt 0.199740 0.827860
vt 0.101740 0.827860
vt 0.101740 0.917100
vt 0.905800 0.907880
vt 0.951570 0.907880
vt 0.951570 0.819130
vt 0.905800 0.819130
vt 0.905800 0.314820
vt 0.951570 0.314820
vt 0.951570 0.226070
vt 0.905800 0.226070
vt 0.953700 0.915690
vt 0.999470 0.915690
vt 0.999470 0.368070
vt 0.953700 0.368070
vt 0.905800 0.223360
vt 0.951570 0.223360
vt 0.951570 0.212730
vt 0.905800 0.212730
vt 0.099600 0.917100
vt 0.099600 0.827860
vt 0.001600 0.827860
vt 0.001600 0.917100
vt 0.199740 0.222140
vt 0.199740 0.132900
vt 0.101740 0.132900
vt 0.101740 0.222140
vt 0.639400 0.926510
vt 0.216900 0.926510
vt 0.219980 0.932060
vt 0.636320 0.932060
vt 0.857900 0.631930
vt 0.903670 0.631930
vt 0.903670 0.084310
vt 0.857900 0.084310
vt 0.857900 0.082560
vt 0.903670 0.082560
vt 0.903670 0.001360
vt 0.857900 0.001360
vt 0.754560 0.917100
vt 0.754560 0.827860
vt 0.656560 0.827860
vt 0.854700 0.222140
vt 0.854700 0.132900
vt 0.756700 0.132900
vt 0.756700 0.222140
vt 0.953700 0.366310
vt 0.999470 0.366310
vt 0.999470 0.285110
vt 0.953700 0.285110
vt 0.656560 0.131940
vt 0.654420 0.131940
vt 0.201880 0.131940
vt 0.199740 0.131940
vt 0.904730 0.202260
vt 0.904730 0.204310
vt 0.905800 0.204530
vt 0.856830 0.810970
vt 0.856830 0.813020
vt 0.904730 0.186480
vt 0.904730 0.188400
vt 0.905800 0.188530
vt 0.631280 0.949260
vt 0.631810 0.947390
vt 0.904730 0.175440
vt 0.904730 0.177520
vt 0.905800 0.177960
vt 0.628790 0.959870
vt 0.629480 0.958060
vt 0.904730 0.162680
vt 0.904730 0.165110
vt 0.905800 0.165720
vt 0.622250 0.970500
vt 0.623500 0.968960
vt 0.904730 0.145760
vt 0.904730 0.148790
vt 0.905800 0.149440
vt 0.608660 0.982540
vt 0.610330 0.981370
vt 0.904730 0.125750
vt 0.904730 0.130820
vt 0.905800 0.131410
vt 0.587770 0.993290
vt 0.589730 0.992580
vt 0.904730 0.210380
vt 0.904730 0.212690
vt 0.905800 0.212750
vt 0.856830 0.802990
vt 0.856830 0.804700
vt 0.857900 0.803860
vt 0.855770 0.827860
vt 0.855770 0.825930
vt 0.856830 0.082560
vt 0.856830 0.084310
vt 0.000530 0.222140
vt 0.000530 0.224070
vt 0.952630 0.366310
vt 0.952630 0.368070
vt 0.656560 0.825930
vt 0.654420 0.825930
vt 0.199740 0.224070
vt 0.201880 0.224070
vt 0.904730 0.314820
vt 0.904730 0.316750
vt 0.047370 0.093750
vt 0.047370 0.092950
vt 0.101740 0.825930
vt 0.101740 0.224070
vt 0.857900 0.752980
vt 0.856830 0.752980
vt 0.856830 0.753780
vt 0.904730 0.907880
vt 0.904730 0.909810
vt 0.754560 0.224070
vt 0.857900 0.716170
vt 0.856830 0.716170
vt 0.856830 0.001360
vt 0.904730 0.226070
vt 0.952630 0.285110
vt 0.047370 0.130570
vt 0.904730 0.819130
vt 0.904730 0.407420
vt 0.904730 0.817200
vt 0.904730 0.204180
vt 0.856830 0.793940
vt 0.904730 0.188300
vt 0.856830 0.812890
vt 0.856830 0.826840
vt 0.904730 0.177820
vt 0.856830 0.828670
vt 0.856830 0.837320
vt 0.904730 0.165440
vt 0.856830 0.839700
vt 0.856830 0.849710
vt 0.904730 0.149050
vt 0.856830 0.852470
vt 0.856830 0.866100
vt 0.951570 0.999520
vt 0.903670 0.716170
vt 0.903670 0.715770
vt 0.951570 0.225110
vt 0.905800 0.225110
vt 0.999470 0.284230
vt 0.953700 0.284230
vt 0.905800 0.224820
vt 0.951570 0.224820
vt 0.904730 0.131060
vt 0.856830 0.869380
vt 0.856830 0.884090
vt 0.856830 0.901560
vt 0.903670 0.999910
vt 0.904730 0.113700
vt 0.856830 0.889390
vt 0.904730 0.212160
vt 0.904730 0.221200
vt 0.856830 0.804770
vt 0.951570 0.212750
vt 0.903670 0.803860
vt 0.856830 0.633690
vt 0.856830 0.631930
vt 0.952630 0.917440
vt 0.952630 0.915690
vt 0.654420 0.224070
vt 0.656560 0.224070
vt 0.904730 0.405490
vt 0.856830 0.790600
vt 0.903670 0.752980
s 0
usemtl estrade-contour
f 205/1/1 206/2/1 207/3/1
s 1
f 208/4/2 209/5/2 210/6/2
f 211/7/3 212/8/3 213/9/3
f 214/10/4 215/11/4 216/12/4
f 217/13/5 218/14/6 219/15/7
f 220/16/8 221/17/9 218/14/6
f 217/13/5 220/16/8 218/14/6
f 222/18/10 223/19/11 224/20/12
f 225/21/13 226/22/14 223/19/11
f 222/18/10 225/21/13 223/19/11
f 283/23/15 284/24/16 285/25/17
f 286/26/18 287/27/19 288/28/20
f 1/29/21 2/30/21 3/31/22
f 1/29/21 3/31/22 4/32/22
s 0
f 5/33/23 6/34/23 7/35/23
f 5/33/23 7/35/23 8/36/23
f 9/37/23 10/38/23 11/39/23
f 9/37/23 11/39/23 12/40/23
s 1
f 13/41/24 14/42/24 15/43/25
f 13/41/24 15/43/25 16/44/25
f 17/45/26 18/46/26 19/47/27
f 17/45/26 19/47/27 20/48/27
f 21/49/28 22/50/28 23/51/29
f 21/49/28 23/51/29 24/52/29
f 25/53/30 26/54/30 27/55/31
f 25/53/30 27/55/31 28/56/31
f 29/57/32 30/58/32 31/59/33
f 29/57/32 31/59/33 32/60/33
f 33/61/34 34/62/34 35/63/21
f 33/61/34 35/63/21 36/64/21
f 37/65/35 38/66/36 39/67/37
f 37/65/35 39/67/37 40/68/38
s 0
f 41/69/39 42/70/39 43/71/39
f 41/69/39 43/71/39 44/72/39
f 45/73/39 46/74/39 47/75/39
f 45/73/39 47/75/39 48/76/39
s 1
f 49/77/40 50/78/40 51/79/41
f 49/77/40 51/79/41 52/80/41
s 0
f 53/81/39 54/82/39 55/83/39
f 53/81/39 55/83/39 56/84/39
f 57/85/39 58/86/39 59/87/39
f 57/85/42 59/87/42 60/88/42
f 61/1/43 62/89/43 63/90/43
f 61/1/43 63/90/43 64/91/43
s 1
f 65/92/44 66/93/45 67/94/46
f 65/92/44 67/94/46 68/95/46
f 69/96/47 70/97/47 71/98/48
f 69/96/47 71/98/48 72/99/49
s 0
f 73/4/23 74/100/23 75/101/23
f 73/4/23 75/101/23 76/102/23
s 1
f 77/103/50 78/104/51 79/105/51
f 77/103/50 79/105/51 80/106/50
s 0
f 81/10/52 82/107/52 83/108/52
f 81/10/52 83/108/52 84/109/52
s 1
f 85/110/53 86/111/54 87/112/55
f 85/110/53 87/112/55 88/113/56
s 0
f 89/7/21 90/114/21 91/115/21
f 89/7/21 91/115/21 92/116/21
f 93/117/42 94/118/42 95/119/42
f 93/117/39 95/119/39 96/120/39
f 97/121/42 98/122/42 99/123/42
f 97/121/39 99/123/39 100/124/39
f 101/18/39 102/125/39 103/126/39
f 101/18/39 103/126/39 104/15/39
f 105/127/42 106/128/42 107/129/42
f 105/127/39 107/129/39 108/130/39
s 1
f 109/131/57 110/132/58 111/133/58
f 109/131/57 111/133/58 112/134/57
f 113/135/59 114/136/60 115/137/60
f 113/135/59 115/137/60 116/138/59
s 0
f 117/139/39 118/140/39 119/141/39
f 117/139/39 119/141/39 120/142/39
s 1
f 121/23/61 122/143/61 123/144/62
f 121/23/61 123/144/62 124/145/63
f 125/146/64 126/26/65 127/147/65
f 125/146/64 127/147/65 128/148/66
s 0
f 129/21/39 130/14/39 131/149/39
f 129/21/39 131/149/39 132/150/39
f 133/151/39 134/152/39 135/153/39
f 133/151/39 135/153/39 136/154/39
s 1
f 137/155/67 138/156/68 139/157/69
f 137/155/67 139/157/69 140/158/69
s 0
f 141/159/39 142/160/39 143/161/39
f 141/159/39 143/161/39 144/162/39
f 145/163/39 146/164/39 147/165/39
f 145/163/39 147/165/39 148/166/39
f 149/167/39 150/168/39 151/169/39
f 149/167/42 151/169/42 152/170/42
f 153/13/39 154/171/39 155/172/39
f 153/13/39 155/172/39 156/173/39
f 157/174/23 158/175/23 159/176/23
f 157/174/23 159/176/23 160/177/23
f 161/178/23 162/179/23 163/180/23
f 161/178/23 163/180/23 164/181/23
f 165/182/52 166/183/52 167/184/52
f 165/182/52 167/184/52 168/185/52
s 1
f 169/186/70 170/187/71 171/188/72
f 169/186/70 171/188/72 172/189/72
s 0
f 173/190/39 174/191/39 175/192/39
f 173/190/39 175/192/39 176/193/39
f 177/194/39 178/195/39 179/196/39
f 177/194/39 179/196/39 180/197/39
f 181/198/39 182/199/39 183/200/39
f 181/198/73 183/200/73 184/201/73
f 185/202/43 186/203/43 187/204/43
f 185/202/43 187/204/43 188/205/43
f 189/206/43 190/207/43 191/208/43
f 189/206/43 191/208/43 192/209/43
f 193/210/39 194/211/39 195/212/39
f 193/210/39 195/212/39 196/20/39
f 197/213/39 198/214/39 199/215/39
f 197/213/39 199/215/39 200/216/39
f 201/217/52 202/218/52 203/219/52
f 201/217/52 203/219/52 204/220/52
f 227/70/74 228/83/74 229/221/74
f 227/70/74 229/221/74 230/222/74
f 231/195/74 232/71/74 233/223/74
f 231/195/74 233/223/74 234/224/74
s 1
f 235/45/75 236/225/76 237/226/77
f 235/45/75 237/226/77 238/227/78
f 239/92/79 240/228/80 241/229/81
f 239/92/79 241/229/81 242/80/82
f 243/49/83 244/230/84 245/231/85
f 243/49/83 245/231/85 246/232/86
f 247/124/87 248/151/88 249/233/89
f 247/124/87 249/233/89 250/234/90
f 251/53/91 252/235/92 253/236/93
f 251/53/91 253/236/93 254/237/94
f 255/154/95 256/117/96 257/238/97
f 255/154/95 257/238/97 258/239/98
f 259/57/99 260/240/100 261/241/101
f 259/57/99 261/241/101 262/242/102
f 263/120/103 264/73/104 265/243/105
f 263/120/103 265/243/105 266/244/106
f 267/106/107 268/245/108 269/246/109
f 267/106/107 269/246/109 270/247/110
f 271/76/111 272/88/112 273/248/113
f 271/76/111 273/248/113 274/249/114
f 275/134/115 276/250/116 277/251/117
f 275/134/115 277/251/117 278/252/118
f 279/87/119 280/130/120 281/253/121
f 279/87/119 281/253/121 282/254/122
f 289/41/123 290/255/124 291/256/125
f 289/41/123 291/256/125 292/257/126
f 293/155/127 294/258/128 295/259/129
f 293/155/127 295/259/129 296/260/130
s 0
f 297/139/131 298/164/131 299/261/131
f 297/139/132 299/261/132 300/262/132
f 301/206/131 302/263/131 303/264/131
f 301/206/132 303/264/132 304/205/132
f 305/169/133 306/162/133 307/265/133
f 305/169/133 307/265/133 308/266/133
f 309/217/133 310/267/133 311/268/133
f 309/217/133 311/268/133 312/185/133
f 102/125/42 195/212/42 313/269/42
f 102/125/73 313/269/73 314/270/73
f 44/72/42 177/194/42 315/271/42
f 44/72/39 315/271/39 316/272/39
f 317/178/74 318/273/74 319/274/74
f 317/178/134 319/274/134 320/36/134
f 321/116/135 322/29/135 323/275/135
f 321/116/136 323/275/136 324/276/136
f 149/167/39 174/191/39 155/172/39
f 149/167/39 155/172/39 325/277/39
f 180/197/39 141/159/39 150/168/39
f 180/197/137 150/168/137 326/278/137
f 327/64/138 328/279/138 329/280/138
f 327/64/138 329/280/138 330/281/138
f 331/174/74 332/282/74 333/283/74
f 331/174/74 333/283/74 334/102/74
f 200/216/42 53/81/42 335/284/42
f 200/216/39 335/284/39 119/141/39
f 328/279/138 336/285/138 337/286/138
f 328/279/138 337/286/138 329/280/138
f 301/206/139 338/209/139 339/287/139
f 301/206/132 339/287/132 302/263/132
f 317/178/74 340/181/74 341/288/74
f 317/178/74 341/288/74 318/273/74
f 309/217/133 342/220/133 343/289/133
f 309/217/133 343/289/133 310/267/133
s 1
f 322/29/136 344/32/140 345/290/5
f 322/29/136 345/290/5 323/275/136
s 0
f 130/14/39 129/21/39 101/18/39
f 130/14/73 101/18/73 104/15/73
f 331/174/74 346/177/74 347/291/74
f 331/174/141 347/291/141 332/282/141
f 348/37/74 349/40/74 350/292/74
f 348/37/74 350/292/74 351/293/74
f 102/125/39 101/18/39 196/20/39
f 102/125/42 196/20/42 195/212/42
f 154/171/73 153/13/73 104/15/73
f 154/171/39 104/15/39 103/126/39
f 98/122/73 97/121/73 184/201/73
f 98/122/137 184/201/137 183/200/137
s 1
f 289/41/123 352/44/142 353/294/143
f 289/41/123 353/294/143 290/255/124
f 293/155/127 354/158/144 355/295/145
f 293/155/127 355/295/145 294/258/128
s 0
f 134/152/137 133/151/137 100/124/137
f 134/152/39 100/124/39 99/123/39
s 1
f 235/45/75 356/48/86 357/296/85
f 235/45/75 357/296/85 236/225/76
f 358/77/90 242/80/82 359/297/146
f 358/77/90 359/297/146 360/298/147
s 0
f 94/118/73 93/117/73 136/154/73
f 94/118/39 136/154/39 135/153/39
s 1
f 243/49/83 361/52/148 362/299/149
f 243/49/83 362/299/149 244/230/84
f 363/110/150 364/113/89 365/300/88
f 363/110/150 365/300/88 366/301/151
s 0
f 46/74/42 45/73/42 96/120/42
f 46/74/42 96/120/42 95/119/42
s 1
f 251/53/91 367/56/152 368/302/101
f 251/53/91 368/302/101 252/235/92
f 369/65/153 370/68/154 371/303/96
f 369/65/153 371/303/96 372/304/155
s 0
f 57/85/73 60/88/73 48/76/73
f 57/85/137 48/76/137 47/75/137
s 1
f 259/57/99 373/60/156 374/305/109
f 259/57/99 374/305/109 260/240/100
f 375/96/157 376/99/158 377/306/104
f 375/96/157 377/306/104 378/307/111
f 140/158/69 139/157/69 34/62/34
f 140/158/69 34/62/34 33/61/34
f 66/93/45 65/92/44 52/80/41
f 66/93/45 52/80/41 51/79/41
f 28/56/31 27/55/31 30/58/32
f 28/56/31 30/58/32 29/57/32
f 26/54/30 25/53/30 24/52/29
f 26/54/30 24/52/29 23/51/29
s 0
f 160/177/23 159/176/23 10/38/23
f 160/177/23 10/38/23 9/37/23
f 379/100/159 380/4/159 381/6/159
f 379/100/160 381/6/160 382/308/160
s 1
f 40/68/38 39/67/37 86/111/54
f 40/68/38 86/111/54 85/110/53
f 38/66/36 37/65/35 72/99/49
f 38/66/36 72/99/49 71/98/48
f 20/48/27 19/47/27 22/50/28
f 20/48/27 22/50/28 21/49/28
f 18/46/26 17/45/26 16/44/25
f 18/46/26 16/44/25 15/43/25
s 0
f 12/40/23 11/39/23 6/34/23
f 12/40/23 6/34/23 5/33/23
s 1
f 113/135/59 116/138/59 70/97/47
f 113/135/59 70/97/47 69/96/47
f 77/103/50 80/106/50 32/60/33
f 77/103/50 32/60/33 31/59/33
s 0
f 383/285/161 384/309/161 385/310/161
f 383/285/161 385/310/161 386/3/161
s 1
f 50/78/40 49/77/40 88/113/56
f 50/78/40 88/113/56 87/112/55
s 0
f 387/181/162 388/180/162 389/311/162
f 387/181/162 389/311/162 390/312/162
f 391/220/163 392/219/163 393/313/163
f 391/220/163 393/313/163 394/314/163
s 1
f 170/187/71 169/186/70 395/315/164
f 170/187/71 395/315/164 396/316/22
s 0
f 105/127/73 108/130/73 59/87/73
f 105/127/137 59/87/137 58/86/137
s 1
f 125/146/64 128/148/66 115/137/60
f 125/146/64 115/137/60 114/136/60
f 109/131/57 112/134/57 79/105/51
f 109/131/57 79/105/51 78/104/51
f 267/106/107 397/105/165 398/317/166
f 267/106/107 398/317/166 268/245/108
f 399/136/167 400/135/168 401/318/169
f 399/136/167 401/318/169 402/319/170
f 283/23/15 403/145/171 404/320/172
f 283/23/15 404/320/172 284/24/16
f 124/145/63 123/144/62 127/147/65
f 124/145/63 127/147/65 126/26/65
f 122/143/61 121/23/61 405/25/173
f 122/143/61 405/25/173 406/321/58
f 275/134/115 407/133/174 408/322/175
f 275/134/115 408/322/175 276/250/116
f 286/26/18 409/146/176 410/323/177
f 286/26/18 410/323/177 287/27/19
f 411/186/178 412/189/179 413/324/180
f 411/186/178 413/324/180 414/325/6
f 239/92/79 415/95/181 416/326/182
f 239/92/79 416/326/182 240/228/80
f 14/42/24 13/41/24 417/257/183
f 14/42/24 417/257/183 418/327/183
f 138/156/68 137/155/67 419/260/184
f 138/156/68 419/260/184 420/328/46
s 0
f 182/199/42 181/198/42 132/150/42
f 182/199/73 132/150/73 131/149/73
f 421/1/132 422/91/132 423/329/132
f 421/1/132 423/329/132 424/2/132
f 425/202/132 304/205/132 303/264/132
f 425/202/132 303/264/132 426/330/132
f 427/10/133 428/109/133 429/331/133
f 427/10/133 429/331/133 430/11/133
f 431/182/133 312/185/133 311/268/133
f 431/182/133 311/268/133 432/332/133
f 42/70/42 41/69/42 56/84/42
f 42/70/39 56/84/39 55/83/39
f 178/195/39 177/194/39 44/72/39
f 178/195/42 44/72/42 43/71/42
f 166/183/52 165/182/52 84/109/52
f 166/183/52 84/109/52 83/108/52
f 202/218/52 201/217/52 168/185/52
f 202/218/52 168/185/52 167/184/52
f 186/203/185 185/202/185 64/91/185
f 186/203/43 64/91/43 63/90/43
f 190/207/43 189/206/43 188/205/43
f 190/207/43 188/205/43 187/204/43
f 41/69/42 44/72/42 316/272/42
f 41/69/137 316/272/137 433/333/137
f 53/81/39 56/84/39 434/334/39
f 53/81/39 434/334/39 335/284/39
f 149/167/42 152/170/42 175/192/42
f 149/167/39 175/192/39 174/191/39
f 141/159/42 144/162/42 151/169/42
f 141/159/39 151/169/39 150/168/39
f 435/33/74 320/36/74 319/274/74
f 435/33/74 319/274/74 436/335/74
f 437/7/186 321/116/186 324/276/186
f 437/7/136 324/276/136 438/8/136
f 177/194/73 180/197/73 326/278/73
f 177/194/39 326/278/39 315/271/39
f 150/168/73 149/167/73 325/277/73
f 150/168/42 325/277/42 326/278/42
f 174/191/42 173/190/42 156/173/42
f 174/191/39 156/173/39 155/172/39
f 2/30/21 1/29/21 92/116/21
f 2/30/21 92/116/21 91/115/21
f 162/179/23 161/178/23 8/36/23
f 162/179/23 8/36/23 7/35/23
f 142/160/42 141/159/42 180/197/42
f 142/160/39 180/197/39 179/196/39
s 1
f 439/61/187 327/64/138 330/281/138
f 439/61/187 330/281/138 440/336/12
s 0
f 441/4/74 334/102/74 333/283/74
f 441/4/74 333/283/74 442/5/74
f 117/139/73 120/142/73 147/165/73
f 117/139/42 147/165/42 146/164/42
f 197/213/39 200/216/39 119/141/39
f 197/213/73 119/141/73 118/140/73
f 194/211/39 193/210/39 148/166/39
f 194/211/39 148/166/39 147/165/39
f 443/337/21 444/279/21 36/64/21
f 443/337/21 36/64/21 35/63/21
f 158/175/23 157/174/23 76/102/23
f 158/175/23 76/102/23 75/101/23
f 54/82/39 53/81/39 200/216/39
f 54/82/39 200/216/39 199/215/39
f 444/279/21 443/337/21 445/309/21
f 444/279/21 445/309/21 446/285/21
