# Blender 5.1.1
# www.blender.org
mtllib AltarBaseDetail.mtl
o Plane.000_1
v 4.636333 -0.040273 -7.612713
v 3.931292 -0.048440 -13.106676
v 3.154059 -0.278477 -13.006592
v 3.859099 -0.270310 -7.512630
v 0.236316 -1.342542 -7.046124
v -0.468724 -1.350710 -12.540092
v -1.245957 -1.580746 -12.440007
v -0.540916 -1.572579 -6.946039
v 3.842181 -0.275317 -7.510450
v 3.137141 -0.283484 -13.004414
v -0.451806 -1.345702 -12.542270
v 0.253235 -1.337535 -7.048303
v 3.151796 -0.278503 -13.024225
v 3.134877 -0.283510 -13.022047
v 0.238579 -1.342516 -7.028491
v 0.255498 -1.337509 -7.030669
v 4.638596 -0.040246 -7.595080
v 4.655513 -0.035239 -7.597259
v 4.653251 -0.035265 -7.614892
v 3.844444 -0.275291 -7.492818
v 3.861362 -0.270283 -7.494996
v -0.538654 -1.572553 -6.928407
v 3.948210 -0.043432 -13.108855
vn -0.2796 0.9595 0.0344
vn -0.2795 0.9595 0.0344
vn -0.2796 0.9595 0.0345
vn -0.2795 0.9595 0.0345
vt 0.754560 0.825930
vt 0.754560 0.224070
vt 0.656560 0.224070
vt 0.656560 0.825930
vt 0.199740 0.825930
vt 0.199740 0.224070
vt 0.101740 0.224070
vt 0.101740 0.825930
vt 0.654420 0.825930
vt 0.654420 0.224070
vt 0.201880 0.224070
vt 0.201880 0.825930
vt 0.656560 0.222140
vt 0.654420 0.222140
vt 0.199740 0.827860
vt 0.201880 0.827860
vt 0.754560 0.827860
vt 0.756700 0.827860
vt 0.756700 0.825930
vt 0.654420 0.827860
vt 0.656560 0.827860
vt 0.101740 0.827860
vt 0.756700 0.224070
s 0
usemtl estrade-centre
f 1/1/1 2/2/1 3/3/1
f 1/1/1 3/3/1 4/4/1
f 5/5/1 6/6/1 7/7/1
f 5/5/1 7/7/1 8/8/1
f 9/9/1 10/10/1 11/11/1
f 9/9/1 11/11/1 12/12/1
f 3/3/2 13/13/2 14/14/2
f 3/3/3 14/14/3 10/10/3
f 5/5/3 15/15/3 16/16/3
f 5/5/1 16/16/1 12/12/1
f 1/1/4 17/17/4 18/18/4
f 1/1/1 18/18/1 19/19/1
f 10/10/2 9/9/2 4/4/2
f 10/10/1 4/4/1 3/3/1
f 6/6/1 5/5/1 12/12/1
f 6/6/3 12/12/3 11/11/3
f 9/9/1 12/12/1 16/16/1
f 9/9/1 16/16/1 20/20/1
f 1/1/2 4/4/2 21/21/2
f 1/1/1 21/21/1 17/17/1
f 5/5/3 8/8/3 22/22/3
f 5/5/3 22/22/3 15/15/3
f 2/2/1 1/1/1 19/19/1
f 2/2/1 19/19/1 23/23/1
