# Blender 5.1.1
# www.blender.org
mtllib ArchesUpper.mtl
o Circle.001_0
v -5.570521 5.555251 -7.448411
v -3.789260 6.235188 -11.932094
v -3.789260 6.235188 -11.932094
v 1.916894 7.923903 -12.663223
v 4.772324 8.616284 -8.776610
v 4.772324 8.616284 -8.776610
v -3.292853 6.393891 -12.324202
v 1.348993 7.771079 -12.921941
v 1.348993 7.771079 -12.921941
v 5.037086 8.667850 -8.064474
v 5.516593 7.022015 -8.123557
v -5.161046 3.864811 -6.748607
v 1.916894 7.923903 -12.663223
v 2.395125 6.280866 -12.725800
v 5.251011 6.973251 -8.835598
v 4.772324 8.616284 -8.776610
v -5.161046 3.864811 -6.748607
v -5.091830 3.912219 -7.507398
v -5.570521 5.555251 -7.448411
v 1.348993 7.771079 -12.921941
v 1.828581 6.124969 -12.981039
v 2.395125 6.280866 -12.725800
v 1.916894 7.923903 -12.663223
v -5.570521 5.555251 -7.448411
v -5.091830 3.912219 -7.507398
v -3.310569 4.592155 -11.991081
v -3.789260 6.235188 -11.932094
v -3.292853 6.393891 -12.324202
v -2.814158 4.750860 -12.383194
v 1.828581 6.124969 -12.981039
v 1.348993 7.771079 -12.921941
v -3.789260 6.235188 -11.932094
v -3.310569 4.592155 -11.991081
v -2.814158 4.750860 -12.383194
v -3.292853 6.393891 -12.324202
v 4.772324 8.616284 -8.776610
v 5.251011 6.973251 -8.835598
v 5.516593 7.022015 -8.123557
v 5.037086 8.667850 -8.064474
v 5.516593 7.022015 -8.123557
v 5.534618 6.960144 -8.125779
v -5.161046 3.864811 -6.748607
v -5.143020 3.802938 -6.750828
v 5.045950 8.667953 -7.995400
v 7.163085 7.042410 4.709625
v -3.575758 3.883176 5.604612
v 7.172606 7.009599 4.708152
v 7.163085 7.042410 4.709625
v 7.181041 6.980539 4.706855
v -3.567640 3.855201 5.603360
v -3.575758 3.883176 5.604614
v -3.557802 3.821301 5.601840
v -4.466160 6.229836 -10.387059
v -5.556803 5.613753 -7.516375
v -4.047124 6.466542 -11.490001
v -5.583218 5.598832 -7.446846
v -4.047124 6.466542 -11.490001
v -3.883580 6.558925 -11.920471
v 4.056705 8.609699 -9.683228
v 2.123282 8.322226 -12.241621
v 4.645302 8.697215 -8.904369
v 1.814231 8.276275 -12.650572
v 4.645302 8.697215 -8.904369
v 4.744449 8.711957 -8.773175
v -1.438069 7.330716 -12.563617
v -3.061379 6.841332 -12.354568
v 0.887101 8.031691 -12.863050
v -3.393998 6.741056 -12.311737
v 0.887101 8.031691 -12.863050
v 1.241517 8.138539 -12.908694
v -5.638408 5.503281 -6.689783
v -5.638159 5.503712 -6.693197
v -5.638408 5.503281 -6.689783
v -5.630175 5.517534 -6.802712
v 5.051606 8.704977 -7.866366
v 5.136038 8.668997 -7.293399
v 5.032831 8.712978 -7.993783
v 6.838088 7.943660 4.257236
v 5.135839 8.669082 -7.294741
v -3.821175 4.728859 5.642504
v 6.910498 7.912803 4.748622
vn 0.9195 0.2572 0.2974
vn 0.8878 0.2447 0.3898
vn 0.8696 0.2347 0.4344
vn -0.6511 -0.2158 0.7277
vn -0.7714 -0.1970 0.6051
vn -0.8085 -0.2499 0.5328
vn -0.8127 -0.2557 0.5236
vn -0.6960 -0.2809 0.6608
vn -0.7605 -0.2432 0.6021
vn -0.7066 -0.3148 0.6338
vn 0.2886 0.0499 0.9562
vn 0.1273 0.0015 0.9919
vn 0.0451 -0.0232 0.9987
vn -0.7605 -0.2440 0.6018
vn -0.7605 -0.2438 0.6019
vn -0.7605 -0.2434 0.6020
vn -0.7605 -0.2436 0.6019
vn 0.9558 0.2747 0.1045
vn 0.9558 0.2747 0.1044
vn -0.3758 -0.1433 0.9155
vn -0.3758 -0.1433 0.9156
vn -0.3757 -0.1433 0.9156
vn 0.5853 0.1419 0.7983
vn 0.5853 0.1418 0.7983
vn -0.8950 -0.2734 0.3525
vn -0.9517 -0.2817 0.1225
vn -0.9516 -0.2817 0.1225
vn -0.9517 -0.2817 0.1226
vn 0.9517 0.2817 -0.1225
vn -0.9517 -0.2816 0.1225
vt 0.459470 0.044870
vt 0.362087 0.052495
vt 0.457167 0.046410
vt 0.311300 0.045400
vt 0.325558 0.054831
vt 0.459470 0.046262
vt 0.311300 0.055744
vt 0.311010 0.045400
vt 0.197616 0.049976
vt 0.295382 0.055738
vt 0.162840 0.044870
vt 0.167854 0.048223
vt 0.311010 0.056659
vt 0.167854 0.048223
vt 0.162840 0.047927
vt 0.000150 0.362350
vt 0.068683 0.351131
vt 0.011817 0.351353
vt 0.162550 0.362360
vt 0.150248 0.350758
vt 0.000150 0.351404
vt 0.162550 0.350764
vt 0.853100 0.000150
vt 0.795920 0.000140
vt 0.795310 0.136530
vt 0.852490 0.136540
vt 0.855550 0.840360
vt 0.912472 0.840455
vt 0.912465 0.840350
vt 0.855580 0.863580
vt 0.912735 0.843814
vt 0.516190 0.345440
vt 0.459760 0.345440
vt 0.461520 0.362360
vt 0.517950 0.362350
vt 0.912760 0.863570
vt 0.856190 0.999860
vt 0.913370 0.999850
vt 0.516190 0.195860
vt 0.459760 0.195870
vt 0.517950 0.178540
vt 0.461520 0.178540
vt 0.795180 0.159670
vt 0.852350 0.159680
vt 0.794387 0.554277
vt 0.795528 0.554286
vt 0.793030 0.159670
vt 0.793378 0.554269
vt 0.590250 0.363809
vt 0.594520 0.362630
vt 0.571051 0.362649
vt 0.594520 0.364069
vt 0.855839 0.460497
vt 0.854867 0.460504
vt 0.853689 0.460514
vt 0.853400 0.840360
vt 0.885215 0.460260
vt 0.825761 0.554530
vt 0.826847 0.539385
vt 0.852371 0.183349
s 1
usemtl mur-haut
f 1/1/1 53/2/2 54/3/3
s 0
f 53/2/2 2/4/2 55/5/2
s 1
f 54/3/3 56/6/2 1/1/1
s 0
f 57/5/2 3/4/2 58/7/2
s 1
f 4/8/4 59/9/5 60/10/6
f 59/9/5 5/11/7 61/12/8
f 60/10/6 62/13/9 4/8/4
f 63/14/9 6/11/7 64/15/10
f 7/16/11 65/17/12 66/18/13
s 0
f 65/17/12 8/19/12 67/20/12
s 1
f 66/18/13 68/21/12 7/16/11
s 0
f 69/20/12 9/19/12 70/22/12
s 1
f 13/23/14 14/24/15 15/25/16
f 13/23/14 15/25/16 16/26/17
s 0
f 17/27/18 72/28/18 73/29/18
f 18/30/19 74/31/19 72/28/19
s 1
f 20/32/20 21/33/21 22/34/22
f 20/32/20 22/34/22 23/35/20
s 0
f 24/36/2 25/30/2 26/37/2
f 24/36/2 26/37/2 27/38/2
f 28/39/12 29/40/12 30/33/12
f 28/39/12 30/33/12 31/32/12
f 32/41/23 33/42/23 34/40/23
f 32/41/24 34/40/24 35/39/24
f 36/26/25 37/25/25 38/43/25
f 36/26/25 38/43/25 39/44/25
f 40/43/26 47/45/26 48/46/26
f 47/45/27 41/47/27 49/48/27
f 75/49/26 44/50/26 76/51/26
f 75/49/28 77/52/28 44/50/28
f 42/27/29 51/53/29 50/54/29
f 42/27/29 52/55/29 43/56/29
f 80/57/29 12/27/29 71/29/29
f 11/43/26 81/58/26 78/59/26
f 10/44/30 78/59/30 79/60/30
s 1
f 1/1/1 2/4/2 53/2/2
f 4/8/4 5/11/7 59/9/5
f 7/16/11 8/19/12 65/17/12
s 0
f 17/27/19 18/30/19 72/28/19
f 18/30/19 19/36/19 74/31/19
f 40/43/26 41/47/26 47/45/26
f 42/27/29 50/54/29 52/55/29
f 80/57/29 46/53/29 12/27/29
f 78/59/26 10/44/26 11/43/26
f 11/43/26 45/46/26 81/58/26
