# Blender 5.1.1
# www.blender.org
mtllib Flooring.mtl
o Circle.051_0
v 11.374723 2.043348 -21.012495
v 11.386900 2.001555 -21.013994
v 11.373763 2.043097 -21.013266
v 11.385941 2.001304 -21.014767
v 11.374723 2.043348 -21.012495
v 11.373763 2.043097 -21.013266
v 11.373628 2.043950 -21.012354
v 11.373763 2.043097 -21.013266
v 11.373628 2.043950 -21.012354
v 11.373628 2.043950 -21.012354
v 11.374723 2.043348 -21.012495
v 11.374723 2.043348 -21.012495
v 11.386900 2.001555 -21.013994
v 11.385941 2.001304 -21.014767
v 11.373763 2.043097 -21.013266
v 11.373628 2.043950 -21.012354
v 14.589031 2.054153 3.973968
v 14.581387 2.080496 3.975150
v 14.593515 2.038704 3.973277
v 14.580980 2.080719 3.975191
v 14.580288 2.081098 3.975262
v 14.581387 2.080496 3.975153
v 6.336314 -0.345418 4.662297
v 14.580288 2.081098 3.975260
v -8.686595 -3.897445 -18.430088
v -8.687515 -3.894425 -18.429976
v -8.674827 -3.936067 -18.431543
v -8.687647 -3.893636 -18.429129
v -8.687514 -3.894425 -18.429976
v -8.687657 -3.893574 -18.429064
v -8.311799 -3.887599 -15.545373
v -8.687657 -3.893574 -18.429064
v -5.548840 -3.843674 5.652787
v 10.915690 1.826735 -18.678295
v 10.457753 1.609520 -16.344236
v 9.999816 1.392305 -14.010178
v 9.541878 1.175089 -11.676118
v 9.083941 0.957874 -9.342058
v 8.626003 0.740659 -7.007998
v 8.168065 0.523443 -4.673939
v 7.710127 0.306228 -2.339880
v 7.252190 0.089013 -0.005821
v 6.794252 -0.128202 2.328238
v 9.584044 1.504719 -20.515356
v 7.794459 0.965487 -20.018358
v 6.004875 0.426255 -19.521360
v 4.215291 -0.112977 -19.024363
v 2.425707 -0.652209 -18.527365
v 0.636122 -1.191440 -18.030365
v -1.153462 -1.730672 -17.533367
v -2.943046 -2.269904 -17.036369
v -4.732631 -2.809136 -16.539370
v -6.522215 -3.348367 -16.042370
v 5.004667 -0.667434 2.825237
v 3.673021 -0.989451 0.988176
v 2.341374 -1.311467 -0.848885
v 1.009727 -1.633484 -2.685946
v -0.321919 -1.955500 -4.523007
v -1.653566 -2.277517 -6.360068
v -2.985213 -2.599533 -8.197129
v -4.316859 -2.921550 -10.034190
v -5.648506 -3.243566 -11.871251
v -6.980153 -3.565583 -13.708312
v 5.255846 -0.663441 4.752342
v 4.175377 -0.981464 4.842386
v 3.094908 -1.299488 4.932431
v 2.014440 -1.617511 5.022476
v 0.933971 -1.935534 5.112520
v -0.146497 -2.253557 5.202564
v -1.226966 -2.571581 5.292609
v -2.307435 -2.889604 5.382653
v -3.387903 -3.207627 5.472698
v -4.468371 -3.525650 5.562743
v -8.060621 -3.883606 -13.618268
v -7.809443 -3.879613 -11.691163
v -7.558265 -3.875620 -9.764058
v -7.307086 -3.871627 -7.836952
v -7.055908 -3.867633 -5.909846
v -6.804730 -3.863640 -3.982741
v -6.553552 -3.859647 -2.055635
v -6.302374 -3.855653 -0.128530
v -6.051196 -3.851660 1.798576
v -5.800018 -3.847667 3.725681
v 7.085766 -0.124825 4.599840
v 7.835218 0.095767 4.537382
v 8.584671 0.316359 4.474924
v 9.334124 0.536952 4.412466
v 10.083575 0.757544 4.350008
v 10.833027 0.978136 4.287550
v 11.582479 1.198729 4.225092
v 12.331932 1.419321 4.162634
v 13.081384 1.639914 4.100176
v 13.830835 1.860506 4.037718
v 11.665142 2.047328 -18.740753
v 11.956656 2.050704 -16.469152
v 12.248171 2.054082 -14.197552
v 12.539685 2.057459 -11.925950
v 12.831200 2.060836 -9.654348
v 13.122714 2.064213 -7.382747
v 13.414228 2.067590 -5.111145
v 13.705744 2.070967 -2.839544
v 13.997258 2.074344 -0.567942
v 14.288773 2.077721 1.703659
v 9.549874 1.504175 -20.777510
v 7.726121 0.964400 -20.542665
v 5.902368 0.424625 -20.307821
v 4.078614 -0.115150 -20.072977
v 2.254861 -0.654925 -19.838133
v 0.431108 -1.194700 -19.603289
v -1.392645 -1.734475 -19.368444
v -3.216398 -2.274250 -19.133598
v -5.040152 -2.814024 -18.898754
v -6.863904 -3.353799 -18.663910
v -8.345968 -3.888142 -15.807527
v -8.380137 -3.888685 -16.069679
v -8.414307 -3.889229 -16.331833
v -8.448476 -3.889772 -16.593987
v -8.482645 -3.890315 -16.856140
v -8.516813 -3.890858 -17.118294
v -8.550982 -3.891402 -17.380447
v -8.585152 -3.891945 -17.642601
v -8.619320 -3.892488 -17.904755
v -8.653488 -3.893031 -18.166908
v -6.556384 -3.348911 -16.304523
v -4.766800 -2.809679 -16.801523
v -6.590553 -3.349454 -16.566677
v -2.977216 -2.270447 -17.298523
v -4.800969 -2.810222 -17.063677
v -6.624722 -3.349997 -16.828831
v -1.187631 -1.731215 -17.795521
v -3.011384 -2.270990 -17.560677
v -4.835138 -2.810765 -17.325830
v -6.658892 -3.350540 -17.090984
v 0.601953 -1.191983 -18.292519
v -1.221800 -1.731758 -18.057674
v -3.045553 -2.271533 -17.822830
v -4.869307 -2.811308 -17.587984
v -6.693060 -3.351083 -17.353138
v 2.391538 -0.652752 -18.789518
v 0.567784 -1.192527 -18.554672
v -1.255969 -1.732302 -18.319828
v -3.079722 -2.272077 -18.084984
v -4.903476 -2.811852 -17.850138
v -6.727229 -3.351626 -17.615292
v 4.181122 -0.113520 -19.286516
v 2.357368 -0.653295 -19.051672
v 0.533615 -1.193070 -18.816826
v -1.290138 -1.732845 -18.581982
v -3.113892 -2.272620 -18.347137
v -4.937645 -2.812395 -18.112291
v -6.761398 -3.352170 -17.877445
v 5.970706 0.425712 -19.783514
v 4.146953 -0.114063 -19.548670
v 2.323199 -0.653838 -19.313826
v 0.499446 -1.193613 -19.078979
v -1.324307 -1.733388 -18.844135
v -3.148060 -2.273163 -18.609291
v -4.971814 -2.812938 -18.374445
v -6.795567 -3.352713 -18.139599
v 7.760290 0.964944 -20.280512
v 5.936537 0.425169 -20.045668
v 4.112783 -0.114606 -19.810823
v 2.289030 -0.654381 -19.575979
v 0.465277 -1.194156 -19.341133
v -1.358476 -1.733931 -19.106289
v -3.182229 -2.273706 -18.871445
v -5.005982 -2.813481 -18.636599
v -6.829735 -3.353256 -18.401752
v 11.207205 1.830112 -16.406694
v 10.749268 1.612897 -14.072636
v 11.498719 1.833489 -14.135094
v 10.291329 1.395682 -11.738576
v 11.040781 1.616274 -11.801034
v 11.790234 1.836866 -11.863492
v 9.833392 1.178466 -9.404516
v 10.582844 1.399059 -9.466974
v 11.332295 1.619651 -9.529432
v 12.081747 1.840244 -9.591890
v 9.375455 0.961251 -7.070457
v 10.124907 1.181844 -7.132915
v 10.874358 1.402436 -7.195373
v 11.623810 1.623028 -7.257831
v 12.373262 1.843621 -7.320289
v 8.917517 0.744036 -4.736397
v 9.666968 0.964628 -4.798855
v 10.416420 1.185221 -4.861313
v 11.165873 1.405813 -4.923771
v 11.915324 1.626405 -4.986229
v 12.664776 1.846998 -5.048687
v 8.459579 0.526821 -2.402338
v 9.209031 0.747413 -2.464796
v 9.958483 0.968005 -2.527254
v 10.707935 1.188598 -2.589712
v 11.457388 1.409190 -2.652170
v 12.206840 1.629783 -2.714628
v 12.956291 1.850375 -2.777086
v 8.001641 0.309605 -0.068278
v 8.751093 0.530198 -0.130736
v 9.500546 0.750790 -0.193194
v 10.249998 0.971382 -0.255652
v 10.999450 1.191975 -0.318110
v 11.748901 1.412567 -0.380568
v 12.498354 1.633160 -0.443026
v 13.247807 1.853752 -0.505484
v 7.543704 0.092390 2.265780
v 8.293156 0.312982 2.203323
v 9.042608 0.533575 2.140865
v 9.792060 0.754167 2.078407
v 10.541512 0.974759 2.015949
v 11.290964 1.195352 1.953491
v 12.040417 1.415944 1.891033
v 12.789868 1.636536 1.828575
v 13.539320 1.857129 1.766117
v -4.719550 -3.529644 3.635637
v -3.639081 -3.211620 3.545592
v -4.970727 -3.533637 1.708531
v -2.558613 -2.893597 3.455548
v -3.890259 -3.215614 1.618487
v -5.221906 -3.537630 -0.218574
v -1.478144 -2.575574 3.365504
v -2.809791 -2.897591 1.528442
v -4.141438 -3.219607 -0.308619
v -5.473084 -3.541624 -2.145680
v -0.397676 -2.257550 3.275459
v -1.729322 -2.579567 1.438398
v -3.060969 -2.901584 -0.398663
v -4.392615 -3.223600 -2.235724
v -5.724262 -3.545617 -4.072785
v 0.682793 -1.939527 3.185415
v -0.648854 -2.261544 1.348353
v -1.980500 -2.583560 -0.488708
v -3.312147 -2.905577 -2.325768
v -4.643793 -3.227594 -4.162829
v -5.975440 -3.549610 -5.999890
v 1.763262 -1.621504 3.095370
v 0.431615 -1.943521 1.258309
v -0.900032 -2.265537 -0.578752
v -2.231678 -2.587554 -2.415813
v -3.563325 -2.909570 -4.252874
v -4.894972 -3.231587 -6.089935
v -6.226618 -3.553603 -7.926997
v 2.843730 -1.303481 3.005325
v 1.512084 -1.625497 1.168264
v 0.180437 -1.947514 -0.668797
v -1.151210 -2.269530 -2.505857
v -2.482856 -2.591547 -4.342918
v -3.814503 -2.913563 -6.179979
v -5.146150 -3.235580 -8.017041
v -6.477797 -3.557596 -9.854102
v 3.924199 -0.985458 2.915281
v 2.592552 -1.307474 1.078220
v 1.260906 -1.629490 -0.758841
v -0.070741 -1.951507 -2.595901
v -1.402388 -2.273524 -4.432962
v -2.734035 -2.595540 -6.270023
v -4.065681 -2.917557 -8.107085
v -5.397328 -3.239573 -9.944146
v -6.728975 -3.561590 -11.781207
v 5.462605 -0.450219 0.491178
v 5.920543 -0.233004 -1.842882
v 4.130959 -0.772236 -1.345884
v 6.378481 -0.015788 -4.176941
v 4.588896 -0.555020 -3.679942
v 2.799312 -1.094252 -3.182944
v 6.836419 0.201427 -6.511000
v 5.046834 -0.337805 -6.014002
v 3.257249 -0.877037 -5.517003
v 1.467665 -1.416269 -5.020005
v 7.294356 0.418642 -8.845059
v 5.504771 -0.120590 -8.348062
v 3.715187 -0.659821 -7.851064
v 1.925602 -1.199053 -7.354065
v 0.136018 -1.738285 -6.857066
v 7.752294 0.635857 -11.179119
v 5.962709 0.096626 -10.682120
v 4.173124 -0.442606 -10.185122
v 2.383540 -0.981838 -9.688125
v 0.593956 -1.521070 -9.191126
v -1.195629 -2.060302 -8.694127
v 8.210232 0.853073 -13.513179
v 6.420647 0.313841 -13.016180
v 4.631063 -0.225391 -12.519181
v 2.841478 -0.764623 -12.022183
v 1.051894 -1.303854 -11.525186
v -0.737691 -1.843086 -11.028187
v -2.527275 -2.382318 -10.531188
v 8.668169 1.070288 -15.847239
v 6.878585 0.531056 -15.350242
v 5.089000 -0.008176 -14.853243
v 3.299416 -0.547407 -14.356244
v 1.509831 -1.086639 -13.859245
v -0.279753 -1.625871 -13.362247
v -2.069338 -2.165102 -12.865248
v -3.858922 -2.704334 -12.368249
v 9.126106 1.287503 -18.181297
v 7.336522 0.748271 -17.684299
v 5.546938 0.209040 -17.187302
v 3.757354 -0.330192 -16.690304
v 1.967769 -0.869424 -16.193306
v 0.178185 -1.408656 -15.696307
v -1.611400 -1.947888 -15.199307
v -3.400984 -2.487119 -14.702309
v -5.190568 -3.026351 -14.205310
vn 0.3139 0.7152 -0.6244
vn -0.1273 -0.0013 -0.9919
vn -0.1272 -0.0022 -0.9919
vn -0.1271 -0.0026 -0.9919
vn -0.1273 -0.0014 -0.9919
vn 0.5832 0.1992 -0.7875
vn 0.5833 0.1983 -0.7877
vn 0.5831 0.1983 -0.7878
vn 0.5830 0.1991 -0.7877
vn 0.4749 0.8779 -0.0622
vn 0.4758 0.8774 -0.0623
vn 0.4747 0.8779 -0.0623
vn 0.4738 0.8784 -0.0621
vn 0.4746 0.8780 -0.0622
vn 0.9517 0.2817 -0.1225
vn 0.9516 0.2817 -0.1225
vn -0.2796 0.9595 0.0344
vn -0.2878 0.6784 -0.6759
vn -0.2866 0.6780 -0.6769
vn -0.2967 0.6519 -0.6979
vn -0.2967 0.6518 -0.6980
vn -0.2795 0.9595 0.0344
vt 0.999900 0.999920
vt 0.999920 0.999920
vt 0.999920 0.999900
vt 0.999920 0.472561
vt 0.999920 0.472560
vt 0.999920 0.472573
vt 0.999900 0.999900
vt 0.369692 0.999900
vt 0.369692 0.999913
vt 0.369692 0.999920
vt 0.369698 0.999920
vt 0.369701 0.999920
vt 0.993287 0.951974
vt 0.943453 0.980313
vt 0.378985 0.784438
vt 0.428818 0.756099
vt 0.380203 0.756199
vt 0.378140 0.804025
vt 0.435432 0.804025
vt 0.999900 0.951960
vt 0.933766 0.520636
vt 0.933766 0.472696
vt 0.927153 0.472710
vt 0.940380 0.568563
vt 0.940380 0.520623
vt 0.946993 0.616489
vt 0.946993 0.568549
vt 0.953606 0.664416
vt 0.953606 0.616475
vt 0.960220 0.712342
vt 0.960220 0.664402
vt 0.966833 0.760268
vt 0.966833 0.712328
vt 0.973447 0.808195
vt 0.973447 0.760255
vt 0.980060 0.856121
vt 0.980060 0.808181
vt 0.986673 0.904047
vt 0.986673 0.856107
vt 0.993287 0.904034
vt 0.940380 0.472683
vt 0.946993 0.520609
vt 0.946993 0.472669
vt 0.953606 0.568535
vt 0.953606 0.520595
vt 0.953606 0.472655
vt 0.960220 0.616462
vt 0.960220 0.568522
vt 0.960220 0.520582
vt 0.960220 0.472642
vt 0.966833 0.664388
vt 0.966833 0.616448
vt 0.966833 0.568508
vt 0.966833 0.520568
vt 0.966833 0.472628
vt 0.973447 0.712315
vt 0.973447 0.664375
vt 0.973447 0.616435
vt 0.973447 0.568494
vt 0.973447 0.520555
vt 0.973447 0.472615
vt 0.980060 0.760241
vt 0.980060 0.712301
vt 0.980060 0.664361
vt 0.980060 0.616421
vt 0.980060 0.568481
vt 0.980060 0.520541
vt 0.980060 0.472601
vt 0.986673 0.808167
vt 0.986673 0.760227
vt 0.986673 0.712287
vt 0.986673 0.664347
vt 0.986673 0.616407
vt 0.986673 0.568467
vt 0.986673 0.520527
vt 0.986673 0.472587
vt 0.993287 0.856094
vt 0.993287 0.808154
vt 0.993287 0.760214
vt 0.993287 0.712274
vt 0.993287 0.664334
vt 0.993287 0.616394
vt 0.993287 0.568454
vt 0.993287 0.520514
vt 0.993287 0.472574
vt 0.999900 0.904020
vt 0.999900 0.856080
vt 0.999900 0.808140
vt 0.999900 0.760200
vt 0.999900 0.712260
vt 0.999900 0.664320
vt 0.999900 0.616380
vt 0.999900 0.568440
vt 0.999900 0.520500
vt 0.999900 0.472560
vt 0.942608 0.999900
vt 0.887006 0.960725
vt 0.886162 0.980313
vt 0.830559 0.941138
vt 0.829715 0.960725
vt 0.774113 0.921550
vt 0.773268 0.941138
vt 0.717666 0.901963
vt 0.716821 0.921550
vt 0.661219 0.882375
vt 0.660374 0.901963
vt 0.604772 0.862788
vt 0.603927 0.882375
vt 0.548325 0.843200
vt 0.547481 0.862788
vt 0.491879 0.823613
vt 0.491034 0.843200
vt 0.434587 0.823613
vt 0.885317 0.999900
vt 0.828870 0.980313
vt 0.828025 0.999900
vt 0.772423 0.960725
vt 0.771578 0.980313
vt 0.770733 0.999900
vt 0.715976 0.941138
vt 0.715131 0.960725
vt 0.714287 0.980313
vt 0.713442 0.999900
vt 0.659529 0.921550
vt 0.658685 0.941138
vt 0.657840 0.960725
vt 0.656995 0.980313
vt 0.656150 0.999900
vt 0.603083 0.901963
vt 0.602238 0.921550
vt 0.601393 0.941138
vt 0.600548 0.960725
vt 0.599703 0.980313
vt 0.598859 0.999900
vt 0.546636 0.882375
vt 0.545791 0.901963
vt 0.544946 0.921550
vt 0.544101 0.941138
vt 0.543257 0.960725
vt 0.542412 0.980313
vt 0.541567 0.999900
vt 0.490189 0.862788
vt 0.489344 0.882375
vt 0.488499 0.901963
vt 0.487655 0.921550
vt 0.486810 0.941138
vt 0.485965 0.960725
vt 0.485120 0.980312
vt 0.484275 0.999900
vt 0.433742 0.843200
vt 0.432897 0.862788
vt 0.432053 0.882375
vt 0.431208 0.901963
vt 0.430363 0.921550
vt 0.429518 0.941138
vt 0.428673 0.960725
vt 0.427828 0.980313
vt 0.426984 0.999900
vt 0.377295 0.823613
vt 0.376451 0.843200
vt 0.375606 0.862788
vt 0.374761 0.882375
vt 0.373916 0.901963
vt 0.373071 0.921550
vt 0.372226 0.941138
vt 0.371382 0.960725
vt 0.370537 0.980313
vt 0.391164 0.502050
vt 0.440998 0.473711
vt 0.392382 0.473811
vt 0.389946 0.530289
vt 0.439780 0.501950
vt 0.388728 0.558527
vt 0.438562 0.530189
vt 0.387510 0.586766
vt 0.437344 0.558427
vt 0.386292 0.615005
vt 0.436126 0.586666
vt 0.385074 0.643244
vt 0.434908 0.614905
vt 0.383857 0.671483
vt 0.433690 0.643144
vt 0.382639 0.699722
vt 0.432472 0.671383
vt 0.381421 0.727960
vt 0.431254 0.699621
vt 0.430036 0.727860
vt 0.489613 0.473611
vt 0.488395 0.501850
vt 0.538229 0.473511
vt 0.487177 0.530088
vt 0.537011 0.501750
vt 0.586844 0.473411
vt 0.485959 0.558327
vt 0.535793 0.529988
vt 0.585626 0.501649
vt 0.635460 0.473310
vt 0.484741 0.586566
vt 0.534575 0.558227
vt 0.584408 0.529888
vt 0.634242 0.501549
vt 0.684075 0.473210
vt 0.483524 0.614805
vt 0.533357 0.586466
vt 0.583190 0.558127
vt 0.633024 0.529788
vt 0.682857 0.501449
vt 0.732691 0.473110
vt 0.482306 0.643044
vt 0.532139 0.614705
vt 0.581972 0.586366
vt 0.631806 0.558027
vt 0.681639 0.529688
vt 0.731473 0.501349
vt 0.781306 0.473010
vt 0.481088 0.671283
vt 0.530921 0.642944
vt 0.580755 0.614605
vt 0.630588 0.586266
vt 0.680421 0.557927
vt 0.730255 0.529588
vt 0.780088 0.501249
vt 0.829922 0.472910
vt 0.479870 0.699521
vt 0.529703 0.671182
vt 0.579537 0.642844
vt 0.629370 0.614505
vt 0.679204 0.586166
vt 0.729037 0.557827
vt 0.778871 0.529488
vt 0.828704 0.501149
vt 0.878537 0.472810
vt 0.478652 0.727760
vt 0.528485 0.699421
vt 0.578319 0.671082
vt 0.628152 0.642743
vt 0.677986 0.614405
vt 0.727819 0.586066
vt 0.777653 0.557727
vt 0.827486 0.529388
vt 0.877320 0.501049
vt 0.485265 0.775687
vt 0.541712 0.795274
vt 0.598159 0.814862
vt 0.654606 0.834449
vt 0.711052 0.854036
vt 0.767499 0.873624
vt 0.823946 0.893211
vt 0.880393 0.912799
vt 0.936840 0.932386
vt 0.535099 0.747348
vt 0.591545 0.766935
vt 0.584932 0.719009
vt 0.647992 0.786523
vt 0.641379 0.738596
vt 0.634766 0.690670
vt 0.704439 0.806110
vt 0.697826 0.758184
vt 0.691212 0.710257
vt 0.684599 0.662331
vt 0.760886 0.825697
vt 0.754273 0.777771
vt 0.747659 0.729845
vt 0.741046 0.681918
vt 0.734433 0.633992
vt 0.817333 0.845285
vt 0.810719 0.797359
vt 0.804106 0.749432
vt 0.797493 0.701506
vt 0.790879 0.653579
vt 0.784266 0.605653
vt 0.873780 0.864872
vt 0.867166 0.816946
vt 0.860553 0.769020
vt 0.853940 0.721093
vt 0.847326 0.673167
vt 0.840713 0.625241
vt 0.834099 0.577314
vt 0.930226 0.884460
vt 0.923613 0.836533
vt 0.917000 0.788607
vt 0.910386 0.740681
vt 0.903773 0.692754
vt 0.897160 0.644828
vt 0.890546 0.596902
vt 0.883933 0.548975
s 1
usemtl material_24.010
f 5/1/1 6/2/1 7/1/1
f 3/3/2 25/4/3 26/5/4
f 25/4/3 4/3/2 27/6/5
f 12/1/6 13/1/7 14/2/8
f 12/1/6 14/2/8 15/2/9
f 10/7/10 21/8/11 20/9/12
f 10/7/10 22/10/13 11/1/14
f 1/1/15 18/10/15 17/11/15
f 1/1/15 19/12/16 2/1/15
f 16/7/17 44/13/17 34/14/17
f 23/15/17 54/16/17 64/17/17
f 8/3/18 29/5/18 28/5/18
f 8/3/19 30/5/19 9/3/19
f 3/3/2 4/3/2 25/4/3
f 10/7/10 20/9/12 22/10/13
f 1/1/15 17/11/15 19/12/16
f 23/15/17 84/18/17 43/19/17
f 16/7/17 104/20/17 44/13/17
f 8/3/20 28/5/21 30/5/20
f 53/21/17 114/22/22 31/23/17
f 52/24/17 124/25/17 53/21/17
f 51/26/17 125/27/22 52/24/17
f 50/28/17 127/29/17 51/26/17
f 49/30/17 130/31/17 50/28/17
f 48/32/17 134/33/22 49/30/17
f 47/34/17 139/35/17 48/32/17
f 46/36/22 145/37/17 47/34/17
f 45/38/22 152/39/22 46/36/22
f 44/13/17 160/40/22 45/38/22
f 53/21/17 124/25/17 114/22/22
f 124/25/17 115/41/22 114/22/22
f 52/24/17 125/27/22 124/25/17
f 125/27/22 126/42/17 124/25/17
f 124/25/17 126/42/17 115/41/22
f 126/42/17 116/43/17 115/41/22
f 51/26/17 127/29/17 125/27/22
f 127/29/17 128/44/17 125/27/22
f 125/27/22 128/44/17 126/42/17
f 128/44/17 129/45/17 126/42/17
f 126/42/17 129/45/17 116/43/17
f 129/45/17 117/46/17 116/43/17
f 50/28/17 130/31/17 127/29/17
f 130/31/17 131/47/17 127/29/17
f 127/29/17 131/47/17 128/44/17
f 131/47/17 132/48/17 128/44/17
f 128/44/17 132/48/17 129/45/17
f 132/48/17 133/49/17 129/45/17
f 129/45/17 133/49/17 117/46/17
f 133/49/17 118/50/22 117/46/17
f 49/30/17 134/33/22 130/31/17
f 134/33/22 135/51/22 130/31/17
f 130/31/17 135/51/22 131/47/17
f 135/51/22 136/52/17 131/47/17
f 131/47/17 136/52/17 132/48/17
f 136/52/17 137/53/22 132/48/17
f 132/48/17 137/53/22 133/49/17
f 137/53/22 138/54/17 133/49/17
f 133/49/17 138/54/17 118/50/22
f 138/54/17 119/55/22 118/50/22
f 48/32/17 139/35/17 134/33/22
f 139/35/17 140/56/22 134/33/22
f 134/33/22 140/56/22 135/51/22
f 140/56/22 141/57/22 135/51/22
f 135/51/22 141/57/22 136/52/17
f 141/57/22 142/58/17 136/52/17
f 136/52/17 142/58/17 137/53/22
f 142/58/17 143/59/17 137/53/22
f 137/53/22 143/59/17 138/54/17
f 143/59/17 144/60/17 138/54/17
f 138/54/17 144/60/17 119/55/22
f 144/60/17 120/61/17 119/55/22
f 47/34/17 145/37/17 139/35/17
f 145/37/17 146/62/17 139/35/17
f 139/35/17 146/62/17 140/56/22
f 146/62/17 147/63/22 140/56/22
f 140/56/22 147/63/22 141/57/22
f 147/63/22 148/64/22 141/57/22
f 141/57/22 148/64/22 142/58/17
f 148/64/22 149/65/17 142/58/17
f 142/58/17 149/65/17 143/59/17
f 149/65/17 150/66/17 143/59/17
f 143/59/17 150/66/17 144/60/17
f 150/66/17 151/67/17 144/60/17
f 144/60/17 151/67/17 120/61/17
f 151/67/17 121/68/17 120/61/17
f 46/36/22 152/39/22 145/37/17
f 152/39/22 153/69/17 145/37/17
f 145/37/17 153/69/17 146/62/17
f 153/69/17 154/70/17 146/62/17
f 146/62/17 154/70/17 147/63/22
f 154/70/17 155/71/17 147/63/22
f 147/63/22 155/71/17 148/64/22
f 155/71/17 156/72/22 148/64/22
f 148/64/22 156/72/22 149/65/17
f 156/72/22 157/73/22 149/65/17
f 149/65/17 157/73/22 150/66/17
f 157/73/22 158/74/17 150/66/17
f 150/66/17 158/74/17 151/67/17
f 158/74/17 159/75/22 151/67/17
f 151/67/17 159/75/22 121/68/17
f 159/75/22 122/76/17 121/68/17
f 45/38/22 160/40/22 152/39/22
f 160/40/22 161/77/22 152/39/22
f 152/39/22 161/77/22 153/69/17
f 161/77/22 162/78/17 153/69/17
f 153/69/17 162/78/17 154/70/17
f 162/78/17 163/79/17 154/70/17
f 154/70/17 163/79/17 155/71/17
f 163/79/17 164/80/17 155/71/17
f 155/71/17 164/80/17 156/72/22
f 164/80/17 165/81/22 156/72/22
f 156/72/22 165/81/22 157/73/22
f 165/81/22 166/82/17 157/73/22
f 157/73/22 166/82/17 158/74/17
f 166/82/17 167/83/17 158/74/17
f 158/74/17 167/83/17 159/75/22
f 167/83/17 168/84/22 159/75/22
f 159/75/22 168/84/22 122/76/17
f 168/84/22 123/85/17 122/76/17
f 44/13/17 104/20/17 160/40/22
f 104/20/17 105/86/22 160/40/22
f 160/40/22 105/86/22 161/77/22
f 105/86/22 106/87/22 161/77/22
f 161/77/22 106/87/22 162/78/17
f 106/87/22 107/88/17 162/78/17
f 162/78/17 107/88/17 163/79/17
f 107/88/17 108/89/17 163/79/17
f 163/79/17 108/89/17 164/80/17
f 108/89/17 109/90/17 164/80/17
f 164/80/17 109/90/17 165/81/22
f 109/90/17 110/91/22 165/81/22
f 165/81/22 110/91/22 166/82/17
f 110/91/22 111/92/17 166/82/17
f 166/82/17 111/92/17 167/83/17
f 111/92/17 112/93/22 167/83/17
f 167/83/17 112/93/22 168/84/22
f 112/93/22 113/94/22 168/84/22
f 168/84/22 113/94/22 123/85/17
f 113/94/22 32/95/17 123/85/17
f 34/14/17 94/96/17 16/7/17
f 35/97/17 169/98/17 34/14/17
f 36/99/17 170/100/17 35/97/17
f 37/101/17 172/102/17 36/99/17
f 38/103/17 175/104/17 37/101/17
f 39/105/17 179/106/17 38/103/17
f 40/107/17 184/108/17 39/105/17
f 41/109/17 190/110/17 40/107/17
f 42/111/17 197/112/17 41/109/17
f 43/19/17 205/113/17 42/111/17
f 34/14/17 169/98/17 94/96/17
f 169/98/17 95/114/17 94/96/17
f 35/97/17 170/100/17 169/98/17
f 170/100/17 171/115/17 169/98/17
f 169/98/17 171/115/17 95/114/17
f 171/115/17 96/116/17 95/114/17
f 36/99/17 172/102/17 170/100/17
f 172/102/17 173/117/17 170/100/17
f 170/100/17 173/117/17 171/115/17
f 173/117/17 174/118/17 171/115/17
f 171/115/17 174/118/17 96/116/17
f 174/118/17 97/119/17 96/116/17
f 37/101/17 175/104/17 172/102/17
f 175/104/17 176/120/17 172/102/17
f 172/102/17 176/120/17 173/117/17
f 176/120/17 177/121/17 173/117/17
f 173/117/17 177/121/17 174/118/17
f 177/121/17 178/122/17 174/118/17
f 174/118/17 178/122/17 97/119/17
f 178/122/17 98/123/17 97/119/17
f 38/103/17 179/106/17 175/104/17
f 179/106/17 180/124/17 175/104/17
f 175/104/17 180/124/17 176/120/17
f 180/124/17 181/125/17 176/120/17
f 176/120/17 181/125/17 177/121/17
f 181/125/17 182/126/17 177/121/17
f 177/121/17 182/126/17 178/122/17
f 182/126/17 183/127/17 178/122/17
f 178/122/17 183/127/17 98/123/17
f 183/127/17 99/128/17 98/123/17
f 39/105/17 184/108/17 179/106/17
f 184/108/17 185/129/17 179/106/17
f 179/106/17 185/129/17 180/124/17
f 185/129/17 186/130/17 180/124/17
f 180/124/17 186/130/17 181/125/17
f 186/130/17 187/131/17 181/125/17
f 181/125/17 187/131/17 182/126/17
f 187/131/17 188/132/17 182/126/17
f 182/126/17 188/132/17 183/127/17
f 188/132/17 189/133/17 183/127/17
f 183/127/17 189/133/17 99/128/17
f 189/133/17 100/134/17 99/128/17
f 40/107/17 190/110/17 184/108/17
f 190/110/17 191/135/17 184/108/17
f 184/108/17 191/135/17 185/129/17
f 191/135/17 192/136/17 185/129/17
f 185/129/17 192/136/17 186/130/17
f 192/136/17 193/137/17 186/130/17
f 186/130/17 193/137/17 187/131/17
f 193/137/17 194/138/17 187/131/17
f 187/131/17 194/138/17 188/132/17
f 194/138/17 195/139/17 188/132/17
f 188/132/17 195/139/17 189/133/17
f 195/139/17 196/140/17 189/133/17
f 189/133/17 196/140/17 100/134/17
f 196/140/17 101/141/17 100/134/17
f 41/109/17 197/112/17 190/110/17
f 197/112/17 198/142/17 190/110/17
f 190/110/17 198/142/17 191/135/17
f 198/142/17 199/143/17 191/135/17
f 191/135/17 199/143/17 192/136/17
f 199/143/17 200/144/17 192/136/17
f 192/136/17 200/144/17 193/137/17
f 200/144/17 201/145/17 193/137/17
f 193/137/17 201/145/17 194/138/17
f 201/145/17 202/146/17 194/138/17
f 194/138/17 202/146/17 195/139/17
f 202/146/17 203/147/17 195/139/17
f 195/139/17 203/147/17 196/140/17
f 203/147/17 204/148/17 196/140/17
f 196/140/17 204/148/17 101/141/17
f 204/148/17 102/149/17 101/141/17
f 42/111/17 205/113/17 197/112/17
f 205/113/17 206/150/17 197/112/17
f 197/112/17 206/150/17 198/142/17
f 206/150/17 207/151/17 198/142/17
f 198/142/17 207/151/17 199/143/17
f 207/151/17 208/152/17 199/143/17
f 199/143/17 208/152/17 200/144/17
f 208/152/17 209/153/17 200/144/17
f 200/144/17 209/153/17 201/145/17
f 209/153/17 210/154/17 201/145/17
f 201/145/17 210/154/17 202/146/17
f 210/154/17 211/155/17 202/146/17
f 202/146/17 211/155/17 203/147/17
f 211/155/17 212/156/17 203/147/17
f 203/147/17 212/156/17 204/148/17
f 212/156/17 213/157/17 204/148/17
f 204/148/17 213/157/17 102/149/17
f 213/157/17 103/158/17 102/149/17
f 43/19/17 84/18/17 205/113/17
f 84/18/17 85/159/17 205/113/17
f 205/113/17 85/159/17 206/150/17
f 85/159/17 86/160/17 206/150/17
f 206/150/17 86/160/17 207/151/17
f 86/160/17 87/161/17 207/151/17
f 207/151/17 87/161/17 208/152/17
f 87/161/17 88/162/17 208/152/17
f 208/152/17 88/162/17 209/153/17
f 88/162/17 89/163/17 209/153/17
f 209/153/17 89/163/17 210/154/17
f 89/163/17 90/164/17 210/154/17
f 210/154/17 90/164/17 211/155/17
f 90/164/17 91/165/17 211/155/17
f 211/155/17 91/165/17 212/156/17
f 91/165/17 92/166/17 212/156/17
f 212/156/17 92/166/17 213/157/17
f 92/166/17 93/167/17 213/157/17
f 213/157/17 93/167/17 103/158/17
f 93/167/17 24/8/22 103/158/17
f 73/168/17 83/169/17 33/170/17
f 72/171/17 214/172/17 73/168/17
f 71/173/17 215/174/17 72/171/17
f 70/175/17 217/176/17 71/173/17
f 69/177/17 220/178/17 70/175/17
f 68/179/17 224/180/17 69/177/17
f 67/181/17 229/182/17 68/179/17
f 66/183/17 235/184/17 67/181/17
f 65/185/17 242/186/17 66/183/17
f 64/17/17 250/187/17 65/185/17
f 73/168/17 214/172/17 83/169/17
f 214/172/17 82/188/17 83/169/17
f 72/171/17 215/174/17 214/172/17
f 215/174/17 216/189/17 214/172/17
f 214/172/17 216/189/17 82/188/17
f 216/189/17 81/190/17 82/188/17
f 71/173/17 217/176/17 215/174/17
f 217/176/17 218/191/17 215/174/17
f 215/174/17 218/191/17 216/189/17
f 218/191/17 219/192/17 216/189/17
f 216/189/17 219/192/17 81/190/17
f 219/192/17 80/193/17 81/190/17
f 70/175/17 220/178/17 217/176/17
f 220/178/17 221/194/17 217/176/17
f 217/176/17 221/194/17 218/191/17
f 221/194/17 222/195/17 218/191/17
f 218/191/17 222/195/17 219/192/17
f 222/195/17 223/196/17 219/192/17
f 219/192/17 223/196/17 80/193/17
f 223/196/17 79/197/17 80/193/17
f 69/177/17 224/180/17 220/178/17
f 224/180/17 225/198/17 220/178/17
f 220/178/17 225/198/17 221/194/17
f 225/198/17 226/199/17 221/194/17
f 221/194/17 226/199/17 222/195/17
f 226/199/17 227/200/17 222/195/17
f 222/195/17 227/200/17 223/196/17
f 227/200/17 228/201/17 223/196/17
f 223/196/17 228/201/17 79/197/17
f 228/201/17 78/202/17 79/197/17
f 68/179/17 229/182/17 224/180/17
f 229/182/17 230/203/17 224/180/17
f 224/180/17 230/203/17 225/198/17
f 230/203/17 231/204/17 225/198/17
f 225/198/17 231/204/17 226/199/17
f 231/204/17 232/205/17 226/199/17
f 226/199/17 232/205/17 227/200/17
f 232/205/17 233/206/17 227/200/17
f 227/200/17 233/206/17 228/201/17
f 233/206/17 234/207/17 228/201/17
f 228/201/17 234/207/17 78/202/17
f 234/207/17 77/208/17 78/202/17
f 67/181/17 235/184/17 229/182/17
f 235/184/17 236/209/17 229/182/17
f 229/182/17 236/209/17 230/203/17
f 236/209/17 237/210/17 230/203/17
f 230/203/17 237/210/17 231/204/17
f 237/210/17 238/211/17 231/204/17
f 231/204/17 238/211/17 232/205/17
f 238/211/17 239/212/17 232/205/17
f 232/205/17 239/212/17 233/206/17
f 239/212/17 240/213/17 233/206/17
f 233/206/17 240/213/17 234/207/17
f 240/213/17 241/214/17 234/207/17
f 234/207/17 241/214/17 77/208/17
f 241/214/17 76/215/17 77/208/17
f 66/183/17 242/186/17 235/184/17
f 242/186/17 243/216/17 235/184/17
f 235/184/17 243/216/17 236/209/17
f 243/216/17 244/217/17 236/209/17
f 236/209/17 244/217/17 237/210/17
f 244/217/17 245/218/17 237/210/17
f 237/210/17 245/218/17 238/211/17
f 245/218/17 246/219/17 238/211/17
f 238/211/17 246/219/17 239/212/17
f 246/219/17 247/220/17 239/212/17
f 239/212/17 247/220/17 240/213/17
f 247/220/17 248/221/17 240/213/17
f 240/213/17 248/221/17 241/214/17
f 248/221/17 249/222/17 241/214/17
f 241/214/17 249/222/17 76/215/17
f 249/222/17 75/223/17 76/215/17
f 65/185/17 250/187/17 242/186/17
f 250/187/17 251/224/17 242/186/17
f 242/186/17 251/224/17 243/216/17
f 251/224/17 252/225/17 243/216/17
f 243/216/17 252/225/17 244/217/17
f 252/225/17 253/226/17 244/217/17
f 244/217/17 253/226/17 245/218/17
f 253/226/17 254/227/17 245/218/17
f 245/218/17 254/227/17 246/219/17
f 254/227/17 255/228/17 246/219/17
f 246/219/17 255/228/17 247/220/17
f 255/228/17 256/229/17 247/220/17
f 247/220/17 256/229/17 248/221/17
f 256/229/17 257/230/17 248/221/17
f 248/221/17 257/230/17 249/222/17
f 257/230/17 258/231/17 249/222/17
f 249/222/17 258/231/17 75/223/17
f 258/231/17 74/232/17 75/223/17
f 64/17/17 54/16/17 250/187/17
f 54/16/17 55/233/17 250/187/17
f 250/187/17 55/233/17 251/224/17
f 55/233/17 56/234/17 251/224/17
f 251/224/17 56/234/17 252/225/17
f 56/234/17 57/235/17 252/225/17
f 252/225/17 57/235/17 253/226/17
f 57/235/17 58/236/17 253/226/17
f 253/226/17 58/236/17 254/227/17
f 58/236/17 59/237/17 254/227/17
f 254/227/17 59/237/17 255/228/17
f 59/237/17 60/238/17 255/228/17
f 255/228/17 60/238/17 256/229/17
f 60/238/17 61/239/17 256/229/17
f 256/229/17 61/239/17 257/230/17
f 61/239/17 62/240/17 257/230/17
f 257/230/17 62/240/17 258/231/17
f 62/240/17 63/241/17 258/231/17
f 258/231/17 63/241/17 74/232/17
f 63/241/17 31/23/17 74/232/17
f 43/19/17 54/16/17 23/15/17
f 42/111/17 259/242/17 43/19/17
f 41/109/17 260/243/17 42/111/17
f 40/107/17 262/244/17 41/109/17
f 39/105/17 265/245/17 40/107/17
f 38/103/17 269/246/17 39/105/17
f 37/101/17 274/247/17 38/103/17
f 36/99/17 280/248/17 37/101/17
f 35/97/17 287/249/17 36/99/17
f 34/14/17 295/250/17 35/97/17
f 43/19/17 259/242/17 54/16/17
f 259/242/17 55/233/17 54/16/17
f 42/111/17 260/243/17 259/242/17
f 260/243/17 261/251/17 259/242/17
f 259/242/17 261/251/17 55/233/17
f 261/251/17 56/234/17 55/233/17
f 41/109/17 262/244/17 260/243/17
f 262/244/17 263/252/17 260/243/17
f 260/243/17 263/252/17 261/251/17
f 263/252/17 264/253/17 261/251/17
f 261/251/17 264/253/17 56/234/17
f 264/253/17 57/235/17 56/234/17
f 40/107/17 265/245/17 262/244/17
f 265/245/17 266/254/17 262/244/17
f 262/244/17 266/254/17 263/252/17
f 266/254/17 267/255/17 263/252/17
f 263/252/17 267/255/17 264/253/17
f 267/255/17 268/256/17 264/253/17
f 264/253/17 268/256/17 57/235/17
f 268/256/17 58/236/17 57/235/17
f 39/105/17 269/246/17 265/245/17
f 269/246/17 270/257/17 265/245/17
f 265/245/17 270/257/17 266/254/17
f 270/257/17 271/258/17 266/254/17
f 266/254/17 271/258/17 267/255/17
f 271/258/17 272/259/17 267/255/17
f 267/255/17 272/259/17 268/256/17
f 272/259/17 273/260/17 268/256/17
f 268/256/17 273/260/17 58/236/17
f 273/260/17 59/237/17 58/236/17
f 38/103/17 274/247/17 269/246/17
f 274/247/17 275/261/17 269/246/17
f 269/246/17 275/261/17 270/257/17
f 275/261/17 276/262/17 270/257/17
f 270/257/17 276/262/17 271/258/17
f 276/262/17 277/263/17 271/258/17
f 271/258/17 277/263/17 272/259/17
f 277/263/17 278/264/17 272/259/17
f 272/259/17 278/264/17 273/260/17
f 278/264/17 279/265/17 273/260/17
f 273/260/17 279/265/17 59/237/17
f 279/265/17 60/238/17 59/237/17
f 37/101/17 280/248/17 274/247/17
f 280/248/17 281/266/17 274/247/17
f 274/247/17 281/266/17 275/261/17
f 281/266/17 282/267/17 275/261/17
f 275/261/17 282/267/17 276/262/17
f 282/267/17 283/268/17 276/262/17
f 276/262/17 283/268/17 277/263/17
f 283/268/17 284/269/17 277/263/17
f 277/263/17 284/269/17 278/264/17
f 284/269/17 285/270/17 278/264/17
f 278/264/17 285/270/17 279/265/17
f 285/270/17 286/271/17 279/265/17
f 279/265/17 286/271/17 60/238/17
f 286/271/17 61/239/17 60/238/17
f 36/99/17 287/249/17 280/248/17
f 287/249/17 288/272/17 280/248/17
f 280/248/17 288/272/17 281/266/17
f 288/272/17 289/273/17 281/266/17
f 281/266/17 289/273/17 282/267/17
f 289/273/17 290/274/17 282/267/17
f 282/267/17 290/274/17 283/268/17
f 290/274/17 291/275/17 283/268/17
f 283/268/17 291/275/17 284/269/17
f 291/275/17 292/276/17 284/269/17
f 284/269/17 292/276/17 285/270/17
f 292/276/17 293/277/17 285/270/17
f 285/270/17 293/277/17 286/271/17
f 293/277/17 294/278/17 286/271/17
f 286/271/17 294/278/17 61/239/17
f 294/278/17 62/240/17 61/239/17
f 35/97/17 295/250/17 287/249/17
f 295/250/17 296/279/17 287/249/17
f 287/249/17 296/279/17 288/272/17
f 296/279/17 297/280/17 288/272/17
f 288/272/17 297/280/17 289/273/17
f 297/280/17 298/281/17 289/273/17
f 289/273/17 298/281/17 290/274/17
f 298/281/17 299/282/17 290/274/17
f 290/274/17 299/282/17 291/275/17
f 299/282/17 300/283/17 291/275/17
f 291/275/17 300/283/17 292/276/17
f 300/283/17 301/284/17 292/276/17
f 292/276/17 301/284/17 293/277/17
f 301/284/17 302/285/17 293/277/17
f 293/277/17 302/285/17 294/278/17
f 302/285/17 303/286/17 294/278/17
f 294/278/17 303/286/17 62/240/17
f 303/286/17 63/241/17 62/240/17
f 34/14/17 44/13/17 295/250/17
f 44/13/17 45/38/22 295/250/17
f 295/250/17 45/38/22 296/279/17
f 45/38/22 46/36/22 296/279/17
f 296/279/17 46/36/22 297/280/17
f 46/36/22 47/34/17 297/280/17
f 297/280/17 47/34/17 298/281/17
f 47/34/17 48/32/17 298/281/17
f 298/281/17 48/32/17 299/282/17
f 48/32/17 49/30/17 299/282/17
f 299/282/17 49/30/17 300/283/17
f 49/30/17 50/28/17 300/283/17
f 300/283/17 50/28/17 301/284/17
f 50/28/17 51/26/17 301/284/17
f 301/284/17 51/26/17 302/285/17
f 51/26/17 52/24/17 302/285/17
f 302/285/17 52/24/17 303/286/17
f 52/24/17 53/21/17 303/286/17
f 303/286/17 53/21/17 63/241/17
f 53/21/17 31/23/17 63/241/17
