# Blender 5.1.1
# www.blender.org
mtllib WallDetail.mtl
o Cube.000_0
v 5.535003 6.958811 -8.125829
v 5.501127 6.944440 -8.024072
v 5.269423 6.910051 -8.837866
v 5.535003 6.958811 -8.125829
v 5.501127 6.944440 -8.024072
v 5.237781 6.896058 -8.730580
v -5.142637 3.801609 -6.750874
v -5.083714 3.814631 -6.661068
v -5.073422 3.849017 -7.509665
v -3.292161 4.528953 -11.993349
v -3.249882 4.535647 -11.862411
v -5.015185 3.861624 -7.413931
v -2.795746 4.687660 -12.385461
v 1.846993 6.061768 -12.983306
v 1.844571 6.055141 -12.844056
v -2.757822 4.692973 -12.251407
v 2.413536 6.217666 -12.728071
v 5.269423 6.910051 -8.837866
v 5.237781 6.896058 -8.730580
v 2.406228 6.209682 -12.590749
v -3.292161 4.528953 -11.993349
v -2.795746 4.687660 -12.385461
v -2.757822 4.692973 -12.251407
v -3.249882 4.535647 -11.862411
v -5.142637 3.801609 -6.750874
v -5.073422 3.849017 -7.509665
v -5.015185 3.861624 -7.413931
v -5.083714 3.814631 -6.661068
v 1.846993 6.061768 -12.983306
v 2.413536 6.217666 -12.728071
v 2.406228 6.209682 -12.590749
v 1.844571 6.055141 -12.844056
v 5.442682 7.275891 -8.114404
v 5.408319 7.263206 -8.012588
v 5.177104 7.227127 -8.826440
v 5.144976 7.214825 -8.719094
v 5.408319 7.263206 -8.012588
v 5.442682 7.275891 -8.114404
v -5.176519 4.133396 -6.649582
v -5.234951 4.118687 -6.739450
v -5.165739 4.166094 -7.498240
v -5.107990 4.180392 -7.402441
v -3.342691 4.854414 -11.850927
v -3.384474 4.846032 -11.981924
v -2.888064 5.004737 -12.374036
v -2.850631 5.011739 -12.239916
v 1.751766 6.373908 -12.832567
v 1.754675 6.378844 -12.971881
v 2.321219 6.534742 -12.716645
v 2.313422 6.528450 -12.579266
v 5.144976 7.214825 -8.719094
v 5.177104 7.227127 -8.826440
v -3.384474 4.846032 -11.981924
v -3.342691 4.854414 -11.850927
v -2.850631 5.011739 -12.239916
v -2.888064 5.004737 -12.374036
v -5.234951 4.118687 -6.739450
v -5.176519 4.133396 -6.649582
v -5.107990 4.180392 -7.402441
v -5.165739 4.166094 -7.498240
v 1.754675 6.378844 -12.971881
v 1.751766 6.373908 -12.832567
v 2.313422 6.528450 -12.579266
v 2.321219 6.534742 -12.716645
v -2.757822 4.692973 -12.251407
v -2.850631 5.011739 -12.239916
v -3.342691 4.854414 -11.850927
v -3.249882 4.535647 -11.862411
v 5.408319 7.263206 -8.012588
v 5.501127 6.944440 -8.024072
v -5.083714 3.814631 -6.661068
v -5.176519 4.133396 -6.649582
v 5.501127 6.944440 -8.024072
v 5.408319 7.263206 -8.012588
v 5.144976 7.214825 -8.719094
v 5.237781 6.896058 -8.730580
v 5.237781 6.896058 -8.730580
v 5.144976 7.214825 -8.719094
v 2.313422 6.528450 -12.579266
v 2.406228 6.209682 -12.590749
v -5.015185 3.861624 -7.413931
v -5.107990 4.180392 -7.402441
v -5.176519 4.133396 -6.649582
v -5.083714 3.814631 -6.661068
v 2.406228 6.209682 -12.590749
v 2.313422 6.528450 -12.579266
v 1.751766 6.373908 -12.832567
v 1.844571 6.055141 -12.844056
v -3.249882 4.535647 -11.862411
v -3.342691 4.854414 -11.850927
v -5.107990 4.180392 -7.402441
v -5.015185 3.861624 -7.413931
v 1.844571 6.055141 -12.844056
v 1.751766 6.373908 -12.832567
v -2.850631 5.011739 -12.239916
v -2.757822 4.692973 -12.251407
v 7.159526 6.972334 4.708615
v 7.181421 6.979208 4.706799
v 7.134991 6.964659 4.710649
v -3.531639 3.827055 5.599627
v -3.557421 3.819972 5.601785
v -3.510526 3.832854 5.597858
v 7.067330 7.290212 4.722851
v 7.042544 7.283430 4.724927
v 7.089460 7.296290 4.721001
v -3.623872 4.145062 5.613869
v -3.602974 4.151624 5.612134
v -3.649381 4.137054 5.615984
v 7.085976 7.133674 4.718222
v 7.042544 7.283430 4.724925
v 7.134991 6.964659 4.710649
v -3.552334 3.977012 5.604314
v -3.602974 4.151624 5.612135
v -3.510526 3.832854 5.597858
vn 0.2848 -0.9577 -0.0406
vn 0.2850 -0.9577 -0.0407
vn 0.2622 -0.9645 -0.0322
vn 0.2623 -0.9645 -0.0322
vn 0.2708 -0.9619 -0.0383
vn 0.2710 -0.9618 -0.0382
vn 0.2787 -0.9595 -0.0408
vn 0.2868 -0.9571 -0.0402
vn 0.2870 -0.9571 -0.0404
vn 0.2756 -0.9605 -0.0399
vn 0.2673 -0.9630 -0.0358
vn 0.2673 -0.9629 -0.0358
vn 0.2821 -0.9585 -0.0407
vn -0.2627 0.9643 0.0319
vn -0.2621 0.9645 0.0317
vn -0.2966 0.9543 0.0366
vn -0.2880 0.9571 0.0307
vn -0.2882 0.9571 0.0307
vn -0.2804 0.9595 0.0282
vn -0.2804 0.9595 0.0281
vn -0.2721 0.9618 0.0286
vn -0.2723 0.9618 0.0287
vn -0.2835 0.9585 0.0291
vn -0.2916 0.9560 0.0331
vn -0.2770 0.9605 0.0283
vn -0.2770 0.9604 0.0283
vn 0.5856 0.1417 0.7981
vn -0.9517 -0.2815 0.1226
vn -0.8951 -0.2733 0.3523
vn -0.7610 -0.2432 0.6015
vn 0.9559 0.2745 0.1042
vn 0.9559 0.2746 0.1041
vn -0.3742 -0.1420 0.9164
vn 0.8880 0.2445 0.3894
vn 0.1273 0.0013 0.9919
vn 0.9517 0.2815 -0.1226
vn -0.2618 0.9646 0.0320
vn -0.2616 0.9647 0.0316
vn -0.2619 0.9646 0.0321
vn -0.2620 0.9645 0.0320
vn -0.2620 0.9646 0.0320
vn 0.2962 -0.9544 -0.0365
vn 0.2962 -0.9544 -0.0366
vn 0.2963 -0.9544 -0.0363
vn 0.2956 -0.9546 -0.0367
vn 0.2959 -0.9545 -0.0364
vn -0.2615 0.9647 0.0324
vn 0.2955 -0.9547 -0.0361
vn 0.2954 -0.9547 -0.0367
vt 0.470320 0.861380
vt 0.477950 0.838840
vt 0.475880 0.835900
vt 0.468310 0.858260
vt 0.000190 0.459668
vt 0.002260 0.835900
vt 0.001328 0.459633
vt 0.002260 0.459603
vt 0.007520 0.861490
vt 0.111260 0.989950
vt 0.112370 0.985840
vt 0.009530 0.858370
vt 0.135330 0.999860
vt 0.343080 0.999860
vt 0.342180 0.995670
vt 0.136230 0.995670
vt 0.366580 0.989950
vt 0.365470 0.985840
vt 0.000190 0.838840
vt 0.485960 0.861380
vt 0.487970 0.858260
vt 0.480410 0.835900
vt 0.478330 0.838840
vt 0.954952 0.459548
vt 0.954020 0.459517
vt 0.954020 0.835900
vt 0.956090 0.459582
vt 0.948760 0.861490
vt 0.946750 0.858370
vt 0.843910 0.985840
vt 0.845020 0.989950
vt 0.820950 0.999860
vt 0.820050 0.995670
vt 0.614110 0.995670
vt 0.613200 0.999860
vt 0.589700 0.989950
vt 0.590810 0.985840
vt 0.956090 0.838840
vt 0.985660 0.497050
vt 0.999810 0.497050
vt 0.999810 0.480020
vt 0.985660 0.480020
vt 0.964029 0.572708
vt 0.970676 0.572747
vt 0.970620 0.194230
vt 0.956470 0.194230
vt 0.956526 0.572664
vt 0.970740 0.171230
vt 0.956590 0.171230
vt 0.970730 0.029300
vt 0.956580 0.029300
vt 0.971120 0.858170
vt 0.985270 0.858170
vt 0.985260 0.835120
vt 0.971120 0.835120
vt 0.985660 0.660980
vt 0.999810 0.660980
vt 0.999810 0.644290
vt 0.985660 0.644290
vt 0.971140 0.999860
vt 0.985280 0.999860
vt 0.977524 0.470474
vt 0.971129 0.470512
vt 0.479311 0.444880
vt 0.478330 0.444851
vt 0.477950 0.444936
vt 0.476974 0.444965
vt 0.985269 0.470429
vt 0.480410 0.444914
vt 0.475880 0.445000
s 0
usemtl debord-mur
f 3/1/1 4/2/1 5/3/1
f 3/1/2 5/3/2 6/4/2
f 101/5/3 8/6/3 100/7/3
f 100/7/4 8/6/4 102/8/4
f 9/9/5 10/10/5 11/11/5
f 9/9/6 11/11/6 12/12/6
f 13/13/7 14/14/7 15/15/7
f 13/13/7 15/15/7 16/16/7
f 17/17/8 18/1/8 19/4/8
f 17/17/9 19/4/9 20/18/9
f 21/10/10 22/13/10 23/16/10
f 21/10/10 23/16/10 24/11/10
f 25/19/11 26/9/11 27/12/11
f 25/19/12 27/12/12 28/6/12
f 29/14/13 30/17/13 31/18/13
f 29/14/13 31/18/13 32/15/13
f 35/20/14 36/21/14 37/22/14
f 35/20/15 37/22/15 38/23/15
f 106/24/16 107/25/16 39/26/16
f 39/26/16 108/27/16 106/24/16
f 41/28/17 42/29/17 43/30/17
f 41/28/18 43/30/18 44/31/18
f 45/32/19 46/33/19 47/34/19
f 45/32/20 47/34/20 48/35/20
f 49/36/21 50/37/21 51/21/21
f 49/36/22 51/21/22 52/20/22
f 53/31/23 54/30/23 55/33/23
f 53/31/23 55/33/23 56/32/23
f 57/38/24 58/26/24 59/29/24
f 57/38/24 59/29/24 60/28/24
f 61/35/25 62/34/25 63/37/25
f 61/35/26 63/37/26 64/36/26
f 65/39/27 66/40/27 67/41/27
f 65/39/27 67/41/27 68/42/27
f 109/43/28 110/44/28 69/45/28
f 109/43/28 70/46/28 111/47/28
f 73/46/29 74/45/29 75/48/29
f 73/46/29 75/48/29 76/49/29
s 1
f 77/49/30 78/48/30 79/50/30
s 0
f 77/49/30 79/50/30 80/51/30
f 81/52/31 82/53/31 83/54/31
f 81/52/32 83/54/32 84/55/32
f 85/56/33 86/57/33 87/58/33
f 85/56/33 87/58/33 88/59/33
f 89/60/34 90/61/34 91/53/34
f 89/60/34 91/53/34 92/52/34
f 93/59/35 94/58/35 95/40/35
f 93/59/35 95/40/35 96/39/35
f 72/54/36 112/62/36 71/55/36
f 71/55/36 112/62/36 114/63/36
s 1
f 34/22/37 103/64/38 33/23/37
s 0
f 33/23/39 103/64/40 105/65/41
f 1/2/42 98/66/43 97/67/44
f 97/67/45 2/3/46 1/2/46
f 101/5/3 7/19/3 8/6/3
f 39/26/16 40/38/16 108/27/16
f 109/43/28 69/45/28 70/46/28
f 72/54/36 113/68/36 112/62/36
s 1
f 34/22/37 104/69/47 103/64/38
s 0
f 97/67/48 99/70/45 2/3/49
