# Blender 5.1.1
# www.blender.org
mtllib WindowBasic.mtl
o TexturesCom_WindowStainedGlass0084_1_M.000_0
v 13.645746 0.765503 -4.052809
v 13.134314 0.759579 -8.038100
v 11.079550 7.812233 -7.784897
v 11.590981 7.818158 -3.799605
v 14.529507 0.775740 2.833822
v 14.018074 0.769816 -1.151471
v 11.963310 7.822470 -0.898268
v 12.474742 7.828395 3.087024
vn 0.9517 0.2817 -0.1225
vt 0.000000 1.000000
vt 1.000000 1.000000
vt 1.000000 0.000000
vt 0.000000 0.000000
s 0
usemtl vitrail-bas
f 1/1/1 2/2/1 3/3/1
f 1/1/1 3/3/1 4/4/1
f 5/1/1 6/2/1 7/3/1
f 5/1/1 7/3/1 8/4/1
